<?xml version="1.0" encoding="UTF-8"?>
<svg id="Camada_1" xmlns="http://www.w3.org/2000/svg" version="1.1" viewBox="0 0 1004.4 757.9">
  <!-- Generator: Adobe Illustrator 30.5.1, SVG Export Plug-In . SVG Version: 2.1.4 Build 3)  -->
  <defs>
    <style>
      .st0 {
        fill: #095bd0;
      }

      .st1 {
        fill: #033562;
      }

      .st2 {
        fill: #7e696e;
      }

      .st3 {
        fill: #023562;
      }

      .st4 {
        fill: #d3121a;
      }

      .st5 {
        fill: #f2e8d6;
      }

      .st6 {
        fill: #07325f;
      }

      .st7 {
        fill: #043768;
      }

      .st8 {
        fill: #0f5ac2;
      }

      .st9 {
        fill: #023664;
      }

      .st10 {
        fill: #bec191;
      }

      .st11 {
        fill: #075cd6;
      }

      .st12 {
        fill: #c8d5e1;
      }

      .st13 {
        fill: #021f35;
      }

      .st14 {
        fill: #023663;
      }

      .st15 {
        fill: #033664;
      }
    </style>
  </defs>
  <g>
    <path class="st11" d="M668.9,162.8c1.8,1.3-.3,3.4-.6,5-.5,3.7-1.4,6-5.8,8.4-6.7,3.7-13.6,6.2-22,6.6-8.3,9.2,3.7,15.6-13.8,25.1l-14.4,7.8c-7.6,5.6-12.8,12.3-19,18.5-5.5,5.6-8.1,11.8-11.6,18.2-2.8,5.3-1.2,12-3.3,17.6,3.3-.5,5.1-.6,7.2,0s1.8,2.9,2.7,4.5c1.3,2.3,12.5,6.7,16.2,5.8s6.7-6.9,14.1-5.5c7.4,1.5,4.1,3.6,3.3,6.9-1.4,5.2,13.5-1.6,15.5,2.8-.6,0-1.3,0-1.6.2-.8.5-1.3,1.1-1.6,1.7-5.8-1-10.7,4.3-16.5.1.2-1.1-.3-2.2-1.5-2.8l.3-.8,1.6-4.9c-3.7-1-6.3.8-8.3,2.8s-7.4,3.8-11.1,2.5l-10.7-3.8c-2.5-.9-3.9-1.1-5.2-2.1l-.7-4.3c-3.5.8-5.3,2.7-6.6,4.5l-10.8,15.5-7.6,9.4c-2.1,2.6-5.1,7-9.9,7.6s-10.4,1.7-14,5.5l-7,7.5-18.7,4.4c-5.2,1.2-7,4.4-10.2,6.9l-8.4,6.4c-3.5,2.7-8.7,4.7-10,8.6l-3.8,10.1c5.1,4,5.2,9.6,7.7,14.4,1.7,3.2,8,3.6,11.5,5l26.6,10.2c2.2.8,4.9,2.4,7.9.8l7.5-3.9c6.3-3.3,13.7-8.6,21.9-8.7,10.4-.1,20.2.8,30.3-1.7l26.7,2.2c1.4.3,2.5.7,3.2,1.1l-.3.8-21-1.3c-7.7-.5-18.7,4.5-30.6,2.4s-15.7,1.4-22.8,5.3l-10,5.5c-2.9,1.6-4.8,1.9-5.5,5.1l-5.1,7.3c3.3.7,6.5-1.9,8.9-2.2,10.9-1.3,20.3,1.5,30.1,2.8,3.2-.5,5.2-1.3,8.2.6l9.8,5.8c4,.8,10-1.6,14.3-1.4l25.3,1.1c4.6.2,8.2.3,11.2,2.2,3,1.8,3.4,4.8,3.1,8.3l-.6,7.2c-.3,3.4.7,8.3,3.5,10.9,2.6.2,9.2-.9,9.9,1.5-.8,4.2-2.8,8.2-2.2,12.5l-2.6,9.7,7.4,8.6,21.5-3.6,17.4-2.5c15.2-2.2,29.9-4,44.9-4.1,2.3,0,5.6-1.2,8.1-.5,4.8,1.4,9-1.3,12.8-2.4,16.5-4.8,9.5-15.2,28.8-21.7-1.1-3.5-.8-6.8,1.9-10.4,4.2-.8,9.3-.3,13.4-2s5.2-4.6,5.8-6.3c5.8-1.4,9.2-7.4,6.3-9.4-1.1-.9-2.5-3.5-2.4-4.7,1.2-9.6,1.7-14.6,14-21.8,3.8-2.2,8.4-.5,13.6-1.2-4.9-4.1-6.7-9.4-1.2-14.7,6.5-6.3,16.5-7.4,17.2-11.9s-5-4.4-6.6-6c-4.6-4.9-14.6-1.6-28.2-5-4.9-1.2-5.6-6.9-8.1-9.5s-5.9-1.6-9.2-2.1l-7.6-1.1c-1.4-.2-2.8-.8-4.3-.6-.8-2.4-5.7-3.5-7.7-5.2-4.3-3.6-7.9-3.5-14.5-2.6s-12-1-16.1-2.1c-4.1-1.1-.3-5.3-1.1-6.7-1.7-3.4-9.2-3.2-13-1.6l-11.2,4.7-14.5,4.1c-8.3,2.3-21.8,7.4-27.1,4.8s3.4-5.5-.4-7.2-6.4,3.2-13.2,3.5l-5.4,12.7-11.9,3.6c-4.9,1.5-2.7,6.3-.6,8.5s2,4.7.4,7c-.8-.7-2.6-1-3.9-.4l-3.8-8.7c-.8-1.7-1.4-3.5-.1-5.1,3.1-3.7,9.8-5.7,17.1-7.1,0-6.3,2.1-11,5.8-16.2,1.3.8,2.8,1.2,5.3.9s2.8-.7,2.2-2.2c3.7-.4,9-1.9,11.9,0,3,1.9,1.8,2.6,3.7,1.9,2.3-2.5,2.7-5.9,3.2-8.7l-4.9-2.9c-.8-2,1.6-5,1.6-7.1-.2-9.4,5.9-12.5,3.2-14s-3.1-1.3-4.6-1l-37.4,7.7c-3.9-.6-7.1-2.4-11-2.3.7-1.2.9-2.3.4-3.3l8.6,1c5.9.8,10.9-.8,16.5-1.9s8.4-1.4,13-2.6,7.9-.5,11.2-3.2l2.4,1.8c4.5-5.6-5-8.7,1.5-10.3,1.5-.5,1.8.8,3.8,3.1s1.4,2.7,1.7,4.2l1,5.6-6.8,21c1.8.8,3.9,1.6,4.8,2.3,1.2,1.1-.6,3.8-.6,5.1-.2,3.3.8,5.4-1.2,9.3l22.6-5.7c9.7-2.4,14.9-10.5,35.1-4.7.5,2.3-.3,4.9,1,7s5.9,2.9,8.2,2.3c19-4.9,23,8,37.7,9.1,14.7,1.1,12,.8,14.5,5.1s2.2,6.6,5.9,7l22.5,2.2,7.8,3.7,6.9,5.7c.9,3.3-3.3,5.4-2.8,6.2l1.9,2.3c.7.7-2.7,1.3-3.2.6s-.2-1.4-.2-2.7c-1.7,1.3-3.7,2.2-4.8,3.8-3.6.3-5.1,2.5-7.2,3.9s-4.4,1.8-5,3.9c-1.9,5.3,4.9,6.7,6.2,13.4.7,3.2,9.8,8.9,12,7.5s.7-3.5,3.5-4.1,5.7-1.5,6.9-2.6c2.3-1.9,1.8-3.9,2.6-5.9l10.6-30.8.3-10.1-.3-14.8.7-2.7c.3-.8-2.3-.9-4.1-1.2,6.7-1.6,3-8.2,8.3-13.5,2.2-2.2,4.2-3.8,3.3-6.5s.7-6.4,3.6-7.9c.6,0,1.3,0,1.9,0s1.3-.9,1.3-1.5l4.9.5-5.3,2.9c-2.8,1.5,0,4.2-2.9,11.9s-3.6,3.9-5.7,5.6l-1.4,37.1-6.4,19.2-6.5,19.3c-.4,1-2,1.4-2.8,1.5-9.1,1.6-15.6,11.5-12.3,16.4-.3.9-.8,2.4-1,3.4l-4,11.2c-7.1,7-21.9,13.1-22.8,22.3-.3.2-.5.7-.6.9-2.9.7-6.4,2.6-8.7,4.2l-7.6,5c-3.5,2.3-4.9,7.1-4,9.8s.6,5-1.4,6.7c-1.8-.4-2.7,1.9-4.3,2.4l-18.9,6.2c-4.7,3.2-6.6,8.4-12.3,10.5-4,.4-7.6-.8-11.8-1.4l-14.1-1.9c-1.3-1.2-.3-5-4.8-5.1-.8,2.9-1.3,5.9-3.9,8.4l-23.8-3.2c-4.1-.5-6-2.4-5.2-5.9l-10.1,2.6c-5.2,1.4-7.6,1.8-10,5.3l-8.8,6.3c-.5.3-1.2.7-1.7.9l-1.3.7-1.6.8h-.9c-.5,0-1.3-.2-1.8-.1-.9.2-1.4,1.1-1.4,1.6-14.9,4.5-22.8,1-40.3,7.9l-22.3,8.8c-16.4,6.5-32.2,13.1-49.4,18-.8,2.9,1.8,4,2.7,5.5,1.7,2.8-3.5,5.3-5.5,7.7-4.1,5-4.2,10.5-5.3,15.6l-1.8,8.4-5.2,12.5c-.3.7-2.6.9-2.5.9.9-3,1.4-6,2-9.6l2.1-11.9,4.3-14c-4.5-1.3-13,1.1-19.1,3.3-6,2.2-10.8-.3-15.7-1.6-11.9-3.3-25.7-3.1-38.7-1.1l-7.9,10.8c-5.5-.4-10.8-.9-15.3-1.8l-8.6-1.8-45.6-11.6-7.5,19.9c-.1,0,10.9,2.5,10.9,2.5,1.3.3.9,2.5,0,3s-2.4.3-3.4.3c-1.2-2.2-10.1-3-13.4-2.4l6.1-16.2c-.1,0,3.1-9.9,3.1-9.9l-3.1-14.4c-.6-3.1-3.8-5.4-8-4.6,0-.3.3-.8-.4-.8l11.9-30.2c.7-1.8.1-2.8-.3-4s-1.8-1.8-2.8-2.6c-3-2.6-7.8-2.4-12.4-1s-10.5,2.4-14.9.9c.1-2.2-2.7-1.1-2.2.4.5-6.2,1.6-12.6,3.7-18.9s.4-8.3,2.6-13.1c-5.8-5.2-13.7-12.3-24.7-12.1-4.9.7-10.1,4-15.6,1.5s-9.3-2-13.8-3-4.9-2.2-8-1.6c-.8-1.2-.8-2.6,0-4.4l2.6-6.9,3.7-5.7c3.8-3.9,4.6-9.1,6-13.4l4.7.6c1.4,4.3-11.2,18-11.3,25.5,1.9,3.8,11.3,3.2,16.1,4.4s6.1,2.8,10,1.2c11.7-4.9,19.9,0,27.7,5.8,3,2.2,7.4,3.9,8,7.4.8,5.1-2.7,10.3-3.6,15.6s.6,6.4-1.9,10.3-.9,2.7-.1,3.2c3.7,2.4,18.9-7.3,29.7,2.1,1.2,1,5.6,1,6.6-.4,3.4-4.8,6.4-9.2,12.3-12.8,5.7-3.6,11.2-8.5,18.4-10.5l14.6-4c5-1.4,8-2.3,12-5.3l15.6-8.6c10.7-5.9,16.3-16.2,29.3-25,3.1-2.1,7.4-4.1,10.1-6.3,4.8-4,7.2-8.6,10.8-13.5l-41-15.3c-3.3-1.3-6.4-1.1-7-4.8s-1.2-10.8-6.8-13.1l-21.8-2.6c0-1.8,2-3.8,3.9-5.2,2.1-.8,3.5-.5,4.9.3-.2.5-.4,1.2-.7,1.5h-1.8c-1,0-.7.9-.3.9h1.9c0,.1,16.3,1.3,16.3,1.3v-6.7c1.7-3.2,5.4-5.7,7.7-8.2,3-3.2,9.5-4.1,10.3-8.1,1.3,0,2.9-.1,3.9-.8,1.6-1,1.6-2.4,2.2-3.5,7.3-10.7,23.8-2.4,32.8-15.6,3.5-5.3,10.3-6.8,17.1-7.6,4.4-.9,6.1-5.8,7.8-7.9l8.7-9.8,4.6-7.6c5.4-5.9,7.6-10.4,7.1-17-1-11.7,4-14.5,8.3-23.4l13.1-15.9-23.7-2.2-2.9-1.7,31.2,2c1-1,1-1.9,1.2-2.6,1.5-4,6.3-7,11.4-9.9l15.8-8.5c5.2-3.7,3.5-8.1,2.7-11.7s4-7.9,7.4-10.6c9.3-1,18.4-2.9,24-9.3l2.9-6.5c.1-.3.4-1.2,1.3-1.4l1.5-.2h-1.1ZM687.9,322.5c2.2-1.8,1.6-2.8,1.3-3.4-1.5,1.4-1.5,2.5-1.3,3.4ZM807.9,447.6l14.2-8c3.1-7,8.8-13.1,16.6-18.1l-.6-1.7c-.1-.4,1.7-.7,1.8-.4,0,.5,0,1,.6,1.9l6.2-4.1c1.4-1.8,5.2-19.3,2.5-21.6l-12.3-10.8-12.4-.5-6.9,5.9c-2.5,3.4-5.8,10.4-4.5,13.5,4.8,4.4,4.8,9.4-.4,13.8l-6,5.1c-4.9,4.1-9.2,5.9-16.4,6.7-3.6,3.3-2.4,9.3.9,12.1l2.8,5.5c3,.8,10.3,2.5,14,.9l-.2-.2ZM469.7,446.3l-18.1,9.1,18.9,1.5,27.2,3.5c6.6.8,12.6,2.1,15.4,6.6l24.1,1.7,7,11.9-1.6,13.8c-.2,1.8,4.2,3.3,4,5.1-.5,3.8-1.9,7.3-.9,10.9l17.9,1.5-2.3,8.3c3,.4,7.6,2.2,11,.9l26.6-10.2,29.4-11.7c6.7-2.7,12.9-4.3,20.3-4l9.9-.8,3,.2c1.2.2,1.9-1,2.5-1.5,1.9-.6,3.6-1.3,5.4-2.1l1.6-.7h.9c.8.2,1.7.2,2.4-.3s.5-1,.8-1.2l5-3.7c2.4-2.9,4.9-5.4,8.4-7.2,3.6-.7,7.1-.6,11.7-2.6-3.4-1.6-6.8-1.3-9.7-2.1l1.1-4.4-13.6,2.1c-8.6,1.4-16.9,1.8-25.7,3.9-1.7.4-6.1.4-6.9-.6-4.4-5.5-10.5-8.2-8.1-16.6l4.2-14.1-7.3-.9c-12.3-7.5-.9-21.4-9-27.7-9.3-1.5-19.2-1.9-29-2.1l-17.3,1.7c-5.1-.6-8-4.4-12.1-5.6-4.3-1.2-9.2-.7-13.4-2.1-15.7-5.4-39.9,2.1-50.7,12.6l-8.6,8.3c-6,5.8-11.9,11.5-20.2,15.8-8.3,4.3-4,1.5-4.7,2.9l.3-.2ZM734,476.3c3.4-3,10.4-2.2,11.7.5,1.4,2.9,4.2,4.1,8.6,4.7l13.4,1.7c4.4-2.4,6.3-5.9,9-9,4-4.6,19.3-4.5,24-10.2,3.1-3.8,1.1-8.4,2-12.1l-11.6-2.4c-3.3-.7-3.4-9.1-7.8-9-4.5.1-11.3,8-14.9,14.1s-6.9,4-9.6,5.6c-6.2,3.6-11.4,3.9-18.3,4.3l-12.4.7-15.6.7-11.3,1.5c-1.8.2-3.3.6-4.2,1.1s-1.4,2.5-.7,2.7c3.2.7,7.2.3,9.4,2l8,6.5c4.9,1.3,10.5,2.2,16.3,2.3,1.8,0,2.4-4.3,3.9-5.6l.2-.2ZM549,538.3c7.8-.6.2-4.6,4-10.1,1.9-.6,2.9-2.7,6.6-3.5-1.9-3-2.1-6.1-1.6-9.8l-19.3-3,2.6-11.6c-.8-2.7-5.8-4.4-5.1-7.4l2.6-10.8-4.2-10-24-2.1-11.1-5.4c-8.8-.9-16.4-1.9-24.9-3.5l-30.8-2.6c-14.2.8-22.8,8.9-33.5,17.4-.7,5.1-5.8,8.5-12.7,9.6l-10.9,30.2c9.7,6.5,7.5,13.3,10,21.6l41.7,10.8c5.2,1.3,9.7,2.2,15.5,2.9s5,2.8,9,1.5l4.6-6.2c2.6-3.5,4.6-4.3,9.1-4.7s10.4-1.2,15.8-.7l22.6,2.5c3.2.3,5.3,2.5,9.8,1.9s5.5-1.7,8-4.3h10.5c2.5,0,4.2-1.9,5.7-2.6h-.1Z"/>
    <path class="st0" d="M723.7,102.9l19.7,6.2,10,6.4c10.6-3.1,17.7,2.9,17.6,5.6-.4,3.9-2.1,6.7-1.2,10.6.9,3.9-3.7,3.8-4.3,5.6l15.7-4.3c7.2-2,15.4-3.6,22.7-3.4l16.3,4.3,17.9,3.1,41.8,3c1.3,0,1.8.5,2.2.8-4.2-.1-8.3.6-12.4-.2-7.2-1.4-14.8-1.7-22.8-1.8-8.1-.1-5.4,2-8.7.8s-3.8.9-3.8,1.5c-2.7,5.3-11.4,4.6-18.1,7.3-8.4,6.4-9.5,13.6-10,21.9s-6.8,5.3-7.2,7.5,7.1,4.3,3.5,9.4c-1.3-.4-3.6-.3-4.7,1s-.5,1.9,0,2.8c-13.1,3.9-20.2-3.8-26-.7-7.4,3.9-15.1,7-23.4,7.5-8.3.4-10.6,1.6-13.3,4.1-6.4,1.3-8.3,9.7-18.6,16.2,5.1,8.5-2.8,15.4-1.2,22l8.8,1.6,6.1,6.1c4.8,2.8,10.7.8,16.4-.8,5.7-1.6,10.3-.6,14.5-3.3s5-7,5.7-11.1,5.6-5,8.7-5.1c4.8,0,10.7,0,14.5,1.5,5.6,2,10.3,2,16.8,2,6.5,0,13.7-.4,19.7-5.1,8.6-6.8,19.4-4,24.8-10.1,1.9-6.1,3.6-12.5,3.5-18.4l-6.3-13.4-2.1-11.8c-.2-1,.2-2.2-1.3-2.8.3-.8.2-1.8-.1-2.5.2-.2,1.2-.9,1.2-1.2-.1-.6-1.2-.7-1.8-.6.2-.5.6-1.2.6-1.6,1.6.5,2.5-.4,2.8-1.1l1.1-2.9.6-1.6c.6-.6,1.7-.8,2.4-.4l-.5,1.3-1.3,3.4-1.5,4.1c-.2.6-.7,1.2-.6,2s1,.9,2,.7l2.9,12.1c2,8.7,7.9,13.4,7.4,15.6l-1.2,7.1,23,1.8c.9,0,3,.3,3.8.7l12.2,5.9c3.1,1.5,5.2-1.3,7.4-3s-.7-2.8-.6-4.7c.1-4.1,1.2-9.5,4.5-13.2l12.2-6.8c4.8-3.6,10-7.8,16-9s2.5-1.6,5.8-3.7c3.1,1.8,7.1,3.9,11.3,5,12.7,3.6,33.8-.5,40.3,7.3,6.5,7.9,3.4,4.8,3.3,6.7-.2,5.7,3.6,9.6,5.3,14.2,2.2,5.8.5,13.3,0,19.6-.5,6.3-6.9,13.9-12.4,19.7-3.3-.2-5.3,2.5-8.3,3.2l-5.1,1.2c-1.4.3-1.5,2.8-2.6,3.7-4.1,3.7-10.4,5.1-15.4,7.8s-8.9,6.8-15.7,6.9c-7.3,4.1-13.9,9.8-15.4,15.9-.6,2.1-2.9,3.5-4.8,5.1-3.3,0-4.7,2-6.7,3.8s-4.7,2.1-5.5,3.6c-.5,1.4-2.3,1.7-3.5,1.7-6-.3-6.2-6-15.6-4.7l5.3-2.9,3.4.5c1.5,1,2.7,3.6,5.3,4,2.6.4,6-2.8,7.5-4.4s.4-.5.3-.7c3-.5,5.2-2.7,6.4-4.7l.3-.8c3.4-1.1,4.9-3.6,5-6.3s-3.8-3-6.3-3.5-.5,0-.7,0c.5-.6.2-1.3-.4-1.5s-1.6-.4-2.5-.3c.5-.7-.2-1.3-.5-1.8-1.3-1.6-1.6-3.9-4.3-4.6l.3-.8.6-1.7c.7-1.9,4.8-1,6.3-1.4,4.2-1.3,2.8-5.7,3-8,.6-3.8-1.1-6.3-3.5-9.3s-4.6-9.1-9.8-12.7c-2,.5-5.9,1.5-7.6.5l-6.7-4c-4.5-2.6-11.6-2.5-17.4.7s-6.7,2.8-10.3,4.2c-3.6,1.4-7.9,4.3-12.5,4.5s-6.4-8.8-13.6-14c-9.5.4-11.9,8.9-29.4,10.4-17.5,1.5-10.9,1.3-16.3-.5s-17-4-19.6-2.8-3.5,2.3-3.3,3.7c.5,3.5-1.8,5.6-4.5,8.4-2.6,2.8-6.3,5.9-12,6-5.7,0-8.8,2-13.4,2.9-4.6.9-10.9.4-14.1-.8l-7.3-6.8c-8.3-3.1-17.6,4.4-27,11.1l6.4,4.2c4.1,2.6,3,6.9-1.9,10-4.9,3.1-1.4,2.6-1.3,3.4-2-2.3-2.3-3.6-3.8-3.1-.1-1.6,3.4-3.6,4.5-4.9,0-3.6-5.2-5.8-7.7-8s1.1-4,2.9-5.2c5-3.4,8.8-6.4,14.8-8.9,1.4-.6,3-3.8,1.6-4l-11.8-1.7c-2.6-.4-1.9-4.7-1.5-6.4l.8-2.2c.3-.8,1.4-1.5,3-1,.3,1.7-.4,4.5,1,6.2s6.5,2.4,9.6,2.3c7.6-10.3-3.9-16.9,7.3-23.1,3.7-3.4,7.6-6.7,8.4-10.6,14.4-9.1,27.3-5.6,42.1-13.5s23.1,6.4,29.1-3.1-5.8-2.4-2.7-11.1h3.9c5.9,0,1-12.6,8.8-22.7,6.8-9,15.7-6.8,17.8-8.5l5.9-4.5c-9.8-1.4-19-3.4-27.7-6.6l-13.8,1.9c-12.2,1.6-28,10.4-30,5.3-1.1-2.6,4.2-5.8,6.6-7.6l-1.7-6.8c-.4-1.2,2.3-3.3,1.2-4.8-2.7-4.2-11.7-1.2-15.8-3.2s-5.9-5.8-11.2-5.7-2.3,3.6-2.7,4.9c-1.1,3.6-7.1,7.5-9.7,10.9s-6.8,6.5-10.7,9.8c-14.3,12.1-30.2,14.7-31.3,17.2-3.8.7-7.7,1.9-11,4,2.7.7,4.9.9,7.1.8s2.4,1.5,3.6,1.8l-.5,1.3c-.3.8-1.4.7-1.9.2-8.4-.2-11.7-3.5-12.2,1l-1.5.2c-1,.2-1.2,1-1.3,1.4-2.7-.1-.4-3.3-5.4-6l14.3-5.4,28.9-11.9c10.4-8.4,29.1-24,29.2-30.6s-1.6-2.5-3.8-3.2l-10.3-3.1c0-.6.8-1.1,1.5-1.3,1.1-.2,2.1-.2,3.1-.2h.6ZM954,201.3c2.6,1.6,3.4,4.8,8.3,4.6l4-9.6,25.9,1.8c.7,0,1.6,1.1,1.9,1.4s2.5-.5,1.6-1.1l-3-2.2c-.9-.6,1.5-2,2.5-2.9-.1-4.5-2.9-10.7-9.7-11.1l-24.9-1.6c-5.7-.4-10.1-1.9-14-4.7l-13.2,3.5c-2.4,1-3.4,4.2-5.6,5.5l-13.5,7.5c7.6,4.2,16.2-1.9,25.1-3s6.7,2.3,7.1,3.9-3.6,4-5.7,6.1c4.4,1,10.1-.1,13.4,2h0ZM999.3,215.5c1-4.3,1.7-7.5-.2-10.3l-9.6-3.6c-.8.2-2.2,1.1-2.7.8l-2.8-1.4c-4.7-1.1-9.5-1-14.8-1.3l-2.8,7.4c-3.7.9-5.7,1.5-9.9,3.5,1-2.8-2.8-3.2-3.5-4.3-2.1-3.3-4.3-4.2-9.9-3.5s-6.8-.7-7-2.6c-.5-4.6,7.4-5.5,7.1-7.1s-1.9-1.2-3.1-.8l-17,4-11.4-.6c-3.9,8.4,2.2,11.5-2.2,16.1,1.3,3,7.6,3,11.9,2,7.1-1.7,13.3-2.3,19.7-4.9,6.4-2.6,6.4.1,7.4,1.3,1.8,2.1,0,3.8-1.7,6.4s4.2,7.6,7.8,6l9.4-4.2c6-.4,12.9.9,18.6-1,5.7-1.9,10.7-3.8,17-1.9l-.2-.2ZM867.1,228.9c.9-.5,3.4.2,4.5-.4s1.8-1.6,1.7-2.6c13.9-4,15.7-3.3,26.5,1.9,10.8,5.2,4,2.2,7.5,1.2,5.5-1.3,8.3,1.1,9.5,4.3,1.2,3.1,17.1-5.2,28,3.3,6.5,5,16.3,6.3,25.8,1.1,9.5-5.3,6.1-2.2,9-1.9l13.4.9c4.1-5.6,6.5-11.3,6.9-17.7-2.7-.4-5.4-1.2-8.5-1.1l-9.7,2.9c-8,.1-16.1-.3-23.4,3.1-2.3,1.1-4.2,2-6.3,2s-10.9-5.2-10.4-7.8,2.3-4,2.1-7.1c-7.2,3.1-14.6,3.6-21.8,5s-10.4,1.1-17.3-2.1c-10.6,4.5-11.8-4.5-27.3-5.9-15.6-1.4-11.8-1.5-18-.3l-2.5,7.9c-1.6,5.1-13.8,4.7-9.4,9.4l8.2,8.8c4-.8,9.2-3.5,12-5.1l-.2.2ZM939.7,247.3c.8,0,1.7,1.2,2.4,1.5,5.1,1.7,9.3,4.7,13.6,7.3s6.9-1.1,9.4-1.9c4.7-1.4,6.6-3.5,7.8-7.1,8.2-1.7,17-4.6,16-7.7s-9.1-2.5-16.1.4l-8.7,3.5c-3.6,1.5-10.8.7-14-.7l-16.9-7.4c-2.2-1-13.9,3-13.7,2.7,0,0,1.3,6.7,10.6,7.9,9.3,1.2,6.7,2.3,9.7,1.5h0ZM946.7,263.6c2.7-.5,7.3-2.4,6.8-4.3s-17.6-11.8-27.2-10.8c1.3,5.9.6,10.5-2.9,15.4-2,.5-3.5.9-5.4,1.8l4.3,4.1c1.8,1.7,4.4,2.5,6,4.6,8.5-4.6,6.7-8.7,18.4-10.8h0Z"/>
    <path class="st0" d="M190.8,46.2c-4.8.2-10.2-1.8-15.7.9s-4,5.2-3.5,7.2c1,3.9,4.3,7.7,4.3,11.8l-5.3,6.9-8.4,8.4-28.9,29c-4.4,1.8-11.3-.3-14.4-1.7-4.9-2.2-8.4,1.6-12.3,1.6l-26,.3-28.3,6.8c-8.2,5.9-12.8,16.2-21.1,18.4s-12.7,1.7-18.6,4.5c4.6,3,11,3.6,16.1,5.6,10.1,4,20.1,7.6,31.8,9.9l9.5,1.9c15.5,3.2,28.7,7.7,42.1,13.7l46.7,20.8c3.4,1.5,7.2.4,10.5-1.5,13-7.9,15.3-2.9,22.3-2.6.9,6.9-5.7-1.6-18.6,3.4-12.9,5-1.3,1.5-.7,1.6,2.4.9,11.1-2.8,19.8-.2,1-.8.8-1.6,1.1-2.1.9-1.7,5.4-.3,6.4-2.4,5.9.2,9.8-1.9,14.9,1.1,3.2-.8,5.2-4.1,6.6-6.1l17.3.6c13.1-13.1,24.3-15.5,43.6-11.9,6.8,1.3,10.4,6.5,13,10.5s4,2.8,8.4,3.1l82.2,5.6c3-1.6,7.6-2.8,9.4-5l9.3-11.7c2.4-3,0-6.5-2.1-8.7s1.6-4.2,3.6-5.9l36.1-26.9c4.3-3.2,8.4-6.3,12.7-9.5l14.9-11.3,9.1-6.8c-2.1-.8-4.6-1.6-6.2-2.6l-5.8-3.9c1.4-.2,2.8-.7,3.9-1.4l7.8,3.7c2,1,6.3,3.2,3.6,5.4l-16.8,13.5-12,9.2-46.2,34.3,6.7,12.7c2.1,4,4.6,7.6,3.4,12.3s2.1,6.9,6.1,9.2,6,4.6,10.6,6.1c4.6,1.5,1.8,1.9,2.4,2.8l29.7,2.3c2.4.2,4.6.8,5.1,2.2l-19.7-1.4c-2.1-.2-2.4,1-3,1.3-.9.6-2.7,1.2-3.8,1.5s-2.4-1.3-3.5-1.5c-7.5-1.5-12.6-4.9-17.5-8.7s-11.3-3.3-11.9-14.1c1-4.3-.1-8.6-5.1-11.3-2.6,7-12.7,16.3-20,17.4l-25.4-1c-3.6-.2-6.2-.4-9.5-.7l-38.5-3c-1.2,3.7-3.7,6.4-5.2,9.6l-5.4,12.2c-.5,1.3,1,2.2,1.6,2.8-1.6-.4-3.9-.3-5.8.2-.7,2.3.5,3.4,1.4,4.5-.2.5-.8,1.6-.6,2.1s1.6.7,3,1l12.4,2.3-14.3-.8,3.4,1.8-4.3-.3-3.5-.2c-2.1-.3-3.4-1.6-2.5-3.7l3.9-9.9c1.4-3.6,3.6-6.7,4.8-10s.6-1,.8-1.8l1-3.3c1.9.7,3.7-3,4-7.2-5,.3-8.9.7-12.6-.2-5-1.4-5.2-6.2-8.6-9.1-5.4-4.8-16-6.6-25.3-5.8-7.6,2.5-14.6,5.2-17.7,10.2s-9.3,2.5-20.1,3.1c-2.4,3.3-8.8,6.4-13.6,5.2s-4.4-2.6-7.9-.1c8.8,1.6-.7,6.8-5,20.4-4.4,13.6-3.1,5.6-2.7,8.2-.7.2-2.3-.3-2-1l4.4-11.7c.2-.8-1.3-1.3-2.1-1.2s-.7,0-.9-.1c0-.2.1-.3.4-.3l5.7-10.5c-8.9-2.5-17.6-1.3-27,.2s-10.6.9-16.3,2.5l-24.9,7h-11.3c-3.6,0-8.4,3.9-12.2,3.7l-44.1-3.1c-2-.1-4.4.9-5.9,1.1-1.6-.7-3.1-1.6-5.3-1.4-.3-1.2-1.2-2.2.2-4.4l2.5-4.2c1.9-3.1,4.3-6,6.8-9.4,2.5-3.4,4.2-3.1,3.4-5.4-4.3,0-7.7,2.6-11.5,3.7-10.7,3-21.7,1-33.5,0-1.4-1.3.4-3.6-.2-4.6-2.3-4-8.3-5-13.9-4.7,0-.3,0-.7-.6-.9l2.9-7.6c.9-2.4-2.6-4-4.2-5.5-4.8-4.1-6.2-11.2-2.1-17.3s13.5-10,22.3-10.8c8.8-.8,7.3-1.6,9.5-4.1l9.8-10.5c3.2-3.4,7.2-5.3,12.6-6.5l25.2-5.5,22,.3c14.1-6.4,17.3,1,26.6-.2,6.5-5.2,10.9-11,16.5-16.5s14.1-13.7,20-20.7c3.7-1.2,3.8-4.6,2.9-7-.1-2.2-.7-4.4-3.3-5.1-2.3-5.3,3.4-13.3,7.1-14.2s4.7-.7,6.8-.4c3.3.4,6.7.6,10.1.8s1.8-.4,2.1-1.1.4-2.1,1-2.8c2.1.1,2.1,2.3.8,3.5s-2.6,2-4.4,2l.8-.2ZM64.8,192.1c-1.1,1.7-3.3,2.7-3.9,4.6-.6,1.9-2.4,4-2.4,6.3l19.5.2,32.8,2.8c6.6-2.9,13.6-4.5,20.4-3.6l22.9-6.3c-1.6-3.1-5.2-4.2-8.8-5.8l-50.8-22.7c-4.3-1.9-7.6-3-12.7-3.9s-15-3.6-24.5-5-6.3-2.8-11.2-2-2.6-1.6-3.7-2l-30.9-10.7c-5.2-1.7-9.9,8.2-.7,17.3,9.1,9.1,1.8,3.9,3.4,5.8.8,1.3-1.7,4.2-1.4,6,2.1,2,6.3,2.1,9,3.6s3.2,3.3,7.2,2.9l-3.5,3.3c7.8.3,14.9,2.1,22.9,1.1l16.9-4.8c2.5-.7,5.3.3,5.5,1.9.4,4-3.6,7.3-6,11.1h-.2Z"/>
    <path class="st8" d="M436.8,24.2c-1.4-.4-2.9-.2-4.1.3-2.2,1.1-12.2,10.2-7.5,13.9,4.7,3.8.8,4.6,1.3,7.2,7.5,4.9,10.1,10.4,20,8.9l39-5.8,27.7,1.4c2.2-7.5,17.1-5.8,30.7-4.1,8.1,3.5,17.6,4.5,27.8,3.4,6.9,2,13.8,3,21.9,1.1,6.9-4.9,14.7-9,22.1-13.7,3.9-2.5,6.9-3.6,11.8-5.1s3.7-2.6,6.3-2.3c2.6.3,3.9,1.7,3.8,4-.5,8.1-.6,15.6.1,23.5l13.6,5.4c2.6,1,5.5,1.8,5.1,3.8s-3.2,3.5-5.9,4.7c-6,2.7-11.3,8.3-19.1,9.8s-17.3,3.9-23.6,10.3-6.6,5.7-10.1,6c-7.5.6-14.3,1-21,5.2l17.6,1.3c5.7.4,8.5-2,11.8-4.2-3.8,6,8.7-2.8,14.7.6,6,3.4,2.6,6.6,1.4,9.5,5.1,2.6,10.8.8,16.3,1.2s9.7,1,12.8,2.1c3.1,1.1-1.5,6.4-4,7.2,2.9,1.6,5.6-.6,7-1.9,6.7-6.2,16.1-9.9,26.1-9.2,4.1-3,7.5-7.9,13.1-9.1,13-2.9,22,1.1,30.1,3.7-1,0-1.9,0-3.1.2s-1.4.7-1.5,1.3c-5.6-1.7-10.9-2.6-17.7-3.1s-8-.3-11.6,3.6-6.1,6.5-10.3,6.7-10.6,0-15.2,3c-8.1,5.2-12.1,10.8-22.7,8.4-.3-3.1,1.1-5.5,5.1-7.8-4.2-.5-6.7-1-9.1-2.9-7.2,2.3-13.3,1.8-18.6-1.2-1.9-.6-6.3,0-8.1-1.1s-.9-3,.5-4.1,3.8-1.6,6.6-1.8c1.4-6.8-12.5,2.3-24.2,1.6l-18.8-1.1c-2-.1-3.3-.8-3.4-2s1-2.7,3-3.3l8.9-2.7c3.4-10.5-11.9-13.1-11.1-17.3s-2.1-15.4-5.6-16.5l-9-3c-2-.7-3.3-2-6.5-1.9s-6-.8-8-2.3-2-3.8-1-6.8l-21.7-1.5c-1.8,1.5-2.4,3-3.4,4.9-10.1,1.4-19.6.8-28.7-1.6-11.8,1.6-22.9,3.5-34.4,5.6l-12.4,1.4-5.5,17c1.3,4.1,6.3,7.8,9.4,11.2l10.5,5.4c2.3,1.2,4.2,1.9,6.5,2.3,1.1,1.8,4.3,1.9,2.1,4.9-3.7-.4-7.6-2.2-9.8-4.4s-4.8-.6-6.1-1.3c-9-4.6-14.9-11.2-17.8-19,.6-1.6,1.8-3.2,1.7-5.2l-16.8-2.3c-3.9-.5-11.8,2.1-14.4,4.7s-2,6.3-6.9,8.2-2.9.5-3.9.2l-6.5-.5-1-.2c-.4-1.8-2.2-3.9-5-3.9h-2.2c-1.3.2-3.3-.1-4.9.3s-3.1,1.6-3.6,2.8c-.8,2.2-2.7,5.1-5.6,6.1-9.5,3.2-20.1-8.1-20.2-8.8,0-2.8,4.7-4.1,5.4-6.1s-7.6-4.2,2.7-14.1-.7-8,3.9-16.1l-11.4-1.5c-5.1-.6-10.9.9-16,2.6l-6.8,4.4-16.6,2c-5,.6-11.6,3-15.6,4.8-6.5,2.9-9-.1-13.5-.2-7.6-.2-14.9,1.4-20.5-3.6s-6.8-3.5-9.8-4.8.4-6.7-.3-8.7c-.9-3.5-7.4-.2-10.4,1.2l-43.4-2.8c-2.4-.2-5.6,2.4-4.2,2.9l9.7,3.1c4,1.3,2.7,5.9.2,8.5l-4.1-.5c1.7,0,3.6-1.2,4.4-2,1.3-1.2,1.3-3.4-.8-3.5-.6.6-.9,2.1-1,2.8s-.7,1.2-2.1,1.1c.8-1.2,2-3.1,1.3-4.1s-6.2-1.5-12.4-3.5c-.7-1.7,0-3.1,1.8-4.5s4.3-2.5,7-2.3l33.5,1.9c3.3.2,8.3.2,11.3-.1,4.5-2.4,8.7-3.6,12.5-1.3s1.8,5,.7,7.8,4.2,3.5,5.7,4.8c5.2,4.6,12.6,6.8,22,4.4,9.3-2.4,4.7,1.1,6,2.4,4.9,0,11-2.7,15.8-4.4s12.6-2.5,19.1-2.9,5-2.8,7.1-3.9,4.2-1.9,4.9-3.5c0,.4.3.9,1,1.9,4.3-.9,9.1-1.3,13.5-4.1-5.7-1.1-11.4-1.7-12.7-5.2-2.4-6.3,4.9-12.1-4.2-13.2-.1-1.2-1.7-2.2-.3-3.7s3.3-1.6,5-2c6.3-1.5,7.4,3,10.9,3.8,6.4,1.4,13.2,1.3,17.5,4.8,4.3,3.5,6.6,1.2,7.5,0,5.4-7.4,10-.7,32.8-4.6l10.2-1.8c7.8-1.3,13.9-4,19.5-8.8s6.3-1,7.1,0c2.1,2.6-.8,5.9-2,8.5-1.2,2.6,4.4,3.2,5.5,4.5,2.4,2.8-1.2,6.5-2.1,9.1v-.3ZM345.9,75.1c3.9,3.2,7.9,5.1,12,7.1,7.5-3.7,4.3-7.8,13.1-9.8,14.1-3.2,13.6,6.1,19.3,4.9,5.7-1.2,2.8-8.8,12.7-11.7s7.7-2,11-1.8l19.8,1.2c1.2-2.2,4-5.8,2.4-7.9s-5.9-5.8-9.1-7.1c-5.8-2.3-5.8-4.2-6-9s-.9-12.1,6.7-16.7,8.7-4.2,8-8.3c-2.2-.9-5.8-1.4-7.4-2.9-2.9-2.8,7-8.2,2.6-8.5s-4.4,3.6-13.3,6.3c-13.1,4.1-33.4,6.8-46.1,4.8-.9,2.1-2.2,3.5-3.7,4.2-2.7,1.4-9.9.9-14.1-1.7-6.7-4.2-14.4-.7-19-5.8s-3.3-1.6-5.4-.1c7.5,4.4,2.2,10.9,4.6,17.4,3.2.7,7-.5,9.6.2s3,4.2,5.6,5c2.7.9,6.4,1.5,9.4,3.4-4.2,4.5-1.1,8.4-2,12.7s-4.3,6-2.5,8.8c-9.5,2,.4,6.8-7.9,15v.3ZM624.3,35.7c-2.9-.2-4.7,1.8-6.7,3.1l-6.1,3.9c-2,1.3-4,2.1-3.7,3.9-.6-.2-2.2.4-2.8.5-4.3,1.2-5.7,4.8-16,6.7s-2.2.1-3.1,0l-10.4-.7-8-.6-9.4-.5-7.7-.4c-1.4,0-2.6.5-3.1.9s-1.1,1.7-.3,1.9l5.8,1,9.9,3.3c2,1.9,6.3,2.3,9.3,3.2,5.1,4.8,4.8,11.6,6.5,17.7,1.2,4.7,10.3,6.4,11,14.8,3.9.6,8,0,12.2-1.1,12.7-16.7,30.9-10.4,44.4-23.6,1.1-1.1,5.5-1.7,4.6-3.7s-2.4-1.5-4.3-2.3l-12.6-5.7-.9-10.2c-.2-2.5.1-3.2.2-5.8l.2-5.3c0-1.4,1-3.1-.5-4.3-1.8,3.5-5.1,2.1-8.2,3.6h-.2Z"/>
    <path class="st6" d="M194.7,206c-7.5-1.7-15-.6-23.4.7-8.3,1.2-19.3,3.1-28.9,6.5s-14.9,3.6-22.8,3.3c-6,2.9-12.3,4.1-18.4,2.9-12.1-1.1-23.4-2.9-35.9-3-12.6-.1-7.6,1.9-7.9-.1l-1.2-6.6c-1.9-1.7-2.5-2.5-2.9-4.3,2.1-.2,3.7.7,5.3,1.4,1.4-.2,3.8-1.2,5.9-1l44.1,3.1c3.8.3,8.7-3.7,12.2-3.7h11.3s24.9-7,24.9-7c5.6-1.6,10.7-1.6,16.3-2.5,9.4-1.5,18-2.7,27-.2l-5.7,10.5h.1Z"/>
    <path class="st6" d="M769.1,485.9c.8-.1,1.7.3,1.3,1.2l-8.8,7.6-24-2.1c-2.4-1.5-3-5.9-8.3-5.2-1.4,2.1-2.1,4.9-4.4,6.9l-14.2-1.6c-6.9.2-11.8-1.4-13.4-6.5l-15.9,4.4c-3.3.9-15.1,13.8-27.3,14.9l-23.2,2.1-72.3,27.8c-.9-1.5-3.5-2.7-2.7-5.5,17.3-4.9,33.2-11.5,49.4-18l22.3-8.8c17.5-6.9,25.4-3.5,40.3-7.9.3,0,1.3,0,1.9-.2.7-.3,1.3-.9,1.4-1.5h.9c.6,0,1.2-.4,1.6-.8l1.3-.7c.6-.2,1.1-.5,1.7-.9l8.8-6.3c2.4-3.5,4.8-4,10-5.3l10.1-2.6c-.8,3.5,1.1,5.3,5.2,5.9l23.8,3.2c2.6-2.6,3-5.6,3.9-8.4,4.5,0,3.4,3.9,4.8,5.1l14.1,1.9c4.2.6,7.8,1.8,11.8,1.4h0Z"/>
    <path class="st8" d="M400.2,679c-.2.9.6,1.7,1.8,1.9-7.7,3.1-15.8,11.4-17.1,17.1-1,4.7-1.8,9.3-3.9,14.1l-2.3,3.2c-1.6-.1-2.4.3-3.4,1.5l-10.3,11.3-8.1,7.6c-4.6,4.2-9.5,7.3-15.2,10.5l-5.9,3.3c-2.6,1.5-6.6,3.4-9,2.2.3-.7.8-2.4.4-2.7s-1.3.4-1.8.7c.6-6.2,4.2-11.2,11-16.3,3.5-2.7,7.5-7.6,13.2-7.5s7.2-.2,10.6-3.2,6.3-5.9,6-9.6c.9-.5,1.5-1.2,1.8-1.9.4-1.2,1.8-3.3,1.1-4.7s-4.8-.9-6.6.2-2.9,1.9-3.4,3.5c-.9,2.5-10.8,9.7-16.1,7.2s-6.3-7.4-9.3-10.7c-3-3.4-1.6-7.5-1.9-11.2l-14.1-7-11.4-12.5-13-6.9c-5.9-3.1-4-12.3-9.8-10.9-4.7,1.2-7.8,3.9-11.3,7l-4.6-12.2-12-12.2c-2.2-2.3-3.7-5.9-8.3-6.4-4.6-.4-6,1-8.3,1.2s-4.4.6-6.4-.4-1.2-1.5-.8-1.9,1-1,1.6-1.4c2.8,1.8,6.7,3.2,10.5,2.2,0-1.4-1.6-1.3-1.9-1.4s-.2-.7-.3-.9l10-.9,8.4,7.8,9.5,8.7c3.5,3.2,5.3,6.5,4.7,11.2,5.2-2.5,10.1-4,14.8-2.9s3.5,8.1,9.6,11.3l11.1,5.9,13,13.6,12.6,5.8c4.5,2-1.5,8.7,3.6,14.4l4.9,5.6c1.2,1.3,2.8,1.8,4.4,1.7,5-.7,8.7-13.9,23.9-11.5l1.1,11.4c10.8-7.8,3.6-14.6,10.7-22.2,7.1-7.6,6.4-7.5,10.9-10.5l5.7-1.9v-.3ZM345,741.1c5.8-3.2,8.8-7.6,12.5-11.6l-10.1-.7c-1,2.8-4.4,3.8-6.8,5.5-6.1,4.2-10.5,8.8-9.6,14.5l14.1-7.6h0Z"/>
    <path class="st11" d="M194.8,220.4c.8,6.1,5.9,10.2,11.3,14.5,7.5,5.8,21.4,5.2,34.1,10.5,12.7,5.3,10,5,17.2,6l6.9,5.1c1.2.9.7,3.4,3.9,3.6s3.6.3,5,.7c5.9,1.7,13,1.2,20,2.2,7,1,11.9-.9,13.8-5.1.6,0,1.6.4,2.3.2,3.4-.8,6.7-2.6,8.9-4.6.5,0,1-.1,1.5-.2,1.1-.3,1-1.1,1.4-1.5,7.5-8.5-1.7-14.6,7.1-18.1s2.8-2,2.7-2.8-1-2.2-2.4-2.4l-12.2-1.5-12.2-2.2-3.4-1.8,14.3.8,17,1.6c3.1.2,3.9,3.4,4,4.9.2,2.3-3.2,4.5-4.9,6.4-2.9,3.2-.8,7.3-2.5,10.5l-4,7.4-16.5,8.1c-1,.5-3.7,1.3-3.8,2.5l2.1,6.3c-.6,3.4-2.9,7.1-1.5,10.2l-.6,1.7c-2.3,7.2-12.3,11.7-10,18s-.5,3.2-.8,4.3-.2,1.4-.5,1.9c-.7.9-1.4,3.5,0,4l16.6,1.5,21,2.5c2.8.4,9.1-.5,10.2,1.9,1,2.7-2.5,6.8-2.6,9.5l-4.9-.2,2.5-6.7c-4.6-2-9.9-2.4-15.5-2.9l-29.7-2.5c-2-.1-2.1-2.6-1-4.1-1.4-.5-2,.5-2.2,1-.5-4.9,2.2-16.5,4.8-18.8,5.1-4.7,5.2-9.2,7-14s4-9.1-2.5-11.2c-12.9-4-29.4-2.1-34.6-5.3s-3.3-5.4-6.9-6.5c.9-3-6-.6-13.1-4.2-2.7-4.8-12.3-5-18.4-7-6.1-2-9.2-1.9-14.5-2.7-5.3-.8-9.9-9.5-14.7-11l-4-7.3c0-.7-.7-.9-1.6-.5v-1.9c.1,0,5.6-14.6,5.6-14.6.8-.1,2.4.3,2.1,1.2l-4.4,11.7c-.2.8,1.4,1.2,2.1,1h.1Z"/>
    <path class="st6" d="M195,230.7c4.7,1.5,8.2,10,14.7,11,6.5,1.1,9.7,1.1,14.5,2.7s15.6,2.1,18.4,7,7.6,4.4,13.1,4.2c3.5,1.1,3.9,4.8,6.9,6.5,5.3,3.1,21.7,1.3,34.6,5.3,12.9,4,3.8,7.4,2.5,11.2-2.8-1.4-6.1-2.1-10.1-2.4l-24.9-2.3-7.3-6.2c-4.5-3.9-12.1-4.6-19.6-5.5l-1.8-4.1-22.3-5.1c-6.2-1.4-9.5-3.7-13.3-6.9-5.4-4.6-10.2-9.8-8.5-16.4,1.4,0,2.3.6,3.3.9h-.1Z"/>
    <path class="st6" d="M358.9,710.1c2.8.9,6.1.5,8.9,1-.3.7-.8,1.4-1.8,1.9,1.2-2.2-6.2-.6-8.5,1.4-3.5,3-6.4,7.7-11.5,9.4-5.2,1.7-7.9-1.6-9.7-3.8-3.7-4.2-8.3-8.1-7.4-13.6s.5-4.7-3.3-6c-8-2.8-13.7-7.5-17.8-13.1s-9.9-8.5-17.2-11.6c-3.8-1.6-2.9-9.5-7.5-9.8s-8.7,5.1-13.4,6.3l-3-11.8-19.4-19.4c-6.3.6-10.8.8-16.3.3,3.3-2,6.3-3.3,8.2-5.5,2.2-.3,5.7-1.4,8.3-1.2,4.6.3,6.1,4.1,8.3,6.4l12,12.2,4.6,12.2c3.4-3.1,6.6-5.9,11.3-7,5.8-1.5,3.9,7.8,9.8,10.9l13,6.9,11.4,12.5,14.1,7c.3,3.7-1.2,7.8,1.9,11.2,3,3.3,4.2,8.3,9.3,10.7s15.1-4.7,16.1-7.2l-.3-.2Z"/>
    <path class="st0" d="M480.7,639.8c-5.3,4.6-9.4,9.6-13.1,14.7l-8.6,11.5c-1.5.2-3.5,1.5-5.6,1.3s-2-2.3-1.2-3.4.6-1.1.5-1.4-1.2-1-2.4-.6c-2.2.7-3.2,2.9-3.6,4.2l-.8,2.2c-1.2,0-2.1-.8-1.9-1.9l.8-1.5c.7,0,.9-.1,1.1-.4.5-.7-.2-1-.2-1.3.3-.7,1.5-2.4.6-3.1-2.7-1.1-6.3-1-10-.8-3.3,3.9-4.9,7.9-4.5,12.1-3.2.9-4.3,2.9-6.2,4.2-4.8,3.3-10.9,5-16.5,6-.5-.9-1.3-1.9-2.3-2.1-1.8-.6-3.4.4-3.5,1.6h-1.2c-1.2-.3-2-1.2-1.7-2.1l1.4-.7,1.6-.8,7.2-3.6c4.8-2.4,6-5,8.3-8.3,4.3-6,9-11.6,11.1-18.2s5.5-4.5,8.3-4.4,4.3,3.1,6.5,4.2c4.2,1.9,10.1,1.1,15.1,1.9l-4.3,13.3,9.7-12.1,10.9-11.3c.8-.9,1.9-1.6,2.9-1.8l-.8,2c0,.7,1.1.9,2.3.6h0ZM427.6,661.6c-1.8,2.6-3.3,5.1-5.5,8l-4.5,6c8.2-3.1,9.1-8.5,12.9-12.7s2.8-3.8,3.4-6.8l18.4,1.1c1.3-1.8,1.9-3.1,1.9-5-4.1-.7-9.1.1-13-1.6s-1.4-3.8-5.6-3.8c-3.5,4.8-7.2,10-8,14.9h0Z"/>
    <path class="st0" d="M337.8,330.3c-1.5,2.3-1.1,4.7,1.3,6.3l11.4,7.7c1.4,1,1.6,2.6,3.3,2.9s3.7.3,5.7-.5l8.9-3.1c3.1-1.1,5.1-2.5,7.6-4.1,7.4-2.5,17.8-2.9,24-.4l9.6,3.9c-1.2,0-2.4,0-3.8.2s-1.8,1.1-2,1.8c-1.9-.1-4.3-1.3-5.5-2.3-3-2.7-6.3-1.4-10.2-1.1s-9.4-.2-14.3,2.9-11.3,5-16,5.8-3.4-.8-4.7,1-1.8,5.5-4,6.8c-4.4,2-5.8,4.6-7.3,8.4s-4.7,5-5.1,7.6c-4.7,2.3-11.6,7-12.8,8.7s.5,1.8,1.2,2.5c1.2,1.5.2,3.9-1.1,5.5-1.8,2.4-3.9,3.1-8.7,3.6,2.2,1.5,3.1,1.9,3.3,3-1.7.7-2.7,2-3.5,3.2s-2.1,1.1-2.8,1.5c-.1-1.2.5-2.6,0-4-1.9-5.7,8.5-7.7,4.9-14,4.9-6.1,14.1-9.6,17.1-14.9s6.4-9,9.7-13.1c.7,0,1.7-.1,2.2-.5s1-1.9,1.4-2.6c2.6-3.8.5-5.7-2.8-7.7s-7.4-6.6-12.3-9.2c1.5-2.2-2.7-1.7-1.8.3v-2.7c0-.9.1-3,1.9-4.1l5.3.2h-.1Z"/>
    <path class="st6" d="M363.3,463.1c-1.2-.6.6-3.2-.1-4.1-2.8-4.1-9.5-6.2-13.6-9.1s-11.9-1.4-18.9-.5c-7.2.9-14.5-3-20.7-4.3l-7.6-1.6c-.5-2.5,0-4.9.9-7.2l.6-1.5c3.2-.6,5.2,1,8.1,1.6,4.4,1,10.1,1.2,13.8,3,5.6,2.6,10.8-.7,15.6-1.5,11.1-.2,19,6.9,24.7,12.1-2.4,4.7-1,7.9-2.6,13.1Z"/>
    <path class="st0" d="M382.5,564.4c-1.5.2-4.2,1.9-4.8,2.9-2.3,0-4.7,2-6.7,3.1-5.1,0-10.6,2.5-15.6,4.1l-10.9,3.4c-9.4,2.9-20.2,4.3-28.5,9.2l-15.6,9.1c-1.5.9-2.9,2.4-3.9,3.2-3.8-.7-5.4,2.1-7.4,3.3l-16.4,9.7-19.8,11.2c-3.8,2.1-6.4,4.5-10.8,6.2s-1,.9-1.2,1.2,0,.6.4.7c0,.2,0,.8.3.9s1.8,0,1.9,1.4c-3.8.9-7.7-.4-10.5-2.2l49.2-29,32.7-18.8,30.6-10.1,35-11.5,6.5-14.3h.9c0,0-5.9,16.2-5.9,16.2h.4Z"/>
    <path class="st6" d="M56,196.9c-10.9,2.6-21.8,2.2-32.2.4-.1-7.3-2.7-7.8-12.1-9.6l-1.7-6.6c-.5-1.8-2.6-3.1-2.9-4.8,5.6-.3,11.5.7,13.9,4.7.5,1-1.3,3.4.2,4.6,11.8.8,22.8,3,33.5,0,10.7-3,7.2-3.6,11.5-3.7.8,2.3-2.3,3.9-3.4,5.4-2.4,3.4-4.7,6.3-6.8,9.4h0Z"/>
    <path class="st6" d="M650.4,70.7c-1.5,2.5-.6,6.8-4,9.3s-9.4,7.2-14.9,9.5c-8.6,3.6-18.8,4.9-25.7,9.6s-6.1,4.6-11.8,4.2l-17.6-1.3c6.7-4.2,13.5-4.6,21-5.2s8.2-4,10.1-6c6.3-6.4,14.2-8.4,23.6-10.3s13.1-7.3,19.1-9.8h.1Z"/>
    <path class="st6" d="M333.5,326.7l-.3.8c-.8.2-1.5.8-1.7,1.4-4.1-1.6-9.1-1.1-13.8-1.7l-28.7-3.5-1.3-12.4c.2-.4.8-1.5,2.2-1-1.3,1.5-1,4,1,4.1l29.7,2.5c5.6.4,10.9.9,15.4,2.9l-2.5,6.7h.2Z"/>
    <path class="st8" d="M882.1,140.8l30.1,13.1,31.3,17.6c-3.3,2.1-1.8,2.9-5.8,3.7l1.3-2.1c.8-1.4-1.8-1.3-2.7-1.8l-19.2-11.2c-8.1-4.7-19.9-10.3-29.1-13.5l-8.5-3-26-2.1-4.8,5.9c-3.6,4.5,4.4,6.5,3.2,9.8-.7-.3-1.9-.1-2.4.4l-6.9-6.2c-1.3-1.2-4.3-1.2-3.7-2.8,1.9-4.8,9.3-.5,9.2-7.4-4-1.1-9.6-1.3-13.7-.4,0-.7,2.6-2,3.8-1.5,3.3,1.3,6.4-.8,8.7-.8,8.1.1,15.5.5,22.8,1.8s8.2,0,12.4.2v.2Z"/>
    <path class="st0" d="M538.3,599.2c-1.6-.5-2.9,2.7-4.4,3.1-5.9,1.7-7.2,5.4-10,8.5-4.1,4.4-12.7,6.9-18.2,10.4l-9.6,6.3-4.5,2.9c0-.9-.2-1.6-1.1-1.6,5.7-8.1,21.3-11.8,30.2-20.4,8.9-8.7,2.2-5.4,7-6.8,5.7-1.6,5.7-5.3,6.8-8.7l3.9-12.4c0,0,2.2-.1,2.5-.9l5.2-12.5-4.3,21.3-3.2,10.9h-.2Z"/>
    <path class="st6" d="M991.3,244.3l-6.4,4.3c-3.2,2.2-4.7,6.2-8.7,8-7,3.1-12.9,6.8-19.6,10.4l-10.8,5.7c-4.8,2.5-7.5,6-14,6.4-.4,1.6-2.2,2.9-2.9,3.8,1.5-6.2,8.1-11.7,15.4-15.9,6.8-.1,10.8-4.3,15.7-6.9s11.3-4.2,15.4-7.8,1.3-3.4,2.6-3.7l5.1-1.2c3-.6,5.1-3.3,8.3-3.2h-.1Z"/>
    <path class="st6" d="M376.6,480.6c1.6.5,2.7,1.1,3.9,1.9,2.4,1.6,6.1,1.1,8.4-.9,1,.8,2.4,1.3,2.8,2.6l-3.4,8c-9.2-9.4-19.6,2.4-29.4-2.6l.7-7.8c-.5-1.5,2.3-2.7,2.2-.4,4.2,1.5,10.2.5,14.9-.9h-.1Z"/>
    <path class="st7" d="M538.3,599.2c-.8,2.7-5.1,4.4-7.7,6.9l-6.7,6.7c-4.5,2.4-6.2,5.5-10.3,8l-25.4,15.9-20.7,17.7c3.8-5.1,7.8-10,13.1-14.7l10.9-9.5,4.5-2.9,9.6-6.3c5.4-3.5,14-6,18.2-10.4s4.1-6.7,10-8.5,2.8-3.7,4.4-3.1v.2Z"/>
    <path class="st6" d="M423.5,689.3c1.2,0,2.3.2,2.2,1-3,.6-3.9,3-5.5,4.5-2.7,2.6-8,1.3-11.1,1.9l-11.6,7.7c-1.1.7-2.7.6-3.5.7l-7.3-.2h-1.3c0,0,3.9-7,3.9-7,17.2,1.3,17-4.6,22.1-7.8s8.7-.9,12-1h0Z"/>
    <path class="st6" d="M911.8,295.4l2.8.2-14.9,11.3c-4.2,0-7-1.6-9.9-2.8,2.9-7.6,0-10.3,2.9-11.9,9.5-1.2,9.8,4.5,15.6,4.7,5.9.2,2.9-.3,3.5-1.7h0Z"/>
    <path class="st6" d="M343.9,356.7l-12.9-9.9c-2.9-2.4-.4-7-.4-9.8-.9-2,3.3-2.5,1.8-.3,4.9,2.6,7.8,6.5,12.3,9.2s5.3,3.9,2.8,7.7-.8,2-1.4,2.6-1.4.5-2.2.5h0Z"/>
    <path class="st6" d="M366.9,728.5l-14,13.4c-5.6,5.3-11.6,9.4-19.6,13.1-2.7,1.3-5.2,3.3-8.8,2.9l.8-8.3c.5-.3,1.6-1,1.8-.7s-.2,2.1-.4,2.7c2.4,1.2,6.5-.7,9-2.2l5.9-3.3c5.7-3.1,10.7-6.3,15.2-10.5l8.1-7.6,1.9.4h0Z"/>
    <path class="st7" d="M388.4,548.3h-.9c1.9-4.2-.5-7.4-1.2-11.5s-.2-7.9-7-8.7c.2-3.3,0-5.9,1.2-8.7,4.1-.7,7.4,1.6,8,4.6l3.1,14.4-3.2,9.9h0Z"/>
    <path class="st7" d="M804.7,466.7l-13,10.5-13.9,5-7.4,4.8c.3-.9-.5-1.2-1.3-1.2,5.7-2.1,7.7-7.3,12.3-10.5l18.9-6.2c1.6-.6,2.5-2.8,4.3-2.4h.1Z"/>
    <path class="st6" d="M327.4,35.2l-2.6-20.8c9.1,1.2,1.8,6.9,4.2,13.2,2.4,6.3,7,4.1,12.7,5.2-4.4,2.8-9.2,3.2-13.5,4.1-.7-.9-.9-1.4-1-1.9h0Z"/>
    <path class="st6" d="M436.8,24.2l-1,3.3c-2,1.4-2.4,3.4-2.8,5.1-5.1,2.4-4.4,4.9-7.8,5.7-4.7-3.7,5.3-12.9,7.5-13.9s2.7-.8,4.1-.3h0Z"/>
    <path class="st6" d="M452.2,664c-.9,1.1-1.2,3.3,1.2,3.4s4.1-1.1,5.6-1.3c-2.5,3.4-5.7,6.5-10,9.6-1.8-1.5-2.9-3.1-3.5-4.9s-.3-.4-.5-.6l1.2-1.9.8-2.2c-.1,0,2.1-2,2.1-2,.7-.7,2.3-.7,3.2-.2h0Z"/>
    <path class="st7" d="M445,670.2c.2.2.5.3.5.6l-14.7,10.9c-2.6,2-2.1,8-5,8.7,0-.9-1-1-2.2-1,5-2.3,4.6-6.2,6.8-9.9,2.6-4.2,9.7-7.3,14.7-9.2h0Z"/>
    <path class="st6" d="M191.2,44.6c-3.4-.2-6.8-.4-10.1-.8,0-2.2-.2-4.7-1-6.8,6.2,2,11.9,2.6,12.4,3.5s-.5,3-1.3,4.1Z"/>
    <path class="st7" d="M827.1,440.1c.7-9.3,15.6-15.3,22.8-22.3l4-11.2-2,11-18,14.8-6.7,7.8h0Z"/>
    <path class="st12" d="M338.4,326.9c0,1.1.3,2.2-.6,3.4l-5.3-.2c-1.8,1.1-2,3.1-2,4.1-2.5-.6-2.8-2.6-2.1-4.9l-10.9-2c4.5.6,9.7,0,13.8,1.7,4.1,1.6,1.2,0,1.3-.3l.4-1.2.3-.8,4.9.2h.1Z"/>
    <path class="st7" d="M380.2,518.5l7.3-21.1,1-5.1,3.4-8c.4,1.1,1,2.2.3,4l-11.9,30.2Z"/>
    <path class="st7" d="M819.8,446.4l-10.5,7.6c-2.1,1.6-2.4,4.4-3.2,6-.9-2.7.5-7.5,4-9.8l7.6-5c.9,0,1.8.4,1.9,1.2h.1Z"/>
    <path class="st12" d="M389.4,698l-3.9,7-4.5,7.2c2-4.7,2.9-9.4,3.9-14.1l4.4-2.8c.4.8.6,1.9.2,2.8h0Z"/>
    <path class="st7" d="M854.8,403.3c-3.4-4.9,3.1-14.8,12.3-16.4l-10.7,9.7c-2.3,2.1-.9,4.8-1.7,6.7Z"/>
    <path class="st7" d="M378.7,715.3c-3.3,4.7-7.5,8.9-11.8,13.1l-1.9-.4,10.3-11.3c1-1.1,1.8-1.6,3.4-1.5h0Z"/>
    <path class="st7" d="M315.4,403l.6,1.6c-1.4,4.3-2.1,9.5-6,13.4.8-2.8,3.3-6,2.9-9l-.8-6.3c.7-.4,2.4-1,2.8-1.5-.3.8.2,1.3.4,2v-.2Z"/>
    <path class="st7" d="M6.4,175.4c0-4.4-.3-8.7-1.3-13,1.6,1.4,5.1,3,4.2,5.5l-2.9,7.6h0Z"/>
    <path class="st8" d="M167.7,70.6c1.4-4,1.2-8.5-.4-12.2,2.6.7,3.2,2.9,3.3,5.1.9,2.5.8,5.8-2.9,7Z"/>
    <path class="st8" d="M303.9,434.9l-.6,1.5c-4.7-2.5,0-8,3-12.8l-2.6,6.9c-.7,1.8-.6,3.2.1,4.4Z"/>
    <path class="st8" d="M189.5,221.1c-1.5-2.7.5-5.7,1.9-8.9l2.8-5.8c.2,0,.6.2.9.1l-5.5,14.6h-.1Z"/>
    <path class="st7" d="M195,230.7c-1-.3-2-.8-3.3-.9-1.8-1.8-2.4-4.3-2.3-6.7.9-.5,1.5-.2,1.6.5l4,7.3h0Z"/>
    <path class="st8" d="M826.6,441.1c-1.2,2.2-4.5,3.8-6.8,5.4-.2-.8-1-1.1-1.9-1.2,2.4-1.6,5.8-3.5,8.7-4.2h0Z"/>
    <path class="st8" d="M914.6,295.5l-2.8-.2c.8-1.4,3.9-2.1,5.5-3.5s3.4-3.9,6.7-3.8l-9.4,7.5Z"/>
    <path class="st8" d="M433.1,32.7c.4-1.7.8-3.7,2.8-5.1-.6,1.6-.5,4.1-2.8,5.1Z"/>
    <path class="st12" d="M394.1,705.2c-2,1.2-5.7,1.1-7.3-.2l7.3.2Z"/>
    <path class="st14" d="M448.1,210.7l21.1,1.7c.4,1.1,1.9,1.9,4,2l32.4,2.3,8.1.6,4.6,2.7c3-2,5.1-.8,7.8-.5l16,1.4,30.2,2.1,23.7,2.2-13.1,15.9c-4.3,8.8-9.3,11.7-8.3,23.4.5,6.6-1.5,11.1-7.1,17l-4.6,7.6-8.7,9.8c-1.9,2.1-3.6,7-7.8,7.9-6.8.6-13.5,2.2-17.1,7.6-8.9,13.2-25.4,5-32.8,15.6-2-.6-4.6-.8-7-.2-1.7,2.2-.9,3.6.9,4.4-.8,4-7.3,4.9-10.3,8.1-1.5.4-3.8.7-5.2,1.4-.2-.8-.7-1.7-1.5-1.7-1.4,0-2.8.7-3.2,2.3l-.7,1.8c0,.4.5.8,1.8.6-1,1.1-1.9,1.8-3.7,1.7s-2.8-.5-3.9-1.1c.1-1-1.1-3-3.1-2.5-9,2.6-17.8,8.6-26.3,4.3l-2.6-1.3c-1.2-.6-2.9.7-4,1-7.6,1.9-15.9.7-17.1-4.7-.7,0-1.2-.4-1.1-.9l-9.6-3.9c-6.3-2.5-16.6-2.1-24,.4-2.5,1.5-4.4,3-7.6,4.1l-8.9,3.1c-1.9.6-3.5.8-5.7.5s-1.9-1.9-3.3-2.9l-11.4-7.7c-2.4-1.6-2.8-4.1-1.3-6.3s.6-2.2.6-3.4c0-2.8,3.5-6.8,2.6-9.5-1.1-2.4-7.5-1.7-10.2-1.9l-21-2.5c.4-.7,1.7-2.3,1.5-3-.9-2.6-8.6,1.2-14,.7s-3.1-1.6-4-3.2c.3-.4.4-1.3.5-1.9.8,0,1.7.1,2.6-.2,1.9-.6,2.1-4.3,1.3-8,3.4-5.3,8.4-9.6,8.2-11.7l.7-1.9c.3-.5-.9-.8-1.9-.6l.6-1.7,2.2-5.9c3.7,0,6,.9,7.2,3.1l3.8-2.4c1.2.7,1.9.6,2.5.3,1.4-.6.6-7.9-5.3-6.8s-6,2.3-9,1.4l-2.1-6.3c.2-1.1,2.7-1.9,3.8-2.5,3.8.3,6.3,4.2,7.8,1.7l1.4-2.1-.7-.7c-.8.2-.9,0-.8-.5s.2-.8.5-.8c1.1,0,1.7.6,1.1,1.1l.5.6c.9.1,3.1.2,3.9-.3,1.5-1,.3-2.5-.2-3.7l2.9-3.3,4-7.4c1.7-3.2-.3-7.3,2.5-10.5s5.1-4.1,4.9-6.4-.9-4.5-4-4.9l-17-1.6-12.4-2.3c-1.4-.3-2.6-.2-3-1s.4-1.6.6-2.1c2.6.4,5.3-.4,7.9-2.4-.6-1-2-2-3.6-2.2-.8-.5-2.2-1.5-1.6-2.8l5.4-12.2c1.5-3.3,4-5.8,5.2-9.6l38.5,3c3.4.2,5.9.6,9.5.7l25.4,1c7.3-.9,17.2-10.4,20-17.4,4.8,2.7,6,7,5.1,11.3.6,10.9,7.6,10.7,11.9,14.1,4.3,3.4,9.9,7.3,17.5,8.7s2.3,1.8,3.5,1.5,2.9-.8,3.8-1.5h-.5ZM332.7,197.9c2.3.8,4.1.1,4.9-.7s1.5-2.7.6-3.2c-2.6-1.4-8.2.6-8,2s1.2,1.5,2.6,1.9h-.1ZM459.2,214.8c-2.8.2-4.7,2.2-4.4,3.4.4,1.7,2.6,2.2,4.9,2s3.4-1.6,3.7-3.3-1.9-2.3-4.1-2.1h-.1ZM467.1,223.8c.9-1.2,0-2.5-1-2.7-1.5-.4-2.9-.5-4.6.9s-1.2.8-1.3,1.5,5.9,1.7,6.8.5h0ZM327.1,216.2c1.4-2.1-1.1-4.1-3.3-3.5s-4.9,2.2-4,4,6.3,1,7.3-.5h0ZM382.2,218.8c-2,.9-1.6,2-.9,2.5,1,.8,2.7.8,3.8.3s1.8-1.9,1.4-2.5-2.4-1.1-4.3-.3h0ZM393.8,224c-1.8,1.1-2.2,2.7-1.4,3.2,1.2.7,3.3.7,4.4,0s2.2-2.1,1.9-2.7c-.7-1.1-2.9-1.6-4.7-.5h-.1ZM538.3,244.4c-3.4,1.1-3.2,2.6-2.4,4s2.7,1.6,4.7.8,3.4-2,3.1-3c-.5-1.9-2.5-2.8-5.3-1.8h-.1ZM484.4,250.2c-2.3.8-3.2,2.2-2.5,3.4s2.2,1.5,3.7.9,2-1.8,1.9-3.1-1.2-1.8-3.3-1.1h.1ZM513.8,253.1c-2.5.3-4,2-3.8,3.7s2.1,1.4,4.2,1.3,3.1-1.3,3.1-3.1-1.1-2.2-3.4-2h0ZM383.1,245.7c-2,.9-1.8,2.5-1.1,2.9,1.1.5,3,.5,3.9,0,1.7-.7,1.8-1.6,1.5-2.3-.5-1.3-2.3-1.6-4.4-.7h0ZM463.2,255.5c-3.4-2.5-5.1-3-8-2.1s-3.3,3-1.3,4,7.8-.7,9.2-1.9h.1ZM532.8,281c2,.1,4-3.9,2.5-5.1s-4.2,0-4.6,1.5-1.5,3.3,2.1,3.5h0ZM551.3,283.3c-2.3,0-4.6,1.6-4.8,3s2,2.3,4.3,2.5,3.6-1.7,3.7-3.3-1.2-2.2-3.2-2.2ZM370.9,271.3c-3.4.3-4.8,2.2-4.3,4.2s1.7,2.3,4.4,1.7,4.1-1.8,4.3-3.6-1.6-2.5-4.3-2.3h-.1ZM319.2,283.8c-1.3-1.9-3-2.2-4.7-3.1-3.9.5-7.6,4.1-5.9,6.3s4.5-3.2,10.5-3.2h.1ZM467.8,295.4c-2.7.4-3.9,2.2-3.4,3.6s1.9,1.6,4.1,1.6,3.2-1.7,3.2-3-1.2-2.5-3.7-2.2h-.1ZM505,302.2c-2.9.3-4,2-3.5,3.7s2.3,2.1,4.7,1.5,3.6-2.1,3.2-3.6-2.2-1.9-4.4-1.7ZM446.9,316.3c-2.9.4-3.7,1.9-3.1,3.4s1.4,1.1,3.2.6,3.2-1,2.9-2.2-1.5-2-3-1.8h0Z"/>
    <path class="st3" d="M551.1,57.9c-.7,1.3-.3,2.7,1.6,3s3-.1,4.9-1l9,3c3.4,1.1,6.5,11.3,5.6,16.5s14.5,6.8,11.1,17.3l-8.9,2.7c-2.1.6-3.2,2.2-3,3.3s1.5,1.8,3.4,2l18.8,1.1c11.7.7,25.7-8.3,24.2-1.6-2.8,0-4.9.3-6.6,1.8s-2.5,2.8-.5,4.1,6.1.5,8.1,1.1c5.3,3,11.4,3.5,18.6,1.2,2.4,1.9,4.9,2.4,9.1,2.9-4.1,2.3-5.3,4.6-5.1,7.8,10.5,2.5,14.5-3.1,22.7-8.4s10.2-2.7,15.2-3,8.2-4.5,10.3-6.7c3.6-3.8,6.6-3.9,11.6-3.6s12.1,1.4,17.7,3.1l10.3,3.1c2.2.7,3.8,1.9,3.8,3.2-.2,6.5-18.8,22.2-29.2,30.6l-28.9,11.9-14.3,5.4c5,2.7,2.7,5.9,5.4,6l-2.9,6.5c-5.5,6.3-14.7,8.3-24,9.3-3.4,2.7-8.2,7.2-7.4,10.6s2.4,8-2.7,11.7l-15.8,8.5c-5.1,2.7-10.1,5.8-11.4,9.9-4.3,2.5-11.9.4-16.7,0l-29.2-1.9c-4.6-1.4-10.7-1-15.9-1.4-4.4-2.1-10.5-2.6-16.8-3l-23.2-1.6-29-2.1c-.6-1.2-2.6-2-5.1-2.2l-29.7-2.3c-.8-.8-1.4-2.4-2.4-2.8-4.6-1.4-7.1-3.9-10.6-6.1s-7.1-4.8-6.1-9.2-1.3-8.4-3.4-12.3l-6.7-12.7,46.2-34.3,12-9.2,16.8-13.5c2.7-2.2-1.4-4.4-3.6-5.4l-7.8-3.7c.2-.6.4-1.2.2-1.7s-1.2-.9-2.4-1l-6-.9c-2.4-.3-4.2-1.1-6.5-2.3l-10.5-5.4c-3.2-3.4-8.1-7-9.4-11.2l5.5-17,12.4-1.4c11.5-2.1,22.6-4,34.4-5.6,9.1,2.4,18.6,3,28.7,1.6,1-1.9,1.7-3.5,3.4-4.8l21.7,1.5c-.9,3-.9,5.2,1.1,6.7s4.9,2.4,8,2.3v-.2ZM485.3,94.3c-2,.6-2.9,2.4-2.2,3.6s3,1,4.5.4,2.5-2.4,2.2-3.3-2.9-1.2-4.5-.7h0ZM502.1,107.4c1.8-1,1.1-2.9-.2-4.2s-3.1,0-5.2,1.4-1.3,2.4.2,3.2,3.7.3,5.3-.5h-.1ZM554.5,139.3c-2,1.4-1,2.8.1,3.2s2.4.3,3.5-.4,1.3-2.3.6-2.9-3.1-.7-4.2,0ZM525.6,141.2c-2.8.2-4.1,1.4-3.7,2.7s1.6,1.7,2.7,1.7c2.2,0,3.5-.9,3.8-2.5s0-2.1-2.8-1.8h0ZM504.4,157.7c-2.5.7-2.3,2.4-1.7,3.3,1,1.3,2.6,1.4,4.1.8s2.5-2.6,2-3.3-2.8-1.1-4.4-.7h0ZM563.6,176.6c-2.8.6-3.3,2.4-2.5,3.2s2.5,1.2,3.7,1c2.1-.3,3.1-1.8,3-3.3s-1.5-1.5-4-1h-.1ZM604,187.4c2.9-.7,2.7-2.6,2-3.6s-1.5-2-3.7-1.2-3.6,2.1-3.2,2.9,2.5,2.4,5,1.9h-.1ZM459.6,200.7c2.1-.8,2.2-3.4,1.3-4s-4.4-.9-6-.4-2.6,2.6-2.2,4.1c.4,1.1,5,1.2,7,.5h0ZM577.6,210.1c-1.8,1.9-.5,2.7.4,2.9s2.1,0,2.6-.3c1.1-.7,1.5-2.4.8-2.7s-3.2-.4-3.8.2Z"/>
    <path class="st9" d="M787.6,329.8c-1.1.7-1.9,1.6-2.3,2.5s.6,1.8,1.7,1.8c2.7.1,4.7-2,4.9-3.8l7.6,1.1c3.3.5,7.1-.2,9.2,2.1s3.2,8.3,8.1,9.5c13.5,3.3,23.6.1,28.2,5,1.6,1.6,7.1,2.9,6.6,6-.7,4.4-10.8,5.5-17.2,11.9-5.6,5.4-3.8,10.7,1.2,14.7-5.1.6-9.7-1-13.6,1.2-12.4,7.2-12.8,12.3-14,21.8-1.2,9.6,1.3,3.9,2.4,4.7-4.2,2.7-5.1,6.3-6.3,9.4s-3.1,5.2-5.8,6.3c-4.1,1.7-9,1.2-13.4,2-2.5,3.6-2.9,6.9-1.9,10.4-19.4,6.5-12.3,17-28.8,21.7-3.9,1.1-8,3.8-12.8,2.4s-5.7.5-8.1.5c-15.1.1-29.6,1.9-44.9,4.1l-17.4,2.5-21.5,3.6-7.4-8.6,2.6-9.7c-.6-4.4,1.4-8.4,2.2-12.5-.8-2.4-7.4-1.3-9.9-1.5-2.8-2.6-3.7-7.5-3.5-10.9l.6-7.2c.2-3.5,0-6.4-3.1-8.3s-6.6-2-11.2-2.2l-25.3-1.1c-4.2-.2-10.4,2.2-14.3,1.4l-9.8-5.8c-3-1.8-5.1-1.1-8.2-.6-9.8-1.3-19.1-4.1-30.1-2.8-2.4.3-5.6,2.9-8.9,2.2l5.1-7.3c.8-3.2,2.6-3.5,5.5-5.1l10-5.5c7.2-4,14.5-6.8,22.8-5.3,8.4,1.5,23-2.8,30.6-2.4l21,1.3c.2.4.7.3,1.2,0l3.5.2c1.7.2,4-.8,5.5-.9,7.7-.9,11-4.2,12.9-9.1,1.9-4.9,3.8-6.3-.4-9.4,4.3-2.6,8.4-4.2,10.4-7.1s1.8-4.8-.4-7-4.3-6.9.6-8.5l11.9-3.6,5.4-12.7c6.8-.3,9-5.3,13.2-3.5,4.2,1.8-1.2,6.4.4,7.2,5.2,2.6,18.8-2.5,27.1-4.8l14.5-4.1,11.2-4.7c3.8-1.6,11.3-1.8,13,1.6.7,1.5-2.8,5.7,1.1,6.7,3.8,1,11.3,2.7,16.1,2.1s10.4-1,14.5,2.6,6.9,2.8,7.7,5.2h.2ZM725.6,326.6c1.1,1.7,3.8,2.1,5.8.7s1.9-2.5.6-3.6-3.1-1-5.5.1-2,.9-1.6,1.5l.8,1.3h-.1ZM777.6,354.4c.3-1.4-2.4-2.8-3.9-2.9s-3.7.9-4.5,2.1c-1.3,1.9.8,3.2,2.5,3.5s5.4-.2,5.9-2.7h0ZM710.2,354.2c-1.6.5-3,3.1-2.2,4.1s3.2.7,4.9,0,2.1-1.6,1.4-3-.8-2.2-4.1-1.2h0ZM809.7,367.8c-1.9-.7-4.4-.7-5.6-.4-1.1,2.1-.8,3.2.4,3.8s3.3.4,4.5-.3,1.8-2.6.6-3.1h.1ZM797.3,372.9c-2.8,1-2.5,2-2.2,2.6.7,1.1,2.3,1.5,3.5,1.2,1.6-.6,2.9-1.8,2.7-2.6-.3-1.1-2-2-4.1-1.2ZM737.1,376.5c1.8-.1,3.2-2.9,2.2-3.6s-3.1-1.7-5.3-.7-2.2,2.8-1.5,3.3,2.1,1.3,4.5,1h.1ZM668.4,390.8l6.1-3.3c2.5-1.4-2.1-5-4.2-3.7s-4.3,3.8-7.5,4.6c-.7,1.8-.5,2.7.2,3.2,1.3.6,3.1.3,5.2-.8h.1ZM724.7,389.2c-2.3,1.8-1.4,2.7-.9,3.3s2.7.9,3.3.4c1.2-.9,1.9-2.6,1.8-3.4s-3.3-.9-4.2-.3h0ZM798.1,403.9c-2.6.9-3.7,2.5-2.9,3.4s2.9,1.9,4.4,1.3,2.4-2.1,2.4-2.9c0-1.5-1.6-2.4-3.8-1.6h0ZM692.8,420.4c-2.3.6-2.9,3-2.3,4s3.1,1.5,5.2.8,2.9-2.6,1.7-3.7-2.7-1.7-4.6-1.2h0ZM765.6,435.9c-3.4,1.6-3.5,3.2-2.8,4.2s4,2,5.5,1.4,3.7-3.1,3.1-4.1-4-2.4-5.9-1.5h0ZM678.2,434.1c-3,.5-4.3,2.9-3.6,4.5s3.1,2.5,5.7,1.7,4-2.7,3.3-4.3-2.6-2.3-5.4-1.8h0Z"/>
    <path class="st15" d="M912.2,263.3c-.7,0-2.1-.1-2.6.3s-.3,1.1.1,1.3,1.2,0,1.7.1l-.3.8c-.6,1.2-1.6,3.1-.4,4s3.3.8,4.8.6c.4.5,1,1.1.5,1.8s-.6,1.5,0,1.7c1,.3,2.2.2,2.9.2s.5,0,.7,0c-.5.8-1.4,1.5-3.3,2.5,1.1.9,1.9.9,2.8,1.1-.7,1-2,1.5-3.3,1.4s-1.2-.2-1.7-.1-1.3.7-1.1,1.2,1.3.8,2.3.5c1.2,0,2.8.5,4.1.3s1.6-2.3,1.2-3.2c.6-.2,2.4-.2,2.4.2,0,2.1-.7,4.2-1.7,5.9l-.3.8c-.1,0-8.7,1.5-8.7,1.5,1.6,1.6,2.1,2.1,2.2,3.2s-.2.4-.3.7c-.9-.4-2.5-1.4-3.6-.9l-3.3,1.6c-2,.9-4.3,0-5.8-.3l-3.4-.5-4.9-.5c-.8,0-1.6-.1-2.3.4s-.7,1-.9,1.2c-2.8,1.5-4.5,5.4-3.6,7.9s-1.1,4.4-3.3,6.5c-5.3,5.2-1.7,11.9-8.3,13.5,2,.1,4.3.3,4.1,1.2l-.7,2.7.3,14.8-.3,10.1-10.6,30.8c-.8,2-.3,4-2.6,5.9s-4.3,2-6.9,2.6-2.3,3.4-3.5,4.1c-2.2,1.4-11.3-4.2-12-7.5-1.3-6.6-8.1-8.1-6.2-13.4s3.2-2.6,5-3.9l5.8.4c1-1.7,1.1-3,1.4-4.3,1.1-1.6,3.1-2.6,4.8-3.8,0,1.3-.1,2.2.2,2.7s3.8,0,3.2-.6l-1.9-2.3c-.6-.8,3.6-2.9,2.8-6.2s-2.8-5.3-6.9-5.7l-7.8-3.7-22.5-2.2c-3.7-.3-4.7-4.9-5.9-7-2.6-4.3-8.5-4.7-14.5-5.1-14.7-1-18.6-13.9-37.7-9.1-19.1,4.8-7.3-.9-8.2-2.3-1.3-2.1-.5-4.7-1-7-20.3-5.7-25.4,2.3-35.1,4.7l-22.6,5.7c2.1-3.9,1-6,1.2-9.3s1.9-4.1.6-5.1-3-1.5-4.8-2.3l6.8-21-1-5.6c-.3-1.5-.7-3.2-1.7-4.2,0-.9,0-2.6,1.3-3.4,5-3.1,6-7.4,1.9-10l-6.4-4.2c9.4-6.7,18.8-14.2,27-11.1l7.3,6.8c3.2,1.3,10.3,1.6,14.1.8s8.6-3,13.4-2.9,8.9-2.6,12-6c3.1-3.3,4.9-4.9,4.5-8.4s1.7-3,3.3-3.7c2.7-1.2,13.1.6,19.6,2.8s10.5,1,16.3.5c17.5-1.5,19.7-10.1,29.4-10.4,7.2,5.2,9.1,14.1,13.6,14s8.5-3,12.5-4.5,7.1-2.3,10.3-4.2c5.8-3.4,13-3.5,17.4-.7l6.7,4c1.7,1,5.6,0,7.6-.5,5.3,3.5,6.5,8.4,9.8,12.7s4.2,5.5,3.5,9.3c-.6,3.8,1.1,6.7-3,8-1.6.4-5.6-.6-6.3,1.4v-.3ZM889,238.1c-2,1.8-1.6,3.8-.2,4.4s3.2.5,4.3-.3,1.8-3,.9-3.6-4.1-1.2-5-.4h0ZM832.9,245.4c1.4.7,3.3.8,4.4,0s1.4-1.6.6-2.5-1.1-1.2-3.1-1.1-3.3.5-3.4,1.5,0,1.4,1.5,2h0ZM741.8,259.2c1.1-.7,1.7-2.6.4-3.2s-6.4-.2-6.4,1.2,4,3.3,6,2.1ZM843.5,273.9c1-1.7-3.4-3.3-5.5-1.9s-1.7,3.3,0,3.7,4.1.5,5.5-1.9h0ZM791.9,272.6c-2,.4-3.6,2.5-3.4,3.7s2.2,1.4,3.9,1.3,3.2-1,3-2.9-.2-2.7-3.5-2.1ZM816.1,281.4c1.6-1.5-.8-2.6-2.2-2.7-1.8-.2-4,.6-3.7,2.7s4.5,1.4,5.9,0ZM908.3,286c-.7,1.2.9,1.4,1.4,1.3s1.1-.7,1.1-1.2-1.1-1.1-2.5,0ZM743.3,276.4c-1.3.9-.5,2,.4,2.4s1.4.4,2.6-.3.3-1.5-.4-2.2-1-1-2.6,0h0ZM707.5,283c-2.7.4-4.7,2.4-4.5,3.3s2.2,1.9,3.7,1.9,3.7-1.7,3.5-2.9-1.2-2.6-2.7-2.3ZM805.4,302.9c1.8.5,4.2.1,5.3-.7s.6-2.3-.5-3.1c-2-1.4-7.9-.3-7.7,1.2s.9,2.1,3,2.7h0ZM831.3,302c-3.3,1.2-2.9,3-2.6,4,.6,1.6,3.3,1.9,5.1,1.2s3.8-2.3,3-3.7-3.2-2.5-5.6-1.6h0ZM751,304c1-1,.6-2.5-.2-3s-2.7-1.1-4.6-.7-3,3.2-1.4,4.4,4.3,1.2,6.3-.7h-.1ZM794.5,312.4c-2.3,1.9-1.5,3.4-.1,4.1s3.2.5,4.3-.3c1.9-1.2,1.8-2.8.8-3.6s-3.6-1.2-4.9-.2ZM839.3,321.5c3-.8,3.3-3.1,2.4-4.2s-2.9-1.5-5.3-1.3-4,2.6-3.7,4,3.7,2.2,6.7,1.5h-.1ZM868.9,335.1c-1.5.5-2.8,2.5-2.1,3.1s2.3,1.1,3.9.8,2.1-1.7,1.6-2.8-.5-2.1-3.4-1.1Z"/>
    <path class="st15" d="M403.7,345.3l.7,1.7c-.5,1.9,1.2,2.4,3.6,3.1,6.8,1.9,13.2,3.2,20.7,2.3l4.9-.6c1.7.9,4.1,3.7,7,2.8l14.7-4c-.7,1.4-2.4,2-3.3,2.7-1.8,1.4-3.8,3.4-3.9,5.2l21.8,2.6c5.6,2.3,6,9.1,6.8,13.1s3.7,3.5,7,4.8l41,15.3c-3.6,4.9-6,9.6-10.8,13.5-2.6,2.1-6.9,4.2-10.1,6.3-13,8.8-18.6,19.1-29.3,25l-15.6,8.6c-3.9,3.1-6.8,3.9-12,5.3l-14.6,4c-7.1,1.9-12.5,6.9-18.4,10.5-5.9,3.6-8.9,8-12.3,12.8s-5.4,1.4-6.6.4c-10.8-9.3-26,.4-29.7-2.1s-.4-2.4.1-3.2c2.5-3.9,1.4-6.8,1.9-10.3.9-5.3,4.4-10.5,3.6-15.6s-5.1-5.2-8-7.4c-7.8-5.9-15.9-10.8-27.7-5.8s-6.5-.4-10-1.2-14.3-.6-16.1-4.4c.2-7.5,12.8-21.1,11.3-25.5l-1.9-6.3-.2-1c-.1-1.2-1.1-1.5-3.3-3,4.8-.5,6.9-1.3,8.7-3.6s2.3-4,1.1-5.5c2.5-3.8,11.1-6.4,11.6-11.3s4-4.9,5.1-7.6c1.4-3.9,2.9-6.3,7.3-8.4,2.6,0,5,0,7.7.9,1.2-1.4,1.4-2.1,1.6-3.3-1.9.6-4.6-.3-4-1.1,1.9-1.6,3.3-2.7,3.3-4.3,4.7-.9,11.8-3.1,16-5.8s9.1-2.5,14.3-2.9c5.2-.4,7.2-1.6,10.2,1.1s3.6,2.2,5.5,2.3h0ZM389.1,345.1c-2.1,1.4-2.2,3.7-.5,4.3s3.1.6,4.8-.4,1.6-2.5.4-3.5-2.9-1.5-4.6-.3ZM425.3,362.2c-2,.5-3.3,1.2-5.1,2.1-1.5-.1-3.2-.4-4.2.1s-2.6,2.2-2.6,3c.4,3.4,8.5-.3,10.5,0s3.8.3,5.3-1,1.6-2,1.2-3.1c-.7-1.5-2.7-1.7-4.9-1.2h-.1ZM383.5,385.8c-2.1,1.8-1.8,3.9-.4,4.3s3.5.2,4.6-.5,1.8-3,1-3.6-4.1-1.1-5.1-.3h0ZM451,391.6c-2.5.5-3,2.2-2.4,3s1.8,1.2,3.1.9,2.8-1.5,2.7-2.7-1.3-1.8-3.4-1.4h0ZM398.2,396.2c-1.3,0-4.1.7-4.2,1.4-.4,1.3.6,2.3,1.8,2.5,2.3.2,3.4-.3,3.8-2s.7-1.8-1.4-1.9ZM419.2,417.3c-2.6.3-4.3,1.4-4.2,3.3s.6,1.6,3.3,1.4,2.6-1,2.8-2.3.4-2.6-1.9-2.4h0ZM461.4,439.7c2-.9,1-4-.7-3.8s-2.7,1.2-3.1,1.7-.7,1.9,0,2.3,2.3.4,3.8-.2h0ZM389.6,462c-3.1,1.2-2.5,2.9-1.5,3.8,1.5,1.3,3.8,1.2,5,.5,1.8-1,2.6-2.8,2-3.7s-3.5-1.4-5.5-.6Z"/>
    <path class="st4" d="M674,314.5c.4-2-2.4-2.2-4.7-2s-2,2.2-2.7,3.3c-3.7,5.2-5.9,10-5.8,16.2-7.3,1.4-14,3.3-17.1,7.1s-.7,3.4.1,5.1l3.8,8.7c-3.7,1.6-11.6,4.9-10.8,8.4s2.4,4.7,0,8.5-4,5.7-8.5,5.5c0-1.7-1.4-3-4-3.1s-4.8,1.5-5,3.1c-.7.4-1.7.7-2.9.7l-22.1-1.6c-2.2-.2-3.9.7-5.3,1.1-10.1,2.6-19.9,1.6-30.3,1.7-8.1.1-15.5,5.4-21.9,8.7l-7.5,3.9c-3.1,1.5-5.7,0-7.9-.8l-26.6-10.2c-3.4-1.4-9.8-1.7-11.5-5-2.5-4.8-2.7-10.4-7.6-14.4l3.8-10.1c1.3-3.8,6.5-5.9,10-8.6l8.4-6.4c3.2-2.4,5-5.7,10.2-6.9l18.7-4.4,7-7.5c3.6-3.9,8.3-4.7,14-5.5,5.6-.7,7.7-5,9.9-7.6l7.6-9.4,10.8-15.5c1.8-.6,6-1.1,7.2-.2s2.6,1.2,5.2,2.1l10.7,3.8c3.7,1.3,8.5,0,11.1-2.5,2.2.9,4,2.3,6.7,2.2l-.3.8c-.2.6-.8,1.2-.8,2.1s1.4.7,2.2.7c5.8,4.3,10.7-1.1,16.5-.1-.3.9.2,1.7,1.3,2s2.8-.4,3.7-.4c4,0,7.1,1.6,11,2.3l37.4-7.7c1.6-.3,3.9.6,4.6,1,2.7,1.5-3.3,4.6-3.2,14s-2.4,5.1-1.6,7.1l4.9,2.9c-.3,2.8-.9,6.1-3.2,8.7-1.9.7-2.8-1.4-3.7-1.9-3-1.9-8.2-.4-11.9,0h0ZM641.6,301.9c-1.8.4-2.6,2.7-1.6,3.2s3,.6,4.1.3,2.2-1.8,1.7-3-1.9-.9-4.1-.5h-.1ZM617.2,303.4c-3.8-.3-4.5,1.9-4.4,3.4s1.2,2.4,3.4,2.4,3.8-1.2,4.3-2.9-.6-2.6-3.3-2.9h0ZM661.2,312.8c-1.6.8-1.2,1.6-.8,2.2.8.9,2.8.8,3.4.2.9-.9.8-2,0-2.4s-2.1-.4-2.7,0h.1ZM581.7,330c.3-.7-1.3-2.2-2.3-2.5-2-.4-4,1.3-4.2,2.3-.4,1.6,0,2.2,2.3,2.2s3.8-.2,4.2-1.9h0ZM637.2,355.9c2.7-.9,3.8-1.8,3.5-3s-1-1.8-3-1.8-5,.7-4.7,3.1.7,3,4.1,1.8h.1ZM590.8,353.2c-2.5.4-3.9,2.2-3.5,3.6s3,1.4,5,1,2.6-1.5,2.4-2.8-1.4-2.3-3.8-1.8ZM585.1,362.2c-2,1.6-2,4.2-.7,4.4s3.1.2,4.7-.8,2.5-2.6,1.3-3.4-4.2-1.2-5.4-.3h.1Z"/>
    <path class="st9" d="M690.8,472.8l-2,4.7c-3.5,1.8-6,4.3-8.4,7.2l-5,3.7c-.8,0-1.9,0-2.4.4s-.7.8-.8,1.1h-.9c-.6,0-1.2.4-1.6.7-1.7.8-3.6,1.6-5.4,2.1-1.1-.2-2.5-.3-3.9-.1s-1.6.7-1.5,1.4l-9.9.8c-7.5-.3-13.6,1.3-20.3,4l-29.4,11.7-26.6,10.2c-3.4,1.3-8.1-.6-11-.9l2.3-8.3-17.9-1.5c-1-3.6.4-7,.9-10.9s-4.2-3.3-4-5.1l1.6-13.8-7-11.8-24.1-1.7c-3-4.5-8.8-5.8-15.4-6.6l-27.2-3.5c-1.8-1.7-5.1-1.7-9.1-2.4,3.6-2.8,7-5.2,8.3-8.1s2.8-2,4.7-2.9c8.3-4.3,14.2-10,20.2-15.8l8.6-8.3c10.9-10.5,35-18,50.7-12.6,15.7,5.4,9.1.8,13.4,2.1,4.1,1.2,7,5,12.1,5.6l17.3-1.7c9.7.2,19.7.5,29,2.1,8.1,6.3-3.3,20.3,9,27.7l7.3.9-4.2,14.1c-2.4,8.4,3.7,11.1,8.1,16.6s5.2,1.1,6.9.6c8.8-2.1,17.1-2.6,25.7-3.9l13.6-2.1-1.1,4.4h-.4ZM607.8,428c-3.3.5-4.5,2.7-3.9,4.6s2.6,2.3,5.4,1.5c2.8-.8,4.3-2.3,3.3-3.8s-1.9-2.6-4.9-2.2h0ZM574.8,427.7c-2.3.6-2.8,1.8-2.1,2.9s2.6,1.3,4.2.9,1.7-2.4,1.2-3.1-1.6-1.1-3.3-.7h.1ZM533.6,460.7c-.9-2-4.7-4-8.1-3.1s-3,3.3-2.2,4.3c1.4,1.7,8.8,1.8,9.6,1.2s1.2-1.7.9-2.4h-.1ZM577.9,494.4c-2.8.8-3.9,3-2.9,4s3.2,1.3,4.6,1c2.9-.5,3.4-2.2,3.2-3.7s-1.6-2.4-4.8-1.4h0Z"/>
    <path class="st9" d="M553.1,528.2l-4.3,1.6c-4.8,1.7,4,4.9.3,8.5-1.6.7-3.2,2.6-5.7,2.6h-10.5c-2.5,2.5-5.6,3.9-8,4.3-4.5.6-6.6-1.6-9.8-1.9l-22.6-2.5c-5.4-.6-10.4.2-15.8.7s-6.6,1.3-9.1,4.7l-4.6,6.2c-4,1.3-6.3-1.2-9-1.5-5.8-.7-10.3-1.6-15.5-2.9l-41.7-10.8c-2.5-8.3-.3-15-10-21.6l10.9-30.2c6.9-1.1,11.9-4.5,12.7-9.6,10.7-8.5,19.2-16.6,33.5-17.4l30.8,2.6c8.5,1.5,16.1,2.5,24.9,3.5l11.1,5.4,24,2.1,4.2,10-2.6,10.8c-.8,3.1,4.3,4.7,5.1,7.4l-2.6,11.6,19.3,3c-.5,3.7-.3,6.9,1.6,9.8-3.6.8-4.6,2.9-6.6,3.5h.1ZM420.4,510.8c-1.6.3-2.5,2.8-1.7,3.3s2.7.2,4,0,2.2-1.7,1.7-2.7-1.8-1-4.1-.5h.1ZM434.6,531.5c.3,1.5,3.2,1.5,5,1s3.1-1.5,3.5-3.1-.3-2.6-2.8-2.8-6.2,2.6-5.7,4.8h0ZM504.3,533.7c-2.3,2-1.7,3.5,0,4.3s2.4.3,3.9-.6,1.4-2.2.7-3.2-3.7-1.3-4.6-.5h0Z"/>
    <path class="st9" d="M681.1,161.8c.3,2.3,2.3,4.6,5.4,5.6-1.1,4.6-.5,10.3-4.6,14.9s-8.6,5.3-5.8,8.8,3.9,4.2,6,5.6l-.3.9c-.9.7-2.1,1.4-2.3,2.1-.6,1.3.8,2.4,1.8,2.5,1.7.3,3.6-.4,4.5-1.5,3.3,1.6,7.8,1.3,12.6,1.4s2.2,2.7,1.9,3.8-2.4,2.7-4.8,3.5c-5.9,2.1-8.7,9-5.8,12.3l1,1.1.6.8.9,1.1.8.8c.3.4.6.7,1.1.9s.7,0,.9,0c-.5.7-1,2-.8,2.7s.8.8,1.7,1c-.5,1.7-1.1,6,1.5,6.4l11.8,1.7c1.4.2-.3,3.4-1.6,4-6,2.6-9.9,5.7-14.8,8.9s-5.2,3.3-2.9,5.2,7.8,4.4,7.7,8c-1.1,1.4-4.6,3.4-4.5,4.9-6.4,1.6,3,4.6-1.5,10.3l-2.4-1.8c-3.2,2.6-7.6,2.1-11.2,3.2s-8.7,1.8-13,2.6c-4.4.8-10.5,2.6-16.5,1.9l-8.6-1-2.2-.2c-2-4.5-16.9,2.4-15.5-2.8s.8-6-3.3-6.9c-7.5-1.5-10.9,4.7-14.1,5.5s-14.9-3.5-16.2-5.8-.4-3.9-2.7-4.5-3.9-.4-7.2,0c2.1-5.6.3-12.3,3.3-17.6,3.5-6.4,6.1-12.6,11.6-18.2,6.2-6.3,11.3-13,19-18.5l14.4-7.8c17.6-9.5,5.5-15.9,13.8-25.1,8.4-.5,15.3-3,22-6.6,6.7-3.7,5.2-4.7,5.8-8.4s2.4-3.6.6-5c.5-4.5,3.8-1.3,12.2-1l-.3.2ZM652.3,186.2c-2.7.8-2.9,2.5-2.2,3.6s3,1.8,4.7.9,2.9-2.6,2-3.7-2.7-1.3-4.5-.7ZM650.1,247.4c2.7-2.6,3.1-4.3,2.9-5.6s-3.1-1.1-3.7-.5c-1.8,2.4-1.5,5.6.9,6.1h-.1ZM626.9,250.8c-2.3.7-3.3,2.2-2.1,3.3s2.6,1.3,4.3.7,2.2-2.3,1.8-3.1-2.1-1.4-4-.9ZM669.1,264.8c-1.7.7-1.9,2.2-1.3,2.8s2.5,1.3,3.4.8c1.4-.8,2.3-2.5,1.7-3.1s-2.6-1-3.9-.5h0Z"/>
    <path class="st9" d="M538.3,580.5l-3.9,12.4c-1.1,3.5-1.1,7.2-6.8,8.7-4.8,1.3-4.7,4.5-7,6.8-8.7,8.7-24.5,12.3-30.2,20.4l-2.3-.2c-.3-.2-.7-.2-1.1-.3l-6.8-2.1c2.3-2.8,5.9-4.1,9.1-5.7,7.2-3.9,10.1-14.2,4.8-15.3s-12.7-1.5-17.3-4.2c-4.6-2.7-12.3-17.4-17.1-19.6l-26.5-11.5c-4.4-1.9-8.3-2.4-13.6-3.4l-12.3-2.2c-1.3-.3-2.5,0-3.6.2s-2.6,1.8-1.8,3c4.2-.5,8.4,1.4,12.4,1.9,7.6,1.1,13.5,1.9,19.6,5.2,6.2,3.3,3.4.5,2.6,1.9-5.2.1-10.4,0-14.5-2.7-1.2,1.7.2,2.1,1.6,3.1-4.8,1-8.3.2-12.2-1.1l3.1-4.1c-6.5.2-10.3-.7-14-4.1l-1.8,4.1s-7.2,1.8-7,1.9l-1-2.1c-.4-.8-2.4,0-2.9.5s-1.4,1.9-1.7,3.1c-2.3-1.5-3.6-2.2-6.4-2.5,2.1-3.4,5.9-5.2,2.3-5.1.3-.7,1.1-1.1,1.8-1.5,1.5-.8,3.4-.6,3.1.3l-.5,1.3c-.1.3.8.7,1.6.5s1.1-1.2,1.2-1.6l7.1.5c1,0,2.7.2,3.5-.4s1.3-2.8,0-3l-11-2.5,7.5-19.9c.1,0,45.7,11.6,45.7,11.6l8.6,1.8c4.5.9,9.9,1.3,15.3,1.8l7.9-10.8c13-2,26.8-2.1,38.7,1.1s9.6,3.9,15.7,1.6c6.2-2.3,14.7-4.6,19.1-3.3l-4.3,14-2.1,11.9c-.6,3.6-1,6.5-2,9.6h0ZM489.9,549.1c-3.1,1.5-2.4,2.9-1.4,3.9s3,1.3,4.8.3,2.4-2.2,1.7-3.1-3.6-1.8-5.1-1.1h0ZM517.5,574.3c-2.2,1.8-1.5,4-.2,4.5s4.2.8,5,0,2.3-3.8,1.1-4.4-4.8-.9-5.8,0ZM394.7,569.4c0-1.7-4.1-1.4-4.5-.3-.7,1.8,4.6,1.5,4.5.3Z"/>
    <path class="st7" d="M807.9,447.6c-3.7,1.5-11,0-14-.9l-2.8-5.5c-3.4-2.7-4.5-8.9-.9-12.1,7.1-.8,11.5-2.5,16.4-6.7l6-5.1c5.2-4.5,5.2-9.4.4-13.8-1.3-3.1,2.1-10.1,4.5-13.5l6.9-5.9,12.4.5,12.3,10.8c2.7,2.3-1.1,19.8-2.5,21.6l-6.2,4.1c-.5-.8-.6-1.3-.6-1.9s-2,.1-1.8.4l.6,1.7c-7.8,5.1-13.5,11.1-16.6,18.1l-14.2,8,.2.2Z"/>
    <path class="st7" d="M734,476.3c-1.4,1.3-2.1,5.5-3.9,5.6-5.7-.1-11.3-1.1-16.3-2.3l-8-6.5c-2.1-1.7-6.2-1.3-9.4-2s0-2.3.7-2.7,2.5-.9,4.2-1.1l11.3-1.5,15.6-.7,12.4-.7c6.9-.4,12.1-.7,18.3-4.3s7.9-2.7,9.6-5.6c3.6-6.1,8.8-13.9,14.9-14.1s4.4,8.3,7.8,9l11.6,2.4c-.8,3.7,1.1,8.3-2,12.1-4.6,5.6-20,5.6-24,10.2-4,4.6-4.6,6.6-9,9l-13.4-1.7c-4.4-.6-7.2-1.7-8.6-4.7-1.3-2.7-8.3-3.5-11.7-.5l-.2.2Z"/>
    <path class="st0" d="M651.6,353.4c-2,2.9-6.2,4.5-10.4,7.1,4.2,3.1,1.8,6.1.4,9.4-1.9,4.9-5.2,8.2-12.9,9.1-7.7.9-3.6,1.1-5.5,1,0-1-1.6-1.3-3.1-1.2,1.7-1.6,5.2.1,6.9-1.2s1.2-1.4,1.3-2.2c4.5.1,6.7-2.9,8.5-5.5,2.6-3.9.8-5.5,0-8.5s7.1-6.7,10.8-8.4c3.7-1.6,3.2-.3,3.9.4h.1Z"/>
    <path class="st0" d="M463.8,347.2c-.2.8,0,1.8-.7,2.5-.7.6-2.7,1.4-3,2.3s-2.1,2.1-3.2,1.5-2.8-1.1-4.9-.3c.9-.7,2.6-1.3,3.3-2.7l-14.7,4c-2.9.8-5.4-1.9-7-2.8l.7-2.6c8.5,4.3,17.3-1.7,26.3-4.3,2.1-.6,3.4,1.4,3.1,2.5h.1ZM456.7,349.6h-.8c0,0,.8,0,.8,0h1.5c0,.1-.8,0-.8,0h-.8c0,0,.1,0,.1,0Z"/>
    <path class="st0" d="M572.3,223.1l-30.2-2.1c-1-1.9-6.4-.3-8.7-2.3l17.5,1.2c5.6.6,10.4,2.8,17.2,1.2-4.4-2-8.5-1.1-12.4-2.3l29.2,1.9c4.8.3,12.4,2.6,16.7,0-.3.7-.2,1.5-1.2,2.6l-31.2-2,2.9,1.7h.1Z"/>
    <path class="st7" d="M480.1,342.3c-2.3,2.4-6,4.9-7.7,8.2v6.7s-16.3-1.2-16.3-1.2l.3-1c.4-.3.6-1,.7-1.5,1,.6,2.9-.7,3.2-1.5.7,1.4,3.4,2.6,6.2,1s.8-2.1-.1-2.6-1.8-.7-3.1-.7c.6-.6.7-1.8.7-2.5,1.1.6,2.4.9,3.9,1.1s2.7-.6,3.7-1.7,2.4-2.2,3.6-2.8,3.7-.9,5.2-1.4h-.3Z"/>
    <path class="st7" d="M469.7,446.3c-1.3,2.9-4.7,5.3-8.3,8.1,4.1.6,7.3.8,9.1,2.4l-18.9-1.5,18.1-9.1h0Z"/>
    <path class="st0" d="M618.7,378.8c-.7-.5-1.7-.9-3.2-1.1l-26.7-2.2c1.3-.3,3.1-1.2,5.3-1.1l22.1,1.6c1.2,0,2.1-.2,2.8-.6-.1,1,.5,2.2-.4,3.4h.1Z"/>
    <path class="st12" d="M628.2,375.4c0,.9-.7,1.8-1.3,2.2-1.8,1.3-5.3-.4-6.9,1.2s-.2.6-.3.8h-1.2c0-.3.1-.7.3-.9,1.1-1.2.4-2.4.4-3.4.1-1.6,3.1-3.1,5-3.1s4,1.4,4,3.1h0Z"/>
    <path class="st7" d="M553.1,528.2c-3.8,5.5,3.8,9.6-4,10.1,3.8-3.7-5.1-6.8-.3-8.5l4.3-1.6h0Z"/>
    <path class="st7" d="M804.1,417.9c1.2-3.1,1.9-6.7,6.3-9.4,2.9,2-.4,8-6.3,9.4Z"/>
    <path class="st7" d="M688.8,477.5l2-4.7c2.9.8,6.3.4,9.7,2.1-4.4,2-8.1,1.9-11.7,2.6Z"/>
    <path class="st2" d="M496.5,329.9c-.8,1.1-.7,2.4-2.2,3.5s-2.6.9-3.9.8c-1.6-.9-2.4-2.2-.9-4.4,2.4-.6,4.9-.3,7,.2h0Z"/>
    <path class="st7" d="M388.9,481.7c-2.3,2-6.1,2.5-8.4.9s-2.3-1.5-3.9-1.9c4.5-1.4,9.4-1.5,12.4,1h0Z"/>
    <path class="st12" d="M674,314.5c.5,1.4-1,2-2.2,2.2-2.5.3-4-.1-5.3-.9.8-1.1.1-2.9,2.7-3.3s5.1,0,4.7,2h.1Z"/>
    <path class="st4" d="M616.7,283c-2.8,0-4.5-1.3-6.7-2.2,2-1.9,4.6-3.8,8.3-2.8l-1.5,4.9h-.1Z"/>
    <path class="st8" d="M396,566.8l-7.1-.5-2.3-.2c.3-.9-1.6-1.1-3.1-.3s-1.5.8-1.8,1.5h-4c.6-.9,3.3-2.6,4.8-2.9,3.3-.5,12.2.2,13.4,2.4h0Z"/>
    <path class="st10" d="M792,330.5c-.2,1.8-2.2,3.9-4.9,3.8s-1.9-1.3-1.7-1.8c.3-.9,1.2-1.8,2.3-2.5,1.5-.2,3,.4,4.3.6h0Z"/>
    <path class="st12" d="M637.5,284.6l2.2.2c.5,1,.4,2.2-.4,3.3-.9,0-2.6.8-3.7.4s-1.5-1.1-1.3-2c.2-.6.8-1.2,1.6-1.7s1.1-.3,1.6-.2h0Z"/>
    <path class="st0" d="M320.7,405.1l-4.7-.6-.6-1.6c1.5-1.3,2.5-2.7,3.2-4.2l1.9,6.3h.1Z"/>
    <path class="st4" d="M582.9,277.5c-1.2-.9-5.5-.4-7.2.2,1.3-1.8,3-3.7,6.6-4.5l.7,4.3h0Z"/>
    <path class="st7" d="M848.6,362.1c-.3,1.4-.5,2.7-1.4,4.4l-5.8-.4c2.1-1.5,3.7-3.7,7.2-4Z"/>
    <path class="st8" d="M664.2,492.9c-.5.7-1.2,1.8-2.5,1.6l-3-.2c0-.9.8-1.5,1.5-1.5,1.5-.2,2.8,0,3.9.1h.1Z"/>
    <path class="st8" d="M857.6,351.9l-6.9-5.7c4.1.5,6.1,2.9,6.9,5.7Z"/>
    <path class="st4" d="M617.9,286.5c-.8,0-2.2-.2-2.2-.7,0-.9.6-1.5.8-2.1,1.2.5,1.7,1.6,1.5,2.8Z"/>
    <path class="st8" d="M671.2,493.5c-.1.6-.7,1.2-1.4,1.5s-1.4.2-1.9.2c.1-.6.5-1.4,1.4-1.6s1.3,0,1.8,0h0Z"/>
    <path class="st8" d="M675.4,488.6c-.3.2-.3.9-.8,1.2s-1.6.5-2.4.3c.1-.3.3-.8.8-1.1.7-.5,1.6-.6,2.4-.4h0Z"/>
    <path class="st9" d="M687.9,322.5c-.4-1-.2-1.9,1.3-3.4.4.5.9,1.6-1.3,3.4Z"/>
    <path class="st0" d="M893,288.9c0,.6-.5,1.3-1.3,1.5s-1.2,0-1.9,0c.2-.2.6-.9.9-1.2.7-.5,1.5-.5,2.3-.4h0Z"/>
    <path class="st0" d="M456.2,355l-.4,1c.1,0-1.7-.1-1.7-.1-.5,0-.8-.8.3-.8h1.8Z"/>
    <path class="st8" d="M669.6,490.8c.4-.3,1.1-.6,1.6-.7l-1.6.7Z"/>
    <path class="st8" d="M675.1,492.1c.4-.2,1.2-.6,1.7-.9-.5.4-1.1.7-1.7.9Z"/>
    <path class="st8" d="M672.1,493.6l1.6-.8c-.3.4-.9.8-1.6.8Z"/>
    <path class="st9" d="M699.5,227c-.4-2.4-2.3-4.6-5.3-5.5l.3-.7c.2-.6,0-1.1-1-1.2-1.3-1.6-.2-5.2,2.7-6.7s6.8-3,7.8-5.1,3.1-6.6-.7-7.7-10.9-.2-14.4-2.1c-.3-2.6-6-4.1-8.6-9.4,7.4-3.8,7.8-8.7,9.4-13.9,1.1-3.6,2.5-6.1-.4-8.8-2.9-2.7-2.7-4.3-5.9-5.5s-1.6-1.8-3.6-1.8c1.8-1.5,3.3-3,3.9-4.8s16.8-5.2,31.3-17.2c4-3.3,7.6-5.7,10.7-9.8s8.5-7.1,9.7-10.9,0-4.9,2.7-4.9c5.1,0,7.8,4,11.2,5.7s13.1-1,15.8,3.2-1.6,3.6-1.2,4.8l1.7,6.8c-2.3,1.8-7.6,5-6.6,7.6,2,5.1,17.8-3.6,30-5.3l13.8-1.9c8.7,3.1,17.8,5.2,27.7,6.6l-5.9,4.5c-2.2,1.7-11-.5-17.8,8.5-7.7,10.1-2.8,22.7-8.8,22.7h-3.9c-3,8.7,4.2,8.9,2.7,11.1-5.9,9.5-17.2-3.3-29.1,3.1s-27.8,4.5-42.1,13.5c-.8,3.9-4.7,7.1-8.4,10.6-11.3,6.2.1,12.7-7.3,23.1-3.2,0-8-.3-9.6-2.3s-.7-4.4-1-6.2l.2-.2ZM702.3,159.5c-1.9.6-3.2,2.7-2.1,3.8s2.5.9,3.7.4,2.8-2,2.6-2.8c-.4-1.1-1.9-1.9-4-1.4h-.1Z"/>
    <path class="st9" d="M849.3,157.7l-.6,1.6c-2.7.3-3.7,2.3-3.9,4s-.4,1.2-.6,1.6c-.4.7-.6,1.6.6,1.8.3.7.6,1.7.1,2.5s-.8,1.2-.8,2.1,1,.9,2.1.8l2.1,11.8,6.3,13.4c0,5.9-1.7,12.1-3.5,18.4-5.4,6.2-16.1,3.3-24.8,10.1-8.6,6.8-12.3,5.1-19.7,5.1s-11.2,0-16.8-2-9.7-1.5-14.5-1.5-8.3,2.9-8.7,5.1c-.7,4.1-1,8-5.7,11.1-4.7,3-9.9,2-14.5,3.3s-11.5,3.6-16.4.8l-6.1-6.1-8.8-1.6c-1.6-6.6,6.2-13.4,1.2-22,10.2-6.4,12.1-14.9,18.6-16.2,5,1.3,12.5-.9,12.7-1.9l.6-2.3c8.3-.4,16-3.6,23.4-7.5,5.8-3,12.7,4.5,26,.7.5,1.2,3.4,2.9,5.1,1.3l-.5-5c3.6-5.1-4.1-6.8-3.5-9.4s7-3.3,7.2-7.5c.5-8.2,1.5-15.4,10-21.9,6.7-2.7,15.4-2,18.1-7.3,4-.9,9.7-.7,13.7.4.2,6.9-7.2,2.6-9.2,7.4s2.3,1.5,3.7,2.8l6.9,6.2h0ZM820.1,169.1c1.4.6,3.1-.4,3.5-1s1.2-2.2.4-2.5c-1.1-.5-3.3-.8-4,0-1,1.3-1.2,2.9,0,3.4h.1ZM812.6,179.3c1.8-1.3,2.2-2.4,1.5-3.9s-3.1-.6-4,.1c-1.3,1-1.6,2-1,3.1s2.2,1.8,3.7.7h-.1ZM847.4,210.6c-2.6.7-3.5,2.3-2.4,3.1s2.3,1.3,3.2,1c1.9-.6,3.3-1.8,3-2.9s-.9-2-3.8-1.2h0ZM762.3,212.8c-2.3.7-2.6,2.6-1.5,3.4s3,1.2,4.4.3,1.5-1.9,1.5-2.7-2.5-1.6-4.3-1h0Z"/>
    <path class="st14" d="M937.7,175.2c-6.2,1.3-11.2,5.4-16,9l-12.2,6.8c-3.4,3.7-4.4,9.1-4.5,13.2s2.7,3,.6,4.7-4.3,4.5-7.4,3l-12.2-5.9c-.8-.4-3-.6-3.8-.7l-23-1.8,1.2-7.1c.3-2.1-5.4-6.9-7.4-15.6l-2.9-12.1c-.1-.9.7-2.4-1.5-2.8l1.5-4.1c1.4-.2,1.8-1.1,2.1-2s.5-1.3-.8-1.3l.5-1.3c1-3.4-6.9-5.4-3.4-9.8l4.8-5.9,26,2.1,8.5,3c9.2,3.3,21.1,8.8,29.1,13.5l19.2,11.2c.8.5,3.4.4,2.7,1.8l-1.3,2.1h0ZM885.5,157.3c-2.5.6-2.8,2.8-1.9,4s2.9,1.8,5,.9,2.7-2.6,1.9-3.7-2.7-1.6-5-1h0ZM860.8,161c-1.7,1.3-1.2,2.8.1,3.1s2.8.2,3.4-.3c1.4-1.1,1.1-2.4.4-3s-2.8-.8-4,.1Z"/>
    <path class="st7" d="M873.4,225.9c-1.3-.7-3-1.2-4.8-.7s-1.9,2-1.5,3.6c-2.8,1.7-8.1,4.4-12,5.1l-8.2-8.8c-4.3-4.7,7.8-4.2,9.4-9.4l2.5-7.9c6.3-1.2,11.9-.2,18,.3,15.6,1.4,16.7,10.4,27.3,5.9,6.9,3.2,10.5,3.4,17.3,2.1s14.7-2,21.8-5c.3,3-1.6,4.9-2.1,7.1s7.7,7.8,10.4,7.8,4-.8,6.3-2c7.2-3.4,15.4-3,23.4-3.1l9.7-2.9c3.1-.1,5.8.7,8.5,1.1-.4,6.3-2.8,12.1-6.9,17.8l-13.4-.9c-2.8-.3-6.5.5-8.9,1.8-9.4,5.3-19.4,4-25.8-1.1-10.9-8.5-26.7-.3-28-3.3-1.2-3.1-4.1-5.6-9.5-4.3s-5.1-.1-7.5-1.2c-10.8-5.2-12.5-6-26.5-1.9l.2-.2Z"/>
    <path class="st7" d="M999.3,215.5c-6.3-1.9-11.6,0-17,1.9-5.5,1.9-12.7.7-18.6,1l-9.4,4.2c-3.7,1.6-9.5-3.3-7.8-6,1.7-2.6,3.4-4.3,1.7-6.4s-4.2-2.5-7.4-1.3c-6.4,2.6-12.7,3.2-19.7,4.9-7.1,1.7-10.6,1-11.9-2,4.5-4.6-1.6-7.7,2.2-16.1l11.4.6,17-4c1.2-.3,3,.2,3.1.8.4,1.6-7.6,2.5-7.1,7.1.5,4.6,3.9,3,7,2.6,5.7-.7,7.8.2,9.9,3.5s4.7,1.5,3.5,4.3c4.2-2,6.2-2.6,9.9-3.5l2.8-7.4c5.3.4,10.1.2,14.8,1.3l2.8,1.4c.5.3,1.9-.6,2.7-.8l9.6,3.6c1.9,2.9,1.2,6,.2,10.3l.2.2Z"/>
    <path class="st9" d="M954,201.3c-3.4-2.1-9-1.1-13.4-2,2.1-2,6.3-3.9,5.7-6.1s-4.7-4.2-7.1-3.9c-8.9,1.2-17.6,7.2-25.1,3l13.5-7.5c2.2-1.2,3.2-4.4,5.6-5.5l13.2-3.5c3.8,2.8,8.3,4.4,14,4.7l24.9,1.6c6.8.5,9.7,6.6,9.7,11.1-1,.8-3.4,2.3-2.5,2.9l3,2.2c.9.6-1.1,1.5-1.6,1.1s-1.2-1.4-1.9-1.4l-25.9-1.8-3.9,9.5c-4.9.3-5.7-2.9-8.3-4.6v.2Z"/>
    <path class="st7" d="M942.2,248.7c1.7.1,3.6-.5,4.3-1.3,1.3-1.5,1.2-2.6-.6-3.5s-2.4-1.1-4.1-.1-2,2.4-2,3.6c-2.9.7-6.8-1.2-9.7-1.5-9.3-1.2-10.7-7.8-10.6-7.9-.2.2,11.3-3.7,13.7-2.7l16.9,7.4c3.3,1.4,10.2,2.3,14,.7l8.7-3.5c7.1-2.9,16-.9,16.1-.4,1.1,3.1-7.7,5.9-16,7.7-1.4,3.6-3.1,5.7-7.8,7.1s-6.7,3.5-9.4,1.9c-4.3-2.6-8.6-5.6-13.6-7.3h.1Z"/>
    <path class="st7" d="M946.7,263.6c-11.7,2.2-9.9,6.3-18.4,10.8-1.6-2.2-4.3-3.1-6-4.6l-4.3-4.1c1.9-.9,3.3-1.2,5.4-1.8,3.6-4.8,4.2-9.5,2.9-15.4,9.6-1,26.6,8.6,27.2,10.8.6,2.2-4.2,3.8-6.8,4.3h0Z"/>
    <path class="st7" d="M748.5,197.6l-.6,2.3c-.3.8-7.9,3.1-12.7,1.9,2.7-2.5,8.9-3.8,13.3-4.1h0Z"/>
    <path class="st7" d="M914.1,289.6c-1.4,1.5-4.2,4.9-7.5,4.4s-3.8-3-5.3-4c1.6.3,3.8,1.2,5.8.3l3.3-1.6c1-.5,2.7.4,3.6.9h0Z"/>
    <path class="st7" d="M921.3,283.4c1-1.7,1.8-3.8,1.7-5.9-.1-.4-2-.5-2.4-.2s-1,0-1.4,0c-.9-.2-1.7-.3-2.8-1.1,1.9-.9,2.8-1.6,3.3-2.5,2.5.5,6.4,1.7,6.3,3.5,0,2.7-1.7,5.2-4.9,6.3h.1Z"/>
    <path class="st10" d="M942.2,248.7c-.7-.2-1.6-1.5-2.4-1.5,0-1.1.3-2.5,2-3.6s2.9-.4,4.1.1c1.8.9,1.9,2,.6,3.5s-2.7,1.5-4.3,1.3h0Z"/>
    <path class="st8" d="M689.3,165.9c-1.3.2-2.6.6-2.8,1.4-3.1-.9-5.1-3.2-5.4-5.6.5.6,1.6.5,1.9-.2l.5-1.3c3.3,1.2,4.1,3.7,5.9,5.5h0Z"/>
    <path class="st12" d="M802.5,187.1l.5,5c-1.7,1.6-4.6-.2-5.1-1.3s-.5-2.1,0-2.8c1.1-1.2,3.3-1.5,4.7-1h0Z"/>
    <path class="st7" d="M683.9,153.7c-.7,1.8-2.2,3.3-3.9,4.8-2.2,0-4.4,0-7.1-.8,3.3-2.2,7.2-3.3,11-4Z"/>
    <path class="st12" d="M873.4,225.9c0,.9-.6,2.1-1.7,2.6s-3.6-.3-4.5.4c-.5-1.6-.3-3,1.5-3.6s3.5,0,4.8.7Z"/>
    <path class="st7" d="M920.9,284.3c-1.1,2-3.2,4.2-6.4,4.7,0-1-.6-1.6-2.2-3.2l8.4-1.6h.1Z"/>
    <path class="st7" d="M915.7,269.8c-1.5.2-3.7.3-4.8-.6s-.2-2.8.4-4c2.6.7,3.1,3,4.3,4.6h0Z"/>
    <path class="st8" d="M844.9,163.4c.2-1.7,1.1-3.6,3.9-4l-1.1,2.9c-.3.7-1.2,1.6-2.8,1.1h0Z"/>
    <path class="st8" d="M699.5,227c-1.6-.5-2.6.2-3,1l-.8,2.2c-.9-.1-1.6-.5-1.7-1,0-.7.4-2,.8-2.7.5.2,2.2.2,2.9-.8-1.9-1.3-4.2-2.5-3.6-4.3,3,.9,4.9,3.2,5.3,5.5h0Z"/>
    <path class="st7" d="M919.2,273.5c-.7,0-2,.1-2.9-.2s-.4-1.1,0-1.7c.8,0,1.7.1,2.5.3s.8.9.4,1.5h0Z"/>
    <path class="st8" d="M849.9,168.9c-1,.2-2-.1-2-.7,0-.8.3-1.4.6-2,2,.3,1.2,1.9,1.5,2.8h-.1Z"/>
    <path class="st8" d="M846.4,172.1c-1,.2-2.1-.1-2.1-.8,0-.8.5-1.4.8-2.1,1.6.6,1.1,1.8,1.3,2.8Z"/>
    <path class="st7" d="M912.4,262.7l-.6,1.7c-.6,0-1.3,0-1.7-.1s-.8-.7-.1-1.3,1.9-.4,2.6-.3h-.1Z"/>
    <path class="st8" d="M850.1,162l1.3-3.4c1.2,0,.8.9.7,1.3-.2.9-.7,1.8-1.9,2Z"/>
    <path class="st8" d="M844.9,166.7c-1.1-.2-1.2-1-.6-1.8.6,0,1.7,0,1.8.6s-.8,1-1.2,1.2h0Z"/>
    <path class="st1" d="M367.1,77.9c3.1.7,6.9-.6,8.5-3h2.2c-.6,1-1.4,2.9-.3,3.2,1.6.5,3.9.4,5.4.6l1,.2c-.9.8-2.7.8-3.8,2.5,1.6.9,4.4,1.3,6.6.6s2.9-1.4,3.7-2.7c1,.2,2.9.2,3.9-.2,5-1.9,4.4-5.6,6.9-8.2s10.6-5.3,14.4-4.7l16.8,2.3c0,2-1.1,3.6-1.7,5.2,3,7.7,8.8,14.4,17.8,19,9,4.6,4.5-.3,6.1,1.3,2.3,2.2,6.3,4,9.8,4.4s1.5.2,2.1.1l5.8,3.9c-1.3,6.7-7.4,7.3-2.9,9.4l-14.9,11.3c-4.3,3.2-8.3,6.3-12.7,9.5l-36.1,26.9c-2.1,1.6-5.7,3.7-3.6,5.9s4.6,5.7,2.1,8.7l-9.3,11.7c-1.8,2.2-6.4,3.4-9.4,5l-82.2-5.6c-4.3-.3-6.2,0-8.4-3.1s-6.2-9.2-13-10.5c-19.3-3.6-30.4-1.2-43.6,11.9l-17.3-.6c-1.3,2-3.4,5.3-6.6,6.1-5-2.9-8.9-.8-14.9-1.1l-7.9-.3c-7.2-.3-9.4-5.3-22.3,2.6-12.9,8-7.1,3-10.5,1.5l-46.7-20.8c-13.4-5.9-26.6-10.5-42.1-13.7l-9.5-1.9c-11.6-2.4-21.6-5.9-31.8-9.9-10.2-4-11.6-2.5-16.1-5.6,5.8-2.8,12.5-2.9,18.6-4.5s12.9-12.5,21.1-18.4l28.3-6.8,26-.3c4,0,7.4-3.8,12.3-1.6s10,3.5,14.4,1.7l28.9-29,8.4-8.4,5.3-6.9c-.1-4.1-3.4-7.7-4.3-11.8s1.1-6,3.5-7.2c5.5-2.6,10.9-.7,15.7-.9l4.1.5c2.4-2.7,3.9-7.2-.2-8.5l-9.7-3.1c-1.5-.5,1.7-3.1,4.2-2.9l43.4,2.8c3-1.3,9.5-4.7,10.4-1.2s-3.3,7,.3,8.7,7.5,2.9,9.8,4.8c5.5,5,12.9,3.4,20.5,3.6s7,3.2,13.5.2,10.6-4.2,15.6-4.8l16.6-2,6.8-4.4c5-1.6,10.9-3.2,16-2.6l11.4,1.5c-4.6,8,1.3,11.1-3.9,16.1-10.3,9.9-2.2,12.6-2.7,14.1s-5.3,3.2-5.4,6.1,10.5,11.9,20.2,8.8,4.7-3.9,5.6-6.1h-.3ZM289.7,81.5c-2.5.5-2.4,2.5-1.6,3s2.2.6,3.5.2,1.7-1.7,1.7-2.6-2-1-3.6-.6h0ZM435.3,96.4c1.9,0,4.2-1.2,4-2.3s-1.7-1.5-3.1-1.5c-2.7,0-3.7.9-4,2.3s.9,1.5,3.1,1.5ZM189,103.4c-2.7.5-3.6,2.5-2.9,3.4s2.9,1.5,4.7,1.2,2.6-1.9,2.3-3-1.7-2.1-4-1.7h0ZM171.8,104.8c-2.8.5-3.6,2.5-3.1,3.4.9,1.4,3.1,1.6,4.8,1.3s3-1.9,2.7-3.3-2.2-1.8-4.4-1.4h0ZM424.4,128.2c0-1-2.6-2.6-4.1-2.4-2.4.3-3.2,1.9-3.2,3.2s1.4,1.7,3.5,1.5,3.9-.2,3.9-2.4h0ZM291.3,119.3c-1.6.4-3,2.6-1.6,3.2s2.3.5,4.1-.1,2.1-1.1,1.5-2-1.9-1.7-4-1.1ZM145.2,112.7c-1.7,1.3-1.6,3.7-.2,4s3.2-.2,4.3-.6c2.6-.9,1.8-2.3.6-3.1s-3-1.6-4.8-.3h0ZM296.5,133.4c-2.6,1.3-1.8,3.1-1,4s3,1.3,4,.5c1.8-1.3,2.5-2.8,2-3.7s-3.2-1.6-5-.7h0ZM309.7,147.9c-2.4-.5-4.2-.9-5.4-.7-1.2,0-1.2.9-.8,1.1,2.1.5,1.8,3.4,5.3,2.4s2.6-2.2,1-2.6h0ZM199.6,144.9c-1.8,1.3-1.7,3.2-.2,3.6s2.3,0,3.7-.9,1.7-1.9.8-2.7-2.9-1-4.2,0h-.1ZM321.5,153.8c-.5-.5-1.8-.9-3.2-.6s-3.7.9-3.7,2,1.1,1.8,2,2c1.6.4,6.1-2.6,4.9-3.4h.1ZM259.2,155c-.6-1.2-4.5-1.7-5.5-.8-1.7,1.3-1.9,3-.7,3.6s2.7.5,4.2.3,3-1.3,2.1-3h0ZM111,164.1c.7-.9-.4-1.9-1.1-2.1-2.1-.3-5.7.6-7,1.7s-.7,1.8,0,2c3.2.6,7-.3,8.1-1.7ZM198.7,172.9c-1.9,1.9-1.2,3.2.1,3.5s2.4.2,3.4-.4,1.2-2.2.5-2.8-3.3-1-3.9-.4h0ZM172.4,180.2c2.4-.9,3.4-2.4,3.3-3.4-.3-1.4-2.2-1.9-4.3-1.7-3.3.2-4.4,1.9-4,3.4s2,2.7,5,1.6h0Z"/>
    <path class="st14" d="M295.8,188.1c.5.1.7,1.3.8,1.7-1,1.3-2.8,1.4-5.1,1.8s-1.6,3,.8,3.6c-2.9,2.4-6,5.3-6.3,8.2s4,3,5.7,2.4c2.5-.9,4-2.2,6.5-1.8-.8,2-1,3.4-.8,4.8l-5.1-2.1c-2,2.4-1.4,4.8-2.3,7.1s2.1,4.4-.5,8.4c-1-.2-2.5,0-3.3.6s-1.3,1.9-1.1,2.9l2.2,7c4.7-.3,6.5-2.7,7.3-5.1,1.2,0,2.9-1.4,4.3-.7,1,2.3,5.3,3.1,8.7,3.5s3.4-.4,4.3.3-.4,2.4-1,2.3l-3.4-.5,1.5,2.7c-3.9,1.5-5.7,1.6-9.5,2.5,4.3,2.2,9.2,1.9,13.8,0,1.8,1.2,3.7,2,5.7,2.6-1.2,1-2.4,1.3-2.7,1.3-1,0-2.1,1.7-.2,1.7s5.1-.3,5.4.6-.7,3.4-2,3.6-2.2-1-2.9-.8c-1.8.6-1.2,3.8.8,5.1s2.5.6,3.8,0c-.4.4-.4,1.3-1.4,1.5s-1,.2-1.5.2c-3.4.5-7.2,2.4-8.9,4.6-.6.1-1.6-.1-2.3-.2l-10-1.2c-2.7-.4-4.1-2.4-8.1-1.7l-2.4,6.5c-.1,0-13.4-.6-13.4-.6-1.4-.4-3.6-.6-5-.7,1-1.9,3.3-2.9,6.5-3.7s6-5,4.7-6.4-3.7-.7-4.4-.4c-1.1.4-1.3,3.5-5.1,6.1s-3.8.9-5.7.9l-6.9-5.1c-7-1-11.4-3.7-17.2-6-12.6-5.2-26.6-4.6-34.1-10.5-5.4-4.3-10.6-8.3-11.3-14.5-.3-2.6,1.8-5.4,2.7-8.2,4.4-13.6,13.9-18.9,5-20.4,3.5-2.4,5.3-.5,7.9.1,4.9,1.1,11.2-2,13.6-5.2,10.8-.6,16.2,3.1,20.1-3.1s10.1-7.8,17.7-10.2c9.2-.8,19.7,1.1,25.3,5.8s3.6,7.8,8.6,9.1v-.3ZM259.3,182.7c-1.7,1.3-1.2,2.7.3,2.8s1.9-.2,2.6-.6c1.4-.8,1.3-2,.8-2.4s-2.4-.6-3.6.3h-.1ZM284.3,195.2c-1.9.6-2.2,1.7-1.7,2.2s2.3,1.4,3.1,1c1.1-.5,1.4-2.1,1-2.7s-.9-1-2.5-.5h.1ZM277,197.6c-.7,1.2.9,1.4,1.4,1.3s1.1-.7,1.1-1.2-1.1-1.1-2.5,0ZM202.3,210.3c-.2.6-1.9,1.7-2.3,2.3s0,1.8,1,2.1,3.3.4,4.5-.5c2.8-2,3.3-5.4,3.6-7.9-.3-.9-3.9-.6-4.9,0s-1.4,2.4-1.8,3.8h0ZM267.1,223.2l-2.4,1.1c-.4.2-.4,1,.2,1.1s1.3.3,2.1-.7c1.9,1,8.2.6,8.4-1.5-2.1-2.7-5-5.1-5.9-8-3-.5-5.1,1.9-5.5,3.7s.4,2.9,3.1,4.4h.1ZM252.6,215.8c-1.7.7-2.7,2.4-1.8,3.1s2.6.8,3.7.2,1.8-1.5,1.6-2.6-1.1-1.6-3.4-.7h-.1ZM261.1,222.9c1.1-4.7-3.8-3.5-13-1,4.2,1.5,8.5,1.5,13,1ZM239.2,229.2c-3,1.1-3.5,2.7-2.8,3.4,1.1,1.5,3.4,1.4,4.8,1.1s2.8-2.1,2.9-3.2c0-1.6-2.4-2.2-5-1.3h.1ZM301.5,233.8c-.7,1.2.9,1.4,1.4,1.3s1.1-.7,1.1-1.2-1.1-1.1-2.5,0ZM308.2,241.5c.1-1.9-4.2-1.4-4.5-.5-.4,1.7,4.4,1.5,4.5.5ZM270.6,250.2l3.9-4.1c1.2-1.3,3.7-5.1,2.1-5.7-2.7-.9-2.4,2.2-2.9,3-1.3,1.9-5.8,4.3-3.2,6.9h0ZM271.1,240.5l-.7.4.4.5.7-.4-.4-.5Z"/>
    <path class="st9" d="M42.3,154.5c-2.6.7-4.7,2.1-4.6,3.4,0,2,2.7,2.7,4.4,2.1s3.4-2.1,3.9-3.5c4.8-.7,7.5,1.5,11.2,2,9.5,1.4,17.2,3.8,24.5,5,7.3,1.2,8.4,2,12.7,3.9l50.8,22.7c3.6,1.6,7.1,2.7,8.8,5.8l-22.9,6.3c-6.8-.9-14,.7-20.4,3.6l-32.8-2.8-19.5-.2c-.1-2.2,1.5-4.1,2.4-6.3,1.3.8,2.9.9,4.3.5s2.9-1.3,2.8-2.6-2.2-1.5-3.2-2.3c2.4-3.8,6.4-7.1,6-11.1s-2.9-2.7-5.5-1.9l-16.9,4.8c-8,1-15.1-.8-22.9-1.1l3.5-3.3c-4.1.4-5.1-1.7-7.2-2.9s-6.9-1.5-9-3.6c-.3-1.7,2.1-4.7,1.4-6-1.7-1.9-2-4.3-3.4-5.8-9.1-9.1-4.4-19,.7-17.3l30.9,10.7h0ZM36.1,168.3c-2.1.6-2.7,2.8-2.2,3.7.6,1.3,3.9,1.4,5.1.7s2.8-3.1,2.4-4.1-3.7-.9-5.2-.4h0ZM128.2,189.3c-2.6.6-2.6,1.8-1.8,2.8s1.9,1.5,3.7.9,2-2.2,1.4-2.9-2.1-1.1-3.4-.8h0Z"/>
    <path class="st9" d="M304.3,195.5l-1,3.3-.7,1.8c-1.3,3.3-3.6,6.4-5.1,10l-3.9,9.9c-.8,2.1.4,3.4,2.5,3.7-2.9,3.2-7.4-.3-8.2,2.8l6.7.3c-.8,2.4-2.6,4.9-7.3,5.1l-2.2-7c-.2-1,.2-2.2,1.1-2.9s2.4-.9,3.3-.6l-.4,1.2c-.3.8,1.5,1,1.7.5l3.7-9.8c.4-.3.8-1,.9-1.3s-1-.8-1.7-.6c-.7.2-1.4.8-1.6,1.5h-2.1c.8-2.2.3-4.6,2.3-7l5.1,2.1c-.2-1.4,0-2.7.8-4.8-2.3-.4-4,.9-6.5,1.8s-5.8-1.2-5.7-2.4c.3-3,3.2-5.8,6.3-8.2-2.4-.6-2.5-3.3-.8-3.6,2.4-.4,4.1-.5,5.1-1.8l9.2.7c0,0-1.4,5.1-1.4,5.1v.3Z"/>
    <path class="st11" d="M470.9,210.8l29,2.1c1,.9,3.4.5,4.7,2.1-2.9,1.8-4.7,0-6.7-.3l-28.8-2.2-21.1-1.7c.7-.5,1-1.7,3-1.4l19.7,1.4h0Z"/>
    <path class="st9" d="M304.1,224.7l12.2,2.2-.6,1.6.5.4c.6,0,1.6.8,1.2,1.4s-1.2.3-1.6.1-.4-.5-.4-.8-.3-.5-.7-.5l-4.3-.3c-.9-.2-2.2.2-2.4,1.4-3.3-.3-7.5-1.2-8.7-3.5l.8-2.2,4.2.3h-.1Z"/>
    <path class="st8" d="M199.7,188.2c-.9,2.2-5.4.7-6.4,2.4s-.2,1.4-1.1,2.1c-8.7-2.6-17.3,1.1-19.8.2s0-1.3.7-1.6c12.9-5.1,19.5,3.4,18.6-3.4l7.9.3h.1Z"/>
    <path class="st7" d="M469.5,112c-4.4-2.2,1.6-2.8,2.9-9.4,1.5,1,4.2,1.8,6.2,2.6l-9.1,6.8Z"/>
    <path class="st12" d="M304.4,213.6c1.6.4,3,1.3,3.6,2.2-2.6,2-5.3,2.8-7.9,2.4-.9-1.1-2.1-2.1-1.4-4.5,1.8-.4,4-.6,5.8-.2h0Z"/>
    <path class="st12" d="M46.1,156.5c-.5,1.4-1.5,2.8-3.9,3.5s-4.5-.1-4.4-2.1,2.1-2.7,4.6-3.4c1,.4,2.1,2.2,3.7,2h.1Z"/>
    <path class="st7" d="M304.3,195.5l1.5-5.2-9.2-.7c-.1-.3-.3-1.4-.8-1.6,3.6.9,7.4.5,12.6.2-.3,4.2-2.1,7.9-4,7.2h0Z"/>
    <path class="st12" d="M470.5,97.1c-1.1.7-2.5,1.4-3.9,1.4s-1.4,0-2.1-.1c2.2-3-1-3.1-2.1-4.9l6,.9c1.1.2,2.1.4,2.4,1s0,1.1-.2,1.7h0Z"/>
    <path class="st10" d="M60.9,196.6c.7-1.8,2.8-2.8,3.9-4.6,1,.8,3.1,1.3,3.2,2.3s-1.7,2.3-2.8,2.6c-1.5.5-3.1.4-4.3-.5h0Z"/>
    <path class="st6" d="M299.8,224.5l-.8,2.2c-1.3-.7-3.2.8-4.2.7l-6.7-.3c.7-3.1,5.2.4,8.2-2.8l3.5.2h0Z"/>
    <path class="st7" d="M302.4,200.7l.7-1.8c0,.8-.4,1.2-.7,1.8Z"/>
    <path class="st1" d="M345.9,75.1c8.3-8.3-1.7-13,7.9-15-1.8-2.8,1.8-6.2,2.5-8.8.9-4.2-2.2-8.2,2-12.7-3.1-1.9-6-2.2-9.4-3.4s-3-4.3-5.6-5-6.4.5-9.6-.2c-2.3-6.5,3-13-4.6-17.4,2.2-1.5,4.5-1,5.4.1,4.6,5.2,12.5,1.7,19,5.8,4.3,2.6,11.5,3.1,14.1,1.7s2.7-2,3.7-4.2c12.7,1.9,33.1-.8,46.1-4.8s10.5-6.5,13.3-6.3c4.4.3-5.5,5.7-2.6,8.5s5.2,2.1,7.4,2.9c.8,4-4.2,6.1-8,8.3-7.8,4.5-7,11.3-6.7,16.7s.1,6.7,6,9,7.2,4.7,9.1,7.1-1.2,5.8-2.4,7.9l-19.8-1.2c-3.4-.2-8,1-11,1.8-10,2.9-4.9,10-12.7,11.7s-5.2-8.1-19.3-4.9c-14.1,3.2-5.6,6.1-13.1,9.8-4.1-2-8.1-3.8-12-7.1v-.3ZM397.9,50.4c-2.5.9-2.1,2.5-1.3,3.1.9.6,2.7,1.1,4.1.3s2.2-1.8,1.9-2.7-3.3-1.2-4.6-.7Z"/>
    <path class="st3" d="M632.9,36.3l-.2,5.3c-.1,2.6-.4,3.2-.2,5.8l.9,10.2,12.6,5.7c1.8.8,3.7,1.1,4.3,2.3.9,2-3.5,2.6-4.6,3.7-13.4,13.3-31.7,6.9-44.4,23.6-4.2,1.2-8.3,1.7-12.2,1.1-.7-8.4-9.8-10.1-11-14.8-1.5-6.1-1.3-12.8-6.5-17.7-3-.9-7.3-1.3-9.3-3.2l2.4-2.1c-2-.9-3.9-1.1-5.9-1.2l.6-1.6,5.9.4c1.4,0,1.9-1.1,1.8-1.7l8,.6c-1,1.3.2,1.9,1.2,2l4.1.3h3.8c.7.1,1.6-.7,1.4-1.4,1,0,2.1.1,3.1,0,3,2.1,6.9,1.7,10.3.6s5-4.8,5.7-7.3c.7-.2,2.1-.7,2.8-.5,1.6.5,3,.6,5.1-.2s2.5-1.8,1.4-3.6c1.1-1,3.6-2.4,3.4-3.9,2-1.2,3.8-3.3,6.7-3.1s6.3-.3,8.7.6h.1ZM619.8,43.8c2.3,0,2.5-1.5,1.5-1.7s-1.7,0-2.3,0c-.6,0-1.3,1.6.9,1.7h0Z"/>
    <path class="st7" d="M604.9,46.9c-.7,2.5-1.2,5.8-5.7,7.3s-7.3,1.6-10.3-.6c10.2-1.9,11.7-5.5,16-6.7h0Z"/>
    <path class="st6" d="M558,51.8c-.5.6-.5,1.3.3,1.5s1.1.3,1.6.3l-.6,1.6h-6.5s-5.8-1-5.8-1c-.9,0,0-1.6.3-1.9.5-.4,1.7-1,3.1-.9l7.7.4h0Z"/>
    <path class="st7" d="M390.4,79.4c-.9,1.2-2.4,2.2-3.7,2.7-2.2.7-5,.2-6.6-.6,1.1-1.6,2.8-1.7,3.8-2.5,0,0,6.5.5,6.5.5Z"/>
    <path class="st7" d="M607.7,46.4c-.3-1.7,1.6-2.6,3.7-3.9l6.1-3.9c.3,1.5-2.2,2.9-3.4,3.9,1.1,1.8.9,2.7-1.4,3.6s-3.5.7-5.1.2h0Z"/>
    <path class="st7" d="M558.9,55.2c2,.1,3.8.3,5.9,1.2l-2.4,2.1-9.9-3.3h6.4Z"/>
    <path class="st7" d="M585.9,53.7c.2.8-.7,1.6-1.4,1.5h-3.8c0,0-4.1-.4-4.1-.4-.9,0-2.2-.6-1.2-1.9l10.4.7h0Z"/>
    <path class="st7" d="M382.9,78.7c-1.5-.1-3.8,0-5.4-.6s-.3-2.3.3-3.3c2.8,0,4.7,2.1,5,3.9h.1Z"/>
    <path class="st7" d="M375.6,74.9c-1.6,2.4-5.4,3.7-8.5,3,.5-1.3,2.3-2.5,3.6-2.8s3.6,0,4.9-.2Z"/>
    <path class="st7" d="M632.9,36.3c-2.4-.9-5.8-.4-8.7-.6,3.1-1.7,6.4-.2,8.2-3.6,1.5,1.1.6,2.9.5,4.3h0Z"/>
    <path class="st7" d="M557.7,59.9c-1.9.9-3.4,1.1-4.9,1s-2.5-1.6-1.6-3c3.3-.1,4.5,1.3,6.5,1.9h0Z"/>
    <path class="st7" d="M567.3,52.4c.2.5-.4,1.7-1.8,1.7l-5.8-.4c-.5,0-1.1,0-1.6-.2s-.6-1-.3-1.5l9.4.5h.1Z"/>
    <path class="st3" d="M436.6,576.4c4,0,6.5,1.7,9.7,3.1s8.3,2.7,10.6,5.5l9.1,11.2c-.9,1.5-.9,2.8.2,3.9s2.1,1.3,4,1.1c.9,2.9,5.5,3.8,9.5,4.6l12.2,2.3c.6,1.1-.6,2.9-1.5,3.6-2.2-1.1-6-.8-8,1.4s-.5,3.7,1.9,4.4c-4.3,3.8-11.5,4.3-10.7,10.6,1.1,1.9,6.7,2.4,9.2,3.4.8,1.1-.5,2.5-.7,3.2-.7-.2-1.8,0-2.2.4s-.5.8-.6,1.2l-.3.8c-.8.2-1.9.9-2.7,1.8l-10.9,11.3-9.7,12.1,4.3-13.3c-5.1-.8-11.1,0-15.1-1.9s-2.6-4-6.5-4.2-7.5,1.9-8.3,4.4c-2.2,6.6-6.8,12.2-11.1,18.2-2.3,3.2-3.5,5.9-8.3,8.3l-7.2,3.6-1.6.8-1.4.7-5.7,1.9c-4.5,3-7.5,6.9-10.9,10.5-7.2,7.7.1,14.3-10.7,22.2l-1.1-11.4c-15.2-2.4-18.8,10.8-23.9,11.5s-3.3-.3-4.4-1.7l-4.9-5.6c-5-5.7.8-12.3-3.6-14.4l-12.6-5.8-13-13.6-11.1-5.9c-6.1-3.2-4.1-10-9.6-11.3s-9.5.4-14.8,2.9c.6-4.7-1.3-8.1-4.7-11.2l-9.5-8.7-8.4-7.8-10,.9c-.5,0-.6-.3-.4-.7s.6-1,1.2-1.2c4.4-1.6,7-4.1,10.8-6.2l19.8-11.2,16.4-9.7c.8,1.4,3.4,2.7,5.7,1.5s2.5-3.7,1.7-4.8c1-.8,2.4-2.2,3.9-3.2l15.6-9.1c8.2-4.8,19-6.1,28.5-9.2l10.9-3.4c5.1-1.6,10.5-4.2,15.6-4.1,2-1.2,4.4-3.1,6.7-3.1h4c3.6-.2-.2,1.6-2.3,5,2.8.4,4.2,1,6.4,2.5.4-1.2.9-2.4,1.7-3.1s2.6-1.2,2.9-.5l1,2.1c0-.2,7-1.9,7-1.9l1.8-4.1c3.6,3.4,7.4,4.3,14,4.1l-3.1,4.1c3.9,1.3,7.4,2.2,12.2,1.1-1.4-1-2.8-1.4-1.6-3.1,4.1,2.8,9.3,2.9,14.5,2.7v.4ZM294.1,629.1c-3.3,1-3.2,3-2.5,4s3.8,1.6,5.4,1.2c2.6-.7,3.4-2.7,3.1-3.9s-3.4-2.1-6.1-1.3h0ZM358.5,636c-2.5.6-4.4,2.4-3.7,3.7s2.8,2.4,5,1.8,3.2-2.4,2.9-3.8-1.6-2.4-4.3-1.7Z"/>
    <path class="st9" d="M345,741.1l-14.1,7.6c-.9-5.7,3.6-10.3,9.6-14.5,6-4.2,5.7-2.6,6.8-5.5l10.1.7c-3.7,4.1-6.7,8.6-12.5,11.7h0Z"/>
    <path class="st7" d="M389.2,695.3l-4.4,2.8c1.2-5.8,9.3-14.1,17.1-17.1h1.2c.5.1,1.1,0,2.1.2l-10.7,8.2-5.3,5.9Z"/>
    <path class="st7" d="M367.8,711.1c-2.9-.5-6.2,0-8.9-1,.6-1.5,2-2.5,3.4-3.5s6-1.5,6.6-.2-.7,3.6-1.1,4.7h0Z"/>
    <path class="st15" d="M321.1,251.7c-1.3.5-2.8.7-3.8,0-2-1.4-2.6-4.6-.8-5.1s2,.9,2.9.8c1.4-.2,2.3-2.7,2-3.6s-3.8-.7-5.4-.6-.9-1.7.2-1.7,1.5-.2,2.7-1.3c-2-.7-3.9-1.4-5.7-2.6-4.6,1.9-9.5,2.2-13.8,0,3.7-.9,5.6-1,9.5-2.5l-1.5-2.7,3.4.5c.6,0,1.8-1.7,1-2.3s-3.1-.2-4.3-.3c.2-1.2,1.7-1.6,2.5-1.5l4.3.3c0,0,1-.4,1-.4l.6-1.6,12.2,1.5c1.6.1,2.3,1.7,2.4,2.4s-1.2,2.2-2.7,2.8c-8.8,3.5.3,9.6-7.1,18.1h.3ZM316,228.9l-.8.6c0,.3,0,.7.4.8s1.4,0,1.6-.1c.3-.6-.5-1.4-1.2-1.4h0Z"/>
    <path class="st15" d="M306.9,257.8c-2.1,4.2-8.1,6-13.8,5.1-5.8-.8-14-.5-20-2.2l13.2.6,2.4-6.5c4.1-.7,5.4,1.4,8.2,1.7l10,1.2h0ZM293,257.2c-2.9.7-3.2,2.5-2.7,3.3s2.3,1.5,3.7,1.3,3.2-2.2,2.8-3.2-2.2-1.7-3.8-1.3h0Z"/>
    <path class="st7" d="M293.6,305.7c.3-1.2,1.2-3,.8-4.3-2.4-6.3,7.5-10.8,10-18,1.1-.3,2.4,0,2.2.6l-.7,1.9c0,2.1-4.9,6.4-8.3,11.6.8,3.7.5,7.5-1.3,8s-1.8.2-2.6.2h0Z"/>
    <path class="st9" d="M268.1,260.1c-3.1-.2-2.7-2.7-3.9-3.6,2,0,4.2.1,5.7-.9,3.7-2.6,4.1-5.7,5.1-6.1s3.7-.3,4.4.4c1.4,1.5-1.5,5.6-4.7,6.4s-5.5,1.8-6.5,3.7h-.1Z"/>
    <path class="st7" d="M308.1,262.7l16.5-8.1-2.9,3.3c.6,1.2,1.7,2.7.2,3.7s-2.9.5-3.9.3l-.8.5-1.4,2.1c-1.5,2.4-4-1.4-7.8-1.7h.1ZM317.4,261.4c.5-.5,0-1.2-1.1-1.1s-.4.5-.5.8c-.2.5,0,.7.8.5l.9-.2Z"/>
    <path class="st7" d="M309.6,313l-16.6-1.5c-1.5-.5-.7-3,0-4,.9,1.6,2.2,3,4,3.2,5.4.6,13-3.2,14-.7s-1.1,2.3-1.5,3Z"/>
    <path class="st7" d="M304.9,281.7c-1.5-3.2.9-6.8,1.5-10.2,3,.9,6.2-1,9-1.4,5.8-1,6.7,6.3,5.3,6.8s-1.3.4-2.5-.3l-3.8,2.4c-1.2-2.2-3.4-3.3-7.2-3.1l-2.2,5.9h0ZM313.7,271.7c-1.9.6-2.6,2.4-1.9,3.5s2,.9,3.7.6,2.5-1.7,2.3-2.9-2-1.8-4-1.1h-.1Z"/>
    <path class="st7" d="M255.4,255.7c-5.4.2-11.2-1-13.1-4.2,7.1,3.6,14,1.2,13.1,4.2Z"/>
    <path class="st15" d="M318.2,253.4c-2.2,2-5.5,3.9-8.9,4.6,1.7-2.2,5.5-4.1,8.9-4.6Z"/>
    <path class="st11" d="M487.1,628.3c-.7.9.7,1.3,1.1.2l2.3.2c.7.2,1.1.9,1,1.8l-10.9,9.5c-1.1.4-2.3,0-2-.6l.8-2c-.1,0,0-.8,0-.8.3.1,1.2.2,1.7,0,1-.4,1-1.1,1.1-1.6s1.5-2.1.7-3.2c-2.4-1-8.1-1.6-9.2-3.4-.7-6.3,6.5-6.9,10.7-10.6,1.9.7,4.8.5,6.5-.8s1.2-3.5-.5-4.9c.9-.7,2-2.5,1.5-3.6l-12.2-2.3c-4-.8-8.7-1.6-9.5-4.6s-2.8-3.3-4.2-5l-9.1-11.2c-2.2-2.7-6.7-3.7-10.6-5.5s-5.8-3.2-9.7-3.1c.8-1.4-1.7-1.4-2.6-1.9-6.2-3.3-12-4.1-19.6-5.2s-8.2-2.4-12.4-1.9c-.6-1.2.8-2.7,1.8-3s2.2-.4,3.6-.2l12.3,2.2c5.4,1,9.2,1.5,13.6,3.4l26.5,11.5c4.8,2.1,11,16,17.1,19.6s11.7,3.1,17.3,4.2c5.6,1.1,2.4,11.4-4.8,15.3s-6.7,3-9.1,5.7l6.8,2.1h0Z"/>
    <path class="st7" d="M445.7,663.3l-.9,1.7-.8,1.5c-6.3,3-13.2,6.5-17.6,11.4l-4.3,8.2c-15.6.3-19.8,10.6-27.1,8.5,4.6-3.4,6.6-6.4,10-9.5l3.9-3.5c5.6-.9,11.7-2.6,16.5-6,2-1.3,3.1-3.3,6.2-4.2-.2-4.2,1.4-8.2,4.5-12.1,3.6-.2,7.4-.3,10,.8,1,.6-.2,2.4-.6,3.1h.1Z"/>
    <path class="st8" d="M444.1,666.4c0,1.1.9,1.7,2,1.9l-1.2,1.9c-5,1.9-12,5-14.7,9.2-2.2,3.5-1.8,7.5-6.8,9.9-3.3,0-8.4-1.4-12,1-5.3,3.2-5.1,9.1-22.1,7.8.4-.8.3-2-.2-2.8l5.3-5.9,10.7-8.2c-1-.3-1.6-.1-2.1-.1,0-1.2,1.7-2.2,3.5-1.6s1.8,1.2,2.3,2.1l-3.9,3.5c-3.4,3-5.4,6.1-10,9.5,7.3,2.1,11.5-8.2,27.1-8.5l4.3-8.2c4.5-4.9,11.4-8.4,17.6-11.4h0Z"/>
    <path class="st7" d="M430.4,662.8c.6-1.6,1.6-3.3-.4-4.8l-2.4,3.5c.7-4.9,4.5-10,8-14.9,4.2,0,4,3,5.6,3.8,3.8,1.7,8.7.9,13,1.6,0,1.8-.6,3.1-1.9,5l-18.4-1.1c-.6,3.1-1.8,5-3.4,6.8h-.1Z"/>
    <path class="st12" d="M430.4,662.8c-3.7,4.2-4.7,9.6-12.9,12.7l4.5-6c2.2-2.9,3.7-5.4,5.5-8l2.4-3.5c1.8,1.5.8,3.2.4,4.8h0Z"/>
    <path class="st8" d="M452.2,664c-.9-.5-2.4-.5-3.2.2l-2.2,2c.5-1.3,1.3-3.5,3.6-4.2s2.4.3,2.4.6-.4,1.1-.5,1.4h-.1Z"/>
    <path class="st8" d="M444.8,665l.9-1.7c-.1.3.7.7.2,1.3s-.5.6-1.1.4Z"/>
    <path class="st8" d="M401.7,678.4l1.6-.8-1.6.8Z"/>
    <path class="st7" d="M357.7,350.7c0,1.6-1.4,2.7-3.3,4.3-.5.7,2.1,1.7,4,1.1-.2,1.2-.4,2-1.6,3.3-2.7-.9-5-1-7.7-.9,2-1.3,2.7-5.1,4-6.8s3.5-.9,4.7-1h-.1Z"/>
    <path class="st7" d="M325.2,385.7c-.7-.7-2.2-1.1-1.2-2.5s8.2-6.5,12.8-8.7c-.5,4.9-9.1,7.5-11.6,11.3h0Z"/>
    <path class="st12" d="M409.7,343.2c-.2.5.4,1,1.1.9-.5.8-.8,2.2-1.6,2.8s-3.6.3-4.6,0l-.7-1.7c.3-.8,1.1-1.6,2-1.8,1.4-.3,2.7-.2,3.8-.2h0Z"/>
    <path class="st11" d="M318.7,398.9c-.8,1.5-1.7,2.9-3.2,4.2-.2-.6-.6-1.2-.4-2,.9-1.2,1.8-2.5,3.5-3.2l.2,1h0Z"/>
    <path class="st2" d="M296.6,599.6c.8,1.1.7,3.7-1.7,4.8s-5,0-5.7-1.5c2-1.2,3.5-4,7.4-3.3h0Z"/>
    <path class="st0" d="M331.4,329c.3-.7.9-1.2,1.8-1.4l-.4,1.2c-.1.3-.8.5-1.4.2Z"/>
    <path class="st0" d="M540,217.4l-32.5-2.3c-1.3,0-1.9,1.1-1.8,1.5l-32.4-2.3c-2.1-.1-3.6-.9-4-2l28.8,2.2c2,.1,3.8,2.1,6.7.3-1.4-1.5-3.7-1.1-4.7-2l23.2,1.6c6.3.4,12.2.8,16.8,2.9h-.1Z"/>
    <path class="st11" d="M540,217.4c5.2.4,11.3,0,15.9,1.4s8,.2,12.4,2.3c-6.9,1.6-11.5-.7-17.2-1.2l-17.5-1.2c0,0-19.7-1.4-19.7-1.4l-8.1-.6c-.3-.5.7-1.8,1.8-1.7l32.5,2.3v.2Z"/>
    <path class="st11" d="M427.8,348.8c-.9,1.5-.3,2.7.9,3.5-7.5.9-13.9-.5-20.7-2.3-6.8-1.9-4.1-1.2-3.6-3.1,1,.4,3.6.9,4.6,0s1-2.1,1.6-2.8c1.3,5.3,9.6,6.5,17.1,4.7h0Z"/>
    <path class="st12" d="M370.9,271.3c2.7-.2,4.4,1.3,4.3,2.3-.2,1.9-2.7,3.3-4.3,3.6-2.7.5-4.1-.5-4.4-1.7-.4-1.8.8-3.8,4.3-4.2h.1Z"/>
    <path class="st12" d="M459.2,214.8c2.3-.2,4.3.9,4.1,2.1-.3,1.7-1.9,3.1-3.7,3.3s-4.3-.3-4.9-2,1.5-3.2,4.4-3.4h.1Z"/>
    <path class="st7" d="M319.2,283.8c-6,0-8.9,5.2-10.5,3.2s1.9-5.8,5.9-6.3c1.7.9,3.4,1.2,4.7,3.1h-.1Z"/>
    <path class="st10" d="M463.2,255.5c-1.4,1.3-6.4,3.4-9.2,1.9s-.6-3.5,1.3-4c3-.9,4.5-.3,8,2.1h-.1Z"/>
    <path class="st12" d="M538.3,244.4c2.8-.9,4.8,0,5.3,1.8s-.8,2.1-3.1,3-3.9.5-4.7-.8-1-2.8,2.4-4h.1Z"/>
    <path class="st7" d="M533.4,218.6c2.2,2.1,7.7.5,8.7,2.3l-16-1.4c-2.9-.2-4.8-1.5-7.8.5l-4.6-2.7,19.7,1.4h0Z"/>
    <path class="st2" d="M505,302.2c2.2-.2,4,.5,4.4,1.7s-1.3,3.1-3.2,3.6-4.2-.3-4.7-1.5.6-3.4,3.5-3.7Z"/>
    <path class="st12" d="M551.3,283.3c2,0,3.2,1.3,3.2,2.2-.1,1.5-2,3.4-3.7,3.3s-4.5-1-4.3-2.5,2.6-3,4.8-3Z"/>
    <path class="st12" d="M513.8,253.1c2.4-.3,3.4,1,3.4,2,0,1.7-1.1,2.9-3.1,3.1s-4-.2-4.2-1.3,1.3-3.4,3.8-3.7h0Z"/>
    <path class="st12" d="M332.7,197.9c-1.4-.4-2.5-1.3-2.6-1.9-.2-1.4,5.4-3.4,8-2s.4,2.1-.6,3.2-2.6,1.5-4.9.7h.1Z"/>
    <path class="st2" d="M467.8,295.4c2.5-.4,3.7,1.2,3.7,2.2.1,1.3-1.2,3-3.2,3s-3.7-.6-4.1-1.6.7-3.1,3.4-3.6h.1Z"/>
    <path class="st10" d="M327.1,216.2c-.9,1.6-6.7,1.9-7.3.5s2.2-3.6,4-4,4.6,1.4,3.3,3.5Z"/>
    <path class="st2" d="M532.8,281c-3.7-.3-2.5-2.5-2.1-3.5.5-1.4,3.3-2.4,4.6-1.5s-.4,5.1-2.5,5.1h0Z"/>
    <path class="st12" d="M434.3,349.1l-.7,2.6-4.9.6c-1.3-.8-1.9-2-.9-3.5,1.1-.3,2.8-1.7,4-1l2.6,1.3h0Z"/>
    <path class="st2" d="M484.4,250.2c2.2-.7,3.3.2,3.3,1.1s-.6,2.5-1.9,3.1-3.2,0-3.7-.9.1-2.6,2.5-3.4h-.1Z"/>
    <path class="st2" d="M446.9,316.3c1.5-.2,2.9,1.2,3,1.8.4,1.2-1.7,1.9-2.9,2.2-1.9.6-3,.1-3.2-.6-.6-1.5.2-3,3.1-3.4h0Z"/>
    <path class="st2" d="M393.8,224c1.8-1.1,4-.6,4.7.5s-.6,1.9-1.9,2.7-3.1.6-4.4,0-.4-2.1,1.4-3.2h.1Z"/>
    <path class="st2" d="M467.1,223.8c-1,1.3-6.8.2-6.8-.5s.6-.9,1.3-1.5c1.7-1.4,3.1-1.2,4.6-.9s1.8,1.5,1,2.7h0Z"/>
    <path class="st2" d="M383.1,245.7c2.2-1,3.9-.7,4.4.7s.1,1.6-1.5,2.3-2.8.5-3.9,0-.9-2,1.1-2.9h0Z"/>
    <path class="st6" d="M474.9,343.7c-1.2.6-2.8,2-3.6,2.8-1.2.3-1.9-.1-1.7-.6l.7-1.8c.4-1.6,1.7-2.4,3.1-2.3s1.3,1,1.5,1.7h0Z"/>
    <path class="st2" d="M382.2,218.8c1.7-.8,3.7-.4,4.3.3.6.7-.3,2-1.4,2.5s-2.8.5-3.8-.3-1.1-1.6.9-2.5h0Z"/>
    <path class="st10" d="M459.6,200.7c-2,.8-6.6.7-7-.5-.3-1.5,1-3.6,2.2-4.1s4.8-.4,6,.4.8,3.2-1.3,4h0Z"/>
    <path class="st10" d="M502.1,107.4c-1.6.8-4.2,1-5.3.5s-1.5-2.4-.2-3.2c2-1.3,4.3-2.2,5.2-1.4,1.5,1.1,2.2,3.1.2,4.2h.1Z"/>
    <path class="st12" d="M604,187.4c-2.5.5-4.5-.8-5-1.9s1.6-2.3,3.2-2.9,3.1.2,3.7,1.2.9,2.9-2,3.6h.1Z"/>
    <path class="st12" d="M485.3,94.3c1.6-.5,4.2-.3,4.5.7s-.7,2.7-2.2,3.3-4,.4-4.5-.4c-.7-1.3.2-3,2.2-3.6h0Z"/>
    <path class="st12" d="M504.4,157.7c1.6-.4,3.8-.2,4.4.7s.1,2.6-2,3.3-3.2.5-4.1-.8-.8-2.6,1.7-3.3h0Z"/>
    <path class="st2" d="M563.6,176.6c2.6-.5,4.1,0,4,1,0,1.5-1,3-3,3.3s-2.7-.2-3.7-1-.3-2.6,2.5-3.2h.1Z"/>
    <path class="st12" d="M525.6,141.2c2.8-.2,3,.8,2.8,1.8-.4,1.6-1.7,2.6-3.8,2.5s-2.4-.6-2.7-1.7.9-2.3,3.7-2.7h0Z"/>
    <path class="st12" d="M554.5,139.3c1.1-.8,3.4-.7,4.2,0s.8,2-.6,2.9-2.2.7-3.5.4-2.2-1.7-.1-3.2Z"/>
    <path class="st2" d="M577.6,210.1c.6-.6,2.9-.4,3.8-.2s.4,1.9-.8,2.7-1.5.5-2.6.3-2.1-1-.4-2.9Z"/>
    <path class="st10" d="M668.4,390.8c-2.1,1.1-4,1.4-5.2.8s-.9-1.4-.2-3.2c3.2-.8,4.7-2.9,7.5-4.6s6.8,2.3,4.2,3.7l-6.1,3.3h-.1Z"/>
    <path class="st12" d="M678.2,434.1c2.8-.5,4.8.5,5.4,1.8s-.8,3.6-3.3,4.3-5.1-.1-5.7-1.7.5-4,3.6-4.5h0Z"/>
    <path class="st2" d="M765.6,435.9c1.9-.8,5.2.4,5.9,1.5s-1.2,3.3-3.1,4.1-4.6-.2-5.5-1.4-.8-2.6,2.8-4.2h0Z"/>
    <path class="st10" d="M777.6,354.4c-.4,2.5-3.6,3.2-5.9,2.7s-3.8-1.6-2.5-3.5,3.4-2.3,4.5-2.1,4.1,1.5,3.9,2.9h0Z"/>
    <path class="st2" d="M725.6,326.6l-.8-1.3c-.4-.5.6-1,1.6-1.5,2.3-1.1,4.2-1.2,5.5-.1s.9,2.6-.6,3.6-4.7,1-5.8-.7h.1Z"/>
    <path class="st10" d="M692.8,420.4c1.8-.5,4,.5,4.6,1.2,1,1,0,3.1-1.7,3.7s-4.4.3-5.2-.8,0-3.4,2.3-4h0Z"/>
    <path class="st2" d="M737.1,376.5c-2.3.2-3.8-.6-4.5-1s0-2.8,1.5-3.3c2.2-.9,4.2,0,5.3.7s-.5,3.5-2.2,3.6h-.1Z"/>
    <path class="st10" d="M798.1,403.9c2.2-.8,3.9.2,3.8,1.6s-.7,2.3-2.4,2.9-3.7,0-4.4-1.3.3-2.5,2.9-3.4h0Z"/>
    <path class="st10" d="M710.2,354.2c3.3-1.1,3.6.2,4.1,1.2.8,1.4-.1,2.6-1.4,3s-4.4.6-4.9,0c-.7-1,.6-3.6,2.2-4.1h0Z"/>
    <path class="st2" d="M809.7,367.8c1.3.4.5,2.5-.6,3.1s-3.5.8-4.5.3-1.5-1.7-.4-3.8c1.2-.3,3.7-.3,5.6.4h-.1Z"/>
    <path class="st2" d="M797.3,372.9c2.1-.7,3.8,0,4.1,1.2s-1.1,1.9-2.7,2.6-2.8,0-3.5-1.2-.7-1.6,2.2-2.6Z"/>
    <path class="st10" d="M724.7,389.2c.8-.6,3.9-.3,4.2.3s-.6,2.5-1.8,3.4-2.7.4-3.3-.4-1.5-1.5.9-3.3h0Z"/>
    <path class="st11" d="M623,380l-3.5-.2c.1-.3.2-.8.3-.9,1.4-.2,3.1.1,3.1,1.2Z"/>
    <path class="st0" d="M618.5,379.6h1.2c-.4.3-1,.4-1.2,0Z"/>
    <path class="st10" d="M839.5,321c-3,.7-6.4,0-6.7-1.5s1.1-4,3.7-4,4.5.3,5.3,1.3.6,3.4-2.4,4.2h.1Z"/>
    <path class="st10" d="M831.5,301.4c2.4-.9,4.9.3,5.6,1.6s-.6,2.8-3,3.7-4.5.3-5.1-1.2-.7-2.8,2.6-4h0Z"/>
    <path class="st12" d="M751.2,303.5c-2,1.8-5.1,1.7-6.3.7s-1.1-3.9,1.4-4.4,3.9.1,4.6.7,1.3,2.1.2,3h.1Z"/>
    <path class="st10" d="M805.6,302.4c-2.2-.6-2.9-1.5-3-2.7s5.8-2.5,7.7-1.2,1.5,2.2.5,3.1-3.4,1.3-5.3.7h0Z"/>
    <path class="st2" d="M889.2,237.5c.9-.7,4.2-.1,5,.4s.6,2.6-.9,3.6-3.3.8-4.3.3-1.9-2.6.2-4.4h0Z"/>
    <path class="st12" d="M792.1,272c3.3-.5,3.4,1.2,3.5,2.1.4,1.8-.4,2.7-3,2.9s-3.9-.4-3.9-1.3,1.4-3.3,3.4-3.7Z"/>
    <path class="st10" d="M794.7,311.9c1.4-1.1,3.9-.7,4.9.2s1.1,2.4-.8,3.6-3,1-4.3.3-2.3-2.2.1-4.1Z"/>
    <path class="st2" d="M707.7,282.4c1.5-.2,2.5,1.6,2.7,2.3.3,1.1-1.7,2.9-3.5,2.9s-3.4-1-3.7-1.9,1.8-2.9,4.5-3.3Z"/>
    <path class="st10" d="M843.7,273.3c-1.3,2.3-4.2,2.1-5.5,1.9-1.9-.4-2.3-2.2,0-3.7s6.5.1,5.5,1.9h0Z"/>
    <path class="st2" d="M833.2,244.8c-1.4-.7-1.7-1.5-1.5-2,.2-.9,1.8-1.3,3.4-1.5s2.5.6,3.1,1.1c.9.8.2,2-.6,2.5s-2.9.7-4.4,0h0Z"/>
    <path class="st2" d="M742,258.7c-2,1.3-6.2-.4-6-2.1s4.8-2,6.4-1.2.7,2.5-.4,3.2Z"/>
    <path class="st2" d="M869.1,334.6c2.9-1,3.1.2,3.4,1.1s-.5,2.5-1.6,2.8-3.3-.2-3.9-.8.6-2.5,2.1-3.1Z"/>
    <path class="st10" d="M816.3,280.8c-1.4,1.3-5.8,1-5.9,0-.3-2.1,1.9-2.9,3.7-2.7s3.8,1.2,2.2,2.7Z"/>
    <path class="st6" d="M743.5,275.8c1.6-1,2.3-.4,2.6,0,.7.7,1,1.8.4,2.2-1.2.7-2.1.5-2.6.3-.9-.4-1.7-1.6-.4-2.4h0Z"/>
    <path class="st1" d="M920.6,277.3c.4.9.4,2.9-1.2,3.2s-2.9-.2-4.1-.3l.6-1.6c1.3,0,2.7-.5,3.3-1.4.3,0,1.1.3,1.4,0Z"/>
    <path class="st7" d="M908.5,285.5c1.2-1,2.4-.3,2.5,0s-.4,1-1.1,1.2-2,0-1.4-1.3Z"/>
    <path class="st7" d="M916,278.6l-.6,1.6c-1,.2-2,0-2.3-.5s.4-1.1,1.1-1.2,1.2,0,1.7.1h.1Z"/>
    <path class="st6" d="M425.3,362.2c-1.4.9-2.5,1.9-2.8,3.1s.6,1.9,1.5,2.2c-2-.4-10.1,3.3-10.5,0s1.2-2.2,2.6-3,2.6-.2,4.2-.1c1.8-.9,3.2-1.7,5.1-2.1h0Z"/>
    <path class="st10" d="M423.9,367.4c-.8-.3-1.7-1.2-1.5-2.2s1.4-2.1,2.8-3.1c2.3-.5,4.3-.3,4.9,1.2s0,2.1-1.2,3.1c-1.4,1.3-3,1.3-5.3,1h.1Z"/>
    <path class="st12" d="M389.6,462c1.9-.7,4.6-.5,5.5.6s-.2,2.7-2,3.7-3.6.8-5-.5-1.5-2.6,1.5-3.8Z"/>
    <path class="st2" d="M383.5,385.8c.9-.9,4.2-.5,5.1.3s.7,2.5-1,3.6-3.1.9-4.6.5-1.7-2.4.4-4.3h0Z"/>
    <path class="st2" d="M389.1,345.1c1.7-1.2,3.9-.3,4.6.3,1.3,1,1.1,2.7-.4,3.5s-3.8.7-4.8.4c-1.7-.5-1.5-2.9.5-4.3Z"/>
    <path class="st6" d="M419.2,417.3c2.1-.3,1.8,1.5,1.9,2.4-.1,1.3-1.4,2.1-2.8,2.3-2.7.2-3.2-.6-3.3-1.4-.1-1.9,1.6-3,4.2-3.3h0Z"/>
    <path class="st12" d="M451,391.6c2.1-.5,3.3.5,3.4,1.4s-.8,2.3-2.7,2.7-2.6-.2-3.1-.9,0-2.6,2.4-3h0Z"/>
    <path class="st2" d="M461.4,439.7c-1.4.7-3.2.5-3.8.2s-.6-1.8,0-2.3,1.7-1.6,3.1-1.7,2.6,2.9.7,3.8h0Z"/>
    <path class="st10" d="M398.2,396.2c2,.1,1.6,1.2,1.4,1.9-.4,1.7-1.5,2.3-3.8,2s-2.2-1.2-1.8-2.5,3-1.5,4.2-1.4Z"/>
    <path class="st4" d="M617.2,303.4c2.9.2,3.8,1.4,3.3,2.9s-2.1,2.9-4.3,2.9-3.3-1.3-3.4-2.4.6-3.7,4.4-3.4h0Z"/>
    <path class="st4" d="M637.2,355.9c-3.4,1.2-4-.7-4.1-1.8-.3-2.4,1.9-3,4.7-3.1s2.9.6,3,1.8-.8,2.1-3.5,3h-.1Z"/>
    <path class="st4" d="M585.1,362.2c1-.9,4.3-.4,5.4.3s0,2.4-1.3,3.4-3.1,1.2-4.7.8-1.3-2.8.7-4.4h-.1Z"/>
    <path class="st4" d="M590.8,353.2c2.4-.4,3.6.5,3.8,1.8s-1.1,2.5-2.4,2.8c-1.9.4-4.6.2-5-1s.9-3.1,3.5-3.6Z"/>
    <path class="st4" d="M581.7,330c-.4,1.7-2.8,2-4.2,1.9-2.2-.2-2.6-.6-2.3-2.2s2.2-2.7,4.2-2.3,2.5,1.7,2.3,2.5h0Z"/>
    <path class="st4" d="M641.6,301.9c2.2-.4,3.8,0,4.1.5.5,1.2-.6,2.5-1.7,3s-3.4.2-4.1-.3c-1-.6-.2-2.9,1.6-3.2h.1Z"/>
    <path class="st4" d="M661.2,312.8c.7-.4,2.2-.4,2.7,0s.8,1.6,0,2.4-2.5.7-3.4-.2-.8-1.3.8-2.2h-.1Z"/>
    <path class="st12" d="M533.6,460.7c.3.7-.4,2-.9,2.4-.7.6-8.3.5-9.6-1.2s-.4-3.6,2.2-4.3,7.2,1.1,8.1,3.1h.1Z"/>
    <path class="st10" d="M607.8,428c3-.4,4,.9,4.9,2.2s-1.3,3.2-3.3,3.8c-2.8.9-5-.4-5.4-1.5-.6-1.9.6-4.2,3.9-4.6h0Z"/>
    <path class="st2" d="M577.9,494.4c3.2-.9,4.6-.2,4.8,1.4s-.3,3.3-3.2,3.7-3.5,0-4.6-1,.2-3.3,2.9-4h0Z"/>
    <path class="st2" d="M574.8,427.7c1.7-.5,2.9,0,3.3.7s0,2.8-1.2,3.1-3.6,0-4.2-.9-.1-2.2,2.1-2.9h-.1Z"/>
    <path class="st2" d="M434.6,531.5c-.6-2.3,2.7-5,5.7-4.8s3.1,1.7,2.8,2.8-1.8,2.5-3.5,3.1-4.6.5-5-1h0Z"/>
    <path class="st2" d="M504.3,533.7c.9-.7,3.9-.3,4.6.5s1,2.2-.7,3.2-3,1.1-3.9.6c-1.6-.8-2.3-2.4,0-4.3h0Z"/>
    <path class="st2" d="M420.4,510.8c2.2-.4,3.8,0,4.1.5.4,1.1-.6,2.5-1.7,2.7s-3.4.5-4,0,.2-3.1,1.7-3.3h-.1Z"/>
    <path class="st11" d="M689,198c3.5,1.9,9.9.7,14.4,2.1s2,5.1.7,7.7-4.3,3.4-7.8,5.1-4.1,5.2-2.7,6.7l1,1.2-.3.7c-.5,1.8,1.9,3,3.6,4.3-.7,1-2.5,1-2.9.8h-.9c0,0-1.1-1-1.1-1l-.8-.8-.9-1.1-.6-.8-1-1.1c-2.8-3.2,0-10.2,5.8-12.3s4.3-2,4.8-3.5.2-3.8-1.9-3.8c-4.6,0-9.1.2-12.6-1.4.8-1.1.4-2.1-.7-2.5s-2-.6-3.1-.7l.3-.9c.3-.8.7-1.2,1.4-1.6l5.3,3h0Z"/>
    <path class="st0" d="M689.3,165.9c2.8,2.7,1.4,5.2.4,8.8-1.6,5.1-2,10.2-9.4,13.9,2.7,5.3,8.3,6.8,8.6,9.4l-5.3-3c-.7.4-1.1,1-1.6,1.6-2.1-1.4-4.5-3.8-6-5.6-2.8-3.6,3.6-6.3,5.8-8.8,4.1-4.6,3.5-10.3,4.6-14.9s1.7-1.3,2.8-1.4Z"/>
    <path class="st10" d="M652.3,186.2c1.8-.6,3.8,0,4.5.7s-.3,2.7-2,3.7-3.8.3-4.7-.9-.4-2.8,2.2-3.6Z"/>
    <path class="st10" d="M626.9,250.8c1.9-.6,3.3-.3,4,.9s0,2.5-1.8,3.1-3.5,0-4.3-.7c-1.2-1.1-.2-2.6,2.1-3.3Z"/>
    <path class="st12" d="M685.8,200.8c-.8,1-2.8,1.8-4.5,1.5s-2.3-1.4-1.8-2.5,1.5-1.4,2.6-2.1c1,0,2.2.2,3.1.7s1.4,1.6.7,2.5h0Z"/>
    <path class="st6" d="M650.1,247.4c-2.4-.5-2.8-3.7-.9-6.1.8-.5,3.7-.3,3.7.5.3,1.2,0,3.1-2.9,5.6h.1Z"/>
    <path class="st12" d="M669.1,264.8c1.2-.4,3.2,0,3.9.5s-.3,2.3-1.7,3.1-2.7,0-3.4-.8-.4-2.1,1.3-2.8h0Z"/>
    <path class="st8" d="M692,224.8l-.9-1.1.9,1.1Z"/>
    <path class="st8" d="M690.6,222.9l-1-1.1,1,1.1Z"/>
    <path class="st8" d="M694,226.5c-.5-.2-.7-.6-1.1-.9l1.1.9Z"/>
    <path class="st10" d="M517.5,574.3c1-.8,4.8-.4,5.8,0s0,3.3-1.1,4.4-3.6.5-5,0-2-2.6.2-4.5Z"/>
    <path class="st10" d="M489.9,549.1c1.5-.8,4.4,0,5.1,1.1s-.4,2.4-1.7,3.1c-1.9,1-3.7.7-4.8-.3s-1.6-2.4,1.4-3.9h0Z"/>
    <path class="st3" d="M394.7,569.4c0,1.1-5.2,1.4-4.5-.3s4.5-1.3,4.5.3Z"/>
    <path class="st3" d="M388.9,566.4c-.2.4-.5,1.4-1.2,1.6s-1.6-.2-1.6-.5l.5-1.3,2.3.2Z"/>
    <path class="st0" d="M487.1,628.3c.3,0,.8,0,1.1.2-.4,1.1-1.8.7-1.1-.2Z"/>
    <path class="st10" d="M460.1,352c.3-.9,2.2-1.7,3-2.3,1.3,0,2.4.3,3.1.7s1.2,2,.1,2.6c-2.7,1.4-5.4.4-6.2-1h0Z"/>
    <polygon class="st15" points="456.7 349.6 457.4 349.6 458.2 349.7 457.4 349.6 456.7 349.6 455.9 349.5 456.7 349.6"/>
    <path class="st10" d="M702.3,159.5c2.1-.5,3.6.3,4,1.4s-1.2,2.3-2.6,2.8-3,.3-3.7-.4c-1-1.1.3-3.3,2.1-3.8h.1Z"/>
    <path class="st8" d="M694.5,220.8l-1-1.2c1,0,1.2.6,1,1.2Z"/>
    <path class="st2" d="M762.3,212.8c1.8-.6,4.1-.1,4.3,1s-.4,2-1.5,2.7-3.5.4-4.4-.3-.8-2.7,1.5-3.4h0Z"/>
    <path class="st10" d="M812.6,179.3c-1.5,1.1-3.2.2-3.7-.7s-.3-2.1,1-3.1,3.6-1,4-.1c.7,1.5.3,2.7-1.5,3.9h.1Z"/>
    <path class="st12" d="M847.4,210.6c3-.7,3.5,0,3.8,1.2s-1.1,2.2-3,2.9-2.4-.2-3.2-1-.3-2.4,2.4-3.1h0Z"/>
    <path class="st2" d="M820.1,169.1c-1.1-.5-.9-2.1,0-3.4s2.8-.6,4,0,0,1.7-.4,2.5-2.1,1.7-3.5,1h-.1Z"/>
    <path class="st12" d="M885.5,157.3c2.2-.5,4.2.1,5,1s.1,2.9-1.9,3.7-4.1.3-5-.9-.6-3.4,1.9-4h0Z"/>
    <path class="st12" d="M860.8,161c1.2-.9,3-.8,4-.1s1,1.9-.4,3-2.2.4-3.4.3-1.8-1.8-.1-3.1Z"/>
    <path class="st10" d="M172.4,180.2c-3.1,1.2-4.7,0-5-1.6s.7-3.2,4-3.4,4.1.3,4.3,1.7-.9,2.4-3.3,3.4h0Z"/>
    <path class="st12" d="M171.8,104.8c2-.4,4,.5,4.4,1.4s-.6,2.9-2.7,3.3-3.9.2-4.8-1.3.1-2.9,3.1-3.4h0Z"/>
    <path class="st12" d="M189,103.4c2.3-.4,3.8.4,4,1.7s-.5,2.7-2.3,3-3.9.2-4.7-1.2.3-2.9,2.9-3.4h0Z"/>
    <path class="st10" d="M296.5,133.4c1.7-.8,4.5-.3,5,.7s-.2,2.5-2,3.7-3,.5-4-.5-1.5-2.7,1-4h0Z"/>
    <path class="st10" d="M145.2,112.7c1.7-1.3,3.6-.5,4.8.3s2,2.2-.6,3.1-3.2.8-4.3.6-1.6-2.6.2-4h0Z"/>
    <path class="st10" d="M424.4,128.2c0,2.2-2.5,2.2-3.9,2.4-2.1.2-3.4-.4-3.5-1.5s.7-2.9,3.2-3.2,4.2,1.3,4.1,2.4h0Z"/>
    <path class="st10" d="M259.2,155c.9,1.8-.7,2.7-2.1,3s-2.9.3-4.2-.3-1-2.1.7-3.6,5-.4,5.5.8h0Z"/>
    <path class="st6" d="M111,164.1c-1.1,1.4-4.9,2.2-8.1,1.7s-.7-1.3,0-2c1.3-1.1,4.7-2,7-1.7s1.8,1.2,1.1,2.1Z"/>
    <path class="st10" d="M435.3,96.4c-2.3,0-3.4-.2-3.1-1.5s1.2-2.3,4-2.3,2.8.8,3.1,1.5c.4,1.1-2,2.3-4,2.3Z"/>
    <path class="st12" d="M289.7,81.5c1.6-.3,3.5,0,3.6.6,0,.9-.7,2.4-1.7,2.6s-2.9,0-3.5-.2c-.9-.6-.9-2.5,1.6-3h0Z"/>
    <path class="st12" d="M291.3,119.3c2.1-.5,3.2,0,4,1.1s0,1.6-1.5,2-3.2.6-4.1.1.1-2.8,1.6-3.2Z"/>
    <path class="st2" d="M199.6,144.9c1.3-.9,3.4-.5,4.2,0s.3,2.1-.8,2.7-2.6,1-3.7.9c-1.6-.3-1.7-2.3.2-3.6h.1Z"/>
    <path class="st2" d="M321.5,153.8c1.2.9-3.3,3.8-4.9,3.4s-2-1.3-2-2c0-1,2.4-1.7,3.7-2s2.6.2,3.2.6h-.1Z"/>
    <path class="st2" d="M198.7,172.9c.6-.6,3.3,0,3.9.4s.9,2-.5,2.8-2.4.6-3.4.4-2-1.6-.1-3.5h0Z"/>
    <path class="st2" d="M309.7,147.9c1.6.4.4,2.2-1,2.6-3.5,1.1-3.2-1.9-5.3-2.4s-.5-.9.8-1.1c1.3,0,3,.2,5.4.7h0Z"/>
    <path class="st3" d="M267.1,224.7v-1.5c-2.7-1.5-3.5-2.5-3.1-4.4s2.5-4.1,5.5-3.7c.9,2.9,3.8,5.4,5.9,8-.2,2.1-6.6,2.5-8.4,1.5h0Z"/>
    <path class="st10" d="M239.2,229.2c2.6-.9,5-.3,5,1.3s-.8,2.8-2.9,3.2-3.7.3-4.8-1.1-.2-2.3,2.8-3.4h-.1Z"/>
    <path class="st2" d="M205.4,214.2c.3-.8.8-2.1-.4-2.9s-1.8-.7-2.8-1.1c.4-1.4.7-2.9,1.8-3.8s4.7-1,4.9,0c-.2,2.6-.8,6-3.6,7.9h0Z"/>
    <path class="st6" d="M292.1,213.5l2.6.4-3.7,9.8c-.3.5-2.1.3-1.8-.5l.4-1.2c2.6-4-.6-5.5.5-8.4h2.1c0-.1-.1-.1-.1-.1Z"/>
    <path class="st9" d="M261.1,222.9c-4.5.5-8.9.5-13-1,9.3-2.4,14.2-3.7,13,1Z"/>
    <path class="st9" d="M270.6,250.2c-2.6-2.5,1.9-5,3.2-6.9s.2-3.8,2.9-3c1.7.6-.8,4.4-2.1,5.7l-3.9,4.1h0Z"/>
    <path class="st12" d="M205.4,214.2c-1.2.9-3.5.8-4.5.5s-1.3-1.3-1-2.1,2.1-1.7,2.3-2.3c1,.4,2.2.7,2.8,1.1,1,.8.6,2,.4,2.9h0Z"/>
    <path class="st2" d="M252.6,215.8c2.4-1,3.3-.3,3.4.7s-.7,2.1-1.6,2.6-3.2.3-3.7-.2c-.8-.7,0-2.4,1.8-3.1h.1Z"/>
    <path class="st6" d="M259.3,182.7c1.2-.9,2.8-.9,3.6-.3s.6,1.7-.8,2.4-1.6.7-2.6.6c-1.6-.1-2-1.4-.3-2.8h.1Z"/>
    <path class="st9" d="M284.3,195.2c1.6-.5,2.2,0,2.5.5s0,2.1-1,2.7-2.5-.3-3.1-1-.3-1.7,1.7-2.2h-.1Z"/>
    <path class="st15" d="M308.2,241.5c0,1-5,1.2-4.5-.5s4.6-1.4,4.5.5Z"/>
    <path class="st15" d="M301.5,233.8c1.2-1,2.4-.3,2.5,0s-.4,1-1.1,1.2-2,0-1.4-1.3Z"/>
    <path class="st9" d="M277,197.6c1.2-1,2.4-.3,2.5,0s-.4,1-1.1,1.2-2,0-1.4-1.3Z"/>
    <path class="st9" d="M267.1,224.7c-.8,1-1.6.8-2.1.7s-.6-.9-.2-1.1l2.4-1.1v1.5c0,0-.2,0-.2,0Z"/>
    <polygon class="st9" points="270.4 240.9 271.1 240.6 271.5 241 270.8 241.4 270.4 240.9"/>
    <path class="st10" d="M36.1,168.3c1.5-.5,4.8-.5,5.2.4s-1,3.4-2.4,4.1-4.5.6-5.1-.7.2-3.1,2.2-3.7h0Z"/>
    <path class="st2" d="M128.2,189.3c1.3-.3,2.8,0,3.4.8s0,2.4-1.4,2.9-3.1.2-3.7-.9-.8-2.2,1.8-2.8h0Z"/>
    <path class="st14" d="M294.7,213.8l-2.6-.4c.3-.7.8-1.2,1.6-1.5s1.6.1,1.7.6-.4,1-.7,1.3Z"/>
    <path class="st2" d="M397.9,50.4c1.4-.5,4.3-.1,4.6.7s-.8,2.2-1.9,2.7c-1.5.8-3,.5-4.1-.3s-1.2-2.2,1.3-3.1Z"/>
    <path class="st7" d="M619.8,43.8c-2.2,0-1.4-1.7-.9-1.7s1.9-.2,2.3,0c1,.2.8,1.8-1.5,1.7h0Z"/>
    <path class="st12" d="M490.5,611.8c1.6,1.4,2.6,3.3.5,4.9-2.1,1.7-4.6,1.5-6.5.8-2.5-.7-3.4-2.8-1.9-4.4s5.8-2.5,8-1.4h-.1Z"/>
    <path class="st2" d="M294.1,629.1c2.7-.8,5.7-.3,6.1,1.3s-.6,3.3-3.1,3.9-4.5.2-5.4-1.2-.8-3,2.5-4h0Z"/>
    <path class="st2" d="M358.5,636c2.6-.7,3.9.3,4.3,1.7s-.7,3.2-2.9,3.8-4.3-.3-5-1.8,1.2-3.1,3.7-3.7Z"/>
    <path class="st7" d="M470.2,601.3c-1.8.1-3.2-.3-4-1.1s-1.2-2.4-.2-3.9c1.4,1.7,3.6,2.8,4.2,5h0Z"/>
    <path class="st0" d="M482.2,634.9c-.2.5-.2,1.3-1.1,1.6s-1.3,0-1.7,0c.1-.3.3-.8.6-1.2s1.6-.7,2.2-.4h0Z"/>
    <path class="st2" d="M293,257.2c1.6-.4,3.6.6,3.8,1.3.3,1.1-1,2.9-2.8,3.2s-2.9-.2-3.7-1.3-.2-2.5,2.7-3.3h0Z"/>
    <path class="st12" d="M313.7,271.7c2.1-.6,3.8.4,4,1.1.3,1.2-.4,2.6-2.3,2.9s-3.2.2-3.7-.6,0-2.8,1.9-3.5h.1Z"/>
  </g>
  <g>
    <ellipse class="st13" cx="585.8" cy="334" rx="34.7" ry="14"/>
    <g>
      <g>
        <path class="st5" d="M610.4,226.8c2.7-3.5,6.8-5.8,10-8.9,2.6-2.5,4.7-6,8.2-7.3,4.7-3.2,16.7-3.9,13.6,4.6-2.4,5.6-20.9,32.6-27.5,26.1-4.5-3.9-5.7-11.3-2.2-16.1l-2.2,1.6Z"/>
        <path class="st5" d="M630.1,219.8c-3.5-1.3-4.9-6.4-8-8.4-3.9,1-4.2,1.5-8.4-.5-3.1-1.5-4.6-5.6-8.6-5.2-3.8-4.1-4.5,6.4-8.4,3.1-3.9-9.4.5-20.1,9-25.1,3.7-2.7,7.8-1.7,11.6-.2,9.1,1.3,28.4,24.1,23.4,33.1-1.6,4.8-10.3,9.7-12.6,3.2h2.1-.1Z"/>
        <path class="st13" d="M645.9,211.2c-2.5-4.6-5.7-8.6-8.7-12.7-1.6-2.6-3.7-5.1-5.9-7.2.1-3.4-10.3-6-13.1-7.3-3.2-.9-6-3.7-9.5-2.7-.6,0-.8,1-.1,1.3.7.5,1.5.3,2.2.7,2.9,1.6,5.7,3.2,8.8,4.2h0c2.3,1.3,4.7,2.2,7,3.3s1.9,1.8,3.2,1.9c.5,1.1,1.3,2.2,1.8,3.2,0-.1-.1-.2-.2-.3,3.8,5.9,7.5,11.9,11.2,17.9-1.5,3.2-3.9,5.8-6.2,8.4-2.9,3.7-5.9,7.3-9,10.7h0s-.1.1,0,0c-.6.7-1.3,1.3-1.9,1.8-.5-.2-.8-.7-1.1-1-2.2-2.4-5.4-6.2-7.6-9.1,2.3-1.6,3.9-3.9,5.2-6.3.7-.6,1.8-1.7,2.5-2.7.2,0,.3,0,.6-.1.5.9,1.1,1.8,1.8,2.4h0s.2,0,.3.1h0c.3.2.9.2,1.3,0-.3.8.2,1.8,1.1,1.8h0c2.2,0,1.4-3.4-.6-2.5.5-1.8-1.8-2.7-3-3.8-.2-1.1-1.4-1.8-2.1-2.7,2.3-2.4,2.6-8.3-1.8-8.1-2.3.3-2.2,3.3.1,3.4-.1,1-.3,2.2-1.1,2.9-.6-.2-.9,0-1,.7-2.1,1.1-4.2.6-6.2-.5,2.3-2.5,3.9-5.6,5.2-8.7-.2.3.2-.3.1-.2.2-.5.5-1,.7-1.5.3-.8-.7-1.6-1.4-1-.9.8-1.7,1.9-2.7,2.9l.2-.2c-1.9,2.3-3.5,4.9-4.8,7.6-1.3-.8-2.6-1-3.9-1.7-.3-.3-.8-.7-1.1-1h0v-1.7h0c-.5-2.5-.5-4,1-6.4,1.1-1.8,3-3.5,3.1-5.8,0-.8-1.3-1.3-1.7-.6.2-.1,0,0,0,0-1.3.9-1.6,2.5-2.6,3.5-.7,1.6-2.3,2.9-2.4,4.7-.7.1-1,1-.9,1.4-.6,2.7-.5,6.6-3.9,7.2-.8-1.9-1.1-4.1-1.8-6.2h0c-.2-1.4-.5-2.6-.8-4,.5-2.9.6-4.8,2.9-6.8,1.7-1.8,3.5-3.5,5.4-5.2,1.1-.7,2.4-1.4,3.2-2.6.1-.2,0-.5-.3-.3-4.2.6-7.1,3.9-9.9,6.7-4.1,3.8-3.5,9.7-2.2,14.6.8,2.3.7,5.8,3.4,6.5,2.5.3,4.9-1.5,5.9-3.7,1.5,2.2,4.2,2.7,6.4,4.1,3.2,2.1,7,3.9,10.6,1.8.5.7.9,1.3,1.5,1.8h-.1c0-.1.1,0,.2.1-.3.3-.7.8-.9,1.1h0c-.9.8-1.8,1.6-2.9,2.3-2.4,1.4-4.3,3.9-6.3,5.9-.7.9-2.3,1.3-2.1,2.6.5,2.3,2.1,4.1,2.9,6.3,1.3,3.3,2.5,7.4,3.2,10.6,0,1.9,2.1,1,2.7,0q.1-.1,0,0c.8-1,1.7-2.1,2.9-2.7,1-.5,2.5-2.1,3.5-3.2,2.5-2.2,4.8-4.5,6.8-7,5.2-3.9,10.5-9,12.2-15.5,1.8-.1,2.3-2.5,1.3-3.9l-.6.5ZM594.5,203h0q0,.1,0,0ZM595.7,197.4h0q0-.1,0,0ZM598.2,207.6h0ZM598.1,207.6h0ZM598.2,207.6h0ZM598.2,207.6h0ZM598.1,207.6h0s-.1,0,0,0ZM605.6,201.6h0ZM608.8,194.1h0ZM607.1,192.1s0-.1,0,0h0ZM606.2,193.3h0ZM602.1,200.3h0ZM605.1,207.7h0s.1.1,0,0ZM606.9,206h0ZM622.5,214.5h0ZM625.3,234.6h0ZM625.2,234.6c-.1,0,0,0,0,0h0ZM642.4,213.4h0q0,.1,0,0Z"/>
      </g>
      <g>
        <path class="st5" d="M532.9,268.1c-5.1,3.7-8.8,9.8-13.5,14.2-3.7,4.5-4,14.4,2.9,15.9,6,1.7,9.9-3.4,13.5-7.4,1.9-2.3,8.7-7.6,8.3-10.4-2.6-4.6-7.6-22.6-13.9-12.2h2.9-.1Z"/>
        <path class="st5" d="M533.7,285.4c5.6,3.5,13,1.5,18.5,5.2,6,4.9,3.5,13.4,3.3,20,0,2.6-2.5,4.8-4.8,3-1.3-.9-1.4-2.2-3-1.1-3.5,4.6-9.8,8.6-13,1.1-2.4-2.7-1.9-4.7,0-7.5,3.7-.6-.5-3.1-1.7-4-4.6-2.6-11-2.3-14.3-6.6-.5-8.3,10.4-12.8,16.9-8.7l-1.8-1.4h-.1Z"/>
        <g>
          <path class="st13" d="M558.6,301.4c-2.2-12.3-5.7-12.7-17.1-15.3,1.3-1.9,3.1-3.4,4-5.6,3.1-2.3-.3-4.1-1.5-6.3-2.3-3.2-4.8-6-6.5-9.7,0,.1.1.2.2.3-.7-1.9-2.3-3-4.1-1.6h0c-.8.2-1.3,1.3-.8,2.1-2.1,2.1-3.3,4.8-5.5,6.8-3.8,4.1-8.9,8.9-12,14-.6,1.7,0,3.5.2,5.4-.7,3.1,1.5,6.6,4.7,7.1,1.6,1.3,3.5,1.9,5.1,3.2,1.3.7,2.7.7,4,1.5,1.9,1.4,4.5,1.3,6.3,2.9-2.3.6-3.8,2.9-3.2,5.1.3,2.1-.3,4.5,1.7,5.8,6.8,5,8.3,2.6,13.8-2.3,1.9,3.5,6.4,2.3,7.1-1.4.2-.5.6-.9.7-1.5,4.7.8,2.6-7.6,2.6-10.4l.2-.2ZM555.5,309.6h0ZM539.1,289.3h-.3.3ZM551.4,314.1h0ZM554.6,311.2c-1.1.6-1.5,2.1-2.6,2.6h0c-.2,0-.3.2-.6.2h-.1c-.6-.5-1-1-1.7-1.3.6-1-.6-2.3-1.5-1.3-.1.2-.3.5-.6.6,0,0-.3.2,0,0-2.6,1.1-4.6,4.2-7.3,4.8-1.6-.8-3.5-1.5-4.6-2.9.1-1.5-.8-3.7,0-4.8-.2.1.1,0,.1-.1h0c.5-.2,1-.5,1.6-.6-.3,4.7,4.1,4.1,3,1.1h0c-.2-.5,0-1.1-.2-1.7,1.5.6,3.2,1.9,4.8.7,1.1-.8.8-2.6-.3-3.3-3.7-1.6-7.2-3.8-11.1-5-1.6,0-2.6-1.3-4.1-1.5-1.9,0-3.7-.8-5.4-1.5-1.6-3-6.3-1.1-5.4-6.2-1-4.3-.6-4.6,2.2-7.9,3.9-5.4,9.1-9.6,12.4-15.3,1.1,3.8,3.3,7,5.2,10.4.7,1,1.4,3.2,2.2,4.6-.7.9-1.4,1.7-2.1,2.6-1.7,0-3.5-.3-5,.6-.7.5-.6,1.7.2,2.1,4.7.8,9.4,1.9,13.9,3.8,2.7.7,5.1,2.1,5.7,5,1.7,4,2.1,8.2,2.2,12.4v-.5c0,.6-.5,1-.2,1.7-.2,0-.5.2-.7.3h-.1Z"/>
          <path class="st13" d="M531,284.8c-.5-.2-.9-.1-1.4,0h0c-2.7.1-1.3,2.1.6,2.2,1.3.2,2.1-1.7.8-2.3h0Z"/>
        </g>
      </g>
      <g>
        <path class="st13" d="M523.9,225.3c-.9-1.1-2.2-2.1-3.2-3.1-1.4-2.2-3-4.2-5.4-5.4h0c-2.3-1.1-4-3.1-6.2-4.2-1-.8-2.4.1-2.3,1.4.7,2.5,3.2,4.3,5.1,5.7,2.3,1.8,5.1,2.5,7.6,3.5.8.2,4.7,4.7,4.2,2.1h0Z"/>
        <path class="st13" d="M507,237.1c2.7.2,5.5.5,8.1,0,1,0,2.6,0,3.1-.9,0-.6-.5-.7-.8-.8-.8-.9-2.1-1.7-3.3-1.7-3.9.5-8.1-.8-11.9.5-1.3.6-.8,2.7.7,2.5h-.2c1.5,0,2.9.6,4.3.6h0Z"/>
        <path class="st13" d="M519,247.6c-1.7.1-4.5,1.1-6.4,1.9-2.3.7-4.7,1.3-5.9,3.4h0c-1.4,1.5-.7,3,1.4,2.6,2.1-.8,4-1.6,6.2-2.1,1.6,0,9.2-5.4,4.8-5.7v-.2Z"/>
        <path class="st13" d="M524.8,234.4c-.8-.9-2.6-1-3.5-.1-.7.9.3,1.8,1,2.4,1.5,1.4,3.9-.6,2.5-2.3Z"/>
      </g>
      <g>
        <path class="st0" d="M585.4,332.7c-11.3-13.5-21.2-28-31.6-42.3-8.3-13-19.3-25.7-21.3-41.4-3.9-20.2,13.4-42.1,33-46.1,11.8-.9,24.2.7,33.2,9,10.5,8.4,16.9,17.3,18,31.4,2.3,30.7-16.4,63.1-30.8,89.2,0,0-.1-.1-.2-.1l.3.3h-.6Z"/>
        <g>
          <path class="st13" d="M618.1,240.6c-.9-7.5-4.2-14.8-8.4-21.1-.8-1-1.9-1.6-3-2.4-.6-.9-1.3-1.7-2.2-2.3-2.3-1.3-3.7-3.5-5.8-5-5.2-4.1-9.6-7-16.3-7.6-2.3,0-4.5-1-6.7-1-4.8-.2-9.7-.3-14.3,1.1-11.1,3-21,12.7-26,22.7-4.3,7.6-6.7,16.5-4.3,25.3,1.4,11.3,8.1,20.7,14,30,4.3,6.8,8.8,13.6,13.6,20,2.4,2.9,4.8,5.7,7,8.7.8,1.5,1.6,3.1,2.9,4.3l-.3-.3c2.9,3.2,5.1,7,8,10.3.6,1.3,1.4,2.3,2.5,3,.8.8,1.3,1.7,2.1,2.5h0c.7.7,1.8,1.9,2.4,2.4.3.3.7.7,1,1-.2,1.3,1.5,2.6,2.5,1.7,1.9-2.4,2.6-5.5,4.3-8,2.2-3.7,3.8-7.6,6.2-11.2,2.5-5.5,4.7-11.1,7.5-16.4,4.7-9.6,9.5-20.4,11.6-31.3,1.3-4.8,2.6-9.7,2.2-14.7.2-3.9.3-7.6-.5-11.4v-.2ZM576.3,323.3h0s0-.2,0,0ZM576.3,323.3h0ZM590.1,327.1h0c0-.1,0,0,0,0ZM604.7,293.1h0c0,.1,0,0,0,0ZM604.7,293.1h0ZM615,243.9c.3,7,.2,13.9-1.5,20.8v-.5c-1.3,7.4-3.7,14.5-6.3,21.5-1.8,6.3-4.8,11.9-7.4,17.8-1.6,3.2-2.6,6.6-4.2,9.8-2.9,4.2-5.1,8.8-8,13.1-.3.7-1.4,3.3-2.3,4.5-.2,0-.3,0-.5.2-.2-.3-.3-.6-.6-.9,0,.1,0-.1,0-.1-.6-.9-1.3-1.8-1.8-2.7h0c-.9-1.6-2.2-2.9-3.5-4-1-2.4-3-4.2-4.3-6.5h0c-1-2.2-2.5-4-3.9-5.9,0,.1.1.2.2.3-3.1-5.5-7.3-10.2-11-15.2-3.8-4.6-6.6-9.7-10-14.5-5.4-8.8-11.9-17-14.7-27-1.1-5.7-3-11.8-1.4-17.6,3.8-13.4,13-26.1,26.4-31.2,3.7-1.3,7.5-1.6,11.4-1.7,3.4-.2,6.6,1,9.9,1.3,6.6.5,11.4,4.2,16.3,8.2,1.4,1.8,3.2,3.1,5,4.5.9,1.5,2.3,2.4,3.7,3.4,4.7,6.5,7.5,14.4,8.2,22.4h.2Z"/>
          <path class="st13" d="M587.2,244.3c-1.8-3.5-6.6-8.1-10.7-5.9-2.4-1.5-5.6-.6-7.9.8-8,4.1-8.3,17.7-2.1,23.5,2.6,2.5,6.3,3.7,9.8,3.2,4.9.8,9.1-3.2,11.3-7.2,2.4-4.5,2.1-10-.3-14.4h-.1Z"/>
        </g>
      </g>
    </g>
  </g>
</svg>