<?xml version="1.0" encoding="UTF-8"?>
<svg id="Camada_1" xmlns="http://www.w3.org/2000/svg" version="1.1" viewBox="0 0 865.4 887.1">
  <!-- Generator: Adobe Illustrator 30.5.1, SVG Export Plug-In . SVG Version: 2.1.4 Build 3)  -->
  <defs>
    <style>
      .st0 {
        fill: #095bd0;
      }

      .st1 {
        fill: #033562;
      }

      .st2 {
        fill: #7e696e;
      }

      .st3 {
        fill: #023562;
      }

      .st4 {
        fill: #d3121a;
      }

      .st5 {
        fill: #f2e8d6;
      }

      .st6 {
        fill: #07325f;
      }

      .st7 {
        fill: #043768;
      }

      .st8 {
        fill: #0f5ac2;
      }

      .st9 {
        fill: #023664;
      }

      .st10 {
        fill: #bec191;
      }

      .st11 {
        fill: #075cd6;
      }

      .st12 {
        fill: #c8d5e1;
      }

      .st13 {
        fill: #021f35;
      }

      .st14 {
        fill: #023663;
      }

      .st15 {
        fill: #033664;
      }
    </style>
  </defs>
  <g>
    <path class="st11" d="M564.6,168c1.9,1.4.8,4,1.1,5.9.7,4.3.7,7.1-2.2,10.2-4.5,4.8-9.5,8.3-16.4,9.5-4.1,11.4,8,17.8-3.7,30.3l-9.6,10.2c-4.6,7.1-6.9,15.3-10.1,23.1-2.8,7-3.1,14.4-4,22.1-.7,6.4,2.8,14,2.8,20.7,2.6-.8,4.1-1.1,6-.6s2.4,3.2,3.7,5c1.8,2.6,12.6,6.7,15.4,5.4s3.4-8.6,10.1-7.5,4.6,3.8,4.9,7.7c.5,6.2,10.8-3,13.9,2-.5,0-1.1,0-1.3.4-.5.6-.7,1.4-.8,2.1-5.2-.7-7.6,5.9-13.8,1.5-.2-1.3-.9-2.5-2.1-3.1v-.9s-.2-5.8-.2-5.8c-3.4-.9-5,1.5-6.1,3.9s-5,5-8.5,3.8l-10.2-3.5c-2.4-.8-3.6-.9-5-2l-1.9-4.9c-2.7,1.2-3.6,3.6-4.1,5.8l-4.2,18.9-3.4,11.5c-.9,3.2-2.1,8.5-5.9,9.6s-8.2,2.8-10,7.5l-3.5,9.3-14.3,6.6c-4,1.8-4.5,5.7-6.4,8.8l-5,8.1c-2.1,3.4-5.8,6.2-5.7,10.8v12c5.5,4.2,7.4,10.7,11,16.1,2.4,3.6,7.8,3.5,11.2,4.8l25.5,9.7c2.1.8,4.9,2.4,6.9.3l5.1-5.1c4.3-4.3,8.8-11.1,15.6-11.9,8.7-1,17.2-.7,24.9-4.5l23.1.3c1.3.2,2.3.6,3,1,0,.3,0,.7,0,1l-18,.2c-6.6.1-14.3,6.8-24.9,5.3s-12.7,2.9-17.5,8l-6.7,7.2c-1.9,2.1-3.4,2.6-3,6.4l-2,8.9c3,.5,4.9-2.7,6.8-3.3,8.7-2.4,17.5.1,26.1.8,2.5-.9,4-1.9,7.1,0l10,5.9c3.6.6,7.9-2.7,11.6-2.8l21.6-.8c3.9-.2,7-.3,10.1,1.6s4.4,5.3,5.2,9.4l1.8,8.4c.8,4,3.2,9.6,6.4,12.4,2.2,0,7.4-1.8,8.8.9.6,4.9.2,9.8,2.1,14.7l.9,11.5,8.9,9.4,16.9-5.9,13.8-4.3c12.1-3.8,23.8-7.1,36.4-8.5,1.9-.2,4.3-1.8,6.6-1.3,4.5,1.2,7.1-2.3,10-3.9,12.3-6.9,3.2-18.4,17.3-27.6-2-4-2.8-7.8-1.7-12.2,3.3-1.3,7.7-1.1,10.6-3.4s2.9-5.8,2.9-7.8c4.4-2.1,5.4-9.3,2.3-11.4-1.2-.9-3.2-3.8-3.5-5.3-2-11.2-3.2-17.1,4.9-26.5,2.5-2.9,6.9-1.3,11-2.5-5.4-4.4-8.6-10.3-5.6-17,3.5-7.9,11.5-10,10.7-15.2s-5.6-4.7-7.4-6.4c-5.4-5.3-12.8-.7-25.2-3.5-4.5-1-6.9-7.6-9.8-10.4s-5.5-1.4-8.4-1.7l-6.7-.7c-1.2-.1-2.6-.7-3.8-.3-1.4-2.7-5.9-3.6-8.1-5.4-4.7-3.8-7.7-3.4-13-1.8s-10.4-.2-14.2-1.1-1.9-6.1-3-7.7c-2.5-3.8-8.7-2.9-11.4-.8l-7.9,6.4-10.9,6c-6.2,3.4-16,10.4-21.2,7.8s1.1-6.7-2.6-8.3-4.4,4.2-10,5.1l-.5,15.2-8.8,5.2c-3.6,2.2-.3,7.5,2.2,9.9s3.2,5.3,2.5,8.1c-.9-.7-2.5-1-3.4-.2l-5.9-9.8c-1.2-1.9-2.3-4-1.7-5.9,1.4-4.6,6.4-7.4,12.1-9.6-2-7.3-1.7-13-.2-19.3,1.3.8,2.7,1.2,4.7.6s2.1-1.1,1.2-2.7c3-.8,6.9-3,10-1s2.3,2.9,3.7,1.9c1.1-3.1.4-7.1-.1-10.4l-5-3c-1.3-2.3-.2-5.9-.9-8.4-3.1-10.9,1-15-1.7-16.5s-3-1.3-4.2-.8l-29,12c-3.5-.4-6.7-2.2-10-1.8.2-1.4,0-2.8-.7-3.9l7.5.5c5.2.4,8.9-1.8,13.2-3.6s6.6-2.3,10.1-4.1,6.5-1.2,8.4-4.6l2.6,1.9c2-6.9-6.9-9.7-2-12.1,1.1-.7,1.8.8,4.2,3.3s2,3,2.7,4.7l2.6,6.4.9,24.9c1.8.8,3.8,1.5,4.8,2.3,1.4,1.2.7,4.5,1.1,6,.9,3.8,2.4,6.2,1.9,10.9l17.2-8.5c7.4-3.6,9.2-13.4,28-8.4,1.1,2.6,1.3,5.7,3,8s5.9,2.9,7.6,2c14.4-7.2,21.8,7.4,34.5,7.5s10.3-.1,13.8,4.7,3.9,7.5,7.1,7.6l19.6.7,7.7,3.6,7.6,6.1c1.8,3.7-1.1,6.5-.4,7.4l2.3,2.5c.8.8-1.9,1.7-2.5,1s-.6-1.6-1-3.1c-1,1.6-2.4,2.9-2.8,4.8-2.9.6-3.5,3.3-4.8,5.1s-3.1,2.5-3,4.9c.1,6.3,6.2,7.4,9.4,15,1.6,3.7,11,9.5,12.4,7.7s-.5-4.1,1.6-5.1,4.3-2.2,5-3.6c1.3-2.4.3-4.7.3-7.1l-.8-36.6-2.9-11.8-4.9-17.2-.3-3.2c0-.9-2.2-.9-3.8-1,5.1-2.4-.1-9.8,2.7-16.3,1.2-2.7,2.3-4.8.7-7.8s-1.4-7.5.5-9.5c.5,0,1.1,0,1.6-.2s.8-1.1.6-1.8l4.3.2-3.5,3.8c-1.9,2,1.3,4.9,1.3,14,0,2.4-1.8,4.8-3,7l10.5,43.2.7,22.8.6,22.9c0,1.2-1.2,1.8-1.9,2-7.1,2.6-9.5,14.6-5.2,20,0,1.1.1,2.9.2,4l.2,13.3c-3.8,8.7-14.3,17-12.1,27.8-.2.3-.2.8-.2,1.1-2.2,1.1-4.5,3.6-6,5.6l-4.8,6.4c-2.2,3-1.9,8.6-.3,11.7s2.1,5.8.9,7.9c-1.6-.3-1.7,2.4-2.9,3.1l-13.9,8.8c-2.9,4.1-2.9,10.3-7,13.2-3.2.8-6.6-.3-10.3-.6l-12.4-1c-1.5-1.3-1.8-5.8-5.6-5.5.2,3.4.8,7-.6,10.1l-21-1.8c-3.6-.3-5.8-2.3-6.2-6.4l-7.6,3.9c-3.9,2-5.8,2.7-6.7,7l-5.4,8c-.3.4-.8.9-1.1,1.2l-.9.9-1.1,1.1c-.2,0-.6,0-.8,0-.4,0-1.1,0-1.5.1-.7.3-.8,1.4-.7,2-11.1,6.4-18.8,3-31.3,12.5l-15.9,12.1c-11.7,8.9-22.9,17.9-35.8,25,.2,3.4,2.8,4.5,4,6.2,2.3,3.1-1.3,6.4-2.2,9.4-1.9,6.1-.2,12.5.5,18.6l1.1,9.9-.4,14.9c0,.8-1.9,1.3-1.8,1.2-.2-3.6-.7-7.1-1.3-11.3l-2-14-.8-16.6c-4.2-1.1-10.6,2.3-15,5.4-4.3,3.1-9.2.5-13.7-.6-11-2.8-22.5-1.5-32.8,1.9l-3.2,13.2c-4.7,0-9.3-.1-13.4-.8l-7.8-1.4-41.9-9.7v23.7c-.1,0,9.9,2,9.9,2,1.2.2,1.5,2.8,1,3.5s-1.9.6-2.8.6c-1.7-2.5-9.4-2.6-12-1.7v-19.3c-.1,0-.5-11.8-.5-11.8l-7.1-16.5c-1.5-3.5-4.9-6-8.2-4.7,0-.3,0-.9-.6-.9l.5-36.1c0-2.1-.8-3.3-1.5-4.6s-2.1-1.9-3.2-2.8c-3.3-2.8-7.3-2.2-10.7-.2s-8.1,3.6-12.2,2.3c-.6-2.6-2.6-1-1.7.7-1.5-7.2-2.6-14.8-2.8-22.2s-2.3-9.7-1.9-15.4c-6.5-5.6-15.4-13.2-24.5-12-3.9,1.2-7.2,5.5-12.6,3s-8.4-1.5-12.5-2.3-4.8-2.1-7.2-1.2c-1-1.3-1.5-3-1.4-5.1v-8.2s1.3-6.9,1.3-6.9c2-4.8,1-10.9.8-16l4.1.3c2.5,4.9-3.7,21.8-1.5,30.5,2.8,4.3,10.5,2.8,14.9,3.8s6,2.8,8.8.6c8.3-6.7,16.7-1.7,25.1,4.5,3.2,2.3,7.4,3.9,9,7.9,2.3,5.8,1,12.2,1.9,18.4s2.5,7.4,1.6,12.1.1,3.2.9,3.7c3.9,2.5,13.6-10,25.6,0,1.3,1.1,5,.7,5.4-1,1.3-5.9,2.5-11.2,6.3-15.9,3.7-4.6,6.7-10.8,12.1-13.7l11-5.8c3.8-2,6-3.3,8.4-7.2l10.4-11.3c7.1-7.7,8.6-20.1,16.7-31.4,1.9-2.7,4.9-5.4,6.5-8.1,2.8-5,3.3-10.6,4.8-16.6l-39.2-14.4c-3.2-1.2-5.7-.7-7.4-5s-4.4-12.4-9.8-14.6l-19.1-1.2c-.5-2.1.5-4.6,1.6-6.4,1.5-1.1,2.8-.9,4.2,0,0,.6,0,1.4-.1,1.8l-1.5.2c-.8.1-.3,1,0,1h1.6s14,0,14,0l-2.1-7.8c.4-3.9,2.7-7,3.9-10.1,1.5-4,6.7-5.6,6.1-10.3,1.1,0,2.4-.4,3-1.2,1-1.3.6-2.9.8-4.2,2.8-13,19.2-4.7,22.6-20.8,1.3-6.4,6.5-8.8,12-10.2,3.4-1.4,3.3-7.2,4.1-9.8l4.2-12.1,1.5-9.2c2.7-7.3,3.1-12.7.6-20.3-4.5-13.5-1.2-17.2-.4-27.9l6-19.5-20.6-.6-3-1.7,26.8-.3c.5-1.3.2-2.3.2-3.1,0-4.8,3.1-8.7,6.5-12.4l10.6-11.2c3.2-4.7.4-9.7-1.4-13.8s.9-9.5,2.9-12.9c7.5-1.9,14.5-4.9,17.2-12.8l.4-7.8c0-.4,0-1.4.7-1.7l1.2-.4ZM630.8,351.8c1.3-2.3.5-3.4,0-4.1-.8,1.8-.5,3,0,4.1ZM770.8,487.1l9.4-10.5c.4-8.4,3.3-15.9,8.2-22.4l-1-1.9c-.2-.4,1.2-1,1.4-.6.2.6.3,1.2,1.1,2.1l3.9-5.3c.6-2.2-1.7-22.8-4.7-25.3l-13.7-11.5-10.6.4-3.9,7.4c-1,4.2-1.6,12.6.5,16.1,5.4,4.7,7,10.5,4,16.1l-3.4,6.4c-2.8,5.2-5.9,7.6-11.7,9.1-2,4.1.9,11,4.6,14l4.1,6.2c2.8.7,9.4,2,12-.1ZM486.6,513.5l-12.3,12,16.3.2,23.9,1.8c5.8.4,11.2,1.4,15,6.4h20.8c0,0,9.6,13.2,9.6,13.2l3,16.1c.4,2.1,4.6,3.5,5,5.6.8,4.5.7,8.6,2.7,12.7l15.5.3.7,9.8c2.6.2,7.1,1.9,9.5.1l19.1-14,21-16c4.8-3.7,9.5-6,15.8-6.3l8.1-1.7h2.6c1.1.1,1.3-1.3,1.6-2,1.4-.8,2.6-1.8,3.9-2.9l1.1-1c.2,0,.6,0,.8,0,.7.1,1.5,0,1.9-.6s.1-1.2.3-1.5l3-4.7c1.1-3.6,2.4-6.7,4.8-9.1,2.8-1.1,5.8-1.3,9-4-3.4-1.6-6.1-.9-8.8-1.6l-.5-5.2-10.7,3.6c-6.8,2.3-13.6,3.5-20.3,6.7-1.3.6-5,1-6-.1-5.4-6-11.4-8.7-12-18.6l-.9-16.7-6.4-.4c-12.7-7.7-7.5-24.8-16.3-31.4-8.3-1-16.7-.6-25,0l-14,3.4c-4.5-.3-8.1-4.5-11.9-5.5-4-1-7.9,0-11.9-1.3-14.9-5-32.8,5.7-38.6,18.8l-4.6,10.4c-3.2,7.2-6.4,14.3-12,20s-2.9,2.1-3,3.8ZM717.8,526.5c1.9-3.8,8-3.4,10-.4,2.1,3.3,4.8,4.4,8.7,4.7l11.8.9c2.9-3.2,3.4-7.4,4.7-11.2,1.9-5.7,14.8-6.8,16.9-13.8,1.4-4.7-1.7-9.8-2.1-14.2l-10.5-1.8c-3-.5-5.7-10.3-9.4-9.8s-7,10.2-8.1,17.6-4.5,5.2-6.3,7.3c-4.1,4.7-8.3,5.5-14,6.5l-10.2,1.8-12.9,2.1-9,2.7c-1.4.4-2.6,1-3.2,1.6s-.4,3,.3,3.2c2.9.6,6.1-.3,8.5,1.6l8.8,6.9c4.5,1.1,9.5,1.7,14.4,1.3,1.5-.2.7-5.2,1.5-6.8ZM582.1,613.8c6.4-1.3-1.3-5.3.2-12.1,1.4-.9,1.6-3.4,4.4-4.6-2.5-3.3-3.7-6.9-4.4-11.3l-17.1-1.9-1.5-13.7c-1.5-3.1-6.2-4.6-6.6-8.2l-1.2-12.8-6.7-11.3-20.8-.5-11-5.4c-7.7-.3-14.4-.9-22-2l-26.7-.5c-11.7,2.1-16.3,12.2-22.6,23,1,6-2.2,10.3-7.6,12.2l.4,36c10.2,6.8,10.5,14.8,15.2,24.3l38.4,9.1c4.8,1.1,8.8,1.8,13.9,2.1s5.1,2.8,8,1l1.9-7.6c1.1-4.3,2.5-5.4,6.2-6.2s8.3-2.3,13-2.1l19.7,1c2.8.1,5.2,2.5,8.8,1.4s4.1-2.4,5.4-5.6l8.8-.9c2.1-.2,2.9-2.5,4-3.5Z"/>
    <path class="st0" d="M591.7,93.9l18.5,5.6,10.4,6.6c7.9-4.5,15.8,1.9,16.5,5.1.9,4.6.3,7.9,2.3,12.4s-1.9,4.7-1.8,6.9l11.8-6.3c5.4-2.9,11.8-5.4,18-5.8l15,3.7,16,2.1h36c1.1,0,1.7.4,2.1.8-3.6.2-6.8,1.4-10.5.8-6.5-1-12.9-.7-19.7-.2s-3.9,2.8-7.1,1.6-2.9,1.3-2.7,2.1c-.6,6.4-8.1,6.3-12.9,10-5,8.1-3.7,16.6-1.5,26.2s-4,6.7-3.7,9.3,7.3,4.4,5.9,10.6c-1.2-.4-3.1,0-3.6,1.6s.2,2.2.9,3.2c-9.8,5.6-18.1-2.7-22,1.3-5,5.1-10.5,9.4-17.3,10.6s-8.4,2.7-9.9,5.8c-5,2-3.9,11.9-10.5,20.3,7,9.5,2.5,18.1,5.9,25.6l7.9,1.1,7,6.6c4.9,2.8,9.2,0,13.5-2.3s8.5-1.5,11.1-5,2-8.5,1.3-13.3,3.1-6.3,5.7-6.6c4-.5,9-.8,12.6.5,5.3,1.9,9.3,1.5,14.7.9s11.4-1.6,14.9-7.6c5.1-8.6,15-6.2,17.6-13.8-.3-7.3-.9-14.8-2.8-21.6l-9.5-15-5.5-13.5c-.5-1.2-.5-2.6-2-3.2,0-1-.4-2.1-.9-2.9.1-.3.7-1.1.6-1.5-.3-.7-1.2-.7-1.7-.5,0-.6.1-1.4,0-1.9,1.5.4,2-.7,2-1.5v-3.4s0-1.9,0-1.9c.3-.8,1.2-1.1,1.9-.7v1.6c0,0,0,4,0,4v4.9c0,.7-.2,1.5.1,2.4s1.1,1,1.9.7l6.2,13.8c4.4,9.9,10.8,14.9,11.1,17.5l1.2,8.3,19.9.2c.8,0,2.6.1,3.4.5l12.1,5.8c3.1,1.5,4-1.9,5.3-4.1s-1.5-3.2-2-5.4c-1.2-4.8-2-11.1-.4-15.7l8.1-8.9c2.9-4.6,5.9-9.9,10.6-11.8s1.6-2.1,3.7-4.8c3.2,1.8,7.2,3.9,11.1,4.9,11.8,3.1,28.2-3.4,36.1,5.2s4.4,5.3,4.9,7.5c1.6,6.6,6,10.8,8.9,16.1,3.7,6.6,4.6,15.4,6.2,22.8s-1.4,16.7-4.2,23.9c-2.8,0-3.7,3.3-6,4.4l-3.9,1.8c-1.1.5-.4,3.4-1,4.5-2.3,4.6-7.1,6.8-10.5,10.3s-5.3,8.6-11,9.3c-4.8,5.4-8.6,12.5-7.9,19.7.2,2.5-1.3,4.3-2.4,6.3-2.8.3-3.3,2.7-4.4,5s-3.3,2.8-3.5,4.6c0,1.7-1.4,2.2-2.4,2.3-5.1.1-7.1-6.4-14.6-4.2l3.5-3.8,3,.3c1.6,1,3.4,3.9,5.7,4.2s4.2-3.7,4.9-5.7.2-.6,0-.8c2.4-.8,3.5-3.6,3.9-6v-1c2.5-1.5,3-4.6,2.2-7.7s-4.1-3.2-6.4-3.6-.4,0-.6,0c.2-.7-.2-1.5-.8-1.7s-1.5-.3-2.2-.2c.2-.8-.6-1.5-1-2.1-1.6-1.8-2.6-4.4-5.1-5v-1s0-2,0-2c0-2.3,3.7-1.5,4.9-2.1,3.1-1.8.5-6.9,0-9.5-.7-4.5-2.9-7.2-5.9-10.5s-6.7-10.2-12.2-13.9c-1.5.7-4.5,2.2-6.2,1.2l-6.9-4.1c-4.6-2.7-10.5-2-14.4,2.3s-4.7,3.8-7.3,5.7-5.3,5.7-9.1,6.3-8.1-9.7-15.8-15.1c-7.9,1.2-7.2,11.3-21.4,14.5s-8.7,2.4-13.8.8-15.5-3.2-17.3-1.6-2.2,3-1.6,4.6c1.5,4,.2,6.6-1.1,10.1s-3.4,7.4-8.2,7.9-6.7,3.1-10.3,4.5-9,1.4-12.1.2l-8.3-7.3c-7.9-2.9-13.4,6.6-19.2,15.1l6.7,4.3c4.3,2.7,4.7,7.8,1.6,11.8s-.4,3.1,0,4.1c-2.4-2.5-3.1-4-4.2-3.3-.6-1.8,1.7-4.4,2.2-6.1-1.1-4.2-6.2-6.3-9-8.7s-.3-4.7.8-6.3c3.1-4.3,5.4-8.1,9.6-11.6,1-.8,1.3-4.7.1-4.8l-10.4-1c-2.3-.2-3.1-5.3-3.3-7.3v-2.6c0-1,.7-1.9,2.2-1.4.8,2,1.1,5.2,2.8,7.1s6.2,2.2,8.8,1.9c3.1-12.6-8.6-19.3-1.1-27.4,2-4.3,4.3-8.4,3.7-13,9.2-11.7,21.2-8.7,31.1-19.2s21.4,5.5,23.4-6-5.6-2.3-5.8-12.7l3.3-.3c5-.4-3.1-14.7.2-27.1,2.9-11,11-9.2,12.3-11.3l3.5-5.7c-8.7-.8-17-2.4-25.3-5.4l-11,3.3c-9.7,2.9-20.2,14.4-23.5,8.6-1.7-2.9,1.7-7.1,3.1-9.4l-3.6-7.8c-.7-1.4.9-4-.5-5.7-3.6-4.7-10.2-.4-14.3-2.4s-6.8-6.2-11.2-5.7-.8,4.4-.7,5.9c.2,4.3-3.6,9.3-4.7,13.4s-3.7,8.1-5.9,12.3c-8.2,15.2-20.7,19.5-20.8,22.6-3,1.1-5.9,2.8-8,5.5,2.5.6,4.4.6,6.2.4s2.5,1.5,3.6,1.8v1.5c0,.9-1,.9-1.5.4-7.1.4-10.9-3.1-9.9,2.2l-1.2.4c-.8.3-.7,1.3-.7,1.7-2.3.1-1.4-3.8-6.4-6.5l10.3-7.4,20.5-16.2c6.1-10.6,16.9-30.3,14.9-37.9s-2.1-2.8-4.2-3.4l-9.6-2.7c-.2-.7.3-1.4.9-1.6.9-.3,1.7-.4,2.5-.5ZM815.9,189.1c2.7,1.7,4.4,5.3,8.4,4.7l.3-11.5h22.3c.6,0,1.7,1.2,2,1.5s1.9-.8,1-1.4l-3.2-2.3c-.9-.6.6-2.5,1.2-3.6-1.5-5.2-5.8-12.2-11.6-12.1l-21.4.2c-4.9,0-9.1-1.4-13.2-4.3l-10,5.2c-1.7,1.4-1.5,5.2-3,6.8l-9,9.8c7.7,4.2,13-3.6,20.1-5.6s6.3,2.1,7.2,4-1.8,4.9-2.9,7.5c4,.8,8.4-1,11.9,1.2ZM858.4,201.9c-.5-5.1-.9-8.8-3.4-12l-9.2-3.4c-.6.3-1.5,1.4-2,1.2l-2.8-1.4c-4.3-.9-8.3-.4-12.8-.3v8.8c-2.8,1.4-4.3,2.2-7.2,4.9,0-3.3-3.4-3.5-4.3-4.7-2.8-3.6-4.9-4.5-9.4-3.2s-5.9-.2-6.7-2.4c-1.9-5.3,4.5-7,3.7-8.8s-2-1.2-2.9-.7l-13,6.1-9.8.2c-.6,10.1,5.5,13.2,3.2,18.9,2,3.4,7.3,2.9,10.6,1.4,5.4-2.5,10.4-3.8,15-7.3s5.4-.4,6.6.9c2.2,2.3,1.2,4.4.6,7.6s5.9,8.5,8.4,6.3l6.6-5.6c4.9-.9,11.1,0,15.3-2.7s7.8-5.3,13.7-3.6ZM751.7,228.3c.6-.7,2.9-.1,3.7-.8s1-2,.6-3.1c10.4-5.8,12.1-5.1,22.8,0s4,2.2,6.7.8c4.2-2,7.3.6,9.3,4.2,2,3.5,12.7-7.4,24.5,1.5,7,5.3,15.7,6,22-.9s4.4-3,6.9-3h11.5c1.7-6.8,1.9-13.7.2-21.1-2.4-.3-4.9-1-7.5-.6l-7.2,4.2c-6.7.8-13.6,1-18.7,5.5-1.6,1.5-2.9,2.7-4.7,2.8s-10.8-5.1-11.2-8.2.7-4.8-.5-8.4c-5.1,4.2-11.1,5.4-16.7,7.6s-8.4,2.1-15.2-1c-7.5,6.1-11.3-4.3-24.8-4.6s-10.4-.8-15.2,1.1l.4,9.4c.3,6.1-10.1,6.6-4.9,11.7l9.6,9.5c3.1-1.2,6.6-4.8,8.5-6.9ZM818.4,243.7c.7-.1,1.8,1.3,2.5,1.5,4.8,1.6,9.3,4.7,13.7,7.4s5.4-1.9,7.3-3c3.5-2,4.4-4.6,4.3-8.9,6.3-2.7,12.8-6.7,11-10.2s-8.4-2.2-13.4,1.8l-6.2,4.8c-2.6,2-8.8,1.7-12,.3l-16.5-7.2c-2.2-1-10.7,4.6-10.6,4.3,0,0,3.2,7.7,11.4,8.3s6.3,2.1,8.6,1ZM829.4,262.1c2.1-.8,5.4-3.4,4.3-5.6s-18.5-12.2-26.2-10.3c2.9,6.7,3.8,12.1,2.4,18.1-1.5.8-2.7,1.3-4,2.5l4.9,4.4c2,1.8,4.5,2.5,6.5,4.9,5.7-6,2.9-10.6,12-14.1Z"/>
    <path class="st0" d="M126.8,72c-4,.6-9.1-1.2-12.9,2.3s-1.7,6.4-.7,8.6c2.1,4.5,6,8.6,7.3,13.3l-2.3,8.5-4.4,10.5-15.1,36c-3.1,2.4-9.6.6-12.6-.8-4.8-2.1-6.6,2.5-9.8,2.9l-21.7,2.5-21.6,10.2c-5,7.5-5.6,19.9-11.9,23.1s-10.1,3-14.2,6.7c4.8,3.1,10.4,3.3,15.3,5.2,9.7,3.8,19.3,7.2,29.8,8.9l8.6,1.4c14,2.4,26.5,6.6,39.6,12.4l45.7,20.3c3.3,1.5,6.2-.1,8.3-2.6,8.4-10.2,11.9-4.6,17.9-4.9,2.9,7.9-5.3-1.4-14.5,5.5s-.6,1.8-.1,1.9c2.3.8,8.4-4.2,16.5-1.9.6-1,.2-1.9.3-2.5.2-2.1,4.4-.8,4.6-3.3,5-.2,7.6-3,12.8,0,2.4-1.2,3.1-5.2,3.6-7.6l14.7-.7c6.9-16.3,15.5-20,32.8-17.4,6.1.9,10.8,6.7,14.2,11.1s4.2,2.9,8,2.9l70.7-.3c2-2.1,5.5-3.9,6.3-6.6l4.1-14.4c1.1-3.7-2-7.5-4.5-9.9s0-5,1.2-7.1l21.8-34.2c2.6-4.1,5.1-8,7.7-12.1l8.9-14.4,5.5-8.7c-2-.8-4.4-1.5-6-2.5l-6.1-4.1c1.1-.3,2.1-1.1,2.8-2l7.7,3.6c2,1,6.3,3.2,4.7,6l-9.8,17.1-7.2,11.7-28,43.6,9.6,14.2c3,4.5,6.2,8.4,6.7,14s3.9,7.8,8,10.2,6.5,4.8,10.8,6.2,2.1,2.1,2.9,3l25.6.2c2.1,0,4.1.6,5,2.1h-17c-1.8-.1-1.7,1.3-2.1,1.8-.6.8-1.9,1.6-2.7,2.1s-2.4-1.3-3.4-1.5c-6.8-1.1-12.1-4.6-17.4-8.7s-10.5-2.9-14.4-15.4c-.5-5.1-2.8-10-7.8-12.7,0,8.3-5.5,20-11.3,21.8l-21.6.9c-3.1.1-5.3,0-8.2,0l-33.2-.3c.2,4.4-1.1,7.7-1.3,11.6l-.7,14.6c0,1.5,1.5,2.5,2.2,3.1-1.5-.3-3.4,0-4.8.7.1,2.7,1.5,3.9,2.6,5.1,0,.6-.2,1.9.2,2.5s1.6.7,2.8.9l11.1,1.7-12.2.3,3.4,1.8h-3.7s-3,0-3,0c-1.9-.2-3.4-1.6-3.3-4.1l.2-11.8c0-4.3.9-8.1.9-12s.2-1.2.1-2.2l-.2-3.9c1.8.6,2.2-3.8,1.1-8.7-4.1.8-7.3,1.5-10.6.8-4.6-1.2-6.3-6.8-10.1-9.9-6-5.1-15.5-6.4-23-4.6-5.6,3.5-10.6,7.2-11.6,13.3s-7,3.7-15.9,5.3c-1,4-5.4,8.1-9.8,7.2s-4.5-2.6-6.7.5c7.9,1.1,1.6,8,2.2,24.1s-.8,6.8.3,9.8c-.5.3-2-.2-2-1v-13.9c-.1-1-1.5-1.4-2.1-1.2s-.6,0-.8-.1c0-.2,0-.4.2-.4l1.5-12.7c-8.3-2.2-15.2,0-22.6,2.4s-8.6,1.9-12.9,4.2l-18.7,10.2-9.5.9c-3,.3-5.8,5.3-9.1,5.3h-38c-1.7,0-3.4,1.4-4.6,1.8-1.6-.7-3.1-1.6-4.9-1.2-.6-1.4-1.7-2.5-1.2-5.1l.8-5.1c.6-3.8,1.7-7.3,2.7-11.5s2.5-4,1.1-6.6c-3.6.4-5.6,3.7-8.5,5.2-8,4.4-17.9,2.9-28.1,2.8-1.6-1.4-.8-4.2-1.6-5.3-3.2-4.5-8.5-5.1-13.1-4.3-.1-.4-.3-.8-.8-1v-9.1c0-2.9-3.4-4.4-5.2-6-5.3-4.4-8.7-12.5-7.2-19.9s8.2-12.7,15.3-14.4,5.6-2.4,6.7-5.5l4.9-13c1.6-4.2,4.4-6.8,8.5-8.6l19.4-8.5,18.5-1.5c9.8-8.6,14.8-.3,22.3-2.4,3.8-6.6,5.7-13.7,8.7-20.5s7.5-17.1,10.3-25.7c2.7-1.7,1.7-5.7.2-8.4-.8-2.6-2-5.1-4.4-5.7-3.6-6-1.3-15.7,1.5-17.1s3.7-1.2,5.6-1c2.9.2,5.8.2,8.7.1s1.4-.6,1.4-1.5-.3-2.5,0-3.3c1.8,0,2.5,2.5,1.8,4s-1.6,2.5-3.1,2.7ZM67,251.8c-.4,2.1-1.9,3.4-1.8,5.6s-.8,4.8,0,7.5l16.4-1.4,28.4.6c4.6-3.9,10-6.4,16-5.9l17.2-9.2c-2.3-3.5-5.7-4.5-9.2-6l-49.8-22.2c-4.2-1.9-7.3-2.9-11.9-3.5s-13.7-3-22.1-3.8-6.2-2.7-10-1.4-2.7-1.7-3.7-2l-29.3-9.9c-4.9-1.6-5.7,10.3,4.8,20.1s2.7,4.4,4.7,6.5c1.1,1.4-.1,5,.7,7.1,2.4,2.2,5.9,1.9,8.7,3.4s3.7,3.6,7,2.8l-1.9,4.1c6.6-.3,13.2,1.2,19.6-.6l12.7-7c1.9-1,4.5-.1,5.2,1.8,1.6,4.6-.7,8.8-1.5,13.4Z"/>
    <path class="st8" d="M326.3,26.2c-1.3-.4-2.5,0-3.3.7-1.5,1.4-7,12.8-1.9,16.8s2.1,5.3,3.3,8.2c7.8,5.1,11.7,11.2,19.6,8.7l30.9-9.9,23.7-.7c-.5-8.9,12.5-8.1,24.5-7.3,7.9,3.4,16.2,3.8,24.4,1.6,6.4,1.8,12.5,2.4,18.7-.5,4.2-6.3,9.5-11.7,14.2-17.7,2.5-3.2,4.7-4.7,8.3-6.9s2.3-3.3,4.6-3.2,3.8,1.6,4.4,4.3c2.1,9.4,4.4,18.2,7.5,27.3l13.1,5.1c2.5,1,5.2,1.6,5.5,4s-1.6,4.3-3.5,5.9c-4.2,3.6-6.9,10.6-12.9,13s-13.3,6-16.6,13.9-3.7,7.2-6.6,7.8c-6.1,1.3-11.7,2.4-16,7.8h15.2c4.9,0,6.5-3,8.6-5.9-1.3,7.3,6.4-4,12.5-.5s4.3,7.5,4.2,10.9c5.1,2.6,9.3,0,14,0s8.5.4,11.4,1.4.7,7.5-1.1,8.7c2.9,1.6,4.5-1.2,5.3-2.8,3.7-7.7,10.4-12.8,19-12.8,2.5-3.8,3.8-9.8,8.1-11.7,10-4.4,18.8-.5,26.4,1.8-.8.1-1.6.2-2.5.5s-1,.9-.9,1.6c-5.2-1.5-10-2.1-15.8-2.1s-6.8.3-8.6,5.1-3.1,8-6.5,8.6-8.9.8-11.8,4.7c-5.2,6.7-6.8,13.5-16.4,11.6-1.2-3.6-.8-6.5,1.8-9.5-3.7-.2-5.9-.6-8.5-2.6-5.3,3.3-10.6,3.2-16,.2-1.8-.5-5.3.6-7.1-.6s-1.7-3.4-.9-4.8,2.7-2.2,5-2.6c-1-8-9.8,3.7-19.8,3.9l-16.1.3c-1.7,0-3-.7-3.5-2s0-3.2,1.5-4.1l6.6-3.9c-.5-12.5-14.1-14.2-14.8-19.2s-6.6-17.7-9.9-18.7l-8.5-2.7c-1.9-.6-3.4-2.1-6.1-1.7s-5.3-.4-7.4-2-2.9-4.2-3-7.8h-18.7c-1,1.9-1.1,3.7-1.3,6-8,2.5-16.2,2.5-24.6.5-9.4,2.8-18.1,5.9-27.1,9.3l-10,2.6.7,20.2c2.4,4.7,7.7,8.5,11.4,12.2l10.5,5.4c2.3,1.2,4.1,1.9,6.2,2.1,1.5,2,4.2,1.8,3.3,5.5-3.2-.2-7.1-1.9-9.6-4.3s-4.2-.3-5.5-1c-9-4.6-16-11.8-20.9-20.6,0-1.9.5-3.9-.2-6.2l-14.8-1.3c-3.4-.3-9.2,3.4-10.6,6.7s.3,7.5-3.2,10.1-2.3.8-3.2.6h-5.6s-.9-.2-.9-.2c-.9-2-3.1-4.4-5.4-4.1l-1.8.3c-1.1.2-2.8,0-4.1.6s-2.1,2.1-2.1,3.6c0,2.6-.7,6.1-2.8,7.5-7,4.5-19.4-7.7-19.7-8.5-.9-3.3,2.7-5.1,2.6-7.5s-7.7-4.3-2.2-16.6-3.1-9.2-1.8-19l-10-.8c-4.5-.3-8.9,1.9-12.6,4.3l-4.3,5.7-13.3,3.7c-4,1.1-8.8,4.4-11.6,6.9-4.5,3.9-7.6.6-11.4.9-6.4.4-12.1,2.8-18.3-2.5s-6.8-3.5-9.7-4.8-1.8-7.8-3-10.1c-1.9-4-6.3.4-8.4,2.2l-37.3.3c-2.1,0-3.9,3.3-2.6,3.7l9.1,2.8c3.8,1.2,4.1,6.6,2.8,9.8l-3.6-.3c1.4-.2,2.6-1.7,3.1-2.7.7-1.5,0-4-1.8-4-.3.8-.1,2.5,0,3.3s-.2,1.4-1.4,1.5c.3-1.5.7-3.8-.2-4.9s-5.7-1.2-11.5-3c-1.1-1.9-1-3.6.1-5.4s2.8-3.3,5.1-3.3l28.7-.5c2.8,0,7-.5,9.4-1.1,3-3.1,6.2-4.9,10.1-2.6s3.1,5.6,3,9,4.6,3.7,6.3,5.1c5.8,4.9,12.7,6.8,19.8,3.3s4.3.9,5.8,2.3c4.1-.5,8.4-4,11.9-6.4s9.8-3.9,15.1-4.9,3.3-3.7,4.7-5.1,2.9-2.5,3-4.5c.2.5.5,1,1.4,2.1,3.3-1.4,7.2-2.3,10-5.9-5.1-.8-10.1-1-12.3-5-4-7.1.3-14.4-7.7-15-.5-1.4-2.1-2.4-1.4-4.3s2.3-2.1,3.6-2.7c4.8-2.3,7.2,2.9,10.3,3.5,5.8,1.1,11.5.4,16.2,4.1s5.9.8,6.3-.7c2.2-9,8.2-1.6,26.1-8.1l8-2.9c6.1-2.2,10.4-5.8,13.6-11.8s5-1.7,6-.5c2.6,2.9,1.2,6.9,1,10s4.7,3.4,6,4.8c2.9,3,1,7.6,1.1,10.7ZM266,92.8c4.3,3.4,8.2,5.3,12.3,7.2,5.1-4.9,1.2-9.4,7.9-12.4,10.8-4.9,13.3,6,17.7,4.1s-.4-10.4,7-14.6,5.8-3,8.7-3l17-.2c.3-2.6,1.5-7.1-.5-9.4s-6.8-6.3-9.9-7.5c-5.6-2.2-6.2-4.4-7.9-10s-4.6-14,.4-19.9,6-5.6,4.1-10.3c-2.1-.9-5.3-1.2-7.1-2.8-3.3-3,3.3-10.1-.5-10.1s-2.6,4.5-9.2,8.4c-9.7,5.8-25.9,10.6-37.2,9.4-.1,2.5-.8,4.2-1.8,5.2-1.8,1.9-8,1.9-12.4-.8-6.9-4.3-12.3.4-17.8-5.2s-3.3-1.6-4.6.3c7.7,4.5,5.3,12.5,9.3,19.8,2.9.6,5.7-1.1,8.1-.5s3.8,4.6,6.3,5.4,5.8,1.2,9,3.2c-2.1,5.6,1.7,9.9,2.3,14.9s-1.7,7.3.7,10.4c-7.3,3.1,2.5,7.8-1.9,18.1ZM487.2,24c-2.5,0-3.4,2.5-4.7,4.1l-3.9,5c-1.3,1.7-2.7,2.8-1.9,4.8-.6-.2-1.7.6-2.2.8-3.2,1.8-3.3,6.1-11.3,9.1s-1.8.3-2.6.3h-9s-6.9,0-6.9,0l-8,.2-6.6.2c-1.2,0-2,.8-2.3,1.3s-.4,2.1.3,2.2l5.2.7,9.3,3c2.3,2,6,2.2,8.8,2.9,5.8,5.2,7.7,13.1,11,20,2.5,5.4,10.7,6.6,13.9,16.3,3.5.4,6.7-.6,9.9-2.3,5.4-20.4,22.7-14.6,29.8-31.1.6-1.4,4.1-2.4,2.7-4.7s-2.5-1.5-4.3-2.3l-12.4-5.6-4-11.8c-1-2.9-.9-3.7-1.6-6.7l-1.5-6.2c-.4-1.6-.1-3.7-1.8-5-.4,4.2-3.6,2.8-5.7,4.9Z"/>
    <path class="st6" d="M180.3,257.2c-6.8-1.3-12.8.6-19.4,2.7s-15.2,5.2-22.2,9.9-11.4,5.4-18.1,5.7c-4.1,3.8-9,5.8-14.5,4.9-10.5-.3-20.5-1.4-31.1-.5s-5.8,2.8-6.7.5l-3.1-7.6c-2.1-1.8-2.9-2.7-3.8-4.7,1.7-.4,3.3.5,4.9,1.2,1.1-.4,2.8-1.7,4.6-1.7h38c3.3,0,6.1-5,9.1-5.3l9.5-.9,18.7-10.2c4.2-2.3,8.5-2.8,12.9-4.2,7.4-2.5,14.3-4.6,22.6-2.4l-1.5,12.7Z"/>
    <path class="st6" d="M750.3,534.8c.6-.2,1.5.2,1.5,1.3l-5,9.5-20.8-.5c-2.5-1.5-4.4-6.6-8.6-5.3-.5,2.6-.2,5.9-1.5,8.4l-12.4-.7c-5.7.8-10.3-.6-13.3-6.4l-12,6.4c-2.5,1.3-8.3,17.3-18.2,19.6l-18.8,4.3-51.9,38.2c-1.2-1.7-3.8-2.8-4-6.2,13-7.1,24.2-16.1,35.8-25l15.9-12.1c12.5-9.5,20.2-6.2,31.3-12.5.3,0,1.1-.2,1.5-.4.5-.4.8-1.1.7-1.8.3,0,.6,0,.8,0,.5-.1.9-.6,1.1-1.1l.9-.9c.4-.3.8-.7,1.1-1.2l5.4-8c.9-4.3,2.8-5,6.7-7l7.6-3.9c.4,4.1,2.6,6.1,6.2,6.4l21,1.8c1.4-3.2.8-6.7.6-10.1,3.8-.3,4.1,4.3,5.6,5.5l12.4,1c3.7.3,7.1,1.5,10.3.6Z"/>
    <path class="st8" d="M501.5,789.4c.1,1.1,1,1.9,2.1,2.1-5.5,4.2-9.7,14.5-9,21.3.6,5.5,1.4,11,1.2,16.7l-.9,3.9c-1.4,0-1.9.6-2.4,2l-5.1,14-4.4,9.5c-2.5,5.3-5.7,9.3-9.5,13.4l-3.9,4.3c-1.7,1.9-4.5,4.5-6.9,3.3,0-.8-.1-2.9-.5-3.2s-1,.6-1.3,1c-1.5-7.3,0-13.3,4.1-19.8,2.1-3.4,3.9-9.5,8.7-9.8s6-.8,7.9-4.6c1.9-3.8,3.4-7.4,2-11.6.6-.6.9-1.5.9-2.3,0-1.4.5-4-.6-5.6s-4.3-.7-5.5.8-1.8,2.5-1.8,4.3c0,3-6,12.2-11.2,9.7s-7.6-8.1-11.2-11.7c-3.6-3.7-3.7-8.6-5.1-12.9l-14-7-13.5-13.6-13.1-6.9c-5.9-3.1-7.2-14-11.6-11.8-3.6,1.8-5.3,5.2-7.3,9.1l-7.7-13.8-13.9-13.2c-2.6-2.5-5-6.6-9-6.7s-4.7,1.6-6.6,2.1-3.5,1-5.5.1-1.5-1.6-1.3-2.1.5-1.3.9-1.8c2.9,1.9,6.6,3.2,9.5,1.7-.5-1.6-1.8-1.4-2-1.5s-.4-.8-.5-1l8.1-1.9,9.5,8.4,10.7,9.3c3.9,3.4,6.5,7.1,7.5,12.6,3.6-3.3,7.2-5.5,11.5-4.6s5.5,9.1,11.6,12.3l11.2,5.9,15.2,14.7,12.4,5.7c4.4,2,1.5,10.2,7.5,16.4l5.9,6.1c1.4,1.4,2.9,1.9,4.2,1.6,4-1.2,2.9-16.8,16.4-15.3l4.5,13.1c6.6-10-1.6-17.2,2-26.6s3-9.2,5.8-13.1l4.2-2.7ZM474.7,866c3.9-4.2,5-9.5,6.8-14.5h-8.7c0,3.3-2.5,4.8-4,6.9-3.8,5.4-6,11.1-3.5,17.6l9.4-10Z"/>
    <path class="st11" d="M184.9,273.9c2.6,7,8.2,11.4,14,15.9,8.1,6.1,19.6,4.3,31.9,9.4s10,5,16.3,5.6l7.4,5.4c1.3,1,1.7,3.9,4.4,3.8s3.1,0,4.4.4c5.5,1.5,11.3.3,17.5.9s9.7-2,10-7.1c.5,0,1.5.3,2,0,2.6-1.2,4.8-3.6,6-6.1.4,0,.8-.2,1.2-.3.8-.4.5-1.4.7-1.9,3.6-10.5-6-16.8.3-21.6s1.7-2.6,1.4-3.5-1.5-2.5-2.8-2.6l-10.7-.7-10.9-1.5-3.4-1.8,12.2-.3,14.8.5c2.7,0,4.3,3.6,4.9,5.3.9,2.7-1.3,5.5-2.1,7.8-1.4,4,1.6,8.5,1.2,12.4l-1,8.9-11.3,10.8c-.7.7-2.7,1.8-2.4,3.2l3.7,7.1c.6,4-.2,8.5,2,12v2c.3,8.5-6.6,14.6-2.7,21.7s.6,3.7.7,5.1.3,1.6.2,2.2c-.3,1.1-.1,4.2,1.2,4.6l14.4.4,18.4,1.2c2.5.2,7.5-1.3,9.2,1.4,1.7,3.1,0,8.1.8,11.3l-4.2.2v-8c-4.5-1.9-9.1-2-13.9-2.1l-25.7-.5c-1.7,0-2.6-2.8-2.1-4.7-1.3-.5-1.5.8-1.5,1.3-2-5.7-3.3-19.3-1.9-22.2,2.8-5.9,1.5-11.1,1.5-16.8s.5-10.9-5.6-12.8c-12.1-3.6-25.3,0-30.7-3.3s-4.5-6-7.8-7c-.2-3.6-5.2-.2-12.3-3.8-3.8-5.4-11.9-4.8-17.6-6.6s-8.3-1.5-13-2-11.3-10.2-15.8-11.6l-5.6-8.1c-.3-.8-.9-1-1.5-.4l-.5-2.2v-17.4c.6-.2,2.1.1,2.1,1.2v13.9c.1.9,1.6,1.3,2.1,1Z"/>
    <path class="st6" d="M188.3,285.8c4.4,1.4,10,10.9,15.8,11.6s8.5.5,13,2,13.8,1.2,17.6,6.6,7.8,4.5,12.3,3.8c3.3,1,4.8,5.2,7.8,7,5.4,3.2,18.6-.3,30.7,3.3s5.5,8.3,5.6,12.8c-2.8-1.4-5.8-1.9-9.2-2l-21.6-.6-8.1-6.6c-5-4.1-11.6-4.3-18.2-4.8l-2.8-4.6-20.3-4.1c-5.6-1.1-9.1-3.5-13.3-6.9-6-4.9-11.6-10.5-12.3-18.3,1.2,0,2.1.5,3.1.8Z"/>
    <path class="st6" d="M476.6,828.9c2.6.8,5.3.1,7.8.4,0,.8-.2,1.7-.9,2.3.3-2.6-5.4-.2-6.7,2.3-2,3.8-2.9,9.5-6.7,11.9s-7.1-1.2-9.3-3.6c-4.4-4.6-9.5-8.7-10.5-15.2s-1.1-5.5-4.7-6.7c-7.6-2.6-13.9-7.6-19-13.7s-11-9.1-18.1-12.1c-3.7-1.6-5.4-10.8-9.4-10.8s-5.7,6.6-9.3,8.4l-6.2-13.4-22.4-20.9c-5.1,1.2-8.8,1.8-13.6,1.7,2.1-2.6,4.3-4.3,5.1-7.1,1.8-.5,4.3-2.1,6.6-2.1,4,0,6.4,4.2,9,6.7l13.9,13.2,7.7,13.8c1.9-3.9,3.7-7.4,7.3-9.1,4.4-2.2,5.7,8.7,11.6,11.8l13.1,6.9,13.5,13.6,14,7c1.4,4.3,1.5,9.2,5.1,12.9,3.6,3.6,6.1,9.3,11.2,11.7s11.2-6.7,11.2-9.7Z"/>
    <path class="st0" d="M556.7,737.3c-3,5.8-4.9,11.9-6.4,18.1l-3.6,14.1c-1.2.4-2.5,2-4.3,2s-2.4-2.5-2.1-3.8.2-1.3,0-1.7-1.3-1.1-2.2-.5c-1.6,1-1.8,3.6-1.7,5.2v2.6c-1,0-2-.7-2.2-2l.2-1.8c.6,0,.7-.2.8-.6.2-.8-.5-1.1-.6-1.5,0-.8.5-2.9-.5-3.6-2.6-1.1-5.6-.7-8.6-.1-1.5,4.8-1.6,9.6,0,14.4-2.4,1.3-2.7,3.7-3.9,5.4-3,4.2-7.6,6.7-12,8.3-.7-1-1.7-2.1-2.6-2.3-1.7-.5-2.7.7-2.4,2.2h-1c-1.1-.2-2-1.1-2.1-2.2l1-.9,1.1-1.1,4.9-4.8c3.3-3.2,3.5-6.3,4.4-10.3,1.7-7.3,3.9-14.2,3.6-22s3.2-5.7,5.6-5.8,4.6,3.3,6.8,4.3c4.1,1.9,8.8.5,13.3,1l.6,15.8,4.3-14.9,5.6-14c.4-1.1,1.1-2,1.9-2.3v2.4c.2.8,1.2,1,2.1.5ZM519,766.9c-.7,3.2-1.2,6.2-2.1,9.8l-1.9,7.3c5.9-4.3,5-10.6,6.8-15.8s1.2-4.6.7-8.2l15.8-.3c.5-2.2.6-3.8,0-5.9-3.7-.5-7.6.9-11.4-.8s-2.4-4.3-5.9-3.9c-1.4,5.9-2.9,12.2-2,17.9Z"/>
    <path class="st0" d="M339.5,389.7c-.5,2.8.6,5.6,3.1,7.2l12,8c1.5,1,2.2,2.9,3.7,3.1s3.2,0,4.6-1l6.5-4.3c2.3-1.5,3.5-3.3,5.1-5.4,5.4-3.5,14-4.8,20-2.4l9.3,3.7c-1,.2-2,.1-3.1.6s-1.2,1.4-1.1,2.3c-1.6,0-4-1.1-5.3-2.2-3.4-2.9-5.7-1.1-8.9-.4s-8,.5-11.1,4.5-7.9,6.7-11.6,8.1-3.1-.6-3.6,1.6.2,6.5-1.2,8.2c-3.1,2.7-3.4,5.8-3.5,10.4s-2.4,6.2-1.9,9.2c-3.2,3-7.5,9.1-8,11.2s1,2,1.8,2.8c1.5,1.7,1.4,4.5.8,6.5-.8,2.9-2.3,3.9-6.2,4.9,2.3,1.6,3.2,1.9,3.7,3.2-1.2,1-1.6,2.6-1.9,4s-1.4,1.5-1.9,2c-.5-1.4-.4-3.1-1.3-4.6-3.4-6.5,4.7-9.6-.3-16.6,2.2-7.5,8.8-12.3,9.7-18.7s2.5-11,4-16c.6-.1,1.4-.3,1.7-.8s.2-2.3.4-3.1c1-4.6-1.4-6.6-4.8-8.7s-8.3-7.1-13.2-9.7c.6-2.7-2.8-1.7-1.4.5l-.9-3.1c-.3-1.1-.8-3.5.4-4.9l4.5-.2Z"/>
    <path class="st6" d="M402.6,541.8c-1.2-.6-.5-3.8-1.4-4.8-3.6-4.5-9.9-6.4-14.3-9.4s-10.4-.6-16,1c-5.8,1.6-13.1-2.3-18.7-3.3l-6.9-1.2c-1.2-2.9-1.6-5.7-1.5-8.4v-1.8c2.5-1,4.7.7,7.3,1.2,4,.8,8.9.6,12.5,2.3,5.5,2.5,8.8-1.7,12.6-3,9.2-1.2,18.1,6.4,24.5,12-.5,5.7,1.7,9.3,1.9,15.4Z"/>
    <path class="st0" d="M450.6,657.8c-1.2.4-2.9,2.6-3.1,3.8-1.9.2-3.3,2.7-4.6,4.2-4.3.4-8.1,3.8-11.8,6.1l-8.1,4.9c-7,4.2-15.6,6.7-21,13l-10.2,11.9c-1,1.2-1.7,3-2.3,4-3.4-.5-3.9,2.9-5.2,4.4l-10.7,12.6-13.1,14.6c-2.5,2.7-3.9,5.8-7.1,8.1s-.6,1.1-.6,1.5.2.7.6.8c0,.2.3.9.5,1s1.5-.2,2,1.5c-2.9,1.4-6.6.2-9.5-1.7l32.2-37.7,21.5-24.5,22.5-14.3,25.8-16.2,1-17.1h.8c0,0,.1,19.2.1,19.2Z"/>
    <path class="st6" d="M61.1,258c-8.3,3.9-17.6,4.3-26.9,3.1-2.4-8.5-4.7-8.8-13.2-10.1l-3.5-7.5c-1-2.1-3.2-3.4-3.9-5.3,4.6-.8,9.9-.1,13.1,4.3.7,1.1,0,4,1.6,5.3,10.2,0,20.1,1.6,28.1-2.8s4.9-4.8,8.5-5.2c1.4,2.6-.7,4.7-1.1,6.6-.9,4.2-2,7.7-2.7,11.5Z"/>
    <path class="st6" d="M520.1,62.5c-.5,3,1.6,7.9-.4,11.1s-5.6,9.1-9.5,12.2c-6.1,4.9-14.2,7.2-18.5,13.3s-3.7,5.8-8.6,5.9h-15.2c4.3-5.4,9.9-6.5,16-7.8s5.6-5.3,6.6-7.8c3.3-7.9,9.3-10.9,16.6-13.9s8.7-9.5,12.9-13Z"/>
    <path class="st6" d="M334.7,385.9v1c-.6.3-1,1-1,1.8-3.9-1.5-8-.5-12.1-.8l-25.2-1.7-5-14.3c0-.5.2-1.8,1.5-1.3-.6,1.9.4,4.7,2.1,4.7l25.7.5c4.8,0,9.4.2,13.8,2.1v8Z"/>
    <path class="st8" d="M736.5,124.8l29.4,12.7,31.8,17.9c-2.1,2.7-.6,3.5-3.7,4.8l.4-2.6c.2-1.7-1.9-1.4-2.8-1.9l-19.6-11.4c-8.3-4.8-19.9-10.3-28.7-13.3l-8.1-2.8-22.5-.3-2.2,7.3c-1.6,5.5,5.7,7.2,5.8,11.1-.7-.3-1.6,0-1.9.7l-7.7-6.6c-1.5-1.3-4-1-4-2.9.1-5.7,7.7-1.3,5.4-9.3-3.7-.9-8.5-.7-11.6.7-.2-.8,1.6-2.5,2.7-2.1,3.2,1.2,5.1-1.5,7.1-1.6,6.8-.5,13.2-.7,19.7.2s6.9-.6,10.5-.8Z"/>
    <path class="st0" d="M592.3,685.4c-1.5-.4-1.6,3.4-2.7,4-4.4,2.5-4.3,6.9-5.7,10.7-2,5.5-8.5,9.1-12,13.6l-6.1,8.1-2.9,3.7c-.2-1-.7-1.8-1.4-1.8,2.2-9.9,14.2-15.4,18.9-26.2s.1-6.5,3.7-8.5c4.3-2.3,3.1-6.6,3-10.7l-.6-14.7c0,.1,1.8-.3,1.8-1.2l.4-14.9,3.1,25.1.7,12.9Z"/>
    <path class="st6" d="M860.7,236l-4,5.5c-2,2.8-2,7.6-4.8,10-4.9,4.2-8.7,9-13.2,13.7l-7.3,7.5c-3.2,3.3-4.4,7.6-9.7,8.6.2,1.9-.9,3.6-1.2,4.7-.7-7.3,3.1-14.3,7.9-19.7,5.7-.7,7.7-5.9,11-9.3s8.2-5.8,10.5-10.3,0-4,1-4.5l3.9-1.8c2.3-1,3.2-4.3,6-4.4Z"/>
    <path class="st6" d="M419.3,561c1.5.5,2.6,1.1,3.9,1.9,2.5,1.7,5.5.8,6.8-1.7,1.1.9,2.4,1.3,3.2,2.8l-.3,9.6c-10.7-10.2-15.7,4.4-25.5-.6l-1.9-9.1c-.9-1.7,1.1-3.3,1.7-.7,4,1.4,8.7-.2,12.2-2.3Z"/>
    <path class="st7" d="M592.3,685.4c.2,3.2-2.9,5.5-4.3,8.7l-3.5,8.3c-3,3.2-3.5,6.9-6.1,10.1l-16.3,20.5-11.8,22.3c1.6-6.2,3.4-12.3,6.4-18.1l6.2-11.9,2.9-3.7,6.1-8.1c3.4-4.5,9.9-8.1,12-13.6s1.3-8.1,5.7-10.7,1.2-4.5,2.7-4Z"/>
    <path class="st6" d="M524.3,799.4c1-.1,2,0,2.2,1-2.3,1-2.3,3.8-3.2,5.7-1.5,3.2-6.3,2.2-8.7,3.1l-7.3,9.9c-.7.9-2.1.9-2.7,1.1l-6.2.4h-1.1c0,0,1.1-8.3,1.1-8.3,14.8.1,12.8-6.7,16.1-10.9s7-1.8,9.8-2.1Z"/>
    <path class="st6" d="M810.1,301.9h2.4c0,0-8.9,14.4-8.9,14.4-3.5.3-6.4-1.3-9.2-2.4,0-9.1-3.2-12-1.3-14,7.6-2.2,9.6,4.4,14.6,4.2s2.3-.6,2.4-2.3Z"/>
    <path class="st6" d="M352.9,419.8l-13.9-10.4c-3.2-2.5-2.5-8.1-3.4-11.4-1.4-2.2,2-3.2,1.4-.5,4.9,2.6,8.6,6.9,13.2,9.7s5.7,4.1,4.8,8.7,0,2.4-.4,3.1-1,.7-1.7.8Z"/>
    <path class="st6" d="M489.1,849.6l-7.5,16.7c-3,6.6-6.8,11.9-12.3,16.8-1.9,1.7-3.3,4.3-6.5,4.1l-1.9-9.7c.3-.4,1-1.3,1.3-1s.5,2.5.5,3.2c2.4,1.2,5.2-1.4,6.9-3.3l3.9-4.3c3.8-4.1,7-8.2,9.5-13.4l4.4-9.5,1.7.3Z"/>
    <path class="st7" d="M450.5,638.6h-.8c.3-4.9-2.7-8.5-4.6-13.2s-2.7-9.2-8.6-9.5c-.9-3.8-1.9-6.9-1.7-10.2,3.2-1.2,6.7,1.2,8.2,4.7l7.1,16.5.4,11.8Z"/>
    <path class="st7" d="M774.1,509.6l-7.6,13.3-10.1,6.9-4.7,6.2c0-1.1-.8-1.4-1.5-1.3,4.1-2.9,4.2-9.1,7-13.2l13.9-8.8c1.2-.8,1.2-3.4,2.9-3.1Z"/>
    <path class="st6" d="M238,48l-8.7-23.9c8,.6,3.7,7.9,7.7,15s7.2,4.2,12.3,5c-2.8,3.6-6.7,4.5-10,5.9-.9-1-1.2-1.5-1.4-2.1Z"/>
    <path class="st6" d="M326.3,26.2l.2,3.9c-1.2,1.8-.9,4.2-.7,6.2-3.5,3.2-2.2,6-4.7,7.3-5.1-3.9.4-15.4,1.9-16.8s2-1.1,3.3-.7Z"/>
    <path class="st6" d="M540.4,767.7c-.4,1.3,0,3.9,2.1,3.8s3.1-1.6,4.3-2c-1,4.1-2.7,8-5.4,12-2-1.6-3.4-3.4-4.5-5.4s-.4-.4-.6-.6l.4-2.3v-2.6c-.1,0,1.1-2.5,1.1-2.5.4-.9,1.7-1,2.6-.5Z"/>
    <path class="st7" d="M536.3,775.5c.2.2.5.3.6.6l-8.9,13.9c-1.6,2.5.8,9.5-1.5,10.5-.3-1-1.2-1.1-2.2-1,3.5-3.1,1.9-7.6,2.6-12,.9-5.1,5.8-9.3,9.4-11.9Z"/>
    <path class="st6" d="M126.6,70.1c-2.9,0-5.8.1-8.7-.1-.7-2.6-1.6-5.4-3-7.8,5.8,1.8,10.8,2,11.5,3s.5,3.5.2,4.9Z"/>
    <path class="st7" d="M784.5,476.9c-2.3-10.8,8.3-19.1,12.1-27.8l-.2-13.3,1.8,12.9-10.4,18.7-3.2,9.6Z"/>
    <path class="st12" d="M338.9,385.7c.4,1.3.9,2.5.6,4l-4.5.2c-1.2,1.4-.7,3.8-.4,4.9-2.3-.5-3.2-2.8-3.3-5.5l-9.8-1.4c4,.3,8.2-.7,12.1.8s1,0,1-.4v-1.4s0-1,0-1l4.2-.2Z"/>
    <path class="st7" d="M434.2,604.7l-.5-25.1-.8-6,.3-9.6c.7,1.3,1.5,2.5,1.5,4.6l-.5,36.1Z"/>
    <path class="st7" d="M780.4,484.8l-6.4,9.7c-1.3,2-.6,5.3-.8,7.2-1.6-3.1-1.9-8.7.3-11.7l4.8-6.4c.8,0,1.6.3,2,1.2Z"/>
    <path class="st12" d="M498.4,812.4l-1.1,8.4-1.5,8.7c.2-5.6-.5-11.2-1.2-16.7l2.8-3.6c.6.9,1.1,2.2,1,3.2Z"/>
    <path class="st7" d="M796.2,431.8c-4.4-5.4-2-17.4,5.2-20l-5.9,12.1c-1.3,2.6.8,5.7.7,7.9Z"/>
    <path class="st7" d="M494.9,833.3c-1.3,5.7-3.5,11-5.8,16.2l-1.7-.3,5.1-14c.5-1.4,1-2,2.4-2Z"/>
    <path class="st7" d="M343.6,476l1,1.8c.2,5.1,1.2,11.2-.8,16-.2-3.3.9-7.2-.4-10.7l-2.6-7.2c.5-.5,1.7-1.3,1.9-2,0,.9.6,1.5,1,2.3Z"/>
    <path class="st7" d="M12.7,237.2c-1.3-5.1-3-10.1-5.2-15,1.8,1.5,5.2,3.1,5.2,6v9.1Z"/>
    <path class="st8" d="M115.1,102.2c-.1-4.8-1.7-10-4.2-14.1,2.4.6,3.6,3.1,4.4,5.7,1.5,2.8,2.5,6.7-.2,8.4Z"/>
    <path class="st8" d="M343.9,513.9v1.8c-4.7-2.5-2.6-9.3-1.5-15.1v8.2c0,2.1.5,3.8,1.5,5.1Z"/>
    <path class="st8" d="M180.7,275.2c-2.1-3-1.4-6.6-1.2-10.5l.5-7c.2,0,.6.2.8.1v17.4Z"/>
    <path class="st7" d="M188.3,285.8c-.9-.3-1.9-.8-3.1-.8-2.1-1.9-3.4-4.8-4-7.6.6-.6,1.2-.4,1.5.4l5.6,8.1Z"/>
    <path class="st8" d="M784.4,478c-.3,2.7-2.6,4.8-4,6.8-.4-.9-1.2-1.2-2-1.2,1.5-2,3.8-4.5,6-5.6Z"/>
    <path class="st8" d="M812.5,301.8h-2.4c.2-1.7,2.6-2.7,3.5-4.5s1.6-4.8,4.4-5l-5.5,9.5Z"/>
    <path class="st8" d="M325.8,36.3c-.2-2-.5-4.4.7-6.2,0,1.9.9,4.8-.7,6.2Z"/>
    <path class="st12" d="M504.6,820.3c-1.3,1.5-4.4,1.8-6.2.4l6.2-.4Z"/>
    <path class="st14" d="M394.4,241.8l18.2.2c.7,1.2,2.2,2,4,2h27.9s7,0,7,0l4.7,2.8c1.9-2.6,4-1.3,6.4-1.2l13.9.3h26s20.6.6,20.6.6l-6,19.5c-.8,10.6-4.1,14.4.4,27.9,2.5,7.6,2.2,13-.6,20.3l-1.5,9.2-4.2,12.1c-.9,2.6-.8,8.4-4.1,9.8-5.5,1.3-10.6,3.7-12,10.2-3.3,16.1-19.7,7.9-22.6,20.8-1.9-.5-4.1-.5-5.9.4-.7,2.7.4,4.2,2.1,5,.6,4.7-4.6,6.3-6.1,10.3-1.1.6-3,1.1-3.9,2.1-.4-.9-1.1-1.9-1.8-1.9-1.2,0-2.1,1-2,2.9v2.1c.1.5.7.9,1.7.5-.5,1.4-1,2.3-2.6,2.3s-2.5-.3-3.6-.9c-.2-1.2-1.9-3.4-3.4-2.6-6.7,3.8-12.2,11.5-20.7,7.2l-2.6-1.3c-1.2-.6-2.2,1.1-3,1.5-5.8,2.8-13.1,2.1-15.8-4.1-.6,0-1.1-.4-1.2-1l-9.3-3.7c-6.1-2.4-14.6-1.1-20,2.4-1.6,2-2.8,3.8-5.1,5.4l-6.5,4.3c-1.4.9-2.7,1.2-4.6,1s-2.2-2.1-3.7-3.1l-12-8c-2.5-1.7-3.6-4.5-3.1-7.2s-.2-2.6-.6-4c-.9-3.2.8-8.2-.8-11.3-1.7-2.7-6.8-1.3-9.2-1.4l-18.4-1.2c.1-.8.7-2.8.3-3.6-1.6-2.9-6.8,2.1-11.5,2s-3.1-1.6-4.4-3.4c.1-.5-.1-1.5-.2-2.2.7,0,1.5,0,2.1-.4,1.4-.8.4-5.2-1.4-9.4,1.2-6.4,4-11.8,3.2-14.2v-2.3c.1-.6-1-.9-1.8-.5v-2c0,0,0-7,0-7,3.1-.4,5.3.5,7,3l2.4-3.1c1.2.7,1.8.5,2.2.1,1-.8-2-9.2-6.6-7.5s-4.3,3.2-7.1,2.4l-3.7-7.1c-.2-1.3,1.7-2.4,2.4-3.2,3.3,0,6.6,4.3,7.1,1.3l.5-2.5-.8-.8c-.6.3-.8,0-.8-.5s-.1-.9.2-1c.9-.2,1.6.6,1.3,1.2l.6.6c.8.1,2.7,0,3.2-.7.9-1.3-.5-2.9-1.3-4.3l1.4-4.1,1-8.9c.4-3.9-2.6-8.5-1.2-12.4s3-5.2,2.1-7.8-2.2-5.2-4.9-5.3l-14.8-.5-11.1-1.7c-1.3-.2-2.2,0-2.8-.9s-.2-1.9-.2-2.5c2.3.3,4.3-.9,5.9-3.4-.8-1.1-2.3-2.1-3.7-2.3-.8-.5-2.3-1.6-2.2-3.1l.7-14.6c.2-3.9,1.5-7.1,1.3-11.6l33.2.3c2.9,0,5.1.2,8.2,0l21.6-.9c5.8-1.7,11.2-13.5,11.3-21.8,4.9,2.7,7.2,7.6,7.8,12.7,3.9,12.6,9.7,11.8,14.4,15.4s10.6,7.6,17.4,8.7,2.5,1.9,3.4,1.5,2.2-1.2,2.7-2.1ZM293.6,236.4c2.2.7,3.5-.2,3.9-1.2s.4-3.3-.5-3.8c-2.6-1.4-6.7,1.4-6.1,3s1.5,1.6,2.8,2ZM405,245.6c-2.3.5-3.3,2.9-2.6,4.3.9,1.9,2.9,2.3,4.7,1.9s2.4-2.1,2.1-4.1-2.3-2.5-4.1-2.1ZM414.5,255.4c.4-1.5-.8-2.9-1.7-3.1-1.4-.3-2.6-.3-3.6,1.4s-.8,1-.6,1.8,5.5,1.5,5.9,0ZM294.6,258.1c.5-2.5-2.2-4.7-3.9-3.8s-3.4,3-2.1,5,5.6.7,6-1.2ZM341.7,256.6c-1.4,1.2-.7,2.5,0,3,1.1.8,2.5.7,3.3,0s.9-2.3.4-3-2.4-1.1-3.7,0ZM353,261.7c-1.2,1.4-1,3.3-.2,3.8,1.2.7,3,.5,3.7-.3s1.2-2.6.7-3.3c-.9-1.2-2.9-1.6-4.1-.2ZM480.7,273.5c-2.5,1.5-1.9,3.3-.8,4.8s2.8,1.6,4.2.6,2.2-2.6,1.7-3.7c-1-2.2-3-3-5-1.7ZM437.3,284.6c-1.7,1.1-2,2.8-1,4.1s2.3,1.6,3.4.7,1.1-2.3.6-3.8-1.6-2-3.1-1ZM462.9,285.6c-2,.5-2.7,2.7-2,4.6s2.2,1.5,3.9,1.2,2.2-1.8,1.6-3.8-1.6-2.5-3.5-2ZM350.9,287.8c-1.4,1.2-.7,3.1,0,3.4,1.1.5,2.7.3,3.3-.3,1.2-.9,1-2,.5-2.8-.8-1.5-2.4-1.7-3.9-.4ZM421.2,292.5c-3.6-2.6-5.2-3.1-7.4-1.8s-1.8,3.7.2,4.8,6.3-1.4,7.1-3ZM487.6,316.4c1.7,0,2.1-4.9.5-6.1s-3.5.4-3.4,2.1-.2,4,2.9,3.9ZM503.8,317.5c-1.9.2-3.4,2.2-3.1,3.9s2.4,2.5,4.4,2.5,2.5-2.3,2.1-4.1-1.7-2.5-3.4-2.3ZM348.7,318.5c-2.8.6-3.3,3-2.3,5.2s2.1,2.5,4.2,1.6,2.9-2.4,2.5-4.5-2.1-2.8-4.3-2.3ZM309.3,337.3c-1.7-2.1-3.2-2.3-4.9-3.2-3.1.9-5.1,5.4-3,7.8s2.8-4.1,7.8-4.6ZM437.6,338.5c-2.1.7-2.6,2.9-1.7,4.4s2.1,1.7,3.9,1.5,2.2-2.2,1.7-3.8-1.8-2.8-3.8-2.2ZM470.9,343.3c-2.3.6-2.7,2.7-1.8,4.6s2.6,2.3,4.4,1.4,2.4-2.7,1.6-4.4-2.4-2-4.2-1.6ZM426.6,364.4c-2.3.7-2.5,2.5-1.5,4.2s1.5,1.2,2.9.4,2.4-1.4,1.7-2.8-1.9-2.2-3.1-1.8Z"/>
    <path class="st3" d="M432.8,55.9c-.2,1.6.6,3.2,2.3,3.3s2.5-.4,3.8-1.6l8.5,2.7c3.2,1,9,12.6,9.9,18.7s14.3,6.7,14.8,19.2l-6.6,3.9c-1.6.9-2,2.8-1.5,4.1s1.8,2,3.5,2l16.1-.3c10-.2,18.9-11.8,19.8-3.9-2.3.3-4,.7-5,2.6s-1.2,3.5.9,4.8,5.3.1,7.1.6c5.4,3,10.7,3.1,16-.2,2.6,2,4.9,2.4,8.5,2.6-2.7,3-3,5.8-1.8,9.5,9.6,2,11.2-4.8,16.4-11.6s7.7-4,11.8-4.7,5.5-5.9,6.5-8.6c1.8-4.7,4.3-5.1,8.6-5.1s10.6.6,15.8,2.1l9.6,2.7c2.1.6,3.8,1.9,4.2,3.4,1.9,7.6-8.8,27.3-14.9,37.9l-20.5,16.2-10.3,7.4c5,2.7,4.1,6.6,6.4,6.5l-.4,7.8c-2.6,7.8-9.7,10.9-17.2,12.8-2,3.4-4.6,9-2.9,12.9s4.5,9.1,1.4,13.8l-10.6,11.2c-3.4,3.6-6.6,7.6-6.5,12.4-2.8,3.3-9.9,1.4-14,1.3l-25.1.2c-4.3-1.2-9.3-.3-13.8-.3-4.4-2.1-9.6-2.1-15-2.1h-20c0,0-25,0-25,0-.9-1.4-2.8-2.1-5-2.1l-25.6-.2c-.9-.9-1.9-2.7-2.9-3-4.3-1.3-7.2-4-10.8-6.2s-7.5-5-8-10.2-3.7-9.6-6.7-14l-9.6-14.2,28-43.6,7.2-11.7,9.8-17.1c1.6-2.8-2.6-5-4.7-6l-7.7-3.6c0-.7,0-1.4-.4-2s-1.3-.9-2.3-1l-5.3-.6c-2.1-.2-3.9-.9-6.2-2.1l-10.5-5.4c-3.8-3.7-9-7.5-11.4-12.2l-.7-20.2,10-2.6c9-3.4,17.7-6.5,27.1-9.3,8.4,2,16.6,2,24.6-.5.2-2.3.3-4.2,1.3-5.9h18.7c.2,3.5.9,6.1,3,7.7s4.9,2.4,7.4,2ZM389,103.5c-1.5.9-1.7,3-.7,4.4s2.8.9,3.9.1,1.3-3,.8-4-2.8-1.2-4-.5ZM407.2,117.4c1.2-1.3,0-3.5-1.5-4.8s-2.6.3-3.9,2-.3,2.9,1.2,3.7,3.2.1,4.3-1ZM461.2,150.1c-1.2,1.8,0,3.3,1.1,3.7s2.1.2,2.8-.7.4-2.8-.4-3.4-2.8-.6-3.5.4ZM437.6,154.7c-2.3.5-3,2-2.3,3.4s1.9,1.8,2.8,1.8c1.9-.1,2.7-1.3,2.4-3.2s-.6-2.4-2.9-1.9ZM425,175.6c-1.9,1-1.2,3-.4,4,1.2,1.4,2.6,1.4,3.7.6s1.3-3.2.6-4-2.7-1.1-3.9-.5ZM480.6,192.7c-2.2.9-2,3.1-1.1,3.9s2.5,1.2,3.4.9c1.7-.5,2-2.4,1.5-4.1s-1.7-1.6-3.7-.8ZM517.9,201.8c2.2-1,1.5-3.2.6-4.3s-1.9-2.2-3.5-1.1-2.4,2.7-1.8,3.6,2.9,2.6,4.8,1.8ZM400.9,229.2c1.5-1.1.8-4.1-.2-4.8s-4-.7-5.2,0-1.4,3.2-.6,4.9c.7,1.3,4.6,1,6,0ZM502.9,230.4c-.9,2.3.4,3.2,1.2,3.3s1.8-.1,2.1-.6c.7-.9.5-2.9-.2-3.2s-2.8-.2-3.1.5Z"/>
    <path class="st9" d="M716.7,352.1c-.7.9-1.1,2-1.1,3.1s1.1,2,2,2c2.3-.1,3.3-2.7,2.9-4.8l6.7.7c2.9.3,5.9-.8,8.4,1.7s5.3,9.4,9.8,10.4c12.4,2.7,19.8-1.8,25.2,3.5,1.8,1.7,6.9,2.8,7.4,6.4.8,5.2-7.3,7.3-10.7,15.2-3,6.7.2,12.7,5.6,17-4.1,1.1-8.5-.4-11,2.5-8.1,9.4-6.9,15.3-4.9,26.5s2.3,4.4,3.5,5.3c-2.7,3.5-2.3,7.7-2.3,11.4s-1,6.3-2.9,7.8c-2.9,2.3-7.2,2.1-10.6,3.4-1,4.4-.3,8.2,1.7,12.2-14.2,9.2-5,20.7-17.3,27.6-2.9,1.6-5.5,5.1-10,3.9s-4.6,1-6.6,1.3c-12.6,1.4-24.2,4.7-36.4,8.5l-13.8,4.3-16.9,5.9-8.9-9.4-.9-11.5c-1.9-5-1.5-9.9-2.1-14.7-1.4-2.7-6.6-.9-8.8-.9-3.2-2.8-5.5-8.4-6.4-12.4l-1.8-8.4c-.9-4.1-2-7.4-5.2-9.4s-6.2-1.8-10.1-1.6l-21.6.8c-3.6.1-8,3.4-11.6,2.8l-10-5.9c-3.1-1.8-4.6-.8-7.1,0-8.6-.7-17.3-3.2-26.1-.8-1.9.6-3.8,3.8-6.8,3.3l2-8.9c-.3-3.8,1.1-4.3,3-6.4l6.7-7.2c4.8-5.2,10-9.1,17.5-8s18.4-5.2,24.9-5.3l18-.2c.3.5.7.3,1,0h3c1.5.1,3.1-1.2,4.3-1.5,6.2-1.7,7.9-5.8,8-11.6s1.2-7.6-3.3-10.9c2.8-3.4,5.7-5.6,6.5-9.1s0-5.7-2.5-8.1-5.8-7.7-2.2-9.9l8.8-5.2.5-15.2c5.6-.9,5.9-6.9,10-5.1s1,7.5,2.6,8.3c5.2,2.6,15-4.4,21.2-7.8l10.9-6,7.9-6.4c2.7-2.2,8.9-3,11.4.8,1.1,1.7-.5,6.9,3,7.7s10.3,2.2,14.2,1.1,8.4-2,13,1.8,6.7,2.7,8.1,5.4ZM663.7,353.4c1.5,1.9,3.8,2.1,5.1.3s.8-3.1-.6-4.2-2.9-.9-4.6.6-1.4,1.2-.9,1.9l1.1,1.4ZM716,381.4c-.2-1.7-2.9-3-4.2-3.1s-2.8,1.4-3.1,2.8c-.5,2.3,1.7,3.6,3.2,3.9s4.5-.7,4.1-3.6ZM659.4,386.7c-1.2.7-1.5,3.9-.6,4.9s2.9.5,4.1-.4,1.3-2,.2-3.6-1.4-2.5-3.8-1ZM747.2,394.3c-1.8-.6-3.9-.5-4.8,0-.3,2.5.3,3.8,1.5,4.4s2.9.2,3.7-.7.7-3.2-.5-3.6ZM738.4,401.3c-2,1.4-1.5,2.5-1,3.2.9,1.2,2.4,1.6,3.3,1.1,1.2-.8,1.9-2.3,1.5-3.2-.6-1.3-2.3-2.1-3.8-1.1ZM689,410.4c1.5-.3,1.8-3.6.7-4.4s-3.1-1.7-4.7-.4-1,3.4-.2,4,2.2,1.3,4.1.8ZM635.9,432.7l4.1-4.3c1.7-1.8-3.3-5.6-4.7-3.9s-2.4,4.8-4.8,6c0,2.1.4,3.2,1.2,3.7,1.3.6,2.7.1,4.1-1.4ZM682.6,426.2c-1.4,2.3-.3,3.2.3,3.9s2.5.8,2.9.2c.7-1.2.8-3.2.4-4.1s-3.1-.8-3.6,0ZM748.8,437.2c-1.9,1.3-2.3,3.2-1.4,4.2s3,2,4.1,1.1,1.4-2.6,1.1-3.6c-.5-1.7-2.1-2.7-3.7-1.6ZM665.6,465c-1.7.9-1.5,3.7-.7,4.8s3.1,1.5,4.6.5,1.6-3.3.3-4.4-2.8-1.7-4.2-1ZM731.6,477.1c-2.4,2.1-1.9,4-1,5.1s4,2,5.1,1.2,2.1-3.9,1.3-5-4.1-2.5-5.4-1.3ZM657.7,482.1c-2.4.8-2.7,3.7-1.6,5.5s3.4,2.6,5.3,1.5,2.5-3.5,1.4-5.3-2.9-2.4-5.1-1.7Z"/>
    <path class="st15" d="M800.3,264.6c-.6,0-1.8,0-2.1.6s.1,1.3.5,1.5,1,0,1.5,0v1c-.1,1.4-.4,3.7.9,4.7s3,.6,4.2.3c.5.5,1.2,1.2,1,2.1s0,1.8.5,2c.9.3,1.9.1,2.5,0s.4,0,.6,0c-.2,1-.7,1.9-2,3.2,1.2.9,1.9.9,2.7,1-.3,1.2-1.2,1.9-2.3,1.9-.5,0-1.1-.1-1.5,0s-.9.9-.5,1.5,1.3.8,2.1.4c1,0,2.5.4,3.5,0s.6-2.8,0-3.8c.4-.3,2-.4,2.1,0,.7,2.4.7,4.9.4,7v1c-.1,0-6.8,2.5-6.8,2.5,1.8,1.7,2.4,2.3,2.8,3.5s0,.5,0,.8c-.9-.4-2.5-1.4-3.3-.7l-2.3,2.1c-1.4,1.2-3.6.3-5,.1l-3-.3-4.3-.2c-.7,0-1.4,0-1.8.6s-.3,1.2-.4,1.5c-1.9,2-2.1,6.6-.5,9.5s.5,5.2-.7,7.8c-2.8,6.5,2.3,13.9-2.7,16.3,1.7,0,3.7,0,3.8,1l.3,3.2,4.9,17.2,2.9,11.8.8,36.6c0,2.4,1,4.7-.3,7.1s-3,2.7-5,3.6-.9,4.1-1.6,5.1c-1.4,1.8-10.8-4-12.4-7.7-3.2-7.6-9.3-8.7-9.4-15s1.9-3.3,3-4.9h5c.3-2,0-3.6-.2-5.1.4-1.9,1.8-3.3,2.8-4.8.4,1.5.6,2.6,1,3.1s3.2-.2,2.5-1l-2.3-2.5c-.8-.9,2.1-3.7.4-7.4s-4-5.9-7.6-6.1l-7.7-3.6-19.6-.7c-3.2-.1-5.5-5.3-7.1-7.6-3.5-4.8-8.6-4.7-13.8-4.7-12.7,0-20-14.6-34.5-7.5s-6.4-.5-7.6-2c-1.7-2.3-1.9-5.4-3-8-18.8-4.9-20.6,4.8-28,8.4l-17.2,8.5c.5-4.7-1.1-7.1-1.9-10.9s.3-4.9-1.1-6-3-1.5-4.8-2.3l-.9-24.9-2.6-6.4c-.7-1.7-1.6-3.7-2.7-4.7-.3-1-.8-3,0-4.1,3.2-4,2.7-9.1-1.6-11.8l-6.7-4.3c5.8-8.5,11.3-18,19.2-15.1l8.3,7.3c3.1,1.2,9.1,1,12.1-.2s6.3-4.2,10.3-4.5,6.6-3.8,8.2-7.9,2.6-6.1,1.1-10.1.5-3.6,1.6-4.6c1.9-1.6,11.2-.4,17.3,1.6s9.1.3,13.8-.8c14.2-3.2,13.4-13.3,21.4-14.5,7.7,5.4,12.1,15.6,15.8,15.1s6.2-4.2,9.1-6.3,5.2-3.3,7.3-5.7c3.8-4.4,9.8-5.1,14.4-2.3l6.9,4.1c1.7,1,4.7-.5,6.2-1.2,5.5,3.6,8.1,9.2,12.2,13.9s5.2,6,5.9,10.5,3,7.7,0,9.5c-1.2.6-4.9-.2-4.9,2.1ZM772.9,237.2c-1.1,2.2-.2,4.5,1.2,5.1s2.8.3,3.5-.7.6-3.6-.4-4.3-3.8-1-4.3,0ZM728.2,250.3c1.4.7,3,.6,3.7-.3s.7-2-.3-3-1.3-1.3-2.9-1-2.6.9-2.4,2,.5,1.6,1.9,2.2ZM656.1,273.9c.7-.9.6-3.2-.7-3.8s-5.4.3-5,1.9,4.4,3.5,5.7,1.9ZM746,282.5c.3-2-3.9-3.5-5.2-1.7s-.4,4,1.2,4.3,3.6.2,4-2.6ZM702.3,285.3c-1.6.6-2.2,3.2-1.7,4.6s2.3,1.4,3.7,1.2,2.4-1.4,1.6-3.6-1-3.1-3.6-2.2ZM725.4,293.5c.9-1.9-1.5-3-2.7-3-1.6-.1-3.2,1-2.3,3.4s4.2,1.3,5-.4ZM804.2,291.2c-.2,1.5,1.2,1.6,1.6,1.4s.7-.9.5-1.5-1.3-1.2-2.1.1ZM662.7,293.7c-.8,1.1.2,2.4,1.1,2.8s1.3.3,2.1-.6-.2-1.8-1-2.5-1.2-1.1-2.2.3ZM634.8,304.3c-2.1.7-3.2,3.2-2.7,4.2s2.4,2,3.7,1.9,2.6-2.3,2-3.6-1.8-2.9-3-2.5ZM723.2,319.4c1.7.4,3.6-.2,4.2-1.3s-.2-2.7-1.4-3.5c-2.1-1.5-6.7.3-6.1,2s1.4,2.4,3.4,2.9ZM744.6,316.2c-2.4,1.7-1.5,3.7-.9,4.8,1,1.8,3.4,1.9,4.7,1s2.5-3,1.4-4.5-3.5-2.6-5.2-1.4ZM677.9,325.1c.5-1.2-.3-3-1.1-3.5s-2.6-1-4.1-.4-1.5,4,.2,5.2,4,1,5.1-1.3ZM717,331.3c-1.3,2.4-.2,4.1,1.2,4.8s2.8.3,3.5-.7c1.2-1.6.6-3.4-.5-4.3s-3.4-1.1-4.2.2ZM757.5,338.2c2.3-1.2,1.8-3.9.7-5.1s-2.9-1.5-4.9-1.1-2.5,3.4-1.8,5,3.8,2.3,6.1,1.2ZM786.6,351.5c-1.1.7-1.6,3.1-.8,3.8s2.3,1.1,3.5.6,1.2-2.2.5-3.4-1.1-2.4-3.2-1Z"/>
    <path class="st15" d="M399.5,401.7l1.1,1.9c.2,2.2,1.8,2.7,4,3.3,6.3,1.6,12.1,2.6,18.1,1l3.9-1.1c1.7.9,4.6,3.9,6.8,2.7l11.1-5.9c-.1,1.7-1.4,2.5-1.9,3.4-1.1,1.8-2.1,4.3-1.6,6.4l19.1,1.2c5.4,2.2,7.9,10.1,9.8,14.6s4.2,3.8,7.4,5l39.2,14.4c-1.5,6-2,11.6-4.8,16.6-1.5,2.7-4.5,5.4-6.5,8.1-8.1,11.3-9.6,23.7-16.7,31.4l-10.4,11.3c-2.3,3.9-4.5,5.1-8.4,7.2l-11,5.8c-5.4,2.8-8.3,9-12.1,13.7-3.8,4.7-5,10-6.3,15.9s-4.1,2.1-5.4,1c-12-9.9-21.7,2.6-25.6,0s-1.1-2.7-.9-3.7c.9-4.7-1-8-1.6-12.1-.9-6.2.4-12.5-1.9-18.4s-5.9-5.6-9-7.9c-8.4-6.2-16.7-11.2-25.1-4.5s-5.6.1-8.8-.6-12.2.5-14.9-3.8c-2.2-8.7,4.1-25.5,1.5-30.5l-3.6-7.2-.5-1.2c-.5-1.4-1.4-1.7-3.7-3.2,3.9-1,5.4-2.1,6.2-4.9s.7-4.8-.8-6.5c.9-4.6,7.3-8.4,6.2-14.1s1.8-6,1.9-9.2c0-4.6.4-7.6,3.5-10.4,2.2-.3,4.2-.5,6.7.4.6-1.7.5-2.6.3-4-1.4.9-4,0-3.7-.9,1.1-2,1.9-3.4,1.4-5.3,3.7-1.4,8.9-4.6,11.6-8.1s6.9-3.6,11.1-4.5,5.5-2.5,8.9.4,3.7,2.2,5.3,2.2ZM387.2,402.7c-1.3,1.8-.7,4.5.9,5s2.8.4,3.9-.9.6-3-.8-4.1-2.9-1.5-4,0ZM422.9,419.5c-1.5.7-2.4,1.7-3.6,2.9-1.3,0-2.8-.2-3.5.5s-1.5,2.8-1.2,3.7c1.4,3.9,7-1.1,8.8-.8s3.3,0,4.1-1.6.7-2.5,0-3.7c-1.1-1.7-2.8-1.8-4.5-1ZM395.3,450.4c-1.2,2.3-.3,4.7,1,5s3,0,3.7-.9.6-3.6-.3-4.3-3.8-.9-4.4.1ZM453.7,451.5c-1.9.8-1.8,2.8-1.1,3.7s1.9,1.2,2.9.8,1.9-2,1.4-3.3-1.7-2-3.3-1.3ZM410.9,461.2c-1.1,0-3.2,1.1-3.1,2,.1,1.5,1.2,2.6,2.3,2.7,2,.1,2.8-.6,2.6-2.6s0-2.1-1.8-2.1ZM435.1,484c-2.1.6-3.2,2-2.5,4.2s1,1.8,3.2,1.3,1.9-1.4,1.6-2.9-.5-3.1-2.3-2.6ZM477.6,506.5c1.4-1.2-.4-4.7-1.8-4.4s-1.9,1.6-2.1,2.2,0,2.3.8,2.7,2.1.3,3.1-.6ZM424.3,538.3c-2.2,1.6-1.2,3.6-.1,4.5,1.7,1.4,3.6,1.1,4.4.2,1.2-1.3,1.3-3.5.5-4.4s-3.4-1.3-4.8-.3Z"/>
    <path class="st4" d="M616.6,343.7c-.3-2.4-2.7-2.4-4.6-1.9s-1,2.7-1.2,4c-1.5,6.3-1.8,12.1.2,19.3-5.7,2.2-10.7,5-12.1,9.6s.5,4,1.7,5.9l5.9,9.8c-2.6,2.2-8.2,6.7-6.4,10.6s3.5,5.3,2.6,9.9-1.6,6.9-5.4,7.1c-.5-2-2.1-3.4-4.3-3.3s-3.6,2.1-3.2,4c-.5.5-1.2,1-2.2,1h-19c-1.9,0-3.1,1.1-4.1,1.7-7.6,3.9-16.2,3.5-24.9,4.5-6.8.8-11.3,7.6-15.6,11.9l-5.1,5.1c-2.1,2-4.8.5-6.9-.3l-25.5-9.7c-3.3-1.3-8.8-1.2-11.2-4.8-3.6-5.4-5.5-11.8-10.9-16.1v-12c-.1-4.5,3.6-7.4,5.7-10.8l5-8.1c1.9-3.1,2.4-7,6.4-8.8l14.3-6.6,3.5-9.3c1.8-4.8,5.5-6.2,10-7.5s4.9-6.4,5.9-9.6l3.4-11.5,4.2-18.9c1.3-.8,4.7-1.8,6-.8s2.6,1.2,5,2l10.2,3.5c3.5,1.2,7.1-.7,8.5-3.8,2.1.9,4.1,2.3,6.3,2v.9c0,.7-.3,1.5,0,2.5s1.4.7,2.1.6c6.2,4.5,8.6-2.2,13.8-1.5,0,1.1.7,2,1.7,2.2s2.2-.7,3-.8c3.3-.4,6.5,1.3,10,1.8l29-12c1.2-.5,3.5.4,4.2.8,2.7,1.5-1.3,5.6,1.7,16.5s-.4,6.1.9,8.4l5,3c.6,3.3,1.2,7.2.1,10.4-1.4,1-2.8-1.4-3.7-1.9-3.1-2-7,.2-10,1ZM585.4,331.7c-1.4.6-1.3,3.4-.3,3.9s2.7.5,3.5,0,1.3-2.3.5-3.6-1.9-.9-3.6-.3ZM565.4,335.4c-3.3,0-3.2,2.6-2.6,4.3s1.8,2.7,3.6,2.5,2.8-1.7,2.7-3.7-1.3-3-3.7-3.1ZM605.3,342.7c-1.1,1.1-.5,2,0,2.6,1,1,2.6.7,2.9,0,.5-1.1,0-2.4-.7-2.8s-1.9-.3-2.3.2ZM544,369.2c0-.8-1.8-2.5-2.7-2.7-1.8-.3-3,1.8-2.8,3,.2,1.9.7,2.5,2.6,2.4s3.1-.6,2.9-2.6ZM598.7,394.7c2-1.3,2.6-2.4,2-3.8s-1.4-2-3.1-1.8-4,1.2-3,4,1.5,3.4,4,1.7ZM558.9,395.4c-2,.7-2.6,2.9-1.8,4.5s3,1.4,4.5.8,1.7-1.9,1.1-3.5-1.9-2.5-3.8-1.8ZM557,406.4c-1.2,2-.4,5,.8,5.2s2.7,0,3.7-1.3,1.3-3.2,0-4-3.9-1-4.6.1Z"/>
    <path class="st9" d="M680.5,526.1l-.2,5.6c-2.4,2.4-3.7,5.5-4.8,9.1l-3,4.7c-.7,0-1.6.1-1.9.7s-.3,1-.3,1.4c-.2,0-.6,0-.8,0-.5.2-.9.6-1.1,1-1.2,1.1-2.5,2.2-3.9,2.9-1-.1-2.2-.1-3.3.2s-1.1.9-.8,1.8l-8.1,1.7c-6.4.3-11,2.6-15.8,6.3l-21,16-19.1,14c-2.4,1.8-7,0-9.5-.1l-.7-9.8-15.5-.3c-2-4.1-1.9-8.2-2.7-12.7s-4.6-3.5-5-5.6l-3-16.1-9.6-13.1h-20.8c-3.9-5-9.2-6-15-6.4l-23.9-1.8c-2-1.8-4.8-1.6-8.4-2,2.1-3.6,4.2-6.6,4.4-10.1s1.7-2.5,3-3.8c5.6-5.7,8.8-12.8,12-20l4.6-10.4c5.8-13.1,23.7-23.8,38.6-18.8s7.9.2,11.9,1.3c3.8,1,7.4,5.2,11.9,5.5l14-3.4c8.2-.6,16.7-1,25,0,8.8,6.7,3.6,23.8,16.3,31.4l6.4.4.9,16.7c.6,9.9,6.6,12.6,12,18.6s4.7.8,6,.1c6.7-3.2,13.5-4.4,20.3-6.7l10.7-3.6.5,5.2ZM596.7,480.9c-2.6.8-2.9,3.5-1.8,5.6s2.9,2.5,5,1.3,2.9-3,1.6-4.7-2.4-2.9-4.8-2.2ZM568.9,483.2c-1.7.9-1.8,2.3-.9,3.5s2.6,1.3,3.8.7.7-2.9,0-3.7-1.7-1.2-3-.5ZM544.8,525c-1.4-2.2-5.2-4.2-7.8-2.9s-1.5,4.1-.5,5.2c1.7,1.9,8,1.4,8.4.6s.5-2.1,0-2.9ZM592.5,560.4c-2.1,1.2-2.3,3.8-1.2,4.9s3.1,1.2,4.2.8c2.3-.8,2.2-2.8,1.5-4.6s-2.1-2.6-4.5-1.2Z"/>
    <path class="st9" d="M582.3,601.7l-3.1,2.2c-3.5,2.4,4.9,5.3,2.9,9.9-1.1,1-1.9,3.3-4,3.5l-8.8.9c-1.3,3.1-3.5,5-5.4,5.6-3.6,1.1-6-1.3-8.8-1.4l-19.7-1c-4.7-.2-8.7,1.1-13,2.1s-5.1,2-6.2,6.2l-1.9,7.6c-3,1.8-5.7-.9-8-1-5.1-.3-9.1-1-13.9-2.1l-38.4-9.1c-4.7-9.4-5-17.4-15.2-24.3l-.4-36c5.4-1.9,8.6-6.2,7.6-12.2,6.3-10.8,10.9-20.9,22.6-23l26.7.5c7.6,1.1,14.3,1.6,22,2l11,5.4,20.8.5,6.7,11.3,1.2,12.8c.3,3.7,5.1,5.1,6.6,8.2l1.5,13.7,17.1,1.9c.7,4.3,1.9,8,4.4,11.3-2.8,1.2-3,3.7-4.4,4.6ZM465.5,592.4c-1.2.5-1.2,3.4-.4,4s2.3,0,3.3-.4,1.3-2.1.6-3.3-1.8-1-3.6-.3ZM484,615.3c.7,1.7,3.2,1.5,4.5.8s2.1-2,2-3.9-1.1-3-3.2-3-4.4,3.5-3.3,6.1ZM543.1,612.1c-1.3,2.5-.3,4.2,1.3,5s2.1.1,3.1-1,.5-2.7-.4-3.8-3.5-1.2-4-.2Z"/>
    <path class="st9" d="M574.5,165.8c1,2.7,3.4,5.2,6.3,6,.5,5.4,2.8,12,.8,17.7s-5.5,6.9-2.1,10.7,4.6,4.5,6.8,6v1.1c-.5.9-1.3,1.8-1.3,2.6-.1,1.5,1.4,2.7,2.3,2.8,1.5.2,2.9-.8,3.3-2.1,3.3,1.6,7,.9,11,.6s2.7,2.9,2.8,4.3-1.2,3.3-2.9,4.4c-4.3,2.9-4.5,11.2-1,14.7l1.2,1.2.8.9,1.1,1.2.9.9c.4.4.7.8,1.2,1s.6,0,.8,0c-.2.8-.2,2.4.2,3.2s.9.9,1.7,1c.1,2,1,7.1,3.3,7.3l10.4,1c1.2.1.8,4-.1,4.8-4.2,3.5-6.5,7.4-9.6,11.6s-3.3,4.2-.8,6.3,7.9,4.5,9,8.7c-.5,1.7-2.8,4.3-2.2,6.1-4.9,2.4,4,5.1,2,12.1l-2.6-1.9c-1.9,3.3-5.7,3.1-8.4,4.6s-6.7,2.8-10.1,4.1-8,3.9-13.2,3.6l-7.5-.5h-1.9c-3.1-5-13.4,4.2-13.9-2s-1.2-7-4.9-7.7c-6.8-1.1-7.7,6.3-10.1,7.5s-13.6-2.8-15.4-5.4-1.6-4.5-3.7-5-3.4-.2-6,.6c0-6.7-3.6-14.3-2.8-20.7.9-7.7,1.2-15.1,4-22.1,3.2-7.8,5.4-16,10.1-23.1l9.6-10.2c11.8-12.5-.4-18.9,3.7-30.3,6.9-1.3,11.9-4.7,16.4-9.5s2.9-5.9,2.2-10.2.9-4.4-1.1-5.9c-1-5.3,2.8-1.8,9.9-2.2ZM558,196.5c-2,1.2-1.7,3.1-.7,4.3s3.1,1.8,4.2.7,1.6-3.3.5-4.5-2.7-1.3-4-.5ZM575.4,267.7c1.5-3.2,1.2-5.3.7-6.7s-2.9-1-3.3-.3c-.8,2.9.5,6.6,2.7,7ZM557,273.6c-1.7,1-2.1,2.8-.7,4s2.6,1.3,3.8.5,1.1-2.8.5-3.8-2.2-1.5-3.6-.7ZM596.8,286.3c-1.2.9-.9,2.7-.2,3.3s2.5,1.3,3.1.7c.9-1,1.1-3.1.5-3.7s-2.5-.9-3.4-.3Z"/>
    <path class="st9" d="M586.4,663.6l.6,14.7c.2,4.1,1.3,8.4-3,10.7-3.6,1.9-2.5,5.6-3.7,8.5-4.6,10.8-16.7,16.3-18.9,26.2h-2c-.3-.2-.7-.2-1-.3l-6.4-1.9c1.1-3.4,3.7-5.2,5.8-7.4,4.8-5.1,4-17.3-.8-18.1s-11.1-.7-15.8-3.4-15.8-19.2-20.5-21.3l-25.9-11.2c-4.3-1.9-7.7-2.1-12.5-2.8l-11-1.6c-1.2-.2-2.1.1-3,.5s-1.6,2.3-.6,3.6c3.4-.9,7.5.9,11,1.2,6.7.6,11.9,1.1,18.1,4.4s3,.3,2.8,2c-4.3.6-8.7.9-13-2-.5,2.1.8,2.4,2.3,3.5-3.7,1.5-6.9.9-10.6-.3l1.3-5c-5.4.8-8.9,0-13-3.6l-.2,4.9s-5.5,2.7-5.3,2.8l-1.5-2.3c-.6-.9-2,.2-2.3.8s-.6,2.3-.5,3.7c-2.4-1.6-3.7-2.2-6.2-2.4.7-4.1,3.3-6.5.3-6.1,0-.8.6-1.4,1-1.9,1-1.1,2.7-1,2.7.1v1.6c0,.4.9.8,1.5.5s.5-1.5.5-2h6.1c.9,0,2.3,0,2.8-.7s.2-3.3-1-3.5l-10-2v-23.7c.1,0,42,9.7,42,9.7l7.8,1.4c4.1.7,8.7.7,13.4.8l3.2-13.2c10.3-3.4,21.8-4.7,32.8-1.9s9.3,3.7,13.7.6c4.5-3.2,10.9-6.5,15-5.4l.8,16.6,2,14c.6,4.2,1.2,7.6,1.3,11.3ZM535.9,631.2c-2.1,2-1.1,3.6,0,4.6s2.9,1.3,4.1,0,1.3-2.7.5-3.7-3.6-1.8-4.6-.8ZM567,658.2c-1.3,2.3,0,4.8,1.2,5.2s3.8.6,4.2-.5.7-4.6-.5-5.2-4.3-.6-4.9.5ZM462.4,662.6c-.5-2-3.9-1.3-3.9,0,0,2.2,4.3,1.4,3.9,0Z"/>
    <path class="st7" d="M770.8,487.1c-2.6,2.1-9.2.9-12,.1l-4.1-6.2c-3.7-2.9-6.6-9.9-4.6-14,5.7-1.5,8.9-3.8,11.7-9.1l3.4-6.4c3-5.6,1.4-11.4-4-16.1-2.1-3.5-1.4-11.9-.5-16.1l3.9-7.4,10.6-.4,13.7,11.5c3,2.5,5.3,23.1,4.7,25.3l-3.9,5.3c-.7-.9-.9-1.5-1.1-2.1s-1.6.3-1.4.6l1,1.9c-4.9,6.6-7.8,14-8.2,22.4l-9.4,10.5Z"/>
    <path class="st7" d="M717.8,526.5c-.8,1.6,0,6.6-1.5,6.8-4.8.3-9.8-.3-14.4-1.3l-8.8-6.9c-2.3-1.8-5.6-1-8.5-1.6s-.8-2.7-.3-3.2,1.8-1.2,3.2-1.6l9-2.7,12.9-2.1,10.2-1.8c5.7-1,9.9-1.8,14-6.5s5.8-3.8,6.3-7.3c1.1-7.4,3-16.9,8.1-17.6s6.3,9.3,9.4,9.8l10.5,1.8c.5,4.4,3.5,9.5,2.1,14.2-2.1,6.9-15,8.1-16.9,13.8s-1.8,8-4.7,11.2l-11.8-.9c-3.9-.3-6.6-1.4-8.7-4.7-1.9-3-8.1-3.4-10,.4Z"/>
    <path class="st0" d="M610,390.7c-.8,3.5-3.8,5.7-6.5,9.1,4.5,3.3,3.4,6.9,3.3,10.9-.1,5.8-1.8,9.9-8,11.6s-2.7,1.6-4.3,1.6c-.4-1.2-1.8-1.4-3-1.1.9-2,4.4-.3,5.4-2s.6-1.7.4-2.7c3.8-.2,4.7-3.9,5.4-7.1,1-4.7-1.1-6.5-2.6-9.9s3.8-8.4,6.4-10.6,2.6-.6,3.4.2Z"/>
    <path class="st0" d="M450.5,398.9c.1.9.5,2.1.2,3-.4.8-1.8,1.8-1.8,2.9s-1.1,2.6-2.2,2-2.7-1-4.2,0c.5-.9,1.8-1.7,1.9-3.4l-11.1,5.9c-2.2,1.2-5.1-1.8-6.8-2.7l-.2-3.1c8.5,4.3,14-3.4,20.7-7.2,1.6-.9,3.3,1.3,3.4,2.6ZM445.3,402.3h-.7s.7,0,.7,0h1.3s-.7,0-.7,0h-.7Z"/>
    <path class="st0" d="M502.5,245.9h-26c-1.4-2.1-5.5.2-8-2h15.1c4.9.2,9.6,2.4,14.8,0-4.3-2-7.5-.6-11.1-1.6l25.1-.2c4.1,0,11.2,2,14-1.3,0,.8.3,1.7-.2,3.1l-26.8.3,3,1.7Z"/>
    <path class="st7" d="M462.6,391.9c-1.2,3-3.5,6.2-3.9,10.1l2.1,7.8h-14c0,0-.1-1.2-.1-1.2.2-.4.2-1.2.1-1.8,1,.6,2.2-1,2.2-2,1,1.6,3.7,2.7,5.5.7s0-2.5-.9-3-1.7-.7-2.8-.6c.3-.8,0-2.1-.2-3,1.1.6,2.3.9,3.6.9s2.1-.9,2.6-2.3,1.3-2.8,2.1-3.6,2.8-1.4,3.9-2.1Z"/>
    <path class="st7" d="M486.6,513.5c-.2,3.5-2.3,6.5-4.4,10.1,3.6.4,6.4.3,8.4,2l-16.3-.2,12.3-12Z"/>
    <path class="st0" d="M590.4,422.8c-.7-.5-1.7-.9-3-1l-23.1-.3c1-.5,2.2-1.7,4.1-1.7h19c1,0,1.7-.4,2.2-.9.2,1.2,1.1,2.5.7,4Z"/>
    <path class="st12" d="M597.3,418.1c.2,1,0,2.1-.4,2.7-1.1,1.7-4.6,0-5.4,2s0,.7,0,1h-1c0-.3-.1-.7,0-1,.5-1.5-.4-2.8-.7-4-.4-1.9,1.6-3.9,3.2-4s3.8,1.3,4.3,3.3Z"/>
    <path class="st7" d="M582.3,601.7c-1.5,6.7,6.2,10.8-.2,12.1,2-4.6-6.4-7.5-2.9-9.9l3.1-2.2Z"/>
    <path class="st7" d="M758.3,453c0-3.7-.5-7.9,2.3-11.4,3.1,2.1,2.2,9.3-2.3,11.4Z"/>
    <path class="st7" d="M680.3,531.7l.2-5.6c2.7.7,5.4,0,8.8,1.6-3.1,2.7-6.2,2.9-9,4Z"/>
    <path class="st2" d="M472.5,376.2c-.3,1.3.2,2.9-.8,4.2s-1.9,1.2-3,1.2c-1.6-.9-2.7-2.3-2.1-5,1.8-.9,4-.8,5.9-.4Z"/>
    <path class="st7" d="M430,561.3c-1.3,2.5-4.3,3.4-6.8,1.7s-2.4-1.5-3.9-1.9c3.3-2,7.4-2.5,10.7.2Z"/>
    <path class="st12" d="M616.6,343.7c.9,1.6-.2,2.4-1.2,2.7-2,.6-3.4.2-4.7-.6.3-1.3-.8-3.4,1.2-4s4.3-.5,4.6,1.9Z"/>
    <path class="st4" d="M558.6,311.8c-2.3.3-4.2-1.1-6.3-2,1.1-2.4,2.7-4.8,6.1-3.9l.3,5.8Z"/>
    <path class="st8" d="M462.7,659.5h-6.1c0,0-2,0-2,0,0-1.1-1.7-1.2-2.7-.1s-1,1.1-1,1.9l-3.3.4c.2-1.2,1.9-3.4,3.1-3.8,2.6-.9,10.3-.8,12,1.7Z"/>
    <path class="st10" d="M720.6,352.5c.4,2.1-.6,4.7-2.9,4.8s-2-1.3-2-2c0-1.1.4-2.2,1.1-3.1,1.2-.3,2.6.2,3.8.3Z"/>
    <path class="st12" d="M576.5,311.9h1.9c.7,1.1,1,2.5.7,3.9-.8,0-1.9,1.1-3,.8s-1.6-1.1-1.7-2.2c0-.7.3-1.5.8-2.1s.8-.4,1.3-.4Z"/>
    <path class="st0" d="M348.7,478l-4.1-.3-1-1.8c.9-1.6,1.3-3.3,1.4-5.1l3.6,7.2Z"/>
    <path class="st4" d="M528.5,308.2c-1.3-1-4.7,0-6,.8.5-2.2,1.4-4.5,4.1-5.8l1.9,4.9Z"/>
    <path class="st7" d="M778,384.5c.2,1.6.4,3.2.2,5.2h-5c1.3-1.9,1.9-4.6,4.8-5.2Z"/>
    <path class="st8" d="M664.5,551.6c-.2.8-.4,2.2-1.6,2.1h-2.6c-.3-1,.2-1.8.8-1.9,1.2-.3,2.3-.3,3.3-.2Z"/>
    <path class="st8" d="M782.4,371.9l-7.6-6.1c3.6.2,6,2.9,7.6,6.1Z"/>
    <path class="st4" d="M560.7,315.8c-.7.1-1.9,0-2.1-.6-.3-1,0-1.8,0-2.5,1.2.5,1.9,1.7,2.1,3.1Z"/>
    <path class="st8" d="M670.5,551.7c.1.7-.2,1.4-.7,1.8s-1.1.3-1.5.4c-.1-.7,0-1.7.7-2s1.1-.2,1.5-.1Z"/>
    <path class="st8" d="M672.5,545.6c-.2.3,0,1.1-.3,1.5s-1.2.7-1.9.6c0-.4,0-1,.3-1.4.4-.6,1.2-.8,1.9-.7Z"/>
    <path class="st9" d="M630.8,351.8c-.6-1.1-.8-2.2,0-4.1.5.6,1.3,1.8,0,4.1Z"/>
    <path class="st0" d="M792.3,295.9c.2.7,0,1.5-.6,1.8s-1,.2-1.6.2c.1-.3.2-1.1.4-1.5.4-.6,1.1-.7,1.8-.6Z"/>
    <path class="st0" d="M446.6,408.6v1.2c.1,0-1.5,0-1.5,0-.4,0-.9-.9,0-1l1.5-.2Z"/>
    <path class="st8" d="M668.3,548.7c.2-.4.7-.8,1.1-1l-1.1,1Z"/>
    <path class="st8" d="M673.3,549.7c.3-.3.8-.8,1.1-1.2-.3.5-.7.9-1.1,1.2Z"/>
    <path class="st8" d="M671.3,551.7l1.1-1.1c-.1.5-.5,1-1.1,1.1Z"/>
    <path class="st9" d="M610.5,240c-1.1-2.7-3.4-5.2-6.2-6v-.8c0-.7-.4-1.3-1.2-1.3-1.6-1.7-1.8-6,.2-8s4.8-4,4.9-6.6.5-7.9-3-8.9-9.2.7-12.7-1.2c-1.1-3-6.3-4.3-10.2-10.2,5-5,3.8-10.8,3.5-16.9-.2-4.3.2-7.3-3.1-10.2s-3.6-4.8-6.7-5.9-1.9-2-3.6-1.8c1-1.9,1.8-3.7,1.8-5.9,0-3.1,12.5-7.4,20.8-22.6,2.3-4.2,4.6-7.3,5.9-12.3s4.9-9,4.7-13.4-1.5-5.7.7-5.9c4.3-.5,7.8,4,11.2,5.7s10.7-2.3,14.3,2.4-.2,4.3.5,5.7l3.6,7.8c-1.4,2.3-4.8,6.4-3.1,9.4,3.3,5.8,13.8-5.7,23.5-8.6l11-3.3c8.3,2.9,16.6,4.6,25.3,5.4l-3.5,5.7c-1.3,2.1-9.4.3-12.3,11.3-3.3,12.4,4.8,26.6-.2,27.1l-3.3.3c.2,10.4,6.3,10,5.8,12.7-2,11.5-15.5-2.4-23.4,6s-21.9,7.5-31.1,19.2c.6,4.6-1.7,8.6-3.7,13-7.5,8.1,4.1,14.7,1.1,27.4-2.7.3-6.8.3-8.8-1.9s-2-5.1-2.8-7.1ZM591.6,161.3c-1.4.8-1.8,3.4-.6,4.6s2.4.8,3.2.2,1.7-2.6,1.3-3.5c-.7-1.3-2.2-2.1-3.8-1.3Z"/>
    <path class="st9" d="M714.4,147.2v1.9c-2.2.6-2.4,3-2,5s0,1.4,0,1.9c-.1.9,0,1.9,1.1,2,.5.8,1,1.9.9,2.9s-.3,1.5,0,2.5,1.1,1,2,.7l5.5,13.5,9.5,15c1.9,6.8,2.4,14.2,2.8,21.6-2.6,7.6-12.5,5.2-17.6,13.8s-8.7,6.9-14.9,7.6-9.4.9-14.7-.9-8.6-1-12.6-.5-6,4.1-5.7,6.6c.7,4.8,1.7,9.4-1.3,13.3s-7.7,3.1-11.1,5-8.5,5.1-13.5,2.3l-7-6.6-7.9-1.1c-3.4-7.5,1-16.1-5.9-25.6,6.5-8.3,5.5-18.3,10.5-20.3,4.6,1.1,10.2-2.1,10.1-3.2l-.2-2.7c6.8-1.2,12.3-5.5,17.3-10.6,3.9-4,12.1,4.2,22-1.3.8,1.3,3.8,3.1,4.7,1.1l-2-5.8c1.4-6.2-5.6-7.6-5.9-10.6s4.8-4.4,3.7-9.3c-2.2-9.6-3.6-18,1.5-26.2,4.8-3.7,12.3-3.6,12.9-10,3.1-1.4,7.9-1.6,11.6-.7,2.3,8-5.2,3.6-5.4,9.3s2.4,1.6,4,2.9l7.7,6.6ZM693.4,162.8c1.4.6,2.5-.7,2.6-1.5s.3-2.6-.4-2.9c-1.1-.5-3-.6-3.3.4-.4,1.6-.1,3.5,1,4ZM690.4,175.3c1.1-1.6,1.1-3,0-4.7s-2.8-.4-3.3.5c-.8,1.3-.7,2.5.1,3.7s2.4,1.9,3.3.5ZM729.4,208.7c-2,1-2.2,2.9-1,3.8s2.3,1.3,3,.9c1.4-.9,2.2-2.4,1.6-3.6s-1.4-2.2-3.6-1.1ZM658.7,218.3c-1.7,1-1.4,3.2-.2,4.1s2.9,1.1,3.8,0,.7-2.3.4-3.2-2.6-1.6-3.9-.8Z"/>
    <path class="st14" d="M794,160.2c-4.8,2-7.7,7.2-10.6,11.8l-8.1,8.9c-1.7,4.6-.8,10.9.4,15.7s3.2,3.3,2,5.4-2.2,5.6-5.3,4.1l-12.1-5.8c-.8-.4-2.7-.5-3.4-.5l-19.9-.2-1.2-8.3c-.4-2.5-6.7-7.6-11.1-17.5l-6.2-13.8c-.4-1-.2-2.9-2.1-3.1v-4.9c1.1-.3,1.2-1.4,1.1-2.5s0-1.5-1.1-1.5v-1.6c-.2-4-7.5-5.7-5.9-11.1l2.2-7.3,22.5.3,8.1,2.8c8.8,3.1,20.5,8.5,28.7,13.3l19.6,11.4c.8.5,3,.2,2.8,1.9l-.4,2.6ZM744.6,143.7c-1.9.9-1.5,3.5-.3,4.8s3,1.8,4.5.6,1.5-3.2.4-4.5-2.8-1.6-4.5-.8ZM725,150c-1,1.7-.1,3.4,1.1,3.6s2.4,0,2.8-.6c.8-1.4.2-2.9-.6-3.5s-2.6-.7-3.3.5Z"/>
    <path class="st7" d="M756,224.4c-1.3-.7-2.9-1.2-4.2-.4s-1,2.5-.1,4.3c-1.8,2.2-5.4,5.8-8.5,6.9l-9.6-9.5c-5.1-5.1,5.2-5.5,4.9-11.7l-.4-9.4c4.9-1.9,9.9-1.2,15.2-1.1,13.5.3,17.3,10.7,24.8,4.6,6.8,3.2,9.9,3.1,15.2,1s11.7-3.5,16.7-7.6c1.2,3.5.2,5.8.5,8.4s8.9,8.4,11.2,8.2,3.1-1.3,4.7-2.8c5-4.5,12-4.7,18.7-5.5l7.2-4.2c2.6-.4,5.1.3,7.5.6,1.7,7.4,1.5,14.3-.2,21.2h-11.5c-2.4-.1-5.3,1.1-6.9,2.8-6.2,6.9-15,6.2-22,.9-11.8-9-22.5,1.9-24.5-1.5-2-3.5-5.2-6.2-9.3-4.2s-4.3.3-6.7-.8c-10.7-5.1-12.4-5.9-22.8,0Z"/>
    <path class="st7" d="M858.4,201.9c-5.9-1.7-9.7,1-13.7,3.6s-10.4,1.9-15.3,2.7l-6.6,5.6c-2.6,2.2-9-3.1-8.4-6.3s1.5-5.3-.6-7.6-4.3-2.6-6.6-.9c-4.6,3.5-9.6,4.8-15,7.3s-8.6,2-10.6-1.4c2.3-5.7-3.8-8.8-3.2-18.9l9.8-.2,13-6.1c.9-.4,2.6,0,2.9.7.8,1.8-5.6,3.5-3.7,8.8s4.2,3.2,6.7,2.4c4.6-1.3,6.6-.4,9.4,3.2s4.4,1.4,4.3,4.7c2.9-2.7,4.4-3.5,7.2-4.9v-8.8c4.6,0,8.5-.6,12.8.3l2.8,1.4c.5.3,1.4-.8,2-1.2l9.2,3.4c2.5,3.2,2.9,6.9,3.4,12Z"/>
    <path class="st9" d="M815.9,189.1c-3.5-2.2-7.9-.5-11.9-1.2,1.1-2.5,4.1-5,2.9-7.5s-5.3-4.5-7.2-4c-7.1,2.1-12.5,9.8-20.1,5.6l9-9.8c1.5-1.6,1.3-5.4,3-6.8l10-5.2c4.1,2.9,8.3,4.4,13.2,4.3l21.4-.2c5.9,0,10.2,6.9,11.6,12.1-.6,1-2.1,3-1.2,3.6l3.2,2.3c.9.6-.5,1.8-1,1.4s-1.4-1.5-2-1.5h-22.3s-.3,11.4-.3,11.4c-4,.7-5.7-2.9-8.4-4.7Z"/>
    <path class="st7" d="M820.9,245.2c1.5,0,2.9-.9,3.2-1.9.6-1.8.2-3.1-1.6-4s-2.4-1.1-3.5.2-.9,3-.6,4.3c-2.2,1.1-6.1-.8-8.6-1-8.2-.6-11.4-8.2-11.4-8.3-.1.3,8.3-5.2,10.6-4.3l16.5,7.2c3.2,1.4,9.3,1.8,12-.3l6.2-4.8c5.1-3.9,13.1-2.4,13.4-1.8,1.9,3.5-4.6,7.5-11,10.2,0,4.3-.8,6.9-4.3,8.9s-4.5,4.6-7.3,3c-4.4-2.7-9-5.8-13.7-7.4Z"/>
    <path class="st7" d="M829.4,262.1c-9.1,3.5-6.3,8.1-12,14.1-2-2.4-4.6-3.2-6.5-4.9l-4.9-4.4c1.3-1.2,2.4-1.7,4-2.5,1.5-5.9.5-11.4-2.4-18.1,7.7-2,25,7.8,26.2,10.3s-2.3,4.8-4.3,5.6Z"/>
    <path class="st7" d="M642.3,201.8l.2,2.7c0,1-5.6,4.3-10.1,3.2,1.5-3.1,6.3-5.2,9.9-5.8Z"/>
    <path class="st7" d="M810.2,294.9c-.7,1.9-2,6-4.9,5.7s-4.1-3.2-5.7-4.2c1.4.2,3.6,1.1,5-.1l2.3-2.1c.7-.7,2.4.3,3.3.7Z"/>
    <path class="st7" d="M814.3,287.2c.3-2.1.3-4.6-.4-7-.2-.4-1.8-.4-2.1,0s-.9,0-1.2,0c-.8-.2-1.5-.2-2.7-1,1.3-1.2,1.8-2.1,2-3.2,2.3.4,5.9,1.5,6.4,3.6.8,3.1.2,6.2-2.1,7.7Z"/>
    <path class="st10" d="M820.9,245.2c-.7-.2-1.8-1.6-2.5-1.5-.3-1.3-.5-2.9.6-4.3s2.3-.7,3.5-.2c1.8.9,2.2,2.2,1.6,4s-1.8,2-3.2,1.9Z"/>
    <path class="st8" d="M582.7,169.9c-1,.3-2,.9-1.9,1.9-2.9-.8-5.3-3.3-6.3-6,.6.6,1.5.5,1.5-.4v-1.5c3.1,1.1,4.6,4,6.7,5.9Z"/>
    <path class="st12" d="M684.3,185.1l2,5.8c-.9,2-3.9.2-4.7-1.1s-1.1-2.4-.9-3.2c.5-1.5,2.3-2,3.6-1.6Z"/>
    <path class="st7" d="M574.3,156.2c0,2.2-.8,4-1.8,5.9-1.8.2-3.7.3-6.2-.4,2.1-2.8,5-4.4,8-5.5Z"/>
    <path class="st12" d="M756,224.4c.3,1.1.2,2.5-.6,3.1s-3.1,0-3.7.8c-.9-1.8-1.2-3.4.1-4.3s2.9-.3,4.2.4Z"/>
    <path class="st7" d="M814.2,288.2c-.3,2.4-1.4,5.1-3.9,6-.4-1.2-1-1.8-2.8-3.5l6.6-2.5Z"/>
    <path class="st7" d="M805.3,271.8c-1.2.3-3,.6-4.2-.3s-1-3.2-.9-4.7c2.4.6,3.5,3.2,5.1,5Z"/>
    <path class="st8" d="M712.4,154.1c-.4-2-.2-4.3,2-5v3.4c0,.8-.5,2-2,1.5Z"/>
    <path class="st8" d="M610.5,240c-1.5-.5-2.1.4-2.2,1.4v2.6c-.8-.1-1.5-.5-1.7-1-.3-.8-.3-2.4-.2-3.2.5.2,1.9,0,2.2-1.2-2-1.4-4.3-2.5-4.4-4.7,2.8.8,5.1,3.3,6.2,6Z"/>
    <path class="st7" d="M809.4,275.8c-.6.1-1.6.3-2.5,0s-.7-1.2-.5-2c.7,0,1.5,0,2.2.2s1,1,.8,1.7Z"/>
    <path class="st8" d="M718.4,160.1c-.8.3-1.7,0-1.9-.7-.3-.9-.2-1.7-.1-2.4,1.8.2,1.6,2.1,2.1,3.1Z"/>
    <path class="st8" d="M716.4,164.1c-.8.3-1.8,0-2-.7-.3-.9,0-1.7,0-2.5,1.5.6,1.5,2,2,3.2Z"/>
    <path class="st7" d="M800.3,263.9v2c-.5,0-1.1.1-1.5,0s-.9-.8-.5-1.5,1.5-.6,2.1-.6Z"/>
    <path class="st8" d="M716.4,152.1v-4c1,0,1,1,1,1.5.1,1.1,0,2.2-1,2.5Z"/>
    <path class="st8" d="M713.5,158c-1-.1-1.3-1.1-1.1-2,.5-.1,1.4-.2,1.7.5s-.4,1.2-.6,1.5Z"/>
    <path class="st1" d="M284.7,94.2c2.8.5,5.6-1.3,6.2-4.2l1.8-.3c-.2,1.3-.2,3.6.8,3.9,1.5.5,3.4.2,4.7.2l.9.2c-.5,1-2,1.2-2.4,3.2,1.6.9,4.1,1.2,5.7.2s2-1.9,2.3-3.4c.9.1,2.5,0,3.2-.6,3.6-2.6,1.9-6.9,3.2-10.1s7.2-7,10.6-6.7l14.8,1.3c.7,2.3.2,4.3.2,6.2,4.9,8.7,11.9,16,20.9,20.6s3.7-.7,5.5,1c2.6,2.4,6.5,4.1,9.6,4.3s1.3.1,1.8,0l6.1,4.1c1,7.9-3.9,9.1.5,11.2l-8.9,14.4c-2.6,4.1-5,8-7.7,12.1l-21.8,34.2c-1.3,2-3.6,4.8-1.2,7.1s5.6,6.2,4.5,9.9l-4.1,14.4c-.8,2.7-4.3,4.5-6.3,6.6l-70.7.3c-3.7,0-5.2.6-8-2.9s-8.1-10.2-14.2-11.1c-17.3-2.6-25.9,1.1-32.8,17.4l-14.7.7c-.5,2.4-1.2,6.4-3.6,7.6-5.1-3-7.7-.2-12.8,0l-6.7.3c-6.1.3-9.6-5.4-17.9,4.9s-5,4.1-8.3,2.6l-45.7-20.3c-13.1-5.8-25.6-10-39.6-12.4l-8.6-1.4c-10.5-1.8-20-5.1-29.8-8.9s-10.5-2-15.3-5.2c4-3.7,9.6-4.4,14.2-6.7s6.9-15.6,11.9-23.1l21.6-10.2,21.7-2.5c3.3-.4,5-5,9.8-2.9s9.5,3.2,12.6.8l15.1-36,4.4-10.5,2.3-8.5c-1.4-4.7-5.3-8.7-7.3-13.3s-1-7.1.7-8.6c3.8-3.5,8.9-1.7,12.9-2.3l3.6.3c1.2-3.3,1-8.7-2.8-9.8l-9.1-2.8c-1.4-.4.5-3.7,2.6-3.7l37.3-.3c2.1-1.8,6.5-6.3,8.4-2.2s-.6,8.4,3,10.1,7.2,2.7,9.7,4.8c6.2,5.4,11.9,2.9,18.3,2.5s6.9,3.1,11.4-.9,7.6-5.8,11.6-6.9l13.3-3.7,4.3-5.7c3.7-2.3,8.1-4.6,12.6-4.3l10,.8c-1.3,9.7,4.6,12.8,1.8,19-5.5,12.3,2.1,14.8,2.2,16.6s-3.4,4.2-2.6,7.5,12.6,13,19.7,8.5,2.7-4.9,2.8-7.5ZM220.9,104.8c-1.9.8-1.2,3.1-.4,3.6s2,.5,3,0,.9-2.1.6-3.2-2-1-3.2-.4ZM347.7,110.1c1.6-.2,3.2-1.7,2.6-3s-1.9-1.6-3.1-1.5c-2.3.2-2.8,1.3-2.6,3s1.2,1.7,3.1,1.5ZM143.3,138.5c-2.1.8-2.2,3.2-1.4,4.2s2.9,1.5,4.3,1,1.6-2.4,1-3.7-2.1-2.3-3.9-1.6ZM129.3,141.6c-2.2.8-2.2,3.2-1.5,4.2,1.2,1.6,3.1,1.6,4.4,1.1s1.9-2.4,1.2-4-2.4-1.9-4.1-1.3ZM348.6,147.9c-.3-1.2-3-2.8-4.2-2.4-1.9.6-2.1,2.5-1.7,4s1.7,1.9,3.4,1.5,3.2-.5,2.5-3.1ZM234.1,148.6c-1.2.6-1.7,3.3-.3,3.9s2.1.4,3.4-.5,1.4-1.5.6-2.5-2.1-1.8-3.7-.9ZM109.4,152.9c-1,1.7-.2,4.4,1.1,4.6s2.6-.5,3.4-1c1.9-1.2.8-2.8-.5-3.7s-3-1.6-4.1,0ZM242.9,164.5c-1.8,1.7-.5,3.8.4,4.7s2.9,1.3,3.5.3c1.1-1.6,1.2-3.4.5-4.5s-3.2-1.6-4.4-.4ZM258.5,180.2c-2.2-.4-3.8-.7-4.8-.4-1,.2-.7,1.2-.3,1.3,1.9.4,2.6,3.8,5.2,2.3s1.5-2.8,0-3.1ZM165.2,185.8c-1.1,1.7-.4,3.9,1,4.2s1.9-.2,2.8-1.3.8-2.4-.2-3.2-2.7-.9-3.5.3ZM270.3,186.1c-.6-.5-1.8-.9-2.9-.4s-2.8,1.4-2.5,2.6,1.5,2,2.3,2.2c1.5.3,4.3-3.5,3-4.4ZM218.4,192.6c-.9-1.3-4.3-1.6-4.9-.5-1,1.7-.7,3.6.5,4.2s2.4.4,3.6,0,2.1-1.7.8-3.7ZM96.9,215.4c.3-1.1-.9-2.2-1.6-2.3-1.9-.2-4.6,1.2-5.3,2.6s0,2.2.6,2.3c2.9.4,5.8-.9,6.3-2.6ZM173.3,218.4c-1,2.4,0,3.8,1.2,4.1s2.1,0,2.7-.7.3-2.7-.5-3.3-3.1-.9-3.4-.2ZM153.5,229.1c1.7-1.2,2.1-3.1,1.7-4.2-.7-1.6-2.4-2-4.1-1.6-2.7.5-3.1,2.6-2.3,4.3s2.5,3,4.7,1.5Z"/>
    <path class="st14" d="M259.5,228.1c.5.1,1,1.4,1.2,1.9-.4,1.6-1.9,1.8-3.7,2.5s-.4,3.6,1.8,4.1c-1.7,3-3.4,6.6-2.7,10s4.3,3.1,5.5,2.3c1.8-1.2,2.7-2.9,4.9-2.6,0,2.4.2,4,.8,5.6l-4.9-2c-.9,2.9.3,5.7.3,8.4s3.1,4.9,2.2,9.8c-.9-.2-2.1.2-2.6,1s-.5,2.3,0,3.4l4.1,8c3.9-.7,4.6-3.7,4.5-6.5,1,0,2-1.9,3.4-1.2,1.6,2.6,5.4,3.2,8.4,3.4s2.7-.7,3.7,0,.4,2.8-.1,2.7l-3-.3,2.1,3c-2.8,2.1-4.3,2.3-7.2,3.7,4.3,2.2,8.3,1.5,11.6-1.1,1.9,1.3,3.7,2,5.6,2.6-.7,1.3-1.6,1.7-1.9,1.7-.9,0-1.2,2.1.4,2s4.2-.8,4.7.3.5,4-.6,4.3-2.2-1-2.7-.7c-1.3.8.2,4.5,2.3,5.9s2.3.5,3.2-.2c-.2.5.1,1.5-.7,1.9s-.8.3-1.2.3c-2.7.9-5.3,3.4-6,6.1-.5.2-1.4,0-2,0l-8.8-.6c-2.4-.2-4.2-2.5-7.3-1.3v7.7c-.1,0-11.4.4-11.4.4-1.3-.4-3.2-.4-4.4-.4.2-2.3,1.9-3.6,4.3-4.8s3.5-6.3,1.9-7.8-3.3-.5-3.8-.1c-.8.5,0,4.2-2.4,7.5s-2.9,1.4-4.5,1.5l-7.4-5.4c-6.2-.6-10.7-3.3-16.3-5.6-12.2-5-23.8-3.2-31.9-9.4-5.9-4.5-11.5-8.8-14-15.9-1.1-3-.2-6.4-.3-9.8-.6-16.1,5.7-23.1-2.2-24.1,2.2-3.1,4.3-1,6.7-.5,4.5.9,8.8-3.2,9.8-7.2,8.9-1.6,14.6,2.3,15.9-5.3s6-9.9,11.6-13.3c7.5-1.7,16.9-.4,23,4.6s5.5,8.7,10.1,9.9ZM227.2,224.8c-1,1.7-.2,3.2,1.1,3.2s1.5-.4,2-.9c.9-1,.5-2.4-.1-2.9s-2.2-.5-2.9.6ZM252.1,237.2c-1.4.8-1.3,2.1-.7,2.7s2.4,1.4,2.9.9c.8-.7.5-2.6,0-3.2s-1.1-1.1-2.3-.4ZM246.7,240.6c-.2,1.5,1.2,1.6,1.6,1.4s.7-.9.5-1.5-1.3-1.2-2.1.1ZM188,261.5c0,.7-1.1,2.1-1.2,2.9s.5,2.1,1.5,2.3,2.9.2,3.6-.9c1.7-2.5,1.1-6.5.5-9.5-.5-1-3.5-.4-4.1.5s-.4,2.9-.3,4.6ZM246.5,271.2l-1.7,1.5c-.3.3,0,1.2.5,1.3s1.2.2,1.5-1c1.9,1,7.1,0,6.6-2.4-2.6-3-5.8-5.5-7.5-8.8-2.7-.3-3.7,2.6-3.5,4.7s1.2,3.3,4,4.8ZM232,263.8c-1.2,1-1.5,3-.5,3.8s2.4.7,3.2-.1,1-1.9.5-3.2-1.4-1.8-3.1-.5ZM241.3,271.3c-.6-5.6-4.3-3.7-11.2-.1,4,1.4,7.6,1,11.2.1ZM225,280.5c-2.2,1.5-2.1,3.4-1.3,4.2,1.4,1.6,3.3,1.4,4.4.9s1.7-2.7,1.4-4c-.5-1.9-2.7-2.4-4.6-1.1ZM278.7,280.6c-.2,1.5,1.2,1.6,1.6,1.4s.7-.9.5-1.5-1.3-1.2-2.1.1ZM286.7,289.1c-.5-2.2-4-1.3-3.9-.2.2,2,4.2,1.4,3.9.2ZM257.9,302.2l2-5.1c.6-1.6,1.5-6.2,0-6.8-2.5-.8-1.3,2.7-1.5,3.7-.5,2.3-3.5,5.5-.5,8.3ZM255.3,290.9l-.5.5.5.5.5-.5-.5-.5Z"/>
    <path class="st9" d="M36.3,210c-2,1-3.3,2.8-2.8,4.3.7,2.3,3.1,2.9,4.4,2.1s2.2-2.7,2.2-4.4c3.8-1.2,6.8,1.1,10,1.4,8.4.8,15.6,3,22.1,3.8s7.7,1.6,11.9,3.5l49.8,22.2c3.5,1.6,6.8,2.5,9.2,6l-17.2,9.2c-6-.5-11.5,2-16,5.9l-28.4-.6-16.4,1.4c-.8-2.6,0-4.9,0-7.5,1.3.8,2.7.8,3.8.2s2-1.8,1.5-3.3-2.3-1.6-3.4-2.4c.8-4.6,3.1-8.8,1.5-13.4s-3.3-2.9-5.2-1.8l-12.7,7c-6.4,1.8-12.9.3-19.6.6l1.9-4.1c-3.3.8-4.8-1.6-7-2.8s-6.3-1.2-8.7-3.4c-.8-2,.3-5.6-.7-7.1-2-2.1-3-4.8-4.7-6.5-10.5-9.8-9.7-21.7-4.8-20.1l29.3,9.9ZM35.4,226.5c-1.6.9-1.4,3.5-.7,4.5.9,1.5,3.7,1.3,4.5.4s1.4-3.8.7-5-3.4-.7-4.5,0ZM119.3,243.3c-2,.9-1.6,2.3-.6,3.4s2.1,1.6,3.4.7,1-2.7.3-3.5-2.1-1.1-3.1-.6Z"/>
    <path class="st9" d="M269,236l.2,3.9v2.2c-.1,3.9-1,7.7-1.1,12l-.2,11.8c0,2.5,1.4,3.9,3.3,4.1-1.4,3.9-6.3.3-6,3.9l5.7-.2c.1,2.9-.6,5.9-4.5,6.5l-4.1-8c-.5-1.1-.5-2.6,0-3.4s1.7-1.2,2.6-1v1.4c0,.9,1.6,1,1.6.4v-11.7c.2-.4.4-1.2.3-1.6s-1.1-.8-1.6-.5-.9,1.1-.9,1.9l-1.7.3c0-2.7-1.2-5.5-.3-8.4l4.9,2c-.6-1.6-.8-3.1-.8-5.6-2.1-.3-3.1,1.4-4.9,2.6s-5.2-.9-5.5-2.3c-.7-3.5.9-7,2.7-10-2.2-.5-3.1-3.6-1.8-4.1,1.9-.7,3.3-.9,3.7-2.5h7.9c0-.1.4,6,.4,6Z"/>
    <path class="st11" d="M413.6,240h25c1.1,1,3,.3,4.6,2-1.9,2.3-4,.3-5.7.2l-24.9-.2-18.2-.2c.4-.6.3-2,2.1-1.9h17Z"/>
    <path class="st9" d="M278,269.9l10.9,1.5v1.9s.5.4.5.4c.5,0,1.6.8,1.4,1.5s-.9.4-1.3.3-.5-.5-.6-.9-.4-.5-.7-.5h-3.7c-.8-.2-1.8.4-1.6,1.8-2.9-.1-6.7-.8-8.4-3.4v-2.6c0,0,3.6,0,3.6,0Z"/>
    <path class="st8" d="M178.9,236.1c-.1,2.6-4.3,1.2-4.6,3.3s.3,1.6-.3,2.5c-8.1-2.3-14.2,2.7-16.5,1.9s-.4-1.5.1-1.9c9.2-7,17.4,2.3,14.5-5.5l6.7-.3Z"/>
    <path class="st7" d="M381.3,125.4c-4.4-2.2.5-3.4-.5-11.2,1.6,1,4.1,1.7,6,2.5l-5.5,8.7Z"/>
    <path class="st12" d="M274.8,257c1.5.3,2.9,1.3,3.7,2.3-1.6,2.5-3.6,3.7-5.9,3.4-1.1-1.2-2.4-2.3-2.6-5.1,1.4-.6,3.2-1,4.8-.7Z"/>
    <path class="st12" d="M40.1,212c0,1.7-.4,3.4-2.2,4.4s-3.8.2-4.4-2.1.9-3.3,2.8-4.3c1,.4,2.5,2.4,3.7,2Z"/>
    <path class="st7" d="M269,236l-.4-6.1h-7.9c-.2-.3-.7-1.6-1.2-1.8,3.3.7,6.4,0,10.6-.8,1.1,4.9.7,9.3-1.1,8.7Z"/>
    <path class="st12" d="M377.5,108c-.7.9-1.7,1.8-2.8,2s-1.2,0-1.8,0c.9-3.7-1.8-3.5-3.3-5.5l5.3.6c1,.1,1.9.3,2.3,1s.4,1.3.4,2Z"/>
    <path class="st10" d="M65.1,257.3c0-2.1,1.5-3.5,1.8-5.6,1.1.8,3,1.3,3.4,2.4s-.7,2.8-1.5,3.3c-1.1.7-2.5.7-3.8-.2Z"/>
    <path class="st6" d="M274.3,270v2.6c-1.3-.7-2.4,1.2-3.3,1.2l-5.7.2c-.4-3.7,4.5,0,6-3.9h3Z"/>
    <path class="st7" d="M269,242.1v-2.2c.2.9,0,1.4,0,2.2Z"/>
    <path class="st1" d="M266,92.8c4.4-10.3-5.5-15,1.9-18.1-2.4-3.1-.4-7.3-.7-10.4-.6-5-4.4-9.3-2.3-14.9-3.2-2-5.7-2.1-9-3.2s-3.9-4.8-6.3-5.4-5.2,1.1-8.1.5c-4-7.3-1.6-15.3-9.3-19.8,1.4-1.9,3.5-1.5,4.6-.3,5.5,5.6,11,.9,17.8,5.2,4.4,2.7,10.6,2.7,12.4.8s1.6-2.6,1.8-5.2c11.3,1.2,27.5-3.6,37.2-9.4s6.8-8.4,9.2-8.4c3.8,0-2.8,7.1.5,10.1s5,2,7.1,2.8c1.9,4.6-1.6,7.4-4.1,10.3-5.1,5.9-2.3,13.7-.4,19.9s2.2,7.8,7.9,10,7.5,4.9,9.9,7.5.8,6.8.5,9.4l-17,.2c-2.9,0-6.4,1.8-8.7,3-7.5,4.2-1,12-7,14.6s-6.9-9-17.7-4.1-2.8,7.5-7.9,12.4c-4.1-2-8-3.8-12.3-7.2ZM301.9,59.8c-1.8,1.3-1,3.1-.1,3.7s2.6,1,3.5,0,1.3-2.3.7-3.3-3.1-1.1-4.1-.4Z"/>
    <path class="st3" d="M494.6,24l1.5,6.2c.7,3,.7,3.8,1.6,6.7l4,11.8,12.4,5.6c1.8.8,3.5,1,4.3,2.3,1.4,2.3-2.1,3.3-2.7,4.7-7.1,16.5-24.4,10.6-29.8,31.1-3.2,1.7-6.4,2.7-9.9,2.3-3.2-9.7-11.4-10.9-13.9-16.3-3.2-6.9-5.1-14.7-11-20-2.8-.8-6.5-.9-8.8-2.9l1.4-2.6c-2-.9-3.6-1-5.3-.9v-1.9c0,0,5.1,0,5.1,0,1.2,0,1.3-1.4,1-2.1h6.9c-.4,1.6.8,2.2,1.6,2.2h3.5s3.2-.2,3.2-.2c.6,0,1.1-1,.7-1.9.9,0,1.8,0,2.6-.3,3.2,2.2,6.3,1.4,8.8-.2s2.7-6,2.5-9c.5-.3,1.5-1,2.2-.8,1.5.5,2.7.5,4.2-.6s1.5-2.3,0-4.3c.6-1.2,2.3-3.1,1.6-4.8,1.3-1.6,2.2-4.1,4.7-4.1s5.2-.9,7.5,0ZM486,33.8c1.9-.2,1.6-1.9.7-2.1s-1.4.2-1.9.3-.6,2,1.3,1.9Z"/>
    <path class="st7" d="M474.5,38.7c.2,3,.8,6.8-2.5,9s-5.6,2.4-8.8.2c8-3,8.1-7.3,11.3-9.1Z"/>
    <path class="st6" d="M436.6,48.2c-.2.7,0,1.5.7,1.7s1,.2,1.4.2v1.9c0,0-5.5.5-5.5.5l-5.2-.7c-.8,0-.6-1.9-.3-2.2.3-.5,1.1-1.3,2.3-1.3l6.6-.2Z"/>
    <path class="st7" d="M304.7,94.1c-.4,1.5-1.3,2.8-2.3,3.4-1.6,1-4.1.7-5.7-.2.4-2,1.8-2.2,2.4-3.2h5.6Z"/>
    <path class="st7" d="M476.6,37.8c-.8-1.9.5-3.1,1.9-4.8l3.9-5c.7,1.7-.9,3.6-1.6,4.8,1.5,2,1.6,3.1,0,4.3s-2.7,1.1-4.2.6Z"/>
    <path class="st7" d="M438.5,52.1c1.7,0,3.3,0,5.3.9l-1.4,2.6-9.3-3,5.4-.5Z"/>
    <path class="st7" d="M460.6,48.1c.4.9-.1,1.9-.7,1.9l-3.2.2h-3.5c-.8,0-2-.5-1.6-2.1h9Z"/>
    <path class="st7" d="M298.2,93.9c-1.3,0-3.2.3-4.7-.2s-1-2.7-.8-3.9c2.3-.3,4.6,2.1,5.4,4.1Z"/>
    <path class="st7" d="M290.9,90.1c-.6,2.9-3.4,4.7-6.2,4.2,0-1.5,1.1-3.1,2.1-3.6s3-.4,4.1-.6Z"/>
    <path class="st7" d="M494.6,24c-2.3-.9-5,0-7.5,0,2.1-2.2,5.3-.8,5.7-4.9,1.6,1.2,1.4,3.3,1.8,5Z"/>
    <path class="st7" d="M438.9,57.6c-1.3,1.2-2.5,1.6-3.8,1.6s-2.6-1.6-2.3-3.3c2.7-.4,4.2,1.1,6.1,1.7Z"/>
    <path class="st7" d="M444.6,48.1c.3.6.2,2-1,2.1h-5c-.4,0-.9.1-1.4-.1s-.8-1.1-.7-1.7l8-.2Z"/>
    <path class="st3" d="M499.8,667.3c3.3-.4,6,1.4,9.1,2.8s7.8,2.5,10.6,5.5l11.2,12.3c-.3,1.8.1,3.3,1.4,4.5s2.2,1.3,3.7,1c1.7,3.3,5.8,3.9,9.4,4.5l11,1.7c.8,1.2.4,3.4-.1,4.3-2.2-1.1-5.3-.4-6.3,2.3s.7,4.3,3,4.9c-2.4,4.8-8.3,5.9-5.6,13.2,1.5,2.1,6.4,2.2,8.8,3.2,1,1.2.4,3,.4,3.8-.7-.2-1.5.1-1.7.7s-.2,1-.1,1.4v.9c-.6.3-1.3,1.2-1.7,2.3l-5.6,14-4.3,14.9-.6-15.8c-4.5-.5-9.3.9-13.3-1s-3.4-4.4-6.8-4.3-5.7,2.8-5.6,5.8c.2,7.8-1.9,14.7-3.6,22-.9,3.9-1.1,7.1-4.4,10.3l-4.9,4.8-1.1,1.1-1,.9-4.2,2.7c-2.8,3.9-4.1,8.6-5.8,13.1-3.6,9.5,4.6,16.6-2,26.6l-4.5-13.1c-13.5-1.5-12.4,14.1-16.4,15.3s-2.9-.1-4.2-1.6l-5.9-6.1c-6-6.2-3.2-14.4-7.5-16.4l-12.4-5.7-15.2-14.7-11.2-5.9c-6.1-3.2-6.6-11.3-11.6-12.3s-7.8,1.3-11.5,4.6c-1-5.5-3.6-9.3-7.5-12.6l-10.7-9.3-9.5-8.4-8.1,1.9c-.4,0-.6-.3-.6-.8s.2-1.2.6-1.5c3.2-2.2,4.6-5.3,7.1-8.1l13.1-14.6,10.7-12.6c1.1,1.6,3.7,2.8,5.3,1.3s.9-4.5-.1-5.7c.6-1,1.3-2.8,2.3-4l10.2-11.9c5.4-6.2,14-8.7,21-13l8.1-4.9c3.8-2.3,7.5-5.7,11.8-6.1,1.3-1.5,2.7-4,4.6-4.2l3.3-.4c3-.4.4,2-.3,6.1,2.5.2,3.8.8,6.2,2.4,0-1.4,0-2.9.5-3.7s1.8-1.6,2.3-.8l1.5,2.3c-.1-.2,5.3-2.8,5.3-2.8l.2-4.9c4.1,3.7,7.6,4.4,13,3.6l-1.3,5c3.7,1.2,6.9,1.9,10.6.3-1.5-1.1-2.8-1.4-2.3-3.5,4.3,2.9,8.7,2.6,13,2ZM396.8,740.2c-2.5,1.4-1.7,3.8-.8,4.9s3.7,1.5,4.9.9c2-1,2-3.4,1.4-4.8s-3.5-2.1-5.5-1ZM453,742.9c-1.9.9-2.9,3.2-1.9,4.6s3.1,2.5,4.8,1.7,1.9-3.1,1.2-4.7-2.1-2.6-4.1-1.6Z"/>
    <path class="st9" d="M474.7,866l-9.4,10c-2.5-6.5-.2-12.2,3.5-17.6s4-3.5,4-7h8.7c-1.8,5.1-2.9,10.5-6.8,14.6Z"/>
    <path class="st7" d="M497.4,809.2l-2.8,3.6c-.8-6.8,3.4-17.1,9-21.3h1c.4,0,.9-.2,1.8,0l-6.4,10.4-2.6,7.3Z"/>
    <path class="st7" d="M484.4,829.3c-2.6-.3-5.2.4-7.8-.4,0-1.8.9-3.1,1.8-4.3s4.6-2.2,5.5-.8.5,4.2.6,5.6Z"/>
    <path class="st15" d="M300.7,299.8c-.9.7-2.1,1-3.2.2-2.1-1.5-3.6-5.1-2.3-5.9s2,.9,2.7.7c1.1-.3,1.1-3.3.6-4.3s-3.4-.5-4.7-.3-1.3-1.9-.4-2,1.2-.3,1.9-1.7c-1.9-.6-3.7-1.3-5.6-2.6-3.3,2.6-7.3,3.3-11.6,1.1,2.8-1.4,4.4-1.6,7.2-3.7l-2.1-3,3,.3c.5,0,1-2.1.1-2.7s-2.7,0-3.7,0c-.2-1.4.9-2,1.6-2h3.7c0,.1.7-.6.7-.6v-1.9s10.7.7,10.7.7c1.4,0,2.5,1.8,2.8,2.6s-.3,2.6-1.4,3.5c-6.3,4.8,3.3,11.1-.3,21.6ZM289.3,273.8l-.5.8c.1.4.3.8.6.9s1.2,0,1.3-.3c.1-.7-.9-1.6-1.4-1.5Z"/>
    <path class="st15" d="M290.8,308.1c-.4,5.1-4.9,7.6-10,7.1s-11.9.6-17.5-.9l11.3-.4v-7.7c3.2-1.2,5,1.2,7.4,1.3l8.8.6ZM278.9,308.5c-2.2,1.1-1.9,3.2-1.2,4.1s2.4,1.6,3.5,1.2,2-2.8,1.3-4-2.4-1.8-3.6-1.2Z"/>
    <path class="st7" d="M294.7,364.8c-.1-1.4.1-3.6-.7-5.1-4-7.1,2.9-13.2,2.7-21.7.8-.4,2-.1,2,.5v2.3c.7,2.4-2.1,7.8-3.3,14.2,1.8,4.2,2.8,8.7,1.4,9.4s-1.4.4-2.1.4Z"/>
    <path class="st9" d="M258.9,314c-2.7,0-3.1-2.9-4.4-3.8,1.7-.1,3.6-.2,4.5-1.5,2.3-3.3,1.6-7,2.4-7.5s3-.6,3.8.1c1.6,1.6.5,6.6-1.9,7.8s-4.1,2.5-4.3,4.8Z"/>
    <path class="st7" d="M293.3,313.7l11.3-10.8-1.4,4.1c.9,1.4,2.3,3,1.3,4.3s-2.3.8-3.2.7l-.5.6-.5,2.5c-.5,2.9-3.8-1.3-7.1-1.3ZM300.7,311.4c.3-.6-.4-1.4-1.3-1.2s-.2.6-.2,1c0,.6.3.8.8.5l.7-.3Z"/>
    <path class="st7" d="M310.4,371.9l-14.4-.4c-1.4-.4-1.5-3.4-1.2-4.6,1.3,1.8,2.8,3.3,4.4,3.4,4.7.2,9.9-4.8,11.5-2s-.2,2.8-.3,3.6Z"/>
    <path class="st7" d="M296.6,336c-2.3-3.6-1.4-8-2-12,2.8.8,4.9-1.7,7.1-2.4,4.6-1.6,7.6,6.8,6.6,7.5s-1,.6-2.2-.1l-2.4,3.1c-1.7-2.5-3.9-3.5-7-3v7ZM300.8,323.6c-1.4.9-1.4,3-.5,4.2s2,.9,3.3.4,1.6-2.2,1-3.6-2.2-1.9-3.7-1Z"/>
    <path class="st7" d="M246.9,309.9c-4.5.7-9.7-.2-12.3-3.8,7.1,3.6,12.1.2,12.3,3.8Z"/>
    <path class="st15" d="M298.8,302c-1.2,2.5-3.4,5-6,6.1.7-2.7,3.3-5.2,6-6.1Z"/>
    <path class="st11" d="M558.5,723.4c-.3,1.1,1,1.4,1,.1h2c.7.2,1.2.9,1.4,2l-6.2,11.9c-.8.5-1.9.3-1.9-.5v-2.4c-.1,0-.2-.9-.2-.9.3.1,1.1.1,1.4-.1.7-.5.5-1.4.4-2s.6-2.6-.4-3.8c-2.3-1-7.3-1.2-8.8-3.2-2.6-7.3,3.3-8.5,5.6-13.2,1.8.6,4.2.2,5.2-1.5s-.1-4.2-2-5.7c.5-.9.9-3.1.1-4.3l-11-1.7c-3.6-.6-7.8-1.2-9.4-4.5s-3.4-3.6-5.1-5.5l-11.2-12.3c-2.7-3-6.8-3.8-10.6-5.5s-5.9-3.2-9.1-2.8c.2-1.7-1.9-1.5-2.8-2-6.2-3.3-11.4-3.8-18.1-4.4s-7.6-2.1-11-1.2c-.9-1.3-.2-3.2.6-3.6s1.7-.7,3-.5l11,1.6c4.8.7,8.2,1,12.5,2.8l25.9,11.2c4.7,2,14.3,17.7,20.5,21.3s10.8,2.6,15.8,3.4,5.6,13,.8,18.1-4.7,4-5.8,7.4l6.4,1.9Z"/>
    <path class="st7" d="M534.7,767.4l-.2,2.1-.2,1.8c-4.3,4-9,8.6-11.2,14.7l-1,9.9c-13,1.6-13.3,13.9-20.1,12.1,2.8-4.3,3.5-8,5.4-11.8l2.2-4.4c4.4-1.5,9-4,12-8.3,1.3-1.7,1.6-4.1,3.9-5.4-1.5-4.8-1.4-9.6,0-14.4,3-.5,6.1-1,8.6.1,1,.6.6,2.8.5,3.6Z"/>
    <path class="st8" d="M534.4,771.2c.3,1.3,1.3,1.9,2.3,2l-.4,2.3c-3.6,2.6-8.5,6.8-9.4,11.9-.7,4.3.9,8.9-2.6,12-2.8.3-7.5-.9-9.8,2.1-3.4,4.2-1.4,11-16.1,10.9.1-1-.4-2.3-1-3.2l2.6-7.3,6.4-10.4c-.9-.3-1.4,0-1.8,0-.3-1.4.7-2.7,2.4-2.2s1.9,1.3,2.6,2.3l-2.2,4.4c-1.9,3.8-2.6,7.5-5.4,11.8,6.8,1.8,7.1-10.5,20.1-12.1l1-9.9c2.2-6.1,6.9-10.7,11.2-14.7Z"/>
    <path class="st7" d="M521.7,768.1c0-1.9.3-4-1.8-5.5l-.9,4.3c-.9-5.7.6-12,2-17.9,3.5-.4,4.3,3.1,5.9,3.9,3.7,1.7,7.6.3,11.4.8.6,2.1.5,3.7,0,5.9l-15.8.3c.5,3.6.1,6-.7,8.2Z"/>
    <path class="st12" d="M521.7,768.1c-1.8,5.2-.9,11.5-6.8,15.8l1.9-7.3c.9-3.6,1.4-6.6,2.1-9.8l.9-4.3c2,1.6,1.7,3.6,1.8,5.5Z"/>
    <path class="st8" d="M540.4,767.7c-.9-.5-2.2-.4-2.6.5l-1.2,2.5c0-1.6,0-4.2,1.7-5.2s2.1.1,2.2.5,0,1.3,0,1.7Z"/>
    <path class="st8" d="M534.5,769.5l.2-2.1c0,.4.8.7.6,1.5s-.2.7-.8.6Z"/>
    <path class="st8" d="M502.6,788.6l1.1-1.1-1.1,1.1Z"/>
    <path class="st7" d="M362.6,411.7c.5,1.9-.3,3.3-1.4,5.3-.2.9,2.3,1.8,3.7.9.2,1.4.3,2.3-.3,4-2.5-.8-4.5-.7-6.7-.4,1.3-1.7.7-6.1,1.2-8.2s2.7-1.3,3.6-1.6Z"/>
    <path class="st7" d="M346.3,455.1c-.8-.8-2.2-1.1-1.8-2.8s4.8-8.2,8-11.2c1.1,5.7-5.3,9.5-6.2,14.1Z"/>
    <path class="st12" d="M403.8,398.7c0,.6.6,1.1,1.2,1-.2,1,0,2.6-.5,3.4s-2.9.7-3.9.3l-1.1-1.9c0-1,.4-2,1.1-2.3,1.1-.5,2.2-.5,3.1-.6Z"/>
    <path class="st11" d="M345,470.9c-.2,1.8-.5,3.5-1.4,5.1-.4-.7-.9-1.3-1-2.3.4-1.5.7-3,1.9-4l.5,1.2Z"/>
    <path class="st2" d="M389.6,705.8c1,1.2,1.7,4.2.1,5.7s-4.2.3-5.3-1.3c1.3-1.5,1.7-4.9,5.2-4.4Z"/>
    <path class="st0" d="M333.7,388.7c0-.8.4-1.5,1.1-1.8v1.4c0,.4-.5.6-1.1.4Z"/>
    <path class="st0" d="M473.6,242h-28c-1.1,0-1.3,1.4-1,1.9h-27.9c-1.8,0-3.3-.8-4-2l24.9.2c1.7,0,3.8,2.1,5.7-.2-1.6-1.6-3.5-1-4.6-1.9h20c5.4,0,10.5-.1,15,2Z"/>
    <path class="st11" d="M473.6,242c4.5,0,9.5-.9,13.8.3s6.8-.4,11.1,1.6c-5.3,2.4-9.9.1-14.8,0h-15.1c0-.1-17,0-17,0h-7c-.4-.5,0-2.1,1-2.1h28Z"/>
    <path class="st11" d="M420.8,403.8c-.3,1.8.6,3.1,1.9,4-6,1.7-11.8.6-18.1-1s-3.8-1.1-4-3.3c1,.4,3.3.7,3.9-.3s.2-2.5.5-3.4c2.8,6.1,10.1,6.8,15.8,4.1Z"/>
    <path class="st12" d="M348.7,318.5c2.2-.5,4.1,1.1,4.3,2.3.4,2.2-1.2,4-2.5,4.5-2.1.8-3.6-.3-4.2-1.6-.9-2.1-.5-4.5,2.3-5.2Z"/>
    <path class="st12" d="M405,245.6c1.9-.4,3.9.7,4.1,2.1.3,2-.6,3.8-2.1,4.1s-3.7,0-4.7-1.9.3-3.8,2.6-4.3Z"/>
    <path class="st7" d="M309.3,337.3c-5,.5-5.8,6.8-7.8,4.6s-.2-6.9,3-7.8c1.7.9,3.2,1.1,4.9,3.2Z"/>
    <path class="st10" d="M421.2,292.5c-.8,1.6-4.3,4.5-7.1,3s-1.6-4-.2-4.8c2.2-1.3,3.7-.7,7.4,1.8Z"/>
    <path class="st12" d="M480.7,273.5c2.1-1.3,4-.5,5,1.7s0,2.5-1.7,3.7-3.1.9-4.2-.6-1.7-3.2.8-4.8Z"/>
    <path class="st7" d="M468.5,243.9c2.5,2.2,6.6-.1,8,2l-13.9-.3c-2.5,0-4.5-1.4-6.4,1.2l-4.7-2.8h17Z"/>
    <path class="st2" d="M470.9,343.3c1.8-.4,3.5.3,4.2,1.6s-.1,3.7-1.6,4.4-3.6,0-4.4-1.4-.6-4,1.8-4.6Z"/>
    <path class="st12" d="M503.8,317.5c1.7-.2,3.1,1.2,3.4,2.3.4,1.8-.6,4.1-2.1,4.1s-4.1-.8-4.4-2.5,1.2-3.7,3.1-3.9Z"/>
    <path class="st12" d="M462.9,285.6c1.9-.5,3.2.9,3.5,2,.6,2,0,3.5-1.6,3.8s-3.4.1-3.9-1.2,0-4.1,2-4.6Z"/>
    <path class="st12" d="M293.6,236.4c-1.3-.4-2.5-1.3-2.8-2-.6-1.6,3.5-4.4,6.1-3s1,2.4.5,3.8-1.7,1.9-3.9,1.2Z"/>
    <path class="st2" d="M437.6,338.5c2-.7,3.5,1.1,3.8,2.2.5,1.5-.1,3.6-1.7,3.8s-3.3-.4-3.9-1.5-.4-3.7,1.7-4.4Z"/>
    <path class="st10" d="M294.6,258.1c-.3,1.9-5,2.7-6,1.2s.7-4.3,2.1-5,4.3,1.3,3.9,3.8Z"/>
    <path class="st2" d="M487.6,316.4c-3.2,0-2.9-2.7-2.9-3.9,0-1.7,2-3.1,3.4-2.1s1.3,6-.5,6.1Z"/>
    <path class="st12" d="M426.4,403.6l.2,3.1-3.9,1.1c-1.3-.8-2.2-2.2-1.9-4,.8-.4,1.8-2.2,3-1.5l2.6,1.3Z"/>
    <path class="st2" d="M437.3,284.6c1.6-1,2.8,0,3.1,1s.3,3-.6,3.8-2.7.3-3.4-.7-.7-3,1-4.1Z"/>
    <path class="st2" d="M426.6,364.4c1.2-.4,2.8,1.1,3.1,1.8.7,1.4-.8,2.3-1.7,2.8-1.4.8-2.5.4-2.9-.4-1-1.7-.8-3.5,1.5-4.2Z"/>
    <path class="st2" d="M353,261.7c1.2-1.4,3.2-1,4.1.2s.1,2.3-.7,3.3-2.4,1-3.7.3-1-2.4.2-3.8Z"/>
    <path class="st2" d="M414.5,255.4c-.4,1.6-5.6.8-5.9,0s.2-1.1.6-1.8c1-1.8,2.2-1.7,3.6-1.4s2,1.6,1.7,3.1Z"/>
    <path class="st2" d="M350.9,287.8c1.5-1.3,3.1-1.1,3.9.4s.6,1.8-.5,2.8-2.2.8-3.3.3-1.4-2.2,0-3.4Z"/>
    <path class="st6" d="M458.7,393.9c-.8.8-1.7,2.5-2.1,3.6-.9.4-1.6,0-1.6-.5v-2.1c-.2-1.9.7-2.9,1.9-2.9s1.4,1.1,1.8,1.9Z"/>
    <path class="st2" d="M341.7,256.6c1.2-1.1,3-.8,3.7,0s.4,2.3-.4,3-2.2.8-3.3,0-1.4-1.8,0-3Z"/>
    <path class="st10" d="M400.9,229.2c-1.4,1.1-5.3,1.4-6,0-.7-1.7-.3-4.3.6-4.9s3.9-.9,5.2,0,1.7,3.7.2,4.8Z"/>
    <path class="st10" d="M407.2,117.4c-1.1,1.1-3.2,1.5-4.3,1s-2-2.7-1.2-3.7c1.3-1.7,2.9-2.9,3.9-2,1.6,1.2,2.8,3.4,1.5,4.8Z"/>
    <path class="st12" d="M517.9,201.8c-1.9.8-4-.6-4.8-1.8s.6-2.8,1.8-3.6,2.7,0,3.5,1.1,1.7,3.3-.6,4.3Z"/>
    <path class="st12" d="M389,103.5c1.2-.7,3.4-.7,4,.5s.3,3.2-.8,4-3.2.8-3.9-.1c-1-1.4-.8-3.5.7-4.4Z"/>
    <path class="st12" d="M425,175.6c1.2-.6,3.1-.5,3.9.5s.9,3-.6,4-2.5.8-3.7-.6-1.5-3,.4-4Z"/>
    <path class="st2" d="M480.6,192.7c2-.8,3.4-.4,3.7.8.5,1.7.1,3.6-1.5,4.1s-2.3,0-3.4-.9-1.1-3,1.1-3.9Z"/>
    <path class="st12" d="M437.6,154.7c2.3-.5,2.8.7,2.9,1.9.2,1.9-.6,3.1-2.4,3.2s-2.2-.5-2.8-1.8,0-2.8,2.3-3.4Z"/>
    <path class="st12" d="M461.2,150.1c.7-1,2.6-1.1,3.5-.4s1.3,2.2.4,3.4-1.6,1-2.8.7-2.4-1.8-1.1-3.7Z"/>
    <path class="st2" d="M502.9,230.4c.3-.7,2.3-.7,3.1-.5s.9,2.2.2,3.2-1.1.7-2.1.6-2.1-1-1.2-3.3Z"/>
    <path class="st10" d="M635.9,432.7c-1.4,1.5-2.9,2-4.1,1.4s-1.2-1.6-1.2-3.7c2.4-1.2,3-3.8,4.8-6s6.4,2.1,4.7,3.9l-4.1,4.3Z"/>
    <path class="st12" d="M657.7,482.1c2.2-.8,4.2.2,5.1,1.7s.5,4.3-1.4,5.3-4.3.3-5.3-1.5-.8-4.7,1.6-5.5Z"/>
    <path class="st2" d="M731.6,477.1c1.3-1.1,4.5,0,5.4,1.3s0,3.9-1.3,5-3.9.1-5.1-1.2-1.5-3,1-5.1Z"/>
    <path class="st10" d="M716,381.4c.4,2.9-2,4-4.1,3.6s-3.7-1.5-3.2-3.9,2.1-2.9,3.1-2.8,3.9,1.4,4.2,3.1Z"/>
    <path class="st2" d="M663.7,353.4l-1.1-1.4c-.5-.6.2-1.2.9-1.9,1.6-1.5,3.2-1.7,4.6-.6s1.6,2.9.6,4.2-3.6,1.6-5.1-.3Z"/>
    <path class="st10" d="M665.6,465c1.4-.7,3.5.3,4.2,1,1.2,1.1.9,3.6-.3,4.4s-3.6.7-4.6-.5-1-3.9.7-4.8Z"/>
    <path class="st2" d="M689,410.4c-1.9.4-3.4-.4-4.1-.8s-.8-3.2.2-4c1.6-1.2,3.5-.4,4.7.4s.7,4.1-.7,4.4Z"/>
    <path class="st10" d="M748.8,437.2c1.6-1.1,3.3-.1,3.7,1.6s.1,2.7-1.1,3.6-3.1.2-4.1-1.1-.5-2.9,1.4-4.2Z"/>
    <path class="st10" d="M659.4,386.7c2.4-1.6,3.1-.1,3.8,1,1.1,1.6.7,3-.2,3.6s-3.5,1-4.1.4c-.9-1.1-.6-4.2.6-4.9Z"/>
    <path class="st2" d="M747.2,394.3c1.2.4,1.2,2.9.5,3.6s-2.7,1.2-3.7.7-1.8-1.8-1.5-4.4c.9-.5,3-.6,4.8,0Z"/>
    <path class="st2" d="M738.4,401.3c1.5-1,3.2-.2,3.8,1.1s-.3,2.3-1.5,3.2-2.4.2-3.3-1.1-1.1-1.8,1-3.2Z"/>
    <path class="st10" d="M682.6,426.2c.5-.8,3.2-.7,3.6,0s.3,2.9-.4,4.1-2.1.7-2.9-.2-1.7-1.6-.3-3.9Z"/>
    <path class="st11" d="M594.4,423.9h-3c0-.4-.1-.9,0-1.1,1.1-.3,2.6-.1,3,1.1Z"/>
    <path class="st0" d="M590.5,423.8h1c-.3.3-.7.5-1,0Z"/>
    <path class="st10" d="M757.5,337.5c-2.3,1.1-5.4.5-6.1-1.2s-.3-4.7,1.8-5,3.9,0,4.9,1.1,1.6,3.9-.7,5.1Z"/>
    <path class="st10" d="M744.6,315.5c1.7-1.2,4.2,0,5.2,1.4s.4,3.3-1.4,4.5-3.7.7-4.7-1-1.5-3.2.9-4.8Z"/>
    <path class="st12" d="M677.9,324.5c-1.1,2.3-3.7,2.4-5.1,1.3s-2.1-4.4-.2-5.2,3.3-.2,4.1.4,1.7,2.3,1.1,3.5Z"/>
    <path class="st10" d="M723.2,318.7c-2-.5-2.9-1.5-3.4-2.9s4.1-3.4,6.1-2,1.9,2.4,1.4,3.5-2.4,1.8-4.2,1.3Z"/>
    <path class="st2" d="M772.9,236.5c.5-.9,3.5-.5,4.3,0s1.3,3,.4,4.3-2.5,1.2-3.5.7-2.4-2.9-1.2-5.1Z"/>
    <path class="st12" d="M702.3,284.6c2.6-.9,3.2,1.1,3.6,2.2.9,2.1.5,3.2-1.6,3.6s-3.4-.1-3.7-1.2.1-4,1.7-4.6Z"/>
    <path class="st10" d="M717,330.7c.8-1.4,3.1-1.1,4.2-.2s1.7,2.7.5,4.3-2.2,1.4-3.5.7-2.6-2.4-1.2-4.8Z"/>
    <path class="st2" d="M634.8,303.6c1.2-.4,2.6,1.6,3,2.5.6,1.3-.5,3.5-2,3.6s-3.2-.9-3.7-1.9.6-3.5,2.7-4.2Z"/>
    <path class="st10" d="M746,281.8c-.4,2.8-2.9,2.8-4,2.6-1.7-.3-2.6-2.4-1.2-4.3s5.5-.4,5.2,1.7Z"/>
    <path class="st2" d="M728.2,249.6c-1.4-.7-1.9-1.6-1.9-2.2-.1-1.1,1.1-1.7,2.4-2s2.3.5,2.9,1c1,.9.8,2.3.3,3s-2.2,1-3.7.3Z"/>
    <path class="st2" d="M656.1,273.2c-1.3,1.7-5.3.1-5.7-1.9s3.4-2.7,5-1.9,1.4,2.9.7,3.8Z"/>
    <path class="st2" d="M786.6,350.9c2.1-1.4,2.7,0,3.2,1s.4,3-.5,3.4-2.8,0-3.5-.6-.3-3,.8-3.8Z"/>
    <path class="st10" d="M725.4,292.8c-.8,1.6-4.6,1.6-5,.4-.9-2.4.7-3.5,2.3-3.4s3.6,1.1,2.7,3Z"/>
    <path class="st6" d="M662.7,293c1-1.3,1.8-.7,2.2-.3.8.7,1.4,2,1,2.5-.8.9-1.6.8-2.1.6-.9-.4-1.9-1.7-1.1-2.8Z"/>
    <path class="st1" d="M811.8,280.1c.6,1,1.2,3.3,0,3.8s-2.5,0-3.5,0v-1.9c1.1,0,2.1-.8,2.3-1.9.3,0,1,.3,1.2,0Z"/>
    <path class="st7" d="M804.2,290.6c.7-1.3,1.9-.6,2.1-.1s0,1.2-.5,1.5-1.7.2-1.6-1.4Z"/>
    <path class="st7" d="M808.3,282v1.9c-.8.3-1.7.2-2.1-.4s0-1.3.5-1.5,1,0,1.5,0Z"/>
    <path class="st6" d="M422.9,419.5c-.9,1.2-1.5,2.4-1.4,3.8s1.1,2.1,1.9,2.4c-1.8-.3-7.4,4.7-8.8.8s.3-2.7,1.2-3.7,2.1-.4,3.5-.5c1.2-1.2,2.2-2.2,3.6-2.9Z"/>
    <path class="st10" d="M423.4,425.7c-.8-.3-1.8-1.3-1.9-2.4s.5-2.6,1.4-3.8c1.8-.8,3.5-.7,4.5,1s.6,2.5,0,3.7c-.8,1.6-2.1,1.8-4.1,1.6Z"/>
    <path class="st12" d="M424.3,538.3c1.4-1,3.7-1,4.8.3s.7,3.1-.5,4.4-2.8,1.2-4.4-.2-2.1-2.9.1-4.5Z"/>
    <path class="st2" d="M395.3,450.4c.5-1.1,3.4-.9,4.4-.1s1.4,2.9.3,4.3-2.3,1.3-3.7.9-2.2-2.7-1-5Z"/>
    <path class="st2" d="M387.2,402.7c1.1-1.5,3.2-.7,4,0,1.4,1.1,1.8,3,.8,4.1s-3,1.1-3.9.9c-1.6-.4-2.2-3.2-.9-5Z"/>
    <path class="st6" d="M435.1,484c1.7-.5,2,1.6,2.3,2.6.3,1.5-.5,2.6-1.6,2.9-2.2.5-2.9-.4-3.2-1.3-.7-2.2.4-3.6,2.5-4.2Z"/>
    <path class="st12" d="M453.7,451.5c1.6-.7,2.9.3,3.3,1.3s0,2.7-1.4,3.3-2.2,0-2.9-.8-.8-3,1.1-3.7Z"/>
    <path class="st2" d="M477.6,506.5c-1,.9-2.5.9-3.1.6s-1.1-2-.8-2.7.9-2,2.1-2.2,3.1,3.1,1.8,4.4Z"/>
    <path class="st10" d="M410.9,461.2c1.7,0,1.7,1.3,1.8,2.1.2,2-.5,2.8-2.6,2.6s-2.2-1.2-2.3-2.7,2-2,3.1-2Z"/>
    <path class="st4" d="M565.4,335.4c2.5,0,3.6,1.3,3.7,3.1s-.9,3.5-2.7,3.7-3.2-1.2-3.6-2.5-.7-4.4,2.6-4.3Z"/>
    <path class="st4" d="M598.7,394.7c-2.5,1.7-3.6-.5-4-1.7-1-2.8.7-3.6,3-4s2.6.5,3.1,1.8,0,2.5-2,3.8Z"/>
    <path class="st4" d="M557,406.4c.6-1.1,3.5-.8,4.6-.1s.8,2.8,0,4-2.2,1.6-3.7,1.3-2-3.1-.8-5.2Z"/>
    <path class="st4" d="M558.9,395.4c1.9-.7,3.2.3,3.8,1.8s-.1,3-1.1,3.5c-1.5.6-3.8.6-4.5-.8s-.2-3.7,1.8-4.5Z"/>
    <path class="st4" d="M544,369.2c.2,2-1.7,2.6-2.9,2.6-1.9,0-2.4-.5-2.6-2.4s1-3.3,2.8-3,2.6,1.8,2.7,2.7Z"/>
    <path class="st4" d="M585.4,331.7c1.7-.7,3.2-.4,3.6.3.8,1.3.3,3-.5,3.6s-2.8.5-3.5,0c-1-.6-1.1-3.4.3-3.9Z"/>
    <path class="st4" d="M605.3,342.7c.5-.5,1.7-.7,2.3-.2s1.2,1.8.7,2.8-1.9,1-2.9,0-1.1-1.4,0-2.6Z"/>
    <path class="st12" d="M544.8,525c.5.8.3,2.4,0,2.9-.4.8-6.8,1.3-8.4-.6s-1.5-4.2.5-5.2,6.4.7,7.8,2.9Z"/>
    <path class="st10" d="M596.7,480.9c2.4-.7,3.6.7,4.8,2.2s-.1,3.8-1.6,4.7c-2.1,1.3-4.3,0-5-1.3-1.1-2.1-.8-4.9,1.8-5.6Z"/>
    <path class="st2" d="M592.5,560.4c2.4-1.3,3.8-.6,4.5,1.2s.8,3.8-1.5,4.6-2.9.4-4.2-.8-.9-3.8,1.2-4.9Z"/>
    <path class="st2" d="M568.9,483.2c1.3-.7,2.4-.3,3,.5s.8,3.2,0,3.7-3,.3-3.8-.7-.8-2.6.9-3.5Z"/>
    <path class="st2" d="M484,615.3c-1.2-2.6.7-6,3.3-6.1s3.1,1.7,3.2,3-.7,3.1-2,3.9-3.7.9-4.5-.8Z"/>
    <path class="st2" d="M543.1,612.1c.5-.9,3.2-.7,4,.2s1.5,2.5.4,3.8-2.2,1.5-3.1,1c-1.6-.8-2.7-2.6-1.3-5Z"/>
    <path class="st2" d="M465.5,592.4c1.7-.7,3.2-.3,3.6.3.7,1.2.3,2.9-.6,3.3s-2.7.9-3.3.4-.8-3.6.4-4Z"/>
    <path class="st11" d="M592.5,207.2c3.5,1.9,8.5,0,12.7,1.2s3.3,5.8,3,8.9-2.5,4.3-4.9,6.6-1.8,6.4-.2,8l1.2,1.3v.8c.1,2.1,2.5,3.3,4.4,4.7-.3,1.2-1.8,1.4-2.2,1.2-.3,0-.6,0-.8,0l-1.2-1-.9-.9-1.1-1.2-.8-.9-1.2-1.2c-3.4-3.5-3.2-11.8,1-14.7s3-2.7,2.9-4.4-1-4.4-2.8-4.3c-3.9.3-7.6,1-11-.6.3-1.3-.3-2.5-1.4-2.9s-1.9-.5-2.8-.5v-1.1c0-.9.2-1.5.7-2l5.4,3Z"/>
    <path class="st0" d="M582.7,169.9c3.2,2.9,2.8,5.9,3.1,10.2.3,6.1,1.5,12-3.5,16.9,3.9,5.9,9.1,7.2,10.2,10.2l-5.4-3c-.5.5-.6,1.2-.8,2-2.2-1.5-5-4-6.8-6-3.5-3.9,1-7.6,2.1-10.7,2-5.7-.3-12.3-.8-17.7s1-1.6,1.9-1.9Z"/>
    <path class="st10" d="M558,196.5c1.3-.8,3.2-.4,4,.5s.6,3.2-.5,4.5-3.1.7-4.2-.7-1.2-3.2.7-4.3Z"/>
    <path class="st10" d="M557,273.6c1.4-.8,2.7-.6,3.6.7s.7,2.9-.5,3.8-2.9.3-3.8-.5c-1.4-1.2-1-3,.7-4Z"/>
    <path class="st12" d="M590.7,210.7c-.4,1.2-1.8,2.3-3.3,2.1s-2.4-1.4-2.3-2.8.8-1.7,1.5-2.6c.9,0,1.9,0,2.8.5s1.7,1.7,1.4,2.9Z"/>
    <path class="st6" d="M575.4,267.7c-2.2-.4-3.5-4.1-2.7-7,.5-.7,3-.6,3.3.3.6,1.4.9,3.6-.7,6.7Z"/>
    <path class="st12" d="M596.8,286.3c.9-.6,2.7-.3,3.4.3s.5,2.7-.5,3.7-2.3.2-3.1-.7-1-2.4.2-3.3Z"/>
    <path class="st8" d="M603.5,238l-1.1-1.2,1.1,1.2Z"/>
    <path class="st8" d="M601.7,235.9l-1.2-1.2,1.2,1.2Z"/>
    <path class="st8" d="M605.7,239.8c-.5-.2-.8-.6-1.2-1l1.2,1Z"/>
    <path class="st10" d="M567,658.2c.6-1,3.9-.9,4.9-.5s1,3.8.5,5.2-2.9.9-4.2.5-2.5-2.9-1.2-5.2Z"/>
    <path class="st10" d="M535.9,631.2c1-1,3.7-.3,4.6.8s.4,2.8-.5,3.7c-1.3,1.3-2.9,1.1-4.1,0s-2.1-2.6,0-4.6Z"/>
    <path class="st3" d="M462.4,662.6c.3,1.3-3.9,2.1-3.9,0s3.4-1.9,3.9,0Z"/>
    <path class="st3" d="M456.6,659.6c0,.5,0,1.7-.5,2s-1.4-.1-1.5-.5v-1.6s2,.1,2,.1Z"/>
    <path class="st0" d="M558.5,723.4c.3,0,.7,0,1,.1,0,1.3-1.3,1-1-.1Z"/>
    <path class="st10" d="M448.9,404.8c0-1.1,1.3-2.1,1.8-2.9,1.1-.1,2.1.1,2.8.6s1.6,2.2.9,3c-1.8,1.9-4.4.9-5.5-.7Z"/>
    <polygon class="st15" points="445.3 402.3 445.9 402.3 446.6 402.3 445.9 402.3 445.3 402.3 444.6 402.3 445.3 402.3"/>
    <path class="st10" d="M591.6,161.3c1.6-.8,3.1,0,3.8,1.3s-.3,2.8-1.3,3.5-2.4.6-3.2-.2c-1.2-1.2-.8-3.8.6-4.6Z"/>
    <path class="st8" d="M604.3,233.2l-1.2-1.3c.9,0,1.2.6,1.2,1.3Z"/>
    <path class="st2" d="M658.7,218.3c1.3-.8,3.4-.5,3.9.8s.3,2.4-.4,3.2-2.8.7-3.8,0-1.5-3.1.2-4.1Z"/>
    <path class="st10" d="M690.4,175.3c-.9,1.4-2.6.5-3.3-.5s-.9-2.4-.1-3.7,2.7-1.5,3.3-.5c1.1,1.7,1.1,3.1,0,4.7Z"/>
    <path class="st12" d="M729.4,208.7c2.3-1.1,2.9-.4,3.6,1.1s-.2,2.7-1.6,3.6-2.1,0-3-.9-1-2.8,1-3.8Z"/>
    <path class="st2" d="M693.4,162.8c-1.1-.5-1.4-2.4-1-4s2.2-.9,3.3-.4.5,2,.4,2.9-1.2,2.1-2.6,1.5Z"/>
    <path class="st12" d="M744.6,143.7c1.7-.8,3.6-.2,4.5.8s1,3.3-.4,4.5-3.3.7-4.5-.6-1.6-3.9.3-4.8Z"/>
    <path class="st12" d="M725,150c.7-1.2,2.3-1.2,3.3-.5s1.4,2.1.6,3.5-1.7.7-2.8.6-2.1-1.9-1.1-3.6Z"/>
    <path class="st10" d="M153.5,229.1c-2.2,1.6-3.9.4-4.7-1.5s-.4-3.8,2.3-4.3,3.5,0,4.1,1.6,0,2.9-1.7,4.2Z"/>
    <path class="st12" d="M129.3,141.6c1.6-.6,3.5.2,4.1,1.3s.4,3.4-1.2,4-3.2.5-4.4-1.1-.8-3.4,1.5-4.2Z"/>
    <path class="st12" d="M143.3,138.5c1.8-.7,3.3.1,3.9,1.6s.4,3.2-1,3.7-3.2.5-4.3-1-.7-3.4,1.4-4.2Z"/>
    <path class="st10" d="M242.9,164.5c1.2-1.1,3.7-.7,4.4.4s.6,2.9-.5,4.5-2.4.8-3.5-.3-2.1-3-.4-4.7Z"/>
    <path class="st10" d="M109.4,152.9c1-1.7,2.9-.9,4.1,0s2.4,2.4.5,3.7-2.4,1.2-3.4,1-2.2-2.9-1.1-4.6Z"/>
    <path class="st10" d="M348.6,147.9c.7,2.5-1.4,2.8-2.5,3.1-1.7.4-3-.2-3.4-1.5s-.3-3.4,1.7-4,3.9,1.2,4.2,2.4Z"/>
    <path class="st10" d="M218.4,192.6c1.3,2,.3,3.2-.8,3.7s-2.3.6-3.6,0-1.5-2.4-.5-4.2,4.1-.9,4.9.5Z"/>
    <path class="st6" d="M96.9,215.4c-.5,1.7-3.4,2.9-6.3,2.6s-1-1.5-.6-2.3c.7-1.4,3.3-2.7,5.3-2.6s1.9,1.2,1.6,2.3Z"/>
    <path class="st10" d="M347.7,110.1c-1.9.2-2.9,0-3.1-1.5s.3-2.8,2.6-3,2.6.7,3.1,1.5c.7,1.3-1,2.8-2.6,3Z"/>
    <path class="st12" d="M220.9,104.8c1.2-.5,3-.2,3.2.4.3,1.1.2,2.9-.6,3.2s-2.4.3-3,0c-.9-.6-1.5-2.8.4-3.6Z"/>
    <path class="st12" d="M234.1,148.6c1.6-.8,2.7-.2,3.7.9s.5,1.8-.6,2.5-2.5,1-3.4.5-.8-3.3.3-3.9Z"/>
    <path class="st2" d="M165.2,185.8c.8-1.2,2.7-.9,3.5-.3s.9,2.4.2,3.2-1.9,1.4-2.8,1.3c-1.4-.2-2.1-2.5-1-4.2Z"/>
    <path class="st2" d="M270.3,186.1c1.3.9-1.6,4.7-3,4.4s-2.1-1.4-2.3-2.2c-.4-1.2,1.5-2.2,2.5-2.6s2.2,0,2.9.4Z"/>
    <path class="st2" d="M173.3,218.4c.3-.7,2.8-.3,3.4.2s1.4,2.2.5,3.3-1.8.9-2.7.7-2.2-1.7-1.2-4.1Z"/>
    <path class="st2" d="M258.5,180.2c1.5.3,1,2.5,0,3.1-2.6,1.6-3.3-1.9-5.2-2.3s-.7-1,.3-1.3c1.1-.2,2.6,0,4.8.4Z"/>
    <path class="st3" d="M246.9,272.9l-.4-1.7c-2.8-1.5-3.8-2.6-4-4.8s.8-5,3.5-4.7c1.7,3.3,4.9,5.9,7.5,8.8.5,2.4-4.8,3.4-6.6,2.4Z"/>
    <path class="st10" d="M225,280.5c1.9-1.3,4.1-.8,4.6,1.1s.2,3.3-1.4,4-3,.7-4.4-.9-.9-2.7,1.3-4.2Z"/>
    <path class="st2" d="M191.9,265.8c0-1,0-2.5-1.2-3.3s-1.7-.7-2.7-1.1c-.1-1.6-.3-3.4.3-4.6s3.6-1.5,4.1-.5c.6,3,1.2,7-.5,9.5Z"/>
    <path class="st6" d="M264.4,257.9l2.3.2v11.7c-.1.6-1.7.5-1.7-.4v-1.4c.9-4.8-2.2-6.3-2.2-9.8l1.7-.3Z"/>
    <path class="st9" d="M241.3,271.3c-3.6.9-7.3,1.3-11.2-.1,7-3.6,10.7-5.5,11.2.1Z"/>
    <path class="st9" d="M257.9,302.2c-3-2.7,0-5.9.5-8.3s-1-4.4,1.5-3.7c1.6.6.7,5.2,0,6.8l-2,5.1Z"/>
    <path class="st12" d="M191.9,265.8c-.7,1.1-2.7,1.2-3.6.9s-1.5-1.4-1.5-2.3,1.2-2.2,1.2-2.9c1,.4,2.1.6,2.7,1.1,1.1.8,1.1,2.3,1.2,3.3Z"/>
    <path class="st2" d="M232,263.8c1.7-1.3,2.7-.6,3.1.5s.1,2.5-.5,3.2-2.6.6-3.2.1c-.9-.8-.7-2.8.5-3.8Z"/>
    <path class="st6" d="M227.2,224.8c.7-1.2,2.1-1.3,2.9-.6s1,1.9.1,2.9-1.1.9-2,.9c-1.4,0-2.1-1.5-1.1-3.2Z"/>
    <path class="st9" d="M252.1,237.2c1.2-.7,1.9-.1,2.3.4s.7,2.4,0,3.2-2.2-.2-2.9-.9-.8-1.9.7-2.7Z"/>
    <path class="st15" d="M286.7,289.1c.3,1.2-3.8,1.8-3.9-.2s3.4-2,3.9.2Z"/>
    <path class="st15" d="M278.7,280.6c.7-1.3,1.9-.6,2.1-.1s0,1.2-.5,1.5-1.7.2-1.6-1.4Z"/>
    <path class="st9" d="M246.7,240.6c.7-1.3,1.9-.6,2.1-.1s0,1.2-.5,1.5-1.7.2-1.6-1.4Z"/>
    <path class="st9" d="M246.9,272.9c-.4,1.2-1.1,1.1-1.5,1s-.8-1-.5-1.3l1.7-1.5.4,1.7Z"/>
    <rect class="st9" x="254.9" y="291.1" width=".7" height=".7" transform="translate(-131.3 265.9) rotate(-45)"/>
    <path class="st10" d="M35.4,226.5c1.1-.7,3.9-1,4.5,0s.2,4-.7,5-3.6,1.1-4.5-.4-.8-3.6.7-4.5Z"/>
    <path class="st2" d="M119.3,243.3c1-.5,2.4-.2,3.1.6s.7,2.8-.3,3.5-2.5.5-3.4-.7-1.4-2.5.6-3.4Z"/>
    <path class="st14" d="M266.7,258l-2.3-.2c0-.8.3-1.5.9-1.9s1.4,0,1.6.5,0,1.2-.2,1.6Z"/>
    <path class="st2" d="M301.9,59.8c1-.7,3.6-.5,4.1.4s0,2.6-.7,3.3c-1,1.1-2.4.8-3.5,0s-1.7-2.4.1-3.7Z"/>
    <path class="st7" d="M486,33.8c-1.8.2-1.7-1.8-1.3-1.9s1.5-.4,1.9-.3c.9.2,1.2,2-.7,2.1Z"/>
    <path class="st12" d="M556.1,703.9c1.8,1.5,3.2,3.6,2,5.7s-3.4,2.1-5.2,1.5c-2.3-.6-3.7-3-3-4.9s4.1-3.4,6.3-2.3Z"/>
    <path class="st2" d="M396.8,740.2c2-1.2,4.7-.8,5.5,1s.5,3.9-1.4,4.8-3.7.6-4.9-.9-1.6-3.4.8-4.9Z"/>
    <path class="st2" d="M453,742.9c2-1,3.4,0,4.1,1.6s.4,3.8-1.2,4.7-3.7,0-4.8-1.7,0-3.7,1.9-4.6Z"/>
    <path class="st7" d="M535.8,693.4c-1.5.3-2.8-.1-3.7-1s-1.8-2.7-1.4-4.5c1.7,1.9,3.9,3,5.1,5.5Z"/>
    <path class="st0" d="M556.4,731.4c0,.6.2,1.5-.4,2s-1.1.2-1.4.1c0-.4,0-.9.1-1.4s1.1-.9,1.7-.7Z"/>
    <path class="st2" d="M278.9,308.5c1.2-.6,3.2.4,3.6,1.2.6,1.2.1,3.5-1.3,4s-2.5,0-3.5-1.2-1-2.9,1.2-4.1Z"/>
    <path class="st12" d="M300.8,323.6c1.6-.9,3.3.1,3.7,1,.6,1.4.5,3.1-1,3.6s-2.6.5-3.3-.4-.9-3.3.5-4.2Z"/>
  </g>
  <ellipse class="st13" cx="555.2" cy="380.4" rx="30.4" ry="12.3"/>
  <g>
    <g>
      <path class="st5" d="M576.8,286.4c2.4-3.1,6-5.1,8.8-7.8,2.3-2.2,4.1-5.3,7.2-6.4,4.1-2.8,14.6-3.4,11.9,4-2.1,4.9-18.3,28.6-24.1,22.9-3.9-3.4-5-9.9-1.9-14.1l-1.9,1.4Z"/>
      <path class="st5" d="M594,280.3c-3.1-1.1-4.3-5.6-7-7.4-3.4.9-3.7,1.3-7.4-.4-2.7-1.3-4-4.9-7.5-4.6-3.3-3.6-3.9,5.6-7.4,2.7-3.4-8.2.4-17.6,7.9-22,3.2-2.4,6.8-1.5,10.2-.2,8,1.1,24.9,21.1,20.5,29-1.4,4.2-9,8.5-11,2.8h1.8Z"/>
      <path class="st13" d="M607.9,272.8c-2.2-4-5-7.5-7.6-11.1-1.4-2.3-3.2-4.5-5.2-6.3.1-3-9-5.3-11.5-6.4-2.8-.8-5.3-3.2-8.3-2.4-.5,0-.7.9-.1,1.1.6.4,1.3.3,1.9.6,2.5,1.4,5,2.8,7.7,3.7,0,0,0,0,0,0,2,1.1,4.1,1.9,6.1,2.9,1,.5,1.7,1.6,2.8,1.7.4,1,1.1,1.9,1.6,2.8,0-.1-.1-.2-.2-.3,3.3,5.2,6.6,10.4,9.8,15.7-1.3,2.8-3.4,5.1-5.4,7.4-2.5,3.2-5.2,6.4-7.9,9.4,0,0,0,0,0,0,0,0-.1.1,0,0-.5.6-1.1,1.1-1.7,1.6-.4-.2-.7-.6-1-.9-1.9-2.1-4.7-5.4-6.7-8,2-1.4,3.4-3.4,4.6-5.5.6-.5,1.6-1.5,2.2-2.4.2,0,.3,0,.5-.1.4.8,1,1.6,1.6,2.1h0c0,0,.2,0,.3.1,0,0,0,0,0,0,.3.2.8.2,1.1,0-.3.7.2,1.6,1,1.6h0c1.9,0,1.2-3-.5-2.2.4-1.6-1.6-2.4-2.6-3.3-.2-1-1.2-1.6-1.8-2.4,2-2.1,2.3-7.3-1.6-7.1-2,.3-1.9,2.9.1,3-.1.9-.3,1.9-1,2.5-.5-.2-.8,0-.9.6-1.8,1-3.7.5-5.4-.4,2-2.2,3.4-4.9,4.6-7.6-.2.3.2-.3.1-.2.2-.4.4-.9.6-1.3.3-.7-.6-1.4-1.2-.9-.8.7-1.5,1.7-2.4,2.5l.2-.2c-1.7,2-3.1,4.3-4.2,6.7-1.1-.7-2.3-.9-3.4-1.5-.3-.3-.7-.6-1-.9,0,0,0,0,0-.1,0,0,0,0,0,0,0,0,0,0,0,0,0,0,0,0,0,0,0-.5,0-.9,0-1.4,0,0,0,0,0,0-.4-2.2-.4-3.5.9-5.6,1-1.6,2.6-3.1,2.7-5.1,0-.7-1.1-1.1-1.5-.5.2-.1,0,0,0,0-1.1.8-1.4,2.2-2.3,3.1-.6,1.4-2,2.5-2.1,4.1-.6.1-.9.9-.8,1.2-.5,2.4-.4,5.8-3.4,6.3-.7-1.7-1-3.6-1.6-5.4,0,0,0,0,0,0-.2-1.2-.4-2.3-.7-3.5.4-2.5.5-4.2,2.5-6,1.5-1.6,3.1-3.1,4.7-4.6,1-.6,2.1-1.2,2.8-2.3.1-.2,0-.4-.3-.3-3.7.5-6.2,3.4-8.7,5.9-3.6,3.3-3.1,8.5-1.9,12.8.7,2,.6,5.1,3,5.7,2.2.3,4.3-1.3,5.2-3.2,1.3,1.9,3.7,2.4,5.6,3.6,2.8,1.8,6.1,3.4,9.3,1.6.4.6.8,1.1,1.3,1.6,0,0,0,0-.1-.1,0,0,.1.1.2.2-.3.3-.6.7-.8,1,0,0,0,0,0,0-.8.7-1.6,1.4-2.5,2-2.1,1.2-3.8,3.4-5.5,5.2-.6.8-2,1.1-1.8,2.3.4,2,1.8,3.6,2.5,5.5,1.1,2.9,2.2,6.5,2.8,9.3,0,1.7,1.8.9,2.4,0,.1-.1.1-.1,0,0,.7-.9,1.5-1.8,2.5-2.4.9-.4,2.2-1.8,3.1-2.8,2.2-1.9,4.2-3.9,6-6.1,4.6-3.4,9.2-7.9,10.7-13.6,1.6-.1,2-2.2,1.1-3.4ZM562.8,265.6s0,0,0,.1c0,0,0,0,0-.1ZM563.9,260.7c0,0,0-.1,0-.1,0,0,0,0,0,.1ZM566.1,269.6s0,0,0,0c0,0,0,0,0,0,0,0,0,0,0,0,0,0,0,0,0,0ZM566,269.6s0,0,0,0c0,0,0,0,0,0,0,0,0,0,0,0ZM566.1,269.6s0,0,0,0c0,0,0,0,0,0,0,0,0,0,0,0ZM566.1,269.6s0,0,0,0c0,0,0,0,0,0ZM566,269.6s0,0,0,0c0,0-.1,0,0,0ZM572.6,264.4s0,0,0,0c0,0,0,0,0,0ZM575.4,257.8s0,0,0,0c0,0,0,0,0,0ZM573.9,256s0-.1,0,0c0,0,0,0,0,0ZM573.1,257.1s0,0,0,0c0,0,0,0,0,0ZM569.5,263.2s0,0,0,0c0,0,0,0,0,0ZM572.1,269.7s0,0,0,0c0,0,.1.1,0,0ZM573.7,268.2s0,0,0,0c0,0,0,0,0,0ZM587.4,275.7s0,0,0,0c0,0,0,0,0,0,0,0,0,0,0,0ZM589.8,293.3s0,0,0,0c0,0,0,0,0,0ZM589.7,293.3c-.1,0,0,0,0,0h0ZM604.8,274.7s0,0,0,0c0,0,0,0,0,.1,0,0,0,0,0-.1Z"/>
    </g>
    <g>
      <path class="st5" d="M508.9,322.6c-4.5,3.2-7.7,8.6-11.8,12.4-3.2,3.9-3.5,12.6,2.5,13.9,5.3,1.5,8.7-3,11.8-6.5,1.7-2,7.6-6.7,7.3-9.1-2.3-4-6.7-19.8-12.2-10.7h2.5Z"/>
      <path class="st5" d="M509.6,337.8c4.9,3.1,11.4,1.3,16.2,4.6,5.3,4.3,3.1,11.7,2.9,17.5,0,2.3-2.2,4.2-4.2,2.6-1.1-.8-1.2-1.9-2.6-1-3.1,4-8.6,7.5-11.4,1-2.1-2.4-1.7-4.1,0-6.6,3.2-.5-.4-2.7-1.5-3.5-4-2.3-9.6-2-12.5-5.8-.4-7.3,9.1-11.2,14.8-7.6l-1.6-1.2Z"/>
      <g>
        <path class="st13" d="M531.4,351.8c-1.9-10.8-5-11.1-15-13.4,1.1-1.7,2.7-3,3.5-4.9,2.7-2-.3-3.6-1.3-5.5-2-2.8-4.2-5.3-5.7-8.5,0,.1.1.2.2.3-.6-1.7-2-2.6-3.6-1.4,0,0,0,0,0,0-.7.2-1.1,1.1-.7,1.8-1.8,1.8-2.9,4.2-4.8,6-3.3,3.6-7.8,7.8-10.5,12.3-.5,1.5,0,3.1.2,4.7-.6,2.7,1.3,5.8,4.1,6.2,1.4,1.1,3.1,1.7,4.5,2.8,1.1.6,2.4.6,3.5,1.3,1.7,1.2,3.9,1.1,5.5,2.5-2,.5-3.3,2.5-2.8,4.5.3,1.8-.3,3.9,1.5,5.1,6,4.4,7.3,2.3,12.1-2,1.7,3.1,5.6,2,6.2-1.2.2-.4.5-.8.6-1.3,4.1.7,2.3-6.7,2.3-9.1ZM528.7,359s0,0,0,0c0,0,0,0,0,0ZM514.3,341.2c-.1,0-.2,0-.3,0,.1,0,.2,0,.3,0ZM525.1,362.9s0,0,0,0c0,0,0,0,0,0ZM527.9,360.4c-1,.5-1.3,1.8-2.3,2.3,0,0,0,0,0,0-.2,0-.3.2-.5.2,0,0,0,0,0,0,0,0,0,0-.1,0,0,0,0,0,0,0-.5-.4-.9-.9-1.5-1.1.5-.9-.5-2-1.3-1.1-.1.2-.3.4-.5.5,0,0-.3.2,0,0-2.3,1-4,3.7-6.4,4.2-1.4-.7-3.1-1.3-4-2.5.1-1.3-.7-3.2,0-4.2-.2.1.1,0,.1-.1,0,0,0,0,0,0,.4-.2.9-.4,1.4-.5-.3,4.1,3.6,3.6,2.6,1,0,0,0,0,0,.1-.2-.5,0-1.1-.2-1.6,1.3.5,2.8,1.7,4.2.6,1-.7.7-2.3-.3-2.9-3.2-1.4-6.3-3.3-9.7-4.4-1.4,0-2.3-1.1-3.6-1.3-1.7,0-3.2-.7-4.7-1.3-1.4-2.6-5.5-1-4.7-5.4-.9-3.8-.5-4,1.9-6.9,3.4-4.7,8-8.4,10.9-13.4,1,3.3,2.9,6.1,4.6,9.1.6.9,1.2,2.8,1.9,4-.6.8-1.2,1.5-1.8,2.3-1.5,0-3.1-.3-4.4.5-.6.4-.5,1.5.2,1.8,4.1.7,8.2,1.7,12.2,3.3,2.4.6,4.5,1.8,5,4.4,1.5,3.5,1.8,7.2,1.9,10.9,0-.1,0-.3,0-.4,0,.5-.4.9-.2,1.5-.2,0-.4.2-.6.3Z"/>
        <path class="st13" d="M507.2,337.3c-.4-.2-.8-.1-1.2,0,0,0,0,0,0,0-2.4.1-1.1,1.8.5,1.9,1.1.2,1.8-1.5.7-2Z"/>
      </g>
    </g>
    <g>
      <path class="st13" d="M501,285.1c-.8-1-1.9-1.8-2.8-2.7-1.2-1.9-2.6-3.7-4.7-4.7,0,0,0,0,0,0-2-1-3.5-2.7-5.4-3.7-.9-.7-2.1.1-2,1.2.6,2.2,2.8,3.8,4.5,5,2,1.6,4.5,2.2,6.7,3.1.7.2,4.1,4.1,3.7,1.8Z"/>
      <path class="st13" d="M486.2,295.5c2.4.2,4.8.4,7.1,0,.9,0,2.3,0,2.7-.8,0-.5-.4-.6-.7-.7-.7-.8-1.8-1.5-2.9-1.5-3.4.4-7.1-.7-10.4.4-1.1.5-.7,2.4.6,2.2,0,0-.2,0-.2,0,1.3,0,2.5.5,3.8.5Z"/>
      <path class="st13" d="M496.7,304.7c-1.5.1-3.9,1-5.6,1.7-2,.6-4.1,1.1-5.2,3,0,0,0,0,0,0-1.2,1.3-.6,2.6,1.2,2.3,1.8-.7,3.5-1.4,5.4-1.8,1.4,0,8.1-4.7,4.2-5Z"/>
      <path class="st13" d="M501.8,293.1c-.7-.8-2.3-.9-3.1-.1-.6.8.3,1.6.9,2.1,1.3,1.2,3.4-.5,2.2-2Z"/>
    </g>
    <g>
      <path class="st0" d="M554.9,379.2c-9.9-11.8-18.6-24.5-27.7-37.1-7.3-11.4-16.9-22.5-18.7-36.3-3.4-17.7,11.7-36.9,28.9-40.4,10.3-.8,21.2.6,29.1,7.9,9.2,7.4,14.8,15.2,15.8,27.5,2,26.9-14.4,55.3-27,78.2,0,0-.1-.1-.2-.1l.3.3h-.4Z"/>
      <g>
        <path class="st13" d="M583.5,298.5c-.8-6.6-3.7-13-7.4-18.5-.7-.9-1.7-1.4-2.6-2.1-.5-.8-1.1-1.5-1.9-2-2-1.1-3.2-3.1-5.1-4.4-4.6-3.6-8.4-6.1-14.3-6.7-2,0-3.9-.9-5.9-.9-4.2-.2-8.5-.3-12.5,1-9.7,2.6-18.4,11.1-22.8,19.9-3.8,6.7-5.9,14.5-3.8,22.2,1.2,9.9,7.1,18.1,12.3,26.3,3.8,6,7.7,11.9,11.9,17.5,2.1,2.5,4.2,5,6.1,7.6.7,1.3,1.4,2.7,2.5,3.8,0,0-.2-.2-.3-.3,2.5,2.8,4.5,6.1,7,9,.5,1.1,1.2,2,2.2,2.6.7.7,1.1,1.5,1.8,2.2,0,0,0,0,0,0,.6.6,1.6,1.7,2.1,2.1.3.3.6.6.9.9-.2,1.1,1.3,2.3,2.2,1.5,1.7-2.1,2.3-4.8,3.8-7,1.9-3.2,3.3-6.7,5.4-9.8,2.2-4.8,4.1-9.7,6.6-14.4,4.1-8.4,8.3-17.9,10.2-27.4,1.1-4.2,2.3-8.5,1.9-12.9.2-3.4.3-6.7-.4-10ZM546.9,371s0,0,0,0c0,0,0-.2,0,0ZM546.9,371s0,0,0,0c0,0,0,0,0,0ZM559,374.3s0,0,0-.1c0,0,0,.1,0,.1ZM571.8,344.5s0,0,0,0c0,.1,0,0,0,0ZM571.8,344.5s0,0,0,0c0,0,0,0,0,0ZM580.8,301.4c.3,6.1.2,12.2-1.3,18.2v-.4c-1.1,6.5-3.2,12.7-5.5,18.8-1.6,5.5-4.2,10.4-6.5,15.6-1.4,2.8-2.3,5.8-3.7,8.6-2.5,3.7-4.5,7.7-7,11.5-.3.6-1.2,2.9-2,3.9-.2,0-.3,0-.4.2-.2-.3-.3-.5-.5-.8,0,.1,0-.1,0-.1-.5-.8-1.1-1.6-1.6-2.4,0,0,0,0,0,0,0,0,0,0,0,0-.8-1.4-1.9-2.5-3.1-3.5-.9-2.1-2.6-3.7-3.8-5.7,0,0,0,0,0,0-.9-1.9-2.2-3.5-3.4-5.2,0,.1.1.2.2.3-2.7-4.8-6.4-8.9-9.6-13.3-3.3-4-5.8-8.5-8.8-12.7-4.7-7.7-10.4-14.9-12.9-23.7-1-5-2.6-10.3-1.2-15.4,3.3-11.7,11.4-22.9,23.1-27.3,3.2-1.1,6.6-1.4,10-1.5,3-.2,5.8.9,8.7,1.1,5.8.4,10,3.7,14.3,7.2,1.2,1.6,2.8,2.7,4.4,3.9.8,1.3,2,2.1,3.2,3,4.1,5.7,6.6,12.6,7.2,19.6Z"/>
        <path class="st13" d="M556.4,301.8c-1.6-3.1-5.8-7.1-9.4-5.2-2.1-1.3-4.9-.5-6.9.7-7,3.6-7.3,15.5-1.8,20.6,2.3,2.2,5.5,3.2,8.6,2.8,4.3.7,8-2.8,9.9-6.3,2.1-3.9,1.8-8.8-.3-12.6Z"/>
      </g>
    </g>
  </g>
</svg>