<svg width="49" height="49" viewBox="0 0 49 49" fill="none" xmlns="http://www.w3.org/2000/svg">
<path d="M3.98074 24.0727L3.95662 24.4311L1.20329 23.2045L1.22704 22.8516L4.11989 22.005L4.09577 22.3634L1.66253 23.0471L1.66104 23.0692L3.98074 24.0727ZM2.88687 23.8662L2.98409 22.4215L3.28735 22.4419L3.19014 23.8866L2.88687 23.8662Z" fill="#0066A2"/>
<path d="M4.23531 21.3186L1.4517 20.8112L1.51314 20.4741L3.99773 20.927L4.23358 19.633L4.5326 19.6875L4.23531 21.3186Z" fill="#0066A2"/>
<path d="M1.93152 18.5338L4.67551 19.2241L4.59193 19.5563L1.84794 18.8661L1.93152 18.5338Z" fill="#0066A2"/>
<path d="M2.13152 17.6794L2.27453 17.2963L4.81119 17.2168L4.82279 17.1858L2.95869 15.4635L3.10171 15.0804L5.75251 16.0699L5.64042 16.3702L3.62643 15.6184L3.61676 15.6443L5.32153 17.2245L5.21331 17.5144L2.89009 17.591L2.88043 17.6169L4.89442 18.3687L4.78233 18.669L2.13152 17.6794Z" fill="#0066A2"/>
<path d="M6.11207 15.3763L3.62337 14.0301L4.43582 12.5281L4.70316 12.6727L4.05372 13.8733L4.89464 14.3282L5.502 13.2053L5.76935 13.35L5.16198 14.4728L6.00775 14.9303L6.6677 13.7102L6.93505 13.8548L6.11207 15.3763Z" fill="#0066A2"/>
<path d="M6.11004 10.0895L8.41728 11.7274L8.22535 11.9978L5.5213 11.9691L5.50531 11.9916L7.31685 13.2776L7.11852 13.557L4.81128 11.9191L5.00321 11.6487L7.71497 11.6761L7.73096 11.6536L5.91491 10.3644L6.11004 10.0895Z" fill="#0066A2"/>
<path d="M6.85303 9.68518L6.62602 9.48306L8.03716 7.89813L8.26417 8.10024L7.67252 8.76476L9.55876 10.4442L9.33092 10.7001L7.44468 9.02066L6.85303 9.68518Z" fill="#0066A2"/>
<path d="M10.7868 7.36693C10.9844 7.59054 11.1149 7.81946 11.1781 8.0537C11.2413 8.28794 11.2415 8.51144 11.1788 8.72421C11.1161 8.93698 10.9943 9.12327 10.8135 9.28307C10.6327 9.44288 10.4328 9.54083 10.214 9.57692C9.9951 9.61301 9.77332 9.5853 9.54862 9.49379C9.32393 9.40228 9.11277 9.24472 8.91515 9.02111C8.71752 8.7975 8.58711 8.56858 8.52391 8.33434C8.46071 8.1001 8.46047 7.8766 8.52319 7.66383C8.5859 7.45106 8.70767 7.26477 8.88849 7.10497C9.06931 6.94516 9.26915 6.84721 9.48801 6.81112C9.70688 6.77503 9.92866 6.80274 10.1533 6.89425C10.378 6.98577 10.5892 7.14332 10.7868 7.36693ZM10.5384 7.58651C10.3761 7.40293 10.2085 7.27514 10.0354 7.20313C9.86309 7.13051 9.69614 7.10781 9.53459 7.13504C9.37373 7.16166 9.22912 7.23169 9.10075 7.34514C8.97239 7.45859 8.88476 7.5938 8.83789 7.75078C8.7917 7.90714 8.7937 8.07562 8.8439 8.2562C8.89479 8.43617 9.00135 8.61795 9.1636 8.80153C9.32585 8.98511 9.49315 9.11321 9.6655 9.18583C9.83854 9.25784 10.0055 9.28054 10.1663 9.25392C10.3279 9.22669 10.4729 9.15635 10.6012 9.0429C10.7296 8.92945 10.8169 8.79454 10.8631 8.63818C10.9099 8.4812 10.9079 8.31273 10.857 8.13276C10.8068 7.95217 10.7006 7.77009 10.5384 7.58651Z" fill="#0066A2"/>
<path d="M12.6002 5.22797C12.5079 5.12139 12.3913 5.06915 12.2503 5.07125C12.1093 5.07336 11.9679 5.12247 11.8261 5.21859C11.7224 5.28887 11.643 5.36714 11.588 5.4534C11.5337 5.53914 11.5047 5.62609 11.5011 5.71425C11.4982 5.8019 11.522 5.88308 11.5727 5.9578C11.6151 6.02031 11.6664 6.06399 11.7266 6.08882C11.7871 6.11237 11.851 6.12299 11.9184 6.12068C11.9853 6.11761 12.0512 6.10804 12.1159 6.09196C12.1802 6.07512 12.2379 6.05768 12.2891 6.03966L12.5704 5.94247C12.6422 5.91714 12.7251 5.89326 12.8189 5.87082C12.9135 5.84787 13.0117 5.83754 13.1134 5.83982C13.2153 5.84083 13.3143 5.86383 13.4105 5.90881C13.5066 5.9538 13.5919 6.03119 13.6663 6.14098C13.7521 6.26754 13.7965 6.40438 13.7994 6.55151C13.8031 6.69811 13.762 6.84443 13.6763 6.99044C13.5913 7.13594 13.4589 7.26967 13.2789 7.39163C13.1112 7.50532 12.9476 7.5767 12.7882 7.60577C12.6295 7.63432 12.4823 7.62396 12.3465 7.57467C12.2115 7.52487 12.096 7.43903 12 7.31715L12.2928 7.1187C12.3604 7.20198 12.4397 7.25502 12.5308 7.27782C12.6222 7.29934 12.7175 7.29708 12.8167 7.27103C12.9161 7.24369 13.0123 7.1985 13.1053 7.13546C13.2136 7.06208 13.2989 6.97865 13.3613 6.88518C13.4231 6.79095 13.4578 6.69515 13.4652 6.59776C13.4721 6.49961 13.4466 6.40784 13.3888 6.32245C13.336 6.24468 13.2714 6.19613 13.1949 6.17679C13.1184 6.15745 13.0343 6.15656 12.9427 6.17413C12.8512 6.19169 12.7564 6.21694 12.6586 6.24988L12.3146 6.36288C12.096 6.4343 11.9002 6.45739 11.7273 6.43215C11.5544 6.40691 11.4145 6.31538 11.3075 6.15756C11.2186 6.02642 11.1766 5.88803 11.1813 5.74238C11.1863 5.59545 11.2307 5.4541 11.3145 5.31832C11.3985 5.18125 11.5152 5.06208 11.6647 4.96079C11.8156 4.85847 11.9682 4.79458 12.1223 4.76913C12.2758 4.74291 12.4185 4.75306 12.5501 4.79956C12.6826 4.84555 12.7907 4.92634 12.8746 5.04193L12.6002 5.22797Z" fill="#0066A2"/>
<path d="M15.1057 6.25434L13.8956 3.69668L15.4392 2.96637L15.5692 3.24112L14.3353 3.8249L14.7442 4.6891L15.8981 4.14315L16.0281 4.41789L14.8742 4.96385L15.2854 5.83306L16.5393 5.23983L16.6693 5.51458L15.1057 6.25434Z" fill="#0066A2"/>
<path d="M18.0522 5.01226L17.27 2.29308L18.2206 2.01958C18.41 1.96509 18.5757 1.95289 18.7176 1.983C18.8592 2.01222 18.9759 2.07305 19.0676 2.16549C19.1592 2.25705 19.224 2.36921 19.2622 2.50199C19.2958 2.61883 19.3028 2.72129 19.2831 2.80938C19.2643 2.89722 19.2276 2.97294 19.173 3.03656C19.1194 3.09991 19.0567 3.15342 18.9849 3.19707L18.9925 3.22362C19.0773 3.205 19.1693 3.21014 19.2687 3.23906C19.368 3.26798 19.4603 3.32386 19.5455 3.4067C19.6307 3.48953 19.6939 3.60265 19.7351 3.74605C19.7743 3.88236 19.7786 4.01387 19.748 4.14056C19.7174 4.26726 19.6444 4.3817 19.529 4.48389C19.4137 4.58607 19.249 4.66797 19.0348 4.7296L18.0522 5.01226ZM18.2975 4.62543L18.9507 4.4375C19.1658 4.37562 19.3065 4.29009 19.3729 4.18091C19.4399 4.07059 19.4562 3.95569 19.4218 3.83619C19.3953 3.74414 19.3474 3.66591 19.2781 3.60151C19.2085 3.53623 19.1236 3.49261 19.0233 3.47065C18.9228 3.44781 18.8133 3.45345 18.6947 3.48758L18.0255 3.68009L18.2975 4.62543ZM17.943 3.3933L18.5538 3.21759C18.6529 3.18907 18.7367 3.14388 18.8052 3.08201C18.8745 3.01989 18.9224 2.94668 18.949 2.86237C18.9764 2.77781 18.9764 2.68773 18.9489 2.59213C18.9145 2.47264 18.8437 2.38326 18.7366 2.32399C18.6292 2.26384 18.4852 2.25973 18.3046 2.31168L17.6833 2.49045L17.943 3.3933Z" fill="#0066A2"/>
<path d="M20.2111 4.43106L19.7203 1.64448L21.402 1.34825L21.4547 1.64759L20.1104 1.88438L20.2763 2.82594L21.5335 2.60449L21.5862 2.90383L20.329 3.12528L20.4958 4.07228L21.8619 3.83165L21.9146 4.13099L20.2111 4.43106Z" fill="#0066A2"/>
<path d="M22.2707 4.10309L22.0748 1.2804L23.0616 1.21192C23.2583 1.19827 23.4228 1.22101 23.5552 1.28014C23.6876 1.33836 23.789 1.42226 23.8594 1.53186C23.9297 1.64054 23.9696 1.7638 23.9792 1.90162C23.9876 2.02291 23.973 2.12456 23.9353 2.20658C23.8985 2.28853 23.8468 2.35491 23.7801 2.40569C23.7144 2.45642 23.6419 2.49561 23.5626 2.52328L23.5645 2.55084C23.6512 2.55036 23.7402 2.57466 23.8313 2.62373C23.9224 2.6728 24.0009 2.74675 24.0669 2.84558C24.1328 2.94441 24.171 3.06825 24.1813 3.2171C24.1911 3.35861 24.1678 3.4881 24.1113 3.60558C24.0548 3.72306 23.9595 3.81969 23.8254 3.89548C23.6912 3.97127 23.513 4.01687 23.2906 4.03231L22.2707 4.10309ZM22.5914 3.77615L23.2696 3.72909C23.4928 3.71359 23.6483 3.65941 23.7361 3.56653C23.8246 3.47267 23.8646 3.36372 23.856 3.23968C23.8494 3.14412 23.8189 3.0576 23.7646 2.98012C23.7102 2.90172 23.6363 2.8413 23.5429 2.79885C23.4494 2.75548 23.3411 2.73807 23.218 2.74662L22.5233 2.79483L22.5914 3.77615ZM22.5027 2.49712L23.1367 2.45312C23.2396 2.44598 23.331 2.41932 23.4109 2.37315C23.4917 2.32692 23.5539 2.26536 23.5975 2.18848C23.642 2.11153 23.6608 2.02343 23.6539 1.9242C23.6453 1.80015 23.5948 1.69794 23.5025 1.61757C23.41 1.53627 23.2701 1.50213 23.0827 1.51514L22.4376 1.5599L22.5027 2.49712Z" fill="#0066A2"/>
<path d="M24.8922 1.16969L24.87 3.99907L24.5274 3.99638L24.5496 1.16699L24.8922 1.16969Z" fill="#0066A2"/>
<path d="M26.2679 4.07453L25.3988 3.99069L25.6704 1.17429L26.5781 1.26185C26.8513 1.2882 27.0796 1.36714 27.2631 1.49865C27.4467 1.62925 27.5801 1.80452 27.6635 2.02446C27.7469 2.24348 27.7746 2.49877 27.7464 2.79031C27.7181 3.08368 27.6415 3.33122 27.5166 3.53292C27.3917 3.7337 27.2239 3.88129 27.013 3.97569C26.8023 4.06918 26.5539 4.10213 26.2679 4.07453ZM25.769 3.72105L26.2751 3.76987C26.5079 3.79233 26.7052 3.76603 26.867 3.69095C27.0288 3.61587 27.1553 3.49899 27.2465 3.3403C27.3376 3.18161 27.3943 2.98767 27.4164 2.75847C27.4383 2.53111 27.4201 2.33179 27.3616 2.16052C27.3033 1.98833 27.2046 1.85111 27.0655 1.74886C26.9264 1.64569 26.7469 1.58349 26.5269 1.56227L25.9823 1.50974L25.769 3.72105Z" fill="#0066A2"/>
<path d="M28.3837 4.34268L28.0345 4.25852L29.7075 1.75122L30.0513 1.83409L30.3984 4.82823L30.0492 4.74407L29.7853 2.23042L29.7638 2.22524L28.3837 4.34268ZM28.7716 3.29926L30.1792 3.63849L30.108 3.93398L28.7004 3.59475L28.7716 3.29926Z" fill="#0066A2"/>
<path d="M33.2341 3.60213C33.2672 3.4651 33.242 3.33982 33.1583 3.2263C33.0747 3.11277 32.9525 3.02624 32.7919 2.96669C32.6744 2.92315 32.5646 2.90405 32.4625 2.9094C32.3611 2.91506 32.2735 2.94202 32.1997 2.99027C32.1266 3.03884 32.0745 3.10544 32.0431 3.19008C32.0168 3.26089 32.0111 3.32802 32.0259 3.39146C32.0419 3.45436 32.0704 3.51257 32.1114 3.5661C32.1528 3.61877 32.1989 3.66678 32.2496 3.71014C32.3006 3.75264 32.3484 3.78949 32.3928 3.82069L32.6354 3.99312C32.6977 4.03687 32.7653 4.09041 32.8381 4.15374C32.9117 4.21739 32.9772 4.29125 33.0344 4.37534C33.0928 4.45888 33.1317 4.55284 33.1509 4.65723C33.1702 4.76162 33.1568 4.87599 33.1107 5.00035C33.0575 5.14372 32.9719 5.25933 32.8539 5.34721C32.7367 5.4354 32.5938 5.48703 32.4252 5.50212C32.2574 5.51752 32.0716 5.48744 31.8678 5.41189C31.6778 5.34145 31.5246 5.24981 31.4083 5.13694C31.2929 5.0244 31.2157 4.89857 31.1769 4.75943C31.139 4.62062 31.1417 4.47675 31.1852 4.32782L31.5168 4.45075C31.4883 4.55414 31.4912 4.64953 31.5256 4.73693C31.5612 4.8238 31.6184 4.90001 31.6973 4.96558C31.7773 5.03061 31.87 5.08265 31.9753 5.12171C32.098 5.16717 32.2154 5.18813 32.3278 5.18458C32.4404 5.18016 32.5385 5.15268 32.6221 5.10213C32.706 5.05071 32.7658 4.97664 32.8017 4.87992C32.8343 4.79183 32.8363 4.71103 32.8076 4.63751C32.7788 4.56398 32.7307 4.49507 32.6632 4.43075C32.5957 4.36643 32.5201 4.30403 32.4364 4.24354L32.1446 4.02925C31.9594 3.89283 31.8268 3.74693 31.7469 3.59157C31.667 3.4362 31.6601 3.26914 31.7264 3.09037C31.7815 2.94182 31.8697 2.82717 31.991 2.7464C32.1134 2.66509 32.2543 2.61906 32.4134 2.60833C32.5738 2.59705 32.7386 2.62279 32.9079 2.68554C33.0789 2.74893 33.2195 2.83593 33.3298 2.94655C33.4404 3.05631 33.515 3.17827 33.5537 3.31245C33.5932 3.44694 33.5903 3.58192 33.545 3.71738L33.2341 3.60213Z" fill="#0066A2"/>
<path d="M33.7608 5.62109C33.661 5.5715 33.5819 5.50188 33.5236 5.41224C33.4657 5.32176 33.4325 5.22299 33.424 5.11591C33.4163 5.00925 33.4373 4.90601 33.4868 4.80621C33.5368 4.70557 33.6065 4.62652 33.6957 4.56904C33.7862 4.51114 33.8847 4.47835 33.9914 4.47066C34.0985 4.46216 34.2019 4.4827 34.3017 4.53228C34.4024 4.58228 34.4812 4.65231 34.5383 4.74238C34.5966 4.83202 34.6296 4.93018 34.6373 5.03685C34.6462 5.1431 34.6256 5.24654 34.5756 5.34717C34.5261 5.44698 34.456 5.52583 34.3656 5.58372C34.2759 5.64203 34.1775 5.67544 34.0705 5.68395C33.9646 5.69204 33.8614 5.67109 33.7608 5.62109Z" fill="#0066A2"/>
<path d="M35.0465 6.8846L34.7479 6.68488L37.1847 4.91074L37.4786 5.10739L36.769 8.03685L36.4704 7.83712L37.092 5.38727L37.0736 5.37498L35.0465 6.8846ZM35.7713 6.03967L36.9747 6.84471L36.8057 7.09734L35.6023 6.29231L35.7713 6.03967Z" fill="#0066A2"/>
<path d="M37.3032 8.47886L39.1325 6.32027L39.3939 6.54179L37.7611 8.4685L38.7645 9.31885L38.568 9.55073L37.3032 8.47886Z" fill="#0066A2"/>
<path d="M40.8822 7.89558L38.9149 9.92922L38.6687 9.69099L40.6359 7.65736L40.8822 7.89558Z" fill="#0066A2"/>
<path d="M41.4985 8.45494L41.7608 8.76872L40.5754 11.0128L40.5966 11.0382L43.0154 10.2698L43.2776 10.5835L41.1067 12.3981L40.9011 12.1522L42.5505 10.7735L42.5328 10.7523L40.3163 11.4525L40.1178 11.2151L41.2002 9.158L41.1825 9.1368L39.5331 10.5155L39.3275 10.2695L41.4985 8.45494Z" fill="#0066A2"/>
<path d="M41.5313 13.0611L43.9303 11.5609L44.8358 13.0087L44.578 13.1699L43.8543 12.0125L43.0437 12.5195L43.7206 13.6018L43.4629 13.763L42.786 12.6806L41.9707 13.1905L42.7062 14.3665L42.4485 14.5277L41.5313 13.0611Z" fill="#0066A2"/>
<path d="M46.1329 15.6612L43.5697 16.8597L43.4293 16.5593L44.7887 14.2216L44.777 14.1966L42.7645 15.1376L42.6194 14.8272L45.1825 13.6287L45.323 13.9291L43.9609 16.2741L43.9726 16.2992L45.9901 15.3558L46.1329 15.6612Z" fill="#0066A2"/>
<path d="M46.1152 16.5184L46.4032 16.4214L47.0808 18.4324L46.7927 18.5295L46.5086 17.6863L44.1153 18.4927L44.0059 18.168L46.3992 17.3616L46.1152 16.5184Z" fill="#0066A2"/>
<path d="M46.1689 21.0803C45.8766 21.1401 45.6131 21.139 45.3785 21.077C45.144 21.015 44.9501 20.9037 44.797 20.7433C44.6438 20.5828 44.5431 20.3844 44.4947 20.1479C44.4464 19.9115 44.4611 19.6895 44.5389 19.4818C44.6168 19.274 44.7514 19.0956 44.9428 18.9465C45.1341 18.7973 45.376 18.6929 45.6684 18.6331C45.9607 18.5733 46.2242 18.5744 46.4588 18.6364C46.6933 18.6984 46.8872 18.8097 47.0403 18.9701C47.1935 19.1306 47.2942 19.329 47.3426 19.5654C47.3909 19.8019 47.3762 20.0239 47.2984 20.2316C47.2205 20.4393 47.0859 20.6178 46.8945 20.7669C46.7032 20.916 46.4613 21.0205 46.1689 21.0803ZM46.1025 20.7554C46.3425 20.7064 46.5369 20.6248 46.6856 20.5107C46.8345 20.3975 46.9374 20.2641 46.9944 20.1105C47.0515 19.9578 47.0629 19.7975 47.0286 19.6297C46.9942 19.4618 46.9207 19.3184 46.808 19.1995C46.6955 19.0815 46.5485 18.9993 46.3669 18.9527C46.1855 18.9071 45.9748 18.9088 45.7348 18.9579C45.4948 19.007 45.3003 19.0882 45.1514 19.2013C45.0027 19.3154 44.8998 19.4488 44.8427 19.6015C44.7857 19.7551 44.7744 19.9159 44.8087 20.0837C44.8431 20.2516 44.9165 20.3945 45.029 20.5125C45.1417 20.6314 45.2887 20.7137 45.4701 20.7593C45.6517 20.8058 45.8625 20.8045 46.1025 20.7554Z" fill="#0066A2"/>
<path d="M47.1203 23.7317C47.2587 23.7049 47.3622 23.6299 47.4307 23.5067C47.4993 23.3834 47.5273 23.2364 47.5148 23.0655C47.5056 22.9406 47.4774 22.8328 47.4301 22.742C47.3829 22.6522 47.322 22.5837 47.2475 22.5365C47.173 22.4903 47.0907 22.4705 47.0007 22.4771C46.9253 22.4826 46.8619 22.5052 46.8103 22.545C46.7597 22.5857 46.7186 22.6358 46.687 22.6954C46.6562 22.7549 46.6317 22.8167 46.6133 22.8808C46.5958 22.9449 46.5821 23.0036 46.5722 23.057L46.516 23.3493C46.5021 23.4242 46.4814 23.5079 46.454 23.6004C46.4267 23.6938 46.3867 23.784 46.334 23.871C46.2822 23.9588 46.2129 24.0332 46.1259 24.094C46.0389 24.1549 45.9293 24.1902 45.797 24.1999C45.6445 24.211 45.5038 24.1812 45.3749 24.1103C45.246 24.0403 45.1397 23.9317 45.0559 23.7845C44.9723 23.6383 44.9225 23.4568 44.9066 23.24C44.8918 23.0379 44.9116 22.8605 44.966 22.7078C45.0204 22.5561 45.1029 22.4337 45.2134 22.3406C45.3239 22.2485 45.4559 22.1913 45.6094 22.1689L45.6353 22.5217C45.5294 22.5387 45.4438 22.5809 45.3786 22.6485C45.3143 22.717 45.2688 22.8006 45.2418 22.8996C45.2159 22.9994 45.207 23.1053 45.2153 23.2174C45.2248 23.3478 45.2545 23.4634 45.3044 23.5641C45.3552 23.6647 45.4209 23.7426 45.5016 23.7976C45.5832 23.8526 45.6754 23.8763 45.7783 23.8688C45.872 23.8619 45.9463 23.8301 46.0013 23.7735C46.0562 23.7168 46.0989 23.6444 46.1294 23.5563C46.1599 23.4682 46.1853 23.3735 46.2056 23.2723L46.2794 22.9178C46.3266 22.6927 46.4043 22.5115 46.5124 22.3743C46.6206 22.2371 46.7698 22.1615 46.9599 22.1476C47.1179 22.136 47.2588 22.1686 47.3827 22.2454C47.5075 22.3231 47.6078 22.4321 47.6837 22.5725C47.7605 22.7137 47.8055 22.8743 47.8187 23.0544C47.832 23.2362 47.8113 23.4003 47.7564 23.5465C47.7025 23.6927 47.6225 23.8112 47.5165 23.9021C47.4105 23.9939 47.2866 24.0473 47.1445 24.0624L47.1203 23.7317Z" fill="#0066A2"/>
<path d="M44.987 25.3953L47.8082 25.6108L47.6781 27.3135L47.375 27.2904L47.4791 25.9293L46.5258 25.8565L46.4285 27.1293L46.1255 27.1062L46.2227 25.8333L45.2639 25.76L45.1582 27.1431L44.8552 27.12L44.987 25.3953Z" fill="#0066A2"/>
<path d="M44.6112 28.5729L47.3624 29.2334L47.1315 30.1953C47.0855 30.387 47.0144 30.5371 46.9183 30.6457C46.823 30.7545 46.7125 30.826 46.5868 30.8602C46.4621 30.8947 46.3325 30.8958 46.1982 30.8635C46.0799 30.8351 45.9874 30.7907 45.9205 30.7301C45.8533 30.6704 45.8055 30.6011 45.7771 30.5223C45.7485 30.4444 45.7328 30.3634 45.7303 30.2795L45.7034 30.273C45.6778 30.3559 45.6279 30.4335 45.5538 30.5056C45.4796 30.5778 45.3855 30.6305 45.2714 30.6638C45.1574 30.697 45.0278 30.6962 44.8827 30.6614C44.7448 30.6283 44.6283 30.5671 44.5331 30.478C44.438 30.3889 44.3745 30.2689 44.3425 30.1182C44.3104 29.9675 44.3205 29.7838 44.3725 29.567L44.6112 28.5729ZM44.8267 28.977L44.668 29.638C44.6158 29.8556 44.6208 30.0202 44.683 30.1318C44.746 30.2444 44.8379 30.3153 44.9588 30.3443C45.052 30.3667 45.1436 30.3636 45.2338 30.335C45.3249 30.3067 45.4048 30.2544 45.4733 30.178C45.5427 30.1018 45.5919 30.0037 45.6207 29.8837L45.7832 29.2067L44.8267 28.977ZM46.0734 29.2763L45.925 29.8943C45.901 29.9946 45.8989 30.0898 45.919 30.1799C45.9388 30.2708 45.9789 30.3486 46.0391 30.4133C46.0992 30.4789 46.1776 30.5233 46.2743 30.5465C46.3952 30.5755 46.5078 30.558 46.6122 30.4941C46.7175 30.4303 46.7921 30.3071 46.836 30.1244L46.9869 29.4956L46.0734 29.2763Z" fill="#0066A2"/>
<path d="M44.0469 30.7278L46.7126 31.6764L46.14 33.2852L45.8537 33.1833L46.3113 31.8973L45.4106 31.5768L44.9826 32.7795L44.6962 32.6776L45.1243 31.4749L44.2183 31.1525L43.7533 32.4593L43.4669 32.3574L44.0469 30.7278Z" fill="#0066A2"/>
<path d="M43.3193 32.6866L45.8684 33.9146L45.4391 34.8058C45.3536 34.9833 45.2523 35.115 45.1354 35.2008C45.0192 35.2869 44.8961 35.3335 44.7661 35.3403C44.6368 35.3476 44.51 35.3212 44.3855 35.2613C44.276 35.2085 44.1949 35.1454 44.1423 35.0721C44.0894 34.9995 44.0573 34.9217 44.0462 34.8387C44.0347 34.7564 44.0366 34.674 44.0518 34.5914L44.0269 34.5794C43.9844 34.655 43.9192 34.7203 43.8315 34.7751C43.7437 34.8299 43.6406 34.8615 43.522 34.8699C43.4035 34.8782 43.277 34.85 43.1426 34.7853C43.0148 34.7237 42.9139 34.6393 42.8398 34.5321C42.7657 34.4248 42.729 34.2941 42.7296 34.1401C42.7302 33.986 42.7789 33.8085 42.8756 33.6077L43.3193 32.6866ZM43.4444 33.1272L43.1494 33.7396C43.0523 33.9413 43.0224 34.1032 43.0596 34.2254C43.0973 34.3488 43.1721 34.4375 43.2841 34.4915C43.3704 34.5331 43.4607 34.5495 43.5549 34.5407C43.6499 34.5323 43.739 34.498 43.8222 34.4378C43.9061 34.3781 43.9749 34.2926 44.0285 34.1815L44.3307 33.5541L43.4444 33.1272ZM44.5995 33.6836L44.3237 34.2562C44.2789 34.3491 44.2568 34.4417 44.2574 34.534C44.2575 34.6271 44.2802 34.7116 44.3254 34.7876C44.3702 34.8644 44.4374 34.9244 44.527 34.9675C44.639 35.0215 44.7528 35.0282 44.8684 34.9878C44.9848 34.9478 45.0838 34.8431 45.1653 34.6739L45.4459 34.0913L44.5995 33.6836Z" fill="#0066A2"/>
<path d="M44.5675 36.4108L42.1213 34.9888L42.2935 34.6925L44.7397 36.1145L44.5675 36.4108Z" fill="#0066A2"/>
<path d="M41.3514 36.1833L41.8585 35.4724L44.162 37.1155L43.6325 37.8579C43.4731 38.0813 43.2906 38.2396 43.085 38.3328C42.8801 38.4265 42.6616 38.4545 42.4294 38.4168C42.198 38.3795 41.9631 38.2759 41.7247 38.1058C41.4847 37.9347 41.3086 37.7446 41.1964 37.5355C41.0849 37.327 41.0409 37.1079 41.0646 36.8781C41.0889 36.6488 41.1846 36.4172 41.3514 36.1833ZM41.907 35.9279L41.6117 36.3418C41.4759 36.5323 41.4 36.7163 41.3842 36.8939C41.3683 37.0716 41.4063 37.2395 41.4982 37.3978C41.5901 37.5561 41.7297 37.7021 41.9172 37.8359C42.1032 37.9685 42.2849 38.0523 42.4625 38.0873C42.6408 38.1229 42.809 38.1059 42.967 38.0366C43.1259 37.9677 43.2695 37.8433 43.3979 37.6634L43.7156 37.218L41.907 35.9279Z" fill="#0066A2"/>
<path d="M40.0662 37.8697L40.3131 37.6088L41.6541 40.3082L41.411 40.5651L38.6417 39.3749L38.8886 39.114L41.1998 40.137L41.215 40.121L40.0662 37.8697ZM40.7778 38.7257L39.7826 39.7774L39.5618 39.5685L40.557 38.5168L40.7778 38.7257Z" fill="#0066A2"/>
<path d="M38.2968 42.4491C38.3994 42.5457 38.5207 42.5858 38.6608 42.5694C38.8008 42.553 38.9365 42.4897 39.0678 42.3797C39.1638 42.2992 39.2348 42.2133 39.2808 42.1218C39.326 42.031 39.346 41.9416 39.3407 41.8535C39.3346 41.766 39.3026 41.6877 39.2447 41.6185C39.1961 41.5606 39.1407 41.5224 39.0782 41.5038C39.0157 41.4866 38.951 41.4825 38.8841 41.4916C38.8179 41.5015 38.7534 41.5177 38.6906 41.5403C38.6284 41.5636 38.5727 41.5868 38.5236 41.61L38.2537 41.7353C38.1848 41.7678 38.1048 41.8 38.0137 41.8318C37.922 41.8643 37.8254 41.8846 37.724 41.8926C37.6225 41.902 37.5216 41.8892 37.4214 41.8542C37.3212 41.8193 37.2284 41.751 37.1432 41.6493C37.045 41.5321 36.987 41.4005 36.9691 41.2544C36.9505 41.109 36.9765 40.9592 37.0469 40.8053C37.1166 40.6519 37.2348 40.5054 37.4014 40.3657C37.5567 40.2356 37.7121 40.1479 37.8678 40.1028C38.0227 40.0582 38.1702 40.0535 38.3103 40.0888C38.4497 40.1246 38.5733 40.1982 38.6812 40.3097L38.4101 40.5369C38.3344 40.4609 38.2501 40.4162 38.1572 40.4028C38.0641 40.3907 37.9695 40.4027 37.8735 40.4387C37.7774 40.476 37.6863 40.5307 37.6002 40.6029C37.4999 40.6869 37.4235 40.7786 37.371 40.8779C37.319 40.978 37.2943 41.0768 37.2968 41.1744C37.2999 41.2728 37.3346 41.3615 37.4009 41.4405C37.4613 41.5125 37.5305 41.5543 37.6086 41.5657C37.6867 41.5772 37.7704 41.5695 37.8597 41.5427C37.949 41.5159 38.0407 41.4812 38.1347 41.4384L38.4654 41.291C38.6756 41.1977 38.868 41.1548 39.0426 41.1623C39.2171 41.1699 39.3656 41.2467 39.4881 41.3928C39.5899 41.5142 39.6458 41.6476 39.6559 41.793C39.6659 41.9397 39.6361 42.0848 39.5666 42.2284C39.4969 42.3733 39.3929 42.5037 39.2546 42.6197C39.1148 42.7369 38.9696 42.8159 38.8189 42.8569C38.6688 42.8986 38.5258 42.9031 38.3901 42.8702C38.2537 42.8379 38.1379 42.7685 38.0426 42.6621L38.2968 42.4491Z" fill="#0066A2"/>
<path d="M36.2892 41.902C36.3816 41.8397 36.4812 41.8053 36.5879 41.7988C36.6952 41.7932 36.7975 41.813 36.8948 41.8585C36.9914 41.9045 37.0708 41.9736 37.1331 42.066C37.196 42.1592 37.2304 42.2588 37.2363 42.3647C37.242 42.472 37.2218 42.5739 37.1759 42.6705C37.1304 42.7678 37.0615 42.8476 36.9691 42.9099C36.8759 42.9728 36.7761 43.0068 36.6696 43.012C36.5629 43.0184 36.4612 42.9986 36.3647 42.9527C36.2679 42.908 36.188 42.8391 36.1252 42.7459C36.0629 42.6535 36.0289 42.5537 36.0232 42.4464C36.0167 42.3397 36.0362 42.2376 36.0817 42.1403C36.1269 42.0443 36.1961 41.9648 36.2892 41.902Z" fill="#0066A2"/>
<path d="M34.55 42.3975L34.871 42.2364L35.2116 45.2313L34.8954 45.3899L32.6977 43.327L33.0188 43.1659L34.8428 44.9155L34.8626 44.9056L34.55 42.3975ZM34.9272 43.4448L33.6331 44.0943L33.4968 43.8226L34.7908 43.1732L34.9272 43.4448Z" fill="#0066A2"/>
<path d="M32.0519 43.5712L33.021 46.2295L32.6991 46.3469L31.8341 43.9741L30.5984 44.4246L30.4943 44.139L32.0519 43.5712Z" fill="#0066A2"/>
<path d="M30.7968 46.9707L30.0079 44.2534L30.3369 44.1579L31.1258 46.8751L30.7968 46.9707Z" fill="#0066A2"/>
<path d="M29.9918 47.223L29.589 47.2936L28.2364 45.1462L28.2038 45.1519L27.662 47.6313L27.2592 47.7019L26.7708 44.9149L27.0865 44.8596L27.4576 46.9771L27.4848 46.9723L27.9847 44.7022L28.2895 44.6488L29.5315 46.6136L29.5588 46.6088L29.1877 44.4914L29.5034 44.436L29.9918 47.223Z" fill="#0066A2"/>
<path d="M25.9779 44.9526L26.0831 47.7801L24.3766 47.8436L24.3653 47.5398L25.7294 47.4891L25.6938 46.5337L24.4181 46.5812L24.4068 46.2774L25.6825 46.23L25.6468 45.2691L24.2607 45.3206L24.2494 45.0169L25.9779 44.9526Z" fill="#0066A2"/>
<path d="M21.4334 47.6535L21.6623 44.8333L21.9928 44.8601L23.3499 47.1991L23.3774 47.2013L23.5571 44.987L23.8986 45.0148L23.6698 47.835L23.3393 47.8081L21.9771 45.4632L21.9496 45.4609L21.7694 47.6807L21.4334 47.6535Z" fill="#0066A2"/>
<path d="M20.7092 47.218L20.6515 47.5164L18.568 47.1133L18.6258 46.8149L19.4993 46.9839L19.979 44.5044L20.3154 44.5694L19.8357 47.049L20.7092 47.218Z" fill="#0066A2"/>
<path d="M16.709 45.0191C16.8012 44.7353 16.9322 44.5067 17.1018 44.3333C17.2715 44.1599 17.4639 44.0461 17.679 43.992C17.8941 43.938 18.1164 43.9482 18.3459 44.0228C18.5755 44.0974 18.7613 44.2198 18.9036 44.3899C19.0459 44.5601 19.1347 44.7652 19.17 45.0053C19.2053 45.2453 19.1769 45.5072 19.0846 45.791C18.9924 46.0749 18.8615 46.3035 18.6918 46.4769C18.5222 46.6503 18.3298 46.7641 18.1146 46.8181C17.8995 46.8722 17.6772 46.8619 17.4477 46.7874C17.2182 46.7128 17.0323 46.5904 16.89 46.4202C16.7478 46.2501 16.659 46.0449 16.6237 45.8049C16.5883 45.5649 16.6168 45.303 16.709 45.0191ZM17.0243 45.1216C16.9486 45.3546 16.9237 45.5639 16.9496 45.7496C16.9746 45.9349 17.0399 46.0903 17.1454 46.2156C17.25 46.3406 17.3838 46.4296 17.5467 46.4825C17.7097 46.5355 17.8706 46.5423 18.0297 46.5029C18.1878 46.4633 18.3319 46.3759 18.462 46.241C18.5911 46.1057 18.6936 45.9216 18.7693 45.6886C18.845 45.4556 18.8704 45.2464 18.8454 45.061C18.8195 44.8754 18.7542 44.7201 18.6496 44.595C18.5441 44.4697 18.4098 44.3806 18.2469 44.3276C18.084 44.2747 17.9234 44.2681 17.7653 44.3077C17.6063 44.3471 17.4622 44.4344 17.333 44.5696C17.2029 44.7046 17.1001 44.8886 17.0243 45.1216Z" fill="#0066A2"/>
<path d="M13.937 44.5332C13.8917 44.6667 13.9056 44.7937 13.9787 44.9143C14.0518 45.0349 14.1656 45.1321 14.3203 45.2058C14.4333 45.2598 14.541 45.2887 14.6432 45.2925C14.7446 45.296 14.8343 45.277 14.9122 45.2356C14.9893 45.1938 15.0473 45.1322 15.0861 45.0507C15.1186 44.9825 15.1304 44.9162 15.1214 44.8517C15.1111 44.7876 15.0879 44.7271 15.0519 44.6701C15.0154 44.6139 14.9738 44.5619 14.9272 44.5142C14.8802 44.4673 14.836 44.4263 14.7945 44.3912L14.5685 44.1976C14.5103 44.1485 14.4478 44.0891 14.381 44.0194C14.3134 43.9494 14.2548 43.87 14.2054 43.7811C14.1547 43.6926 14.1245 43.5955 14.1147 43.4899C14.1049 43.3842 14.1286 43.2715 14.1857 43.1517C14.2515 43.0137 14.3471 42.9063 14.4726 42.8294C14.5972 42.7521 14.7442 42.7135 14.9135 42.7137C15.082 42.7134 15.2644 42.7601 15.4605 42.8537C15.6434 42.9409 15.7877 43.0459 15.8934 43.1688C15.9983 43.2913 16.0638 43.4235 16.0899 43.5656C16.1152 43.7073 16.0995 43.8503 16.0429 43.9947L15.7236 43.8425C15.7613 43.7421 15.767 43.6468 15.7406 43.5566C15.713 43.4669 15.6628 43.3859 15.5902 43.3135C15.5164 43.2415 15.4287 43.1814 15.3273 43.133C15.2093 43.0767 15.0942 43.0452 14.982 43.0387C14.8694 43.0329 14.7692 43.0515 14.6814 43.0943C14.5933 43.138 14.527 43.2064 14.4826 43.2995C14.4421 43.3843 14.4329 43.4646 14.4549 43.5404C14.4769 43.6162 14.5186 43.6892 14.5801 43.7593C14.6415 43.8294 14.7112 43.8984 14.7891 43.9661L15.0605 44.2058C15.2327 44.3583 15.3516 44.5155 15.4172 44.6775C15.4828 44.8394 15.4746 45.0064 15.3925 45.1785C15.3243 45.3215 15.2262 45.4277 15.0981 45.4973C14.9688 45.5672 14.8244 45.6004 14.6649 45.5968C14.5042 45.5936 14.3424 45.5531 14.1794 45.4754C14.0148 45.3969 13.8826 45.2976 13.7827 45.1775C13.6824 45.0583 13.6191 44.9301 13.5926 44.793C13.5654 44.6555 13.5804 44.5213 13.6377 44.3904L13.937 44.5332Z" fill="#0066A2"/>
<path d="M13.5491 41.852L11.9538 44.1888L10.5435 43.226L10.7149 42.975L11.8422 43.7446L12.3812 42.955L11.3269 42.2352L11.4983 41.9842L12.5526 42.704L13.0948 41.9098L11.9492 41.1277L12.1205 40.8767L13.5491 41.852Z" fill="#0066A2"/>
<path d="M10.9861 39.9324L9.04239 41.9886L8.32353 41.3091C8.1803 41.1737 8.08557 41.0372 8.03936 40.8997C7.99251 40.7629 7.98556 40.6315 8.0185 40.5055C8.05081 40.3801 8.11442 40.2673 8.20933 40.1669C8.29285 40.0785 8.37755 40.0204 8.46342 39.9926C8.54863 39.9641 8.63248 39.9572 8.71498 39.9719C8.79682 39.9858 8.87478 40.0126 8.94887 40.0523L8.96785 40.0322C8.90873 39.9687 8.86636 39.8868 8.84074 39.7865C8.81511 39.6863 8.81632 39.5784 8.84435 39.4629C8.87237 39.3475 8.93764 39.2355 9.04014 39.1271C9.13758 39.024 9.24864 38.9535 9.37332 38.9154C9.498 38.8774 9.63365 38.8821 9.78027 38.9294C9.9269 38.9768 10.0812 39.077 10.2432 39.2301L10.9861 39.9324ZM10.5283 39.9179L10.0344 39.451C9.87173 39.2972 9.72653 39.2196 9.59878 39.2179C9.46973 39.2164 9.3625 39.2607 9.27708 39.3511C9.21128 39.4207 9.16827 39.5017 9.14807 39.5942C9.12723 39.6873 9.13284 39.7826 9.1649 39.88C9.19633 39.9782 9.25688 40.0697 9.34657 40.1544L9.85258 40.6328L10.5283 39.9179ZM9.64758 40.8496L9.18574 40.4131C9.11078 40.3422 9.02926 40.293 8.94118 40.2655C8.85243 40.2374 8.76501 40.2333 8.67892 40.2534C8.59216 40.2727 8.51461 40.3186 8.44627 40.3909C8.36086 40.4812 8.31987 40.5876 8.32331 40.71C8.32611 40.833 8.39579 40.9591 8.53233 41.0882L9.0022 41.5324L9.64758 40.8496Z" fill="#0066A2"/>
<path d="M9.39801 38.3749L7.25353 40.2208L6.13953 38.9265L6.3699 38.7282L7.26037 39.7628L7.98497 39.1391L7.15218 38.1716L7.38254 37.9733L8.21533 38.9408L8.94412 38.3135L8.03923 37.2622L8.26959 37.0639L9.39801 38.3749Z" fill="#0066A2"/>
<path d="M8.0574 36.7737L5.73145 38.3849L5.16817 37.5717C5.05593 37.4097 4.99138 37.2566 4.97451 37.1126C4.95688 36.9691 4.97717 36.839 5.0354 36.7225C5.09286 36.6065 5.17838 36.5092 5.29195 36.4305C5.39189 36.3613 5.48675 36.3219 5.57651 36.3124C5.66575 36.3021 5.74923 36.3126 5.82695 36.344C5.90414 36.3745 5.9749 36.4168 6.03922 36.4709L6.06194 36.4551C6.01718 36.3808 5.99261 36.292 5.98821 36.1886C5.98381 36.0852 6.00723 35.9799 6.05847 35.8727C6.1097 35.7655 6.19665 35.6694 6.31931 35.5844C6.43591 35.5037 6.55913 35.4575 6.68897 35.446C6.81881 35.4345 6.95059 35.467 7.0843 35.5436C7.21801 35.6202 7.34832 35.7501 7.47524 35.9333L8.0574 36.7737ZM7.61244 36.6651L7.22538 36.1064C7.09794 35.9224 6.97188 35.8164 6.84721 35.7885C6.72126 35.7603 6.60718 35.7816 6.50497 35.8524C6.42622 35.907 6.36744 35.9774 6.3286 36.0637C6.28902 36.1505 6.27486 36.2449 6.28612 36.3469C6.29664 36.4494 6.33703 36.5514 6.40731 36.6529L6.80381 37.2253L7.61244 36.6651ZM6.55849 37.3952L6.19661 36.8728C6.13787 36.788 6.06824 36.723 5.98772 36.678C5.90668 36.6321 5.82198 36.6101 5.73361 36.612C5.64472 36.613 5.55938 36.6419 5.47761 36.6985C5.3754 36.7693 5.31335 36.865 5.29148 36.9855C5.26885 37.1064 5.31104 37.2442 5.41803 37.3986L5.7862 37.9302L6.55849 37.3952Z" fill="#0066A2"/>
<path d="M4.20216 36.0195L6.64586 34.5932L6.81857 34.8891L4.37487 36.3154L4.20216 36.0195Z" fill="#0066A2"/>
<path d="M5.99097 33.336L6.35901 34.1278L3.79318 35.3205L3.40883 34.4936C3.29313 34.2447 3.2455 34.0079 3.26593 33.783C3.28552 33.5586 3.36902 33.3547 3.51641 33.1714C3.66298 32.9885 3.86906 32.8354 4.13466 32.7119C4.40194 32.5877 4.65417 32.5283 4.89137 32.5339C5.12773 32.5398 5.34002 32.6097 5.52822 32.7437C5.71559 32.878 5.86984 33.0754 5.99097 33.336ZM5.93896 33.9452L5.72466 33.4842C5.62605 33.2721 5.5034 33.1153 5.35671 33.0138C5.21002 32.9124 5.04517 32.8626 4.86216 32.8643C4.67915 32.8661 4.48324 32.9155 4.27443 33.0126C4.06729 33.1089 3.90469 33.2256 3.78663 33.3627C3.66774 33.5003 3.59945 33.6549 3.58177 33.8267C3.56326 33.9988 3.60059 34.1851 3.69377 34.3855L3.92438 34.8817L5.93896 33.9452Z" fill="#0066A2"/>
<path d="M5.15229 31.3782L5.25587 31.7221L2.24699 31.5432L2.145 31.2046L4.55469 29.3939L4.65827 29.7378L2.62143 31.2342L2.6278 31.2554L5.15229 31.3782ZM4.05573 31.5699L3.63821 30.1835L3.92924 30.0959L4.34676 31.4823L4.05573 31.5699Z" fill="#0066A2"/>
<path d="M2.06431 27.5686C1.92934 27.6093 1.83403 27.6945 1.77837 27.824C1.72272 27.9536 1.70981 28.1027 1.73965 28.2714C1.76146 28.3948 1.80051 28.4992 1.85678 28.5846C1.91289 28.6692 1.98043 28.7311 2.05941 28.7705C2.13823 28.8089 2.22208 28.8203 2.31097 28.8046C2.38534 28.7914 2.44615 28.7624 2.49341 28.7176C2.5396 28.672 2.5754 28.6179 2.60083 28.5555C2.62535 28.4931 2.64349 28.4291 2.65526 28.3634C2.66612 28.2979 2.67378 28.2381 2.67824 28.184L2.70438 27.8875C2.71059 27.8116 2.72261 27.7262 2.74045 27.6314C2.75813 27.5357 2.78877 27.4419 2.83238 27.35C2.87492 27.2574 2.93636 27.1763 3.01668 27.1069C3.09701 27.0376 3.20247 26.9913 3.33308 26.9682C3.48364 26.9416 3.62666 26.957 3.76215 27.0144C3.89748 27.0709 4.01429 27.1681 4.11257 27.306C4.21069 27.4429 4.27868 27.6185 4.31653 27.8325C4.35182 28.032 4.35019 28.2105 4.31162 28.3679C4.27289 28.5244 4.20331 28.6546 4.10288 28.7584C4.00229 28.8613 3.87678 28.9317 3.72633 28.9695L3.66473 28.6212C3.76833 28.5936 3.84915 28.5428 3.90717 28.4689C3.96412 28.3943 4.00096 28.3064 4.01767 28.2053C4.03332 28.1033 4.03136 27.9971 4.01179 27.8864C3.98901 27.7576 3.9477 27.6457 3.88785 27.5506C3.8271 27.4556 3.75378 27.3849 3.66792 27.3383C3.58115 27.2919 3.48697 27.2777 3.38539 27.2957C3.29287 27.312 3.22217 27.3512 3.17326 27.4132C3.12436 27.4751 3.08923 27.5515 3.06787 27.6423C3.04651 27.733 3.03089 27.8298 3.021 27.9326L2.98369 28.2927C2.9596 28.5215 2.90074 28.7096 2.80711 28.8571C2.71347 29.0046 2.57279 29.095 2.38504 29.1282C2.22904 29.1558 2.08554 29.1377 1.95452 29.0738C1.82245 29.0093 1.71154 28.911 1.6218 28.7791C1.53099 28.6465 1.46986 28.4913 1.43842 28.3135C1.40666 28.1339 1.41062 27.9686 1.45032 27.8175C1.4891 27.6666 1.5566 27.5406 1.65281 27.4394C1.74887 27.3373 1.86678 27.2715 2.00656 27.2421L2.06431 27.5686Z" fill="#0066A2"/>
<path d="M3.53838 26.098C3.54629 26.2091 3.52641 26.3126 3.47874 26.4083C3.43016 26.5041 3.36189 26.5828 3.27394 26.6445C3.18592 26.7052 3.08633 26.7396 2.97516 26.7475C2.86308 26.7554 2.75963 26.7356 2.66482 26.6878C2.56902 26.6392 2.49075 26.5709 2.43001 26.4829C2.36835 26.395 2.33357 26.2954 2.32566 26.1842C2.31768 26.0722 2.33802 25.9687 2.38667 25.8738C2.43434 25.7781 2.50218 25.6998 2.5902 25.6391C2.67723 25.5775 2.77679 25.5427 2.88887 25.5347C3.00004 25.5268 3.10352 25.5472 3.19931 25.5958C3.29504 25.6434 3.37374 25.7112 3.4354 25.7992C3.49608 25.8863 3.5304 25.9859 3.53838 26.098Z" fill="#0066A2"/>
<path d="M24.5 0.486316C37.7632 0.486316 48.5137 11.2368 48.5137 24.5C48.5137 37.7632 37.7632 48.5137 24.5 48.5137C11.2368 48.5137 0.486316 37.7558 0.486316 24.5C0.486316 11.2442 11.2368 0.486316 24.5 0.486316ZM24.5 0C17.9568 0 11.8042 2.54947 7.17684 7.17684C2.54947 11.8042 0 17.9568 0 24.5C0 31.0432 2.54947 37.1958 7.17684 41.8232C11.8042 46.4505 17.9568 49 24.5 49C31.0432 49 37.1958 46.4505 41.8232 41.8232C46.4505 37.1958 49 31.0432 49 24.5C49 17.9568 46.4505 11.8042 41.8232 7.17684C37.1884 2.54947 31.0432 0 24.5 0Z" fill="#0066A2"/>
<path d="M16.5053 19.6442L12.4305 20.4547L12.4821 20.7274H12.5705C12.7695 20.7274 12.8874 21.0221 12.9095 21.1474C12.9389 21.2874 12.9316 21.4568 12.9242 21.6042L12.1137 30.6232C12.0474 31.3158 11.9737 31.9347 11.4358 32.1926L11.3032 32.2589L11.3989 32.7379L14.5821 32.1042L14.4863 31.6253L14.3242 31.64C14.0368 31.6621 13.7421 31.5737 13.6463 31.1168C13.6021 30.9032 13.5874 30.5568 13.6021 30.3358L13.8011 27.3737C15.4295 27.0495 17.5884 28.0516 17.9789 29.9747C18.1116 30.6305 18.0232 30.8442 17.8168 30.9253L17.5958 31.0063L17.6916 31.4853L22.2821 30.5716L22.1863 30.0926H22.0168C21.5158 30.0779 21.3684 29.7758 21.1179 29.26L16.4979 19.6589L16.5053 19.6442ZM13.8674 26.2832L14.1474 21.7074L16.5421 26.7179C15.9011 26.2611 14.5895 26.1358 13.8674 26.2758V26.2832Z" fill="#0066A2"/>
<path d="M36.7389 27.0863C36.0537 27.72 35.0663 28.0074 33.8874 28.2432L28.3242 29.3558L28.2284 28.8768L28.3832 28.8105C28.8032 28.6189 28.98 28.2874 28.8768 27.7789L27.1305 19.0179C27.0274 18.5021 26.6663 17.9937 26.2316 18.0305L26.0695 18.0453L26.0105 17.7579L32.9884 16.3653C34.3516 16.0926 35.1621 16.4095 35.3832 17.5074C35.5453 18.3179 34.9853 19.3863 33.6958 20.6389C35.9874 21.2505 37.2916 22.5695 37.6232 24.2053C37.8368 25.2811 37.5126 26.3937 36.7463 27.1011L36.7389 27.0863ZM31.1389 17.7874C30.24 17.9642 30.0926 18.2516 30.2768 19.1874L30.7484 21.5379C32.0526 20.7274 32.8411 19.4084 32.6642 18.5316C32.5242 17.8389 32.0011 17.6179 31.1389 17.7874ZM32.5758 21.5084C31.9274 22.0389 31.3305 22.4516 30.9621 22.6358L31.6695 26.1874C31.8537 27.1084 31.9274 27.4032 32.9221 27.2042C33.9832 26.9905 34.6168 25.7453 34.2705 24.0137C34.0568 22.9526 33.46 22.0832 32.5758 21.5011V21.5084Z" fill="#0066A2"/>
<path d="M26.5779 26.4379C26.8284 26.6737 27.0347 26.9095 27.2042 27.1379C27.3737 27.3663 27.4842 27.58 27.5211 27.7716L26.2537 28.0368C26.2389 27.9484 26.2021 27.86 26.1579 27.7642C26.1137 27.6684 26.0547 27.5726 25.9884 27.4621C25.76 27.7421 25.4874 27.9853 25.1705 28.1842C24.8537 28.3832 24.5 28.5158 24.1095 28.5895C23.7484 28.6632 23.4242 28.6632 23.1368 28.5895C22.8568 28.5158 22.6284 28.3832 22.4589 28.1916C22.2895 28 22.1863 27.7642 22.1495 27.4768C22.1126 27.1895 22.1495 26.8726 22.2747 26.5116C22.3853 26.1874 22.5326 25.8632 22.7168 25.5537C22.9011 25.2442 23.0853 24.9642 23.2547 24.7211C22.96 24.4558 22.6947 24.1979 22.4442 23.94C22.1937 23.6895 21.98 23.4537 21.8105 23.24L24.8537 22.6137C24.9568 22.8053 25.0526 22.9968 25.1484 23.1884C25.2442 23.38 25.34 23.5716 25.4432 23.7705L25.2221 23.8147C25.0674 23.6968 24.8979 23.6453 24.6989 23.6674L24.6474 23.6821L23.4095 23.94C23.7779 24.1979 24.1684 24.4853 24.5884 24.7947C25.0084 25.1042 25.4137 25.4284 25.8042 25.76C25.8632 25.5537 25.8926 25.34 25.9 25.1189C25.9074 24.8979 25.8853 24.6842 25.8337 24.4779L26.7326 24.2937C26.8137 24.6474 26.8358 25.0084 26.8063 25.3768C26.7768 25.7453 26.6958 26.0989 26.5705 26.4379H26.5779ZM23.6821 27.3884C23.7705 27.5358 23.8884 27.6242 24.0284 27.6463C24.1684 27.6684 24.3158 27.6463 24.4705 27.58C24.6253 27.5137 24.7874 27.4032 24.9495 27.2558C25.1116 27.1084 25.2589 26.9316 25.3916 26.7326C25.2147 26.5484 25.0305 26.3568 24.8242 26.1653C24.6179 25.9737 24.4042 25.7747 24.1832 25.5684C24.1168 25.6863 24.0358 25.8263 23.9474 25.9884C23.8589 26.1505 23.7853 26.3126 23.7189 26.4821C23.6526 26.6516 23.6158 26.8137 23.5937 26.9684C23.5789 27.1232 23.6084 27.2632 23.6821 27.3811V27.3884Z" fill="#0066A2"/>
</svg>
